<svg width="40" height="40" viewBox="0 0 40 40" fill="none" xmlns="http://www.w3.org/2000/svg">
<path d="M30.8564 15.2188H9.59961V23.5615C9.59961 24.6413 9.60081 25.403 9.64941 25.998C9.69725 26.5835 9.78729 26.9371 9.92773 27.2129C10.2163 27.7791 10.6769 28.2398 11.2432 28.5283C11.519 28.6689 11.8723 28.7598 12.458 28.8076C13.053 28.8562 13.8148 28.8564 14.8945 28.8564H25.5615C26.6412 28.8564 27.403 28.8562 27.998 28.8076C28.5838 28.7598 28.937 28.6689 29.2129 28.5283C29.7791 28.2398 30.2398 27.7791 30.5283 27.2129C30.6688 26.9371 30.7588 26.5835 30.8066 25.998C30.8552 25.403 30.8564 24.6413 30.8564 23.5615V15.2188ZM24.5068 9.33984V7.60059H15.9492V9.33984C15.9491 9.78161 15.5902 10.1396 15.1484 10.1396C14.7068 10.1395 14.3487 9.7815 14.3486 9.33984V7.60254C13.5495 7.60395 12.9474 7.60943 12.458 7.64941C11.8725 7.69725 11.519 7.78727 11.2432 7.92773C10.6769 8.21625 10.2163 8.67694 9.92773 9.24316C9.7872 9.51898 9.69728 9.87244 9.64941 10.458C9.60079 11.0531 9.59961 11.8156 9.59961 12.8955V13.6191H30.8564V12.8955C30.8564 11.8156 30.8553 11.0531 30.8066 10.458C30.7588 9.87244 30.6689 9.51898 30.5283 9.24316C30.2398 8.67691 29.7791 8.21625 29.2129 7.92773C28.9371 7.78725 28.5836 7.69726 27.998 7.64941C27.5087 7.60943 26.9065 7.60395 26.1074 7.60254V9.33984C26.1073 9.78146 25.7492 10.1394 25.3076 10.1396C24.8658 10.1396 24.5069 9.78161 24.5068 9.33984ZM32.4561 23.5615C32.4561 24.615 32.4565 25.4536 32.4014 26.1289C32.3454 26.8133 32.2286 27.4006 31.9541 27.9395C31.5122 28.8067 30.8067 29.5122 29.9395 29.9541C29.4004 30.2287 28.8126 30.3464 28.1279 30.4023C27.4527 30.4575 26.6147 30.4561 25.5615 30.4561H14.8945C13.8414 30.4561 13.0033 30.4575 12.3281 30.4023C11.6434 30.3464 11.0556 30.2287 10.5166 29.9541C9.64929 29.5122 8.94387 28.8068 8.50195 27.9395C8.22747 27.4006 8.11063 26.8133 8.05469 26.1289C7.99951 25.4536 8 24.615 8 23.5615V12.8955C8 11.842 7.99952 11.0035 8.05469 10.3281C8.11063 9.64343 8.22731 9.05561 8.50195 8.5166C8.94385 7.6494 9.6494 6.94483 10.5166 6.50293C11.0556 6.22829 11.6434 6.11063 12.3281 6.05469C13.0033 5.99955 13.8414 6 14.8945 6H25.5615C26.6147 6 27.4527 5.99954 28.1279 6.05469C28.8126 6.11063 29.4004 6.22829 29.9395 6.50293C30.8066 6.94484 31.5122 7.64941 31.9541 8.5166C32.2287 9.05561 32.3454 9.64343 32.4014 10.3281C32.4565 11.0035 32.4561 11.842 32.4561 12.8955V23.5615Z" fill="#018E56"/>
<path d="M30.8564 15.2188H9.59961V23.5615C9.59961 24.6413 9.60081 25.403 9.64941 25.998C9.69725 26.5835 9.78729 26.9371 9.92773 27.2129C10.2163 27.7791 10.6769 28.2398 11.2432 28.5283C11.519 28.6689 11.8723 28.7598 12.458 28.8076C13.053 28.8562 13.8148 28.8564 14.8945 28.8564H25.5615C26.6412 28.8564 27.403 28.8562 27.998 28.8076C28.5838 28.7598 28.937 28.6689 29.2129 28.5283C29.7791 28.2398 30.2398 27.7791 30.5283 27.2129C30.6688 26.9371 30.7588 26.5835 30.8066 25.998C30.8552 25.403 30.8564 24.6413 30.8564 23.5615V15.2188ZM24.5068 9.33984V7.60059H15.9492V9.33984C15.9491 9.78161 15.5902 10.1396 15.1484 10.1396C14.7068 10.1395 14.3487 9.7815 14.3486 9.33984V7.60254C13.5495 7.60395 12.9474 7.60943 12.458 7.64941C11.8725 7.69725 11.519 7.78727 11.2432 7.92773C10.6769 8.21625 10.2163 8.67694 9.92773 9.24316C9.7872 9.51898 9.69728 9.87244 9.64941 10.458C9.60079 11.0531 9.59961 11.8156 9.59961 12.8955V13.6191H30.8564V12.8955C30.8564 11.8156 30.8553 11.0531 30.8066 10.458C30.7588 9.87244 30.6689 9.51898 30.5283 9.24316C30.2398 8.67691 29.7791 8.21625 29.2129 7.92773C28.9371 7.78725 28.5836 7.69726 27.998 7.64941C27.5087 7.60943 26.9065 7.60395 26.1074 7.60254V9.33984C26.1073 9.78146 25.7492 10.1394 25.3076 10.1396C24.8658 10.1396 24.5069 9.78161 24.5068 9.33984ZM32.4561 23.5615C32.4561 24.615 32.4565 25.4536 32.4014 26.1289C32.3454 26.8133 32.2286 27.4006 31.9541 27.9395C31.5122 28.8067 30.8067 29.5122 29.9395 29.9541C29.4004 30.2287 28.8126 30.3464 28.1279 30.4023C27.4527 30.4575 26.6147 30.4561 25.5615 30.4561H14.8945C13.8414 30.4561 13.0033 30.4575 12.3281 30.4023C11.6434 30.3464 11.0556 30.2287 10.5166 29.9541C9.64929 29.5122 8.94387 28.8068 8.50195 27.9395C8.22747 27.4006 8.11063 26.8133 8.05469 26.1289C7.99951 25.4536 8 24.615 8 23.5615V12.8955C8 11.842 7.99952 11.0035 8.05469 10.3281C8.11063 9.64343 8.22731 9.05561 8.50195 8.5166C8.94385 7.6494 9.6494 6.94483 10.5166 6.50293C11.0556 6.22829 11.6434 6.11063 12.3281 6.05469C13.0033 5.99955 13.8414 6 14.8945 6H25.5615C26.6147 6 27.4527 5.99954 28.1279 6.05469C28.8126 6.11063 29.4004 6.22829 29.9395 6.50293C30.8066 6.94484 31.5122 7.64941 31.9541 8.5166C32.2287 9.05561 32.3454 9.64343 32.4014 10.3281C32.4565 11.0035 32.4561 11.842 32.4561 12.8955V23.5615Z" fill="url(#paint0_linear_9045_99423)"/>
<path d="M28.1049 15.7634L20.7468 32.9022H14.5978L22.0112 16.2036H12.5508V12.9023H28.1049V15.7634Z" fill="#005D38"/>
<path d="M28.1049 15.7634L20.7468 32.9022H14.5978L22.0112 16.2036H12.5508V12.9023H28.1049V15.7634Z" fill="url(#paint1_linear_9045_99423)"/>
<path d="M28.1066 15.7634L20.7485 32.9022H16.8204L24.2339 16.2036H14.7734V12.9023H28.1066V15.7634Z" fill="#009B5D"/>
<path d="M28.1066 15.7634L20.7485 32.9022H16.8204L24.2339 16.2036H14.7734V12.9023H28.1066V15.7634Z" fill="url(#paint2_linear_9045_99423)" fill-opacity="0.6"/>
<rect x="11.5508" y="11.8008" width="1" height="5" fill="white"/>
<rect x="15.6016" y="28.1875" width="1" height="5" transform="rotate(23.5343 15.6016 28.1875)" fill="white"/>
<rect x="22.9336" y="27.7969" width="1" height="5" transform="rotate(23.2 22.9336 27.7969)" fill="white"/>
<rect x="28.1016" y="11.8008" width="1" height="5" fill="white"/>
<defs>
<linearGradient id="paint0_linear_9045_99423" x1="20.1046" y1="30.3541" x2="28.6383" y2="-2.62182" gradientUnits="userSpaceOnUse">
<stop stop-color="#00341F" stop-opacity="0.48"/>
<stop offset="0.449412" stop-color="#00341F" stop-opacity="0"/>
<stop offset="1" stop-color="#00341F"/>
</linearGradient>
<linearGradient id="paint1_linear_9045_99423" x1="20.8125" y1="22.5403" x2="24.2568" y2="10.4151" gradientUnits="userSpaceOnUse">
<stop stop-color="#00341F" stop-opacity="0"/>
<stop offset="1" stop-color="#00341F"/>
</linearGradient>
<linearGradient id="paint2_linear_9045_99423" x1="24.4876" y1="27.0996" x2="16.1687" y2="14.2918" gradientUnits="userSpaceOnUse">
<stop stop-color="#8CFFD1" stop-opacity="0.45"/>
<stop offset="0.45" stop-color="#8CFFD1" stop-opacity="0"/>
<stop offset="1" stop-color="#8CFFD1"/>
</linearGradient>
</defs>
</svg>
