<svg width="40" height="40" viewBox="0 0 40 40" fill="none" xmlns="http://www.w3.org/2000/svg">
<g clip-path="url(#clip0_9045_99614)">
<path d="M20.8403 11.6407C22.4909 11.7825 24.1491 11.8053 25.802 11.7089C27.6322 11.6027 29.346 11.5028 31.4688 10.8835C31.4688 10.8835 32.2441 10.6566 36.5964 8.82246L34.8624 18.4279C34.8624 18.4279 34.5417 22.0259 26.4737 25.2107L24.4254 30.6417C24.4254 30.6417 23.135 33.9148 19.9687 34.2147C16.8023 34.5146 12.9953 33.8789 12.9953 33.8789C15.8959 30.7746 17.2181 27.9085 17.8904 25.838C18.5967 23.6642 18.6345 22.2119 19.9078 15.9906C20.2858 14.1431 20.6181 12.6316 20.8403 11.6407Z" fill="#B5B5B5"/>
<path d="M31.9199 19.9239C30.1168 21.7009 28.1148 23.5408 25.9019 25.3963C24.0831 26.921 22.3004 28.3038 20.5846 29.5607L22.5548 23.7382L26.5154 20.1324L31.9199 19.9239Z" fill="#969696"/>
<path d="M20.6378 9.00475C22.2565 9.37907 23.8996 9.63627 25.5544 9.77435C27.3865 9.92783 29.1022 10.0711 31.2974 9.75656C31.2974 9.75656 32.0992 9.64088 36.6797 8.43559L33.5994 17.7269C33.5994 17.7269 32.772 21.2538 24.3113 23.2745L21.5094 28.3769C21.5094 28.3769 19.7652 31.444 16.5792 31.2938C13.3931 31.1436 9.70331 29.974 9.70331 29.974C13.0222 27.3022 14.7404 24.6437 15.7008 22.6831C16.7095 20.6248 16.9524 19.1882 19.0967 13.1916C19.7333 11.4108 20.277 9.95715 20.6378 9.00475Z" fill="#D9D9D9"/>
<path d="M19.2095 28.7262C19.1954 28.7984 19.3449 28.8831 19.3485 28.9472C19.3521 29.0113 19.2212 29.1326 19.2511 29.1894C19.2811 29.2462 19.4429 29.198 19.504 29.2332C19.5651 29.2684 19.5862 29.4329 19.6624 29.4357C19.7256 29.4384 19.7768 29.2736 19.8508 29.2534C19.9386 29.2298 20.0881 29.3361 20.1729 29.2861C20.2576 29.236 20.233 29.0525 20.3069 28.9881C20.3808 28.9238 20.5583 28.9622 20.6162 28.887C20.674 28.8118 20.591 28.6459 20.6328 28.5624C20.6746 28.479 20.8581 28.4378 20.8774 28.3482C20.8911 28.2755 20.7416 28.1908 20.738 28.1267C20.7335 28.0506 20.8657 27.9417 20.8353 27.8846C20.8049 27.8274 20.6436 27.8759 20.5829 27.8412C20.5222 27.8064 20.5007 27.6415 20.424 27.6383C20.3613 27.636 20.3101 27.8008 20.2357 27.8206C20.1483 27.8446 19.9983 27.7379 19.9136 27.7879C19.8289 27.8379 19.8535 28.0215 19.7796 28.0858C19.7057 28.1502 19.5281 28.1117 19.4703 28.1869C19.4125 28.2621 19.4955 28.4281 19.4519 28.5141C19.4084 28.6002 19.2306 28.6383 19.2095 28.7262Z" fill="#193157"/>
<path fill-rule="evenodd" clip-rule="evenodd" d="M29.9968 12.8762C26.6316 13.2897 24.461 13.1564 22.144 12.7174L22.1319 12.7823C24.456 13.2227 26.6334 13.3561 30.0051 12.9418L30.0051 12.9418C30.9882 12.8205 31.9637 12.6463 32.9276 12.4199L32.9122 12.3556C31.9507 12.5814 30.9774 12.7552 29.9968 12.8762Z" fill="#193157"/>
<path d="M34.8796 10.9528C34.7165 10.9884 34.5153 11.0568 34.3622 11.0894C34.1458 11.1322 34.0106 11.0411 33.9275 10.8526C33.9184 10.8314 33.9157 10.7933 33.9079 10.7699C34.0701 10.7291 34.2285 10.6844 34.3889 10.6358C34.3287 10.598 34.2958 10.5737 34.2166 10.5948C34.0199 10.6557 33.8191 10.7026 33.6157 10.7351C33.5939 10.6805 33.57 10.6272 33.5478 10.5713C33.7481 10.5445 33.9843 10.474 34.173 10.4328C34.3932 10.3861 34.512 10.4841 34.5968 10.6683C34.6068 10.6886 34.6103 10.7267 34.6195 10.7497C34.4585 10.7926 34.3011 10.8382 34.1393 10.8829C34.1625 10.9043 34.1909 10.9193 34.2216 10.9266C34.2523 10.9338 34.2844 10.9331 34.3147 10.9244C34.4669 10.8857 34.6391 10.8341 34.7966 10.7946C34.8257 10.8479 34.8539 10.8995 34.8796 10.9528Z" fill="#193157"/>
<path d="M33.0435 10.6479C33.1619 10.7308 33.4036 11.0338 33.4583 11.1006C33.5129 11.1674 33.4739 11.1162 33.4739 11.1162C33.5 11.1881 33.5144 11.2345 33.5387 11.296L33.714 11.2699C33.6931 11.2145 33.6722 11.1521 33.6539 11.1001L33.6663 11.0374C33.6964 10.8752 33.7179 10.7116 33.7307 10.5471C33.6744 10.5522 33.6152 10.5663 33.5576 10.5745L33.5394 10.7454C33.533 10.7986 33.5283 10.8432 33.5167 10.8955C33.4955 10.8743 33.5115 10.8903 33.4842 10.8578C33.4568 10.8253 33.3801 10.7416 33.3449 10.7021C33.3098 10.6627 33.2829 10.6341 33.2477 10.5989C33.1784 10.6095 33.1101 10.6259 33.0435 10.6479Z" fill="#193157"/>
<path d="M32.706 11.2924C32.7269 11.3461 32.7469 11.4007 32.7673 11.4539C32.9318 11.4335 33.0932 11.4022 33.2589 11.3865C33.2237 11.2934 33.2311 11.3207 33.1876 11.1977C33.144 11.0747 33.05 10.8009 32.9809 10.6566C32.9224 10.6665 32.8671 10.6837 32.8091 10.6948C32.8887 10.8755 32.9553 11.0552 33.0206 11.2389C32.9158 11.2569 32.8111 11.2774 32.706 11.2924Z" fill="#193157"/>
<path d="M31.8048 10.8729C31.8515 11.0249 31.9862 11.3221 32.0224 11.436C32.0586 11.55 32.0302 11.4646 32.052 11.54C32.0958 11.5312 32.1402 11.5262 32.1849 11.5251C32.2073 11.4801 32.1849 11.5251 32.2181 11.4572C32.2513 11.3893 32.3271 11.2094 32.3641 11.1195C32.4137 11.239 32.4568 11.3659 32.5021 11.4898C32.5605 11.4844 32.6186 11.4758 32.6761 11.4642C32.6195 11.3213 32.5085 11.0245 32.4715 10.9141C32.4345 10.8036 32.4593 10.8777 32.4332 10.8023C32.3934 10.8112 32.3528 10.8161 32.312 10.8168L32.275 10.8955C32.2431 10.9638 32.1646 11.1411 32.1302 11.2328C32.0732 11.1089 32.0233 10.9817 31.981 10.8521C31.9191 10.861 31.8602 10.86 31.8048 10.8729Z" fill="#193157"/>
<path d="M31.4868 10.8912C31.6231 10.8746 31.6084 10.8901 31.7239 10.8743C31.7381 10.9329 31.7557 10.9906 31.7767 11.0472C31.8019 11.1268 31.8763 11.2945 31.9063 11.3721C31.9363 11.4496 31.9386 11.4769 31.9595 11.5453C31.863 11.5481 31.7331 11.5686 31.644 11.5659C31.4236 11.5598 31.2936 11.4548 31.2166 11.2603C31.2066 11.2356 31.2121 11.2153 31.2082 11.1923C31.1776 11.0234 31.3847 10.9031 31.4868 10.8912ZM31.3879 11.2312C31.401 11.2816 31.4324 11.3253 31.476 11.3539C31.5199 11.3846 31.5725 11.4002 31.6259 11.3983C31.651 11.3984 31.6943 11.3941 31.7224 11.3938C31.6841 11.2794 31.6423 11.1668 31.604 11.0524C31.5784 11.0554 31.5399 11.0532 31.5196 11.0544C31.4986 11.0549 31.478 11.0602 31.4594 11.0698C31.4408 11.0795 31.4247 11.0932 31.4122 11.11C31.3997 11.1268 31.3912 11.1463 31.3874 11.1669C31.3836 11.1875 31.3845 11.2088 31.3901 11.229L31.3879 11.2312Z" fill="#193157"/>
<path d="M30.5308 11.1177C30.5243 11.0896 30.5243 11.0604 30.5307 11.0323C30.537 11.0042 30.5497 10.9779 30.5677 10.9555C30.5856 10.933 30.6085 10.9149 30.6344 10.9025C30.6604 10.8901 30.6889 10.8838 30.7177 10.8839C30.8112 10.8772 30.9458 10.8839 31.0454 10.8833C31.0558 10.9222 31.0703 10.985 31.0785 11.0175L31.0881 11.0556L31.1196 11.1821C31.1318 11.2297 31.1458 11.2878 31.1615 11.3484C31.1772 11.409 31.1986 11.4987 31.2147 11.5641C31.155 11.5631 31.0939 11.5616 31.0342 11.5624L30.9823 11.3446L30.9139 11.3462L30.7892 11.5671C30.7234 11.5687 30.6576 11.5703 30.5919 11.571C30.6354 11.4919 30.6816 11.4119 30.7238 11.3332C30.6333 11.2893 30.5474 11.2277 30.5303 11.1181L30.5308 11.1177ZM30.7017 11.1098C30.7035 11.1204 30.7075 11.1306 30.7134 11.1396C30.7193 11.1486 30.727 11.1563 30.736 11.1623C30.752 11.1756 30.7724 11.1824 30.7932 11.1814C30.8391 11.1824 30.8962 11.1799 30.9447 11.18C30.9347 11.1371 30.9246 11.0951 30.9137 11.0522C30.8622 11.0534 30.8003 11.0512 30.7514 11.0541C30.7441 11.0537 30.7368 11.055 30.7301 11.0579C30.7234 11.0608 30.7175 11.0653 30.7129 11.0709C30.7083 11.0766 30.7051 11.0832 30.7035 11.0904C30.7019 11.0975 30.7021 11.1049 30.7039 11.112L30.7017 11.1098Z" fill="#193157"/>
<path fill-rule="evenodd" clip-rule="evenodd" d="M32.7931 13.6042C32.7932 13.6042 32.7932 13.6042 32.7873 13.5717C32.7814 13.5391 32.7814 13.5391 32.7813 13.5391L32.7633 13.5423C32.7513 13.5444 32.7336 13.5476 32.7103 13.5516C32.6639 13.5598 32.5956 13.5717 32.5082 13.5868C32.3336 13.6169 32.0828 13.6598 31.7784 13.7104C31.1696 13.8118 30.3464 13.9446 29.4885 14.0702C28.6306 14.1959 27.7384 14.3143 26.9915 14.3871C26.6181 14.4235 26.2814 14.4485 26.0037 14.4572C25.7251 14.466 25.5086 14.4583 25.374 14.4307L25.361 14.4954C25.5038 14.5248 25.7271 14.5321 26.006 14.5233C26.2858 14.5145 26.6241 14.4894 26.9982 14.4529C27.7466 14.38 28.64 14.2613 29.4984 14.1356C30.3568 14.0099 31.1805 13.8771 31.7895 13.7756C32.0941 13.7249 32.345 13.6821 32.5197 13.6519C32.6071 13.6368 32.6755 13.6249 32.722 13.6168C32.7452 13.6127 32.763 13.6096 32.775 13.6074L32.7931 13.6042Z" fill="#193157"/>
<path fill-rule="evenodd" clip-rule="evenodd" d="M30.9324 17.7996L21.2097 19.2356L21.2196 19.301L30.9424 17.865L30.9324 17.7996Z" fill="#193157"/>
<path fill-rule="evenodd" clip-rule="evenodd" d="M30.1681 18.9803C30.1682 18.9803 30.1682 18.9803 30.1645 18.9474C30.1607 18.9145 30.1607 18.9145 30.1606 18.9146L30.0814 18.9232C30.0296 18.9289 29.9535 18.9371 29.8565 18.9477C29.6625 18.9687 29.3847 18.9988 29.0495 19.0347C28.3792 19.1066 27.4796 19.2021 26.562 19.2965C25.6444 19.3909 24.709 19.4843 23.9673 19.5518C23.5964 19.5856 23.2741 19.6129 23.0267 19.6308C22.7782 19.6486 22.6078 19.6567 22.5389 19.6525L22.5352 19.7185C22.6094 19.723 22.7848 19.7145 23.0317 19.6967C23.2797 19.6788 23.6025 19.6515 23.9735 19.6177C24.7157 19.5501 25.6513 19.4567 26.569 19.3623C27.4867 19.2679 28.3865 19.1724 29.0569 19.1005C29.392 19.0645 29.6699 19.0345 29.8639 19.0134C29.9609 19.0029 30.037 18.9946 30.0888 18.9889L30.1681 18.9803Z" fill="#193157"/>
<path d="M26.8283 21.3805C26.9058 21.356 26.9042 21.2265 26.9132 21.1612C26.9238 21.0803 26.9327 20.9994 26.9399 20.9176C26.9548 20.8456 26.9541 20.7712 26.9378 20.6994C26.932 20.6815 26.9218 20.6654 26.908 20.6525C26.8943 20.6397 26.8775 20.6306 26.8593 20.6261C26.8176 20.6265 26.7773 20.641 26.7451 20.6674C26.7119 20.6884 26.6812 20.7131 26.6535 20.7408C26.6396 20.7546 26.6262 20.768 26.6129 20.7814C26.5995 20.7948 26.5934 20.8009 26.5969 20.8234C26.6004 20.8459 26.6074 20.8502 26.6295 20.8559C26.6953 20.8737 26.7641 20.8771 26.8312 20.8658C26.9749 20.8467 27.1163 20.8129 27.253 20.765C27.5292 20.675 27.7887 20.5406 28.0214 20.367C28.082 20.3226 28.14 20.2747 28.1951 20.2236C28.221 20.1977 28.2482 20.1645 28.2299 20.1255C28.2115 20.0952 28.1845 20.0712 28.1523 20.0565C28.0894 20.0142 28.0165 19.9892 27.9409 19.9842C27.9035 19.983 27.8669 19.9952 27.8377 20.0185C27.8085 20.0418 27.7886 20.0748 27.7815 20.1116C27.7691 20.1976 27.7732 20.2854 27.7937 20.37C27.8086 20.4505 27.8269 20.5302 27.8487 20.609C27.8956 20.774 27.9578 20.9343 28.0345 21.0877C28.0359 21.0902 28.0367 21.0931 28.0367 21.0959C28.0367 21.0988 28.0359 21.1017 28.0345 21.1041C28.033 21.1066 28.031 21.1087 28.0285 21.1101C28.026 21.1116 28.0232 21.1124 28.0203 21.1124C27.8847 21.1123 27.751 21.0802 27.6301 21.0185C27.6275 21.0167 27.6254 21.0142 27.6242 21.0113C27.6229 21.0084 27.6225 21.0052 27.6229 21.002C27.6233 20.9989 27.6246 20.9959 27.6267 20.9935C27.6287 20.991 27.6314 20.9892 27.6344 20.9882C27.9147 20.8988 28.1969 20.8149 28.4809 20.7367L28.481 20.7687C28.2433 20.7263 28.0014 20.7487 27.7633 20.7716L27.7633 20.7387C28.1032 20.7285 28.4414 20.6887 28.7742 20.6196L28.7664 20.6473L28.5568 20.3789C28.5421 20.3642 28.5654 20.3391 28.5801 20.3556C28.7366 20.5287 28.8633 20.7266 28.9549 20.9411C28.9636 20.9602 28.9346 20.977 28.9263 20.9575C28.836 20.7456 28.7111 20.5501 28.5568 20.3789L28.578 20.3577L28.7876 20.6261C28.7958 20.6343 28.7941 20.6508 28.7803 20.6534C28.4449 20.7233 28.1039 20.7636 27.7612 20.7738C27.7395 20.7746 27.7399 20.743 27.7611 20.7409C28.0017 20.707 28.2459 20.7062 28.487 20.7385C28.5039 20.7415 28.5022 20.7666 28.4871 20.7705C28.203 20.8487 27.9209 20.9327 27.6409 21.0224L27.6443 20.9921C27.7602 21.051 27.8883 21.0817 28.0181 21.0816L28.0038 21.1063C27.9212 20.9424 27.8556 20.7705 27.808 20.5934C27.7831 20.5034 27.7635 20.412 27.7494 20.3197C27.7313 20.2368 27.7344 20.1507 27.7585 20.0695C27.771 20.0381 27.7919 20.0108 27.819 19.9907C27.846 19.9705 27.8782 19.9582 27.9119 19.9551C27.9897 19.9505 28.0671 19.97 28.1336 20.011C28.1873 20.0397 28.2627 20.0788 28.2694 20.1468C28.276 20.2147 28.193 20.2708 28.1455 20.3105C27.8695 20.541 27.5503 20.7143 27.2064 20.8203C27.1213 20.8464 27.035 20.8682 26.9477 20.8855C26.8679 20.9041 26.7859 20.9114 26.704 20.9071C26.6564 20.9027 26.5555 20.8917 26.5588 20.8233C26.5682 20.7884 26.5882 20.7574 26.6162 20.7347C26.6465 20.7019 26.6806 20.6727 26.7178 20.6479C26.7835 20.6039 26.8643 20.5646 26.9311 20.6288C26.9979 20.693 26.9855 20.7869 26.9792 20.8679C26.9703 20.9765 26.958 21.0851 26.9435 21.1933C26.9337 21.2699 26.9266 21.3837 26.8379 21.4134C26.8176 21.4198 26.811 21.3865 26.8296 21.3818L26.8283 21.3805Z" fill="#193157"/>
<path d="M28.7576 21.0034C28.7546 21.0065 28.7504 21.0082 28.7461 21.0082C28.7418 21.0082 28.7376 21.0065 28.7345 21.0034C28.7315 21.0004 28.7298 20.9962 28.7298 20.9919C28.7298 20.9875 28.7315 20.9834 28.7345 20.9803C28.7376 20.9772 28.7418 20.9755 28.7461 20.9755C28.7504 20.9755 28.7546 20.9772 28.7576 20.9803C28.7607 20.9834 28.7624 20.9875 28.7624 20.9919C28.7624 20.9962 28.7607 21.0004 28.7576 21.0034Z" fill="#193157"/>
<path d="M29.0138 20.6661C29.0105 20.6683 29.0066 20.6693 29.0027 20.6689C28.9988 20.6686 28.9951 20.6668 28.9923 20.664C28.9895 20.6613 28.9878 20.6576 28.9874 20.6537C28.9871 20.6497 28.9881 20.6458 28.9903 20.6425C28.9935 20.6403 28.9975 20.6393 29.0014 20.6397C29.0053 20.6401 29.009 20.6418 29.0118 20.6446C29.0146 20.6474 29.0163 20.651 29.0167 20.655C29.017 20.6589 29.016 20.6628 29.0138 20.6661Z" fill="#193157"/>
<path fill-rule="evenodd" clip-rule="evenodd" d="M18.4113 29.372C18.4113 29.372 18.4114 29.372 18.4124 29.3439C18.4134 29.3158 18.4134 29.3158 18.4134 29.3158L18.4092 29.3156L18.3966 29.315C18.3856 29.3145 18.3694 29.3138 18.3486 29.3127C18.307 29.3106 18.2471 29.3073 18.1741 29.3026C18.0281 29.2933 17.8297 29.2786 17.6201 29.2568C17.4104 29.235 17.1899 29.2062 16.9995 29.169C16.8077 29.1314 16.6507 29.086 16.5649 29.0327L16.5354 29.0805C16.6309 29.1399 16.7974 29.1868 16.9889 29.2242C17.1816 29.262 17.404 29.2909 17.6145 29.3128C17.8251 29.3347 18.0243 29.3495 18.1708 29.3588C18.244 29.3635 18.3041 29.3668 18.3459 29.3689C18.3668 29.37 18.3832 29.3708 18.3943 29.3713L18.407 29.3719L18.4113 29.372Z" fill="#193157"/>
<path fill-rule="evenodd" clip-rule="evenodd" d="M17.7186 28.5399C18.0473 28.6395 18.392 28.6739 18.7334 28.6413L18.7278 28.5852C18.3937 28.6172 18.0564 28.5835 17.7347 28.486L17.7186 28.5399Z" fill="#193157"/>
<path d="M31.9297 19.9239C30.1266 21.7009 28.1245 23.5408 25.9117 25.3963C24.0929 26.921 22.3102 28.3038 20.5943 29.5607L22.5646 23.7382L26.5252 20.1324L31.9297 19.9239Z" fill="#828282"/>
<path d="M20.6476 9.00475C22.2663 9.37907 23.9094 9.63627 25.5641 9.77435C27.3963 9.92783 29.1119 10.0711 31.3071 9.75656C31.3071 9.75656 32.109 9.64088 36.6895 8.43559L33.6091 17.7269C33.6091 17.7269 32.7818 21.2538 24.3211 23.2745L21.5192 28.3769C21.5192 28.3769 19.775 31.444 16.5889 31.2938C13.4029 31.1436 9.71307 29.974 9.71307 29.974C13.0319 27.3022 14.7501 24.6437 15.7106 22.6831C16.7192 20.6248 16.9622 19.1882 19.1065 13.1916C19.7431 11.4108 20.2868 9.95715 20.6476 9.00475Z" fill="#D9D9D9"/>
<path d="M19.2251 28.7223C19.211 28.7945 19.3605 28.8792 19.3641 28.9433C19.3677 29.0074 19.2368 29.1287 19.2668 29.1855C19.2968 29.2423 19.4585 29.1941 19.5196 29.2293C19.5807 29.2645 19.6019 29.429 19.678 29.4318C19.7412 29.4345 19.7924 29.2697 19.8664 29.2495C19.9542 29.2258 20.1038 29.3322 20.1885 29.2822C20.2732 29.2321 20.2486 29.0485 20.3225 28.9842C20.3964 28.9199 20.5739 28.9583 20.6318 28.8831C20.6896 28.8079 20.6066 28.642 20.6484 28.5585C20.6903 28.4751 20.8737 28.4339 20.893 28.3443C20.9067 28.2716 20.7572 28.1869 20.7536 28.1228C20.7491 28.0467 20.8814 27.9378 20.8509 27.8806C20.8205 27.8234 20.6592 27.872 20.5985 27.8373C20.5378 27.8025 20.5163 27.6376 20.4397 27.6344C20.3769 27.6321 20.3257 27.7969 20.2513 27.8167C20.1639 27.8407 20.014 27.7339 19.9292 27.784C19.8445 27.834 19.8691 28.0176 19.7952 28.0819C19.7213 28.1463 19.5438 28.1078 19.4859 28.183C19.4281 28.2582 19.5111 28.4242 19.4675 28.5102C19.424 28.5963 19.2462 28.6344 19.2251 28.7223Z" fill="#193157"/>
<path fill-rule="evenodd" clip-rule="evenodd" d="M30.0065 12.8723C26.6413 13.2858 24.4708 13.1525 22.1537 12.7134L22.1417 12.7784C24.4657 13.2188 26.6432 13.3522 30.0149 12.9379L30.0149 12.9379C30.9979 12.8166 31.9735 12.6424 32.9373 12.416L32.922 12.3516C31.9604 12.5775 30.9872 12.7513 30.0065 12.8723Z" fill="#193157"/>
<path d="M34.8932 10.9528C34.7301 10.9884 34.529 11.0568 34.3758 11.0894C34.1595 11.1322 34.0243 11.0411 33.9412 10.8526C33.9321 10.8314 33.9294 10.7933 33.9216 10.7699C34.0838 10.7291 34.2421 10.6844 34.4026 10.6358C34.3424 10.598 34.3094 10.5737 34.2303 10.5948C34.0336 10.6557 33.8328 10.7026 33.6293 10.7351C33.6076 10.6805 33.5837 10.6272 33.5615 10.5713C33.7618 10.5445 33.998 10.474 34.1867 10.4328C34.4069 10.3861 34.5257 10.4841 34.6105 10.6683C34.6204 10.6886 34.624 10.7267 34.6331 10.7497C34.4722 10.7926 34.3147 10.8382 34.1529 10.8829C34.1762 10.9043 34.2046 10.9193 34.2353 10.9266C34.266 10.9338 34.298 10.9331 34.3283 10.9244C34.4806 10.8857 34.6528 10.8341 34.8103 10.7946C34.8394 10.8479 34.8676 10.8995 34.8932 10.9528Z" fill="#193157"/>
<path d="M14.4634 13.9513C14.3542 14.5095 15.5091 15.1639 15.5369 15.6588C15.5646 16.1538 14.5533 17.0913 14.7849 17.5298C15.0166 17.9684 16.2664 17.5964 16.7384 17.8682C17.2105 18.14 17.3736 19.411 17.9621 19.4322C18.4504 19.4533 18.8457 18.1801 19.4172 18.0241C20.0956 17.8415 21.2509 18.6631 21.9055 18.2766C22.5601 17.89 22.37 16.4718 22.9408 15.9748C23.5116 15.4777 24.8832 15.7747 25.3301 15.1938C25.777 14.6129 25.1357 13.3309 25.4588 12.6862C25.7818 12.0414 27.199 11.7233 27.348 11.0314C27.4539 10.4699 26.2989 9.81548 26.2712 9.32054C26.2366 8.73195 27.2581 7.89136 27.0231 7.4495C26.7881 7.00763 25.5416 7.38296 25.073 7.1145C24.6043 6.84604 24.4378 5.57171 23.8459 5.5471C23.361 5.5294 22.9657 6.80261 22.3909 6.95526C21.7158 7.14115 20.5571 6.31621 19.9025 6.70277C19.2479 7.08933 19.438 8.5075 18.8672 9.00458C18.2964 9.50166 16.9249 9.20462 16.478 9.78555C16.0311 10.3665 16.6723 11.6485 16.336 12.3132C15.9996 12.978 14.6258 13.2728 14.4634 13.9513Z" fill="#009B5D"/>
<path fill-rule="evenodd" clip-rule="evenodd" d="M23.2239 9.53489C23.4235 9.68491 23.472 9.98026 23.3323 10.1946L20.0383 15.2472C19.9427 15.3938 19.7782 15.4701 19.6132 15.4442C19.4482 15.4184 19.3109 15.2949 19.2583 15.125L18.4348 12.4656C18.3579 12.2174 18.483 11.9492 18.7142 11.8667C18.9454 11.7841 19.1952 11.9185 19.272 12.1667L19.8187 13.932L22.6095 9.6513C22.7492 9.43699 23.0243 9.38486 23.2239 9.53489Z" fill="white"/>
<path d="M33.0533 10.644C33.1716 10.7269 33.4134 11.0299 33.468 11.0967C33.5227 11.1635 33.4836 11.1123 33.4836 11.1123C33.5098 11.1842 33.5241 11.2306 33.5485 11.2921L33.7238 11.266C33.7029 11.2106 33.682 11.1482 33.6637 11.0962L33.6761 11.0335C33.7061 10.8713 33.7276 10.7077 33.7405 10.5432C33.6842 10.5483 33.6249 10.5624 33.5674 10.5706L33.5491 10.7415C33.5427 10.7947 33.5381 10.8393 33.5265 10.8916C33.5052 10.8704 33.5213 10.8864 33.4939 10.8539C33.4666 10.8214 33.3898 10.7377 33.3547 10.6982C33.3195 10.6588 33.2926 10.6302 33.2575 10.595C33.1882 10.6056 33.1199 10.622 33.0533 10.644Z" fill="#193157"/>
<path d="M32.7158 11.2924C32.7366 11.3461 32.7567 11.4007 32.7771 11.4539C32.9416 11.4335 33.1029 11.4022 33.2687 11.3865C33.2334 11.2934 33.2409 11.3207 33.1973 11.1977C33.1538 11.0747 33.0597 10.8009 32.9906 10.6566C32.9322 10.6665 32.8768 10.6837 32.8189 10.6948C32.8984 10.8755 32.965 11.0552 33.0303 11.2389C32.9256 11.2569 32.8209 11.2774 32.7158 11.2924Z" fill="#193157"/>
<path d="M31.8185 10.8729C31.8651 11.0249 31.9999 11.3221 32.0361 11.436C32.0722 11.55 32.0439 11.4646 32.0657 11.54C32.1095 11.5312 32.1539 11.5262 32.1986 11.5251C32.221 11.4801 32.1986 11.5251 32.2318 11.4572C32.2649 11.3893 32.3408 11.2094 32.3778 11.1195C32.4274 11.239 32.4705 11.3659 32.5158 11.4898C32.5742 11.4844 32.6322 11.4758 32.6897 11.4642C32.6332 11.3213 32.5222 11.0245 32.4852 10.9141C32.4482 10.8036 32.473 10.8777 32.4469 10.8023C32.4071 10.8112 32.3665 10.8161 32.3257 10.8168L32.2886 10.8955C32.2567 10.9638 32.1783 11.1411 32.1439 11.2328C32.0868 11.1089 32.037 10.9817 31.9946 10.8521C31.9328 10.861 31.8739 10.86 31.8185 10.8729Z" fill="#193157"/>
<path d="M31.4965 10.8912C31.6329 10.8746 31.6182 10.8901 31.7337 10.8743C31.7478 10.9329 31.7654 10.9906 31.7864 11.0472C31.8117 11.1268 31.8861 11.2945 31.9161 11.3721C31.9461 11.4496 31.9483 11.4769 31.9692 11.5453C31.8727 11.5481 31.7429 11.5686 31.6537 11.5659C31.4334 11.5598 31.3033 11.4548 31.2263 11.2603C31.2163 11.2356 31.2219 11.2153 31.218 11.1923C31.1873 11.0234 31.3944 10.9031 31.4965 10.8912ZM31.3977 11.2312C31.4108 11.2816 31.4422 11.3253 31.4858 11.3539C31.5296 11.3846 31.5823 11.4002 31.6357 11.3983C31.6608 11.3984 31.704 11.3941 31.7322 11.3938C31.6938 11.2794 31.6521 11.1668 31.6137 11.0524C31.5882 11.0554 31.5497 11.0532 31.5293 11.0544C31.5084 11.0549 31.4878 11.0602 31.4692 11.0698C31.4506 11.0795 31.4344 11.0932 31.422 11.11C31.4095 11.1268 31.401 11.1463 31.3972 11.1669C31.3933 11.1875 31.3943 11.2088 31.3998 11.229L31.3977 11.2312Z" fill="#193157"/>
<path d="M30.5444 11.1138C30.538 11.0857 30.5379 11.0565 30.5443 11.0284C30.5507 11.0003 30.5634 10.974 30.5813 10.9516C30.5993 10.9291 30.6221 10.911 30.6481 10.8986C30.6741 10.8862 30.7026 10.8799 30.7314 10.88C30.8249 10.8733 30.9595 10.88 31.0591 10.8794C31.0695 10.9183 31.0839 10.9811 31.0922 11.0136L31.1018 11.0517L31.1332 11.1782C31.1455 11.2258 31.1594 11.2838 31.1751 11.3445C31.1908 11.4051 31.2122 11.4948 31.2284 11.5601C31.1686 11.5592 31.1076 11.5577 31.0479 11.5585L30.9959 11.3407L30.9275 11.3422L30.8029 11.5632C30.7371 11.5648 30.6713 11.5664 30.6055 11.5671C30.6491 11.488 30.6952 11.408 30.7375 11.3293C30.6469 11.2854 30.5611 11.2238 30.544 11.1142L30.5444 11.1138ZM30.7154 11.1059C30.7172 11.1165 30.7212 11.1267 30.7271 11.1357C30.733 11.1447 30.7407 11.1524 30.7497 11.1584C30.7657 11.1717 30.7861 11.1785 30.8069 11.1775C30.8528 11.1785 30.9099 11.176 30.9584 11.1761C30.9483 11.1332 30.9383 11.0912 30.9274 11.0483C30.8759 11.0495 30.814 11.0472 30.7651 11.0502C30.7578 11.0498 30.7505 11.0511 30.7438 11.054C30.7371 11.0569 30.7312 11.0614 30.7266 11.067C30.722 11.0727 30.7187 11.0793 30.7172 11.0865C30.7156 11.0936 30.7157 11.101 30.7176 11.1081L30.7154 11.1059Z" fill="#193157"/>
<path fill-rule="evenodd" clip-rule="evenodd" d="M32.799 13.6003C32.799 13.6003 32.7991 13.6003 32.7932 13.5678C32.7873 13.5352 32.7872 13.5352 32.7872 13.5352L32.7692 13.5384C32.7572 13.5405 32.7394 13.5437 32.7162 13.5477C32.6697 13.5559 32.6014 13.5678 32.5141 13.5829C32.3394 13.613 32.0887 13.6558 31.7843 13.7065C31.1755 13.8079 30.3522 13.9407 29.4944 14.0663C28.6364 14.192 27.7442 14.3104 26.9974 14.3832C26.624 14.4196 26.2872 14.4446 26.0095 14.4533C25.731 14.4621 25.5144 14.4544 25.3799 14.4267L25.3668 14.4915C25.5096 14.5209 25.733 14.5282 26.0119 14.5194C26.2916 14.5106 26.6299 14.4855 27.0041 14.449C27.7525 14.3761 28.6459 14.2574 29.5042 14.1317C30.3626 14.006 31.1863 13.8732 31.7954 13.7717C32.0999 13.721 32.3508 13.6782 32.5256 13.648C32.613 13.6329 32.6813 13.621 32.7278 13.6129C32.7511 13.6088 32.7689 13.6056 32.7809 13.6035L32.799 13.6003Z" fill="#193157"/>
<path fill-rule="evenodd" clip-rule="evenodd" d="M30.9422 17.7996L21.2195 19.2356L21.2294 19.301L30.9521 17.865L30.9422 17.7996Z" fill="#193157"/>
<path fill-rule="evenodd" clip-rule="evenodd" d="M30.1779 18.9803C30.1779 18.9803 30.1779 18.9803 30.1742 18.9474C30.1705 18.9145 30.1705 18.9145 30.1704 18.9146L30.0911 18.9232C30.0393 18.9289 29.9633 18.9371 29.8663 18.9477C29.6723 18.9687 29.3945 18.9988 29.0593 19.0347C28.389 19.1066 27.4893 19.2021 26.5718 19.2965C25.6542 19.3909 24.7188 19.4843 23.9771 19.5518C23.6062 19.5856 23.2839 19.6129 23.0364 19.6308C22.7879 19.6486 22.6176 19.6567 22.5486 19.6525L22.5449 19.7185C22.6192 19.723 22.7945 19.7145 23.0415 19.6967C23.2895 19.6788 23.6123 19.6515 23.9833 19.6177C24.7254 19.5501 25.6611 19.4567 26.5788 19.3623C27.4965 19.2679 28.3963 19.1724 29.0666 19.1005C29.4018 19.0645 29.6796 19.0345 29.8737 19.0134C29.9707 19.0029 30.0467 18.9946 30.0986 18.9889L30.1779 18.9803Z" fill="#193157"/>
<path d="M26.842 21.3766C26.9194 21.3521 26.9179 21.2226 26.9268 21.1573C26.9375 21.0764 26.9464 20.9954 26.9536 20.9137C26.9685 20.8417 26.9677 20.7673 26.9514 20.6955C26.9457 20.6776 26.9355 20.6615 26.9217 20.6486C26.908 20.6358 26.8912 20.6267 26.8729 20.6222C26.8312 20.6226 26.791 20.6371 26.7587 20.6635C26.7256 20.6845 26.6949 20.7092 26.6671 20.7369C26.6533 20.7507 26.6399 20.7641 26.6265 20.7775C26.6131 20.7909 26.6071 20.7969 26.6106 20.8195C26.6141 20.842 26.621 20.8463 26.6431 20.852C26.7089 20.8698 26.7777 20.8732 26.8448 20.8619C26.9886 20.8428 27.1299 20.809 27.2667 20.7611C27.5429 20.6711 27.8024 20.5367 28.035 20.3631C28.0957 20.3187 28.1537 20.2708 28.2087 20.2197C28.2347 20.1938 28.2619 20.1605 28.2436 20.1216C28.2252 20.0913 28.1982 20.0673 28.166 20.0526C28.1031 20.0103 28.0301 19.9853 27.9546 19.9803C27.9172 19.9791 27.8806 19.9913 27.8514 20.0146C27.8222 20.0379 27.8022 20.0709 27.7952 20.1077C27.7827 20.1937 27.7869 20.2814 27.8074 20.3661C27.8222 20.4466 27.8406 20.5263 27.8624 20.6051C27.9092 20.7701 27.9714 20.9304 28.0482 21.0838C28.0496 21.0863 28.0504 21.0892 28.0503 21.092C28.0503 21.0949 28.0496 21.0977 28.0481 21.1002C28.0467 21.1027 28.0446 21.1048 28.0421 21.1062C28.0397 21.1077 28.0368 21.1084 28.0339 21.1085C27.8984 21.1084 27.7647 21.0763 27.6438 21.0146C27.6412 21.0128 27.6391 21.0103 27.6378 21.0074C27.6366 21.0045 27.6361 21.0012 27.6366 20.9981C27.637 20.995 27.6383 20.992 27.6403 20.9896C27.6424 20.9871 27.645 20.9853 27.648 20.9843C27.9283 20.8948 28.2105 20.811 28.4946 20.7328L28.4947 20.7648C28.2569 20.7224 28.015 20.7448 27.777 20.7677L27.7769 20.7348C28.1169 20.7246 28.4551 20.6847 28.7878 20.6157L28.7801 20.6434L28.5705 20.375C28.5557 20.3603 28.5791 20.3352 28.5938 20.3517C28.7503 20.5248 28.8769 20.7227 28.9686 20.9372C28.9772 20.9563 28.9483 20.9731 28.94 20.9536C28.8496 20.7417 28.7248 20.5462 28.5705 20.375L28.5917 20.3538L28.8013 20.6222C28.8095 20.6304 28.8078 20.6469 28.794 20.6494C28.4586 20.7194 28.1175 20.7597 27.7749 20.7699C27.7532 20.7707 27.7536 20.7391 27.7748 20.737C28.0154 20.7031 28.2596 20.7022 28.5007 20.7346C28.5176 20.7376 28.5159 20.7627 28.5007 20.7666C28.2167 20.8448 27.9346 20.9288 27.6546 21.0185L27.658 20.9882C27.7739 21.0471 27.9019 21.0778 28.0317 21.0777L28.0175 21.1024C27.9349 20.9385 27.8692 20.7666 27.8217 20.5895C27.7968 20.4995 27.7772 20.4081 27.7631 20.3158C27.745 20.2329 27.7481 20.1468 27.7721 20.0656C27.7846 20.0342 27.8056 20.0069 27.8326 19.9868C27.8597 19.9666 27.8919 19.9543 27.9256 19.9512C28.0034 19.9466 28.0808 19.9661 28.1473 20.0071C28.201 20.0358 28.2764 20.0749 28.283 20.1428C28.2897 20.2108 28.2067 20.2669 28.1591 20.3066C27.8832 20.5371 27.564 20.7104 27.22 20.8164C27.135 20.8425 27.0486 20.8643 26.9613 20.8816C26.8816 20.9002 26.7996 20.9075 26.7177 20.9032C26.6701 20.8988 26.5692 20.8878 26.5725 20.8194C26.5818 20.7845 26.6019 20.7535 26.6299 20.7308C26.6602 20.6979 26.6943 20.6688 26.7314 20.644C26.7971 20.6 26.878 20.5607 26.9448 20.6249C27.0116 20.6891 26.9992 20.783 26.9929 20.864C26.984 20.9726 26.9717 21.0812 26.9572 21.1894C26.9474 21.266 26.9403 21.3798 26.8516 21.4095C26.8313 21.4159 26.8247 21.3826 26.8433 21.3779L26.842 21.3766Z" fill="#193157"/>
<path d="M28.7694 21.0034C28.7663 21.0065 28.7621 21.0082 28.7578 21.0082C28.7535 21.0082 28.7493 21.0065 28.7463 21.0034C28.7432 21.0004 28.7415 20.9962 28.7415 20.9919C28.7415 20.9875 28.7432 20.9834 28.7463 20.9803C28.7493 20.9772 28.7535 20.9755 28.7578 20.9755C28.7621 20.9755 28.7663 20.9772 28.7694 20.9803C28.7724 20.9834 28.7742 20.9875 28.7742 20.9919C28.7742 20.9962 28.7724 21.0004 28.7694 21.0034Z" fill="#193157"/>
<path d="M29.0236 20.6661C29.0203 20.6683 29.0164 20.6693 29.0125 20.6689C29.0085 20.6686 29.0049 20.6668 29.0021 20.664C28.9993 20.6613 28.9976 20.6576 28.9972 20.6537C28.9968 20.6497 28.9978 20.6458 29 20.6425C29.0033 20.6403 29.0072 20.6393 29.0112 20.6397C29.0151 20.6401 29.0187 20.6418 29.0215 20.6446C29.0243 20.6474 29.0261 20.651 29.0264 20.655C29.0268 20.6589 29.0258 20.6628 29.0236 20.6661Z" fill="#193157"/>
<path fill-rule="evenodd" clip-rule="evenodd" d="M18.4309 29.3681C18.4309 29.3681 18.4309 29.3681 18.4319 29.34C18.433 29.3119 18.433 29.3119 18.433 29.3119L18.4287 29.3117L18.4162 29.3111C18.4052 29.3106 18.3889 29.3098 18.3681 29.3088C18.3265 29.3067 18.2666 29.3034 18.1936 29.2987C18.0476 29.2894 17.8493 29.2746 17.6396 29.2529C17.4299 29.2311 17.2094 29.2023 17.019 29.1651C16.8273 29.1275 16.6703 29.0821 16.5845 29.0288L16.5549 29.0766C16.6505 29.136 16.8169 29.1828 17.0084 29.2203C17.2012 29.2581 17.4235 29.287 17.634 29.3089C17.8446 29.3308 18.0438 29.3456 18.1903 29.3549C18.2635 29.3596 18.3237 29.3629 18.3655 29.365C18.3864 29.3661 18.4027 29.3669 18.4138 29.3674L18.4265 29.368L18.4309 29.3681Z" fill="#193157"/>
<path fill-rule="evenodd" clip-rule="evenodd" d="M17.7322 28.536C18.0609 28.6356 18.4057 28.67 18.7471 28.6374L18.7415 28.5813C18.4074 28.6133 18.07 28.5796 17.7484 28.4821L17.7322 28.536Z" fill="#193157"/>
<path d="M33.5062 20.8224C31.9762 22.8303 30.2585 24.9281 28.335 27.071C26.7541 28.832 25.1887 30.4478 23.6717 31.93C23.6717 31.93 24.8358 29.3009 25.2918 27.9227C25.7479 26.5446 25.6392 25.7517 26.1437 24.4792C26.2312 24.2584 26.3718 23.9154 26.3718 23.9154L33.5062 20.8224Z" fill="#969696"/>
</g>
<defs>
<clipPath id="clip0_9045_99614">
<rect width="40" height="40" fill="white"/>
</clipPath>
</defs>
</svg>
