<svg width="24" height="24" viewBox="0 0 24 24" fill="none" xmlns="http://www.w3.org/2000/svg">
<g clip-path="url(#clip0_994_37096)">
<path d="M3 7.8C3 6.11984 3 5.27976 3.32698 4.63803C3.6146 4.07354 4.07354 3.6146 4.63803 3.32698C5.27976 3 6.11984 3 7.8 3H16.2C17.8802 3 18.7202 3 19.362 3.32698C19.9265 3.6146 20.3854 4.07354 20.673 4.63803C21 5.27976 21 6.11984 21 7.8V16.2C21 17.8802 21 18.7202 20.673 19.362C20.3854 19.9265 19.9265 20.3854 19.362 20.673C18.7202 21 17.8802 21 16.2 21H7.8C6.11984 21 5.27976 21 4.63803 20.673C4.07354 20.3854 3.6146 19.9265 3.32698 19.362C3 18.7202 3 17.8802 3 16.2V7.8Z" fill="#CCF5E5"/>
<path d="M12.3333 7C11.0533 7 10 7.9875 10 9.1875C10 9.76875 10.2533 10.3 10.6667 10.6937C9.64667 11.3187 9 12.3875 9 13.5625C9 15.4563 10.6467 17 12.6667 17C13.84 17 15 16.7125 16 16.1625L15.3333 15.0813C14.52 15.5188 13.6 15.75 12.6667 15.75C11.3733 15.75 10.3333 14.7812 10.3333 13.5625C10.3322 13.0811 10.5009 12.6129 10.8132 12.2308C11.1255 11.8487 11.5639 11.5741 12.06 11.45L15.5333 10.575L15.1867 9.36875L12.22 10.125C11.72 10.0625 11.3333 9.675 11.3333 9.1875C11.3333 8.6625 11.7733 8.25 12.3333 8.25C12.5067 8.25 12.6667 8.29375 12.8333 8.375L13.5 7.29375C13.1467 7.1 12.74 7 12.3333 7Z" fill="#00CE7C"/>
</g>
<defs>
<clipPath id="clip0_994_37096">
<rect width="24" height="24" fill="white"/>
</clipPath>
</defs>
</svg>
