<svg width="31" height="20" viewBox="0 0 31 20" fill="none" xmlns="http://www.w3.org/2000/svg">
<path d="M23.8393 6.99921L23.5521 6.90322L21.12 2.6477C20.6632 1.84797 19.982 1.17916 19.1494 0.712798C18.3168 0.246431 17.364 4.8315e-05 16.3929 4.16561e-09H10.2686C9.14394 -4.28274e-05 8.04782 0.330216 7.13554 0.943974C6.22326 1.55773 5.5411 2.42386 5.18571 3.41961L4.02643 6.66525C3.05519 7.04728 2.22628 7.6882 1.64348 8.50776C1.06068 9.32732 0.749885 10.2891 0.75 11.2727V13.4985C0.75 14.9183 1.65643 16.1382 2.95714 16.6881C3.12558 17.5888 3.61959 18.4084 4.35688 19.0104C5.09417 19.6125 6.03023 19.9606 7.00915 19.9969C7.98806 20.0331 8.95073 19.7553 9.73681 19.2096C10.5229 18.664 11.0849 17.8834 11.3293 16.9981H20.1707C20.4151 17.8834 20.9771 18.664 21.7632 19.2096C22.5493 19.7553 23.5119 20.0331 24.4909 19.9969C25.4698 19.9606 26.4058 19.6125 27.1431 19.0104C27.8804 18.4084 28.3744 17.5888 28.5429 16.6881C29.2006 16.411 29.7587 15.9627 30.1502 15.3969C30.5417 14.8311 30.75 14.172 30.75 13.4985V12.8206C30.7498 11.7885 30.4074 10.7818 29.7698 9.9386C29.1321 9.0954 28.2305 8.45702 27.1886 8.11108L23.9529 7.0372V6.99921H23.8393ZM10.2686 1.99977H12.5357V6.99921H6.165L7.21714 4.05154C7.43046 3.45383 7.84002 2.93397 8.38774 2.56569C8.93545 2.19741 9.5935 1.99941 10.2686 1.99977ZM14.6786 1.99977H16.3929C16.9756 1.99958 17.5474 2.14722 18.0471 2.4269C18.5469 2.70659 18.9557 3.10779 19.23 3.58759L21.18 6.99921H14.6786V1.99977ZM23.4707 8.99898L26.4707 9.99487C27.0958 10.2025 27.6367 10.5856 28.0192 11.0915C28.4017 11.5974 28.6071 12.2014 28.6071 12.8206V13.4985C28.6071 13.8484 28.4786 14.1704 28.2643 14.4264C27.9133 13.6575 27.313 13.0106 26.5478 12.5764C25.7826 12.1423 24.8909 11.9428 23.9979 12.0059C23.1049 12.069 22.2556 12.3915 21.5691 12.9283C20.8827 13.465 20.3937 14.1889 20.1707 14.9983H11.3293C11.1063 14.1889 10.6173 13.465 9.93086 12.9283C9.24442 12.3915 8.39507 12.069 7.5021 12.0059C6.60913 11.9428 5.71741 12.1423 4.9522 12.5764C4.18699 13.0106 3.58672 13.6575 3.23571 14.4264C3.0127 14.1619 2.89189 13.835 2.89286 13.4985V11.2727C2.89286 10.3728 3.32143 9.55292 4.00714 8.99898H23.4707ZM5.03571 15.9982C5.03571 15.4678 5.26148 14.9592 5.66334 14.5841C6.06521 14.2091 6.61025 13.9984 7.17857 13.9984C7.74689 13.9984 8.29194 14.2091 8.6938 14.5841C9.09566 14.9592 9.32143 15.4678 9.32143 15.9982C9.32143 16.5286 9.09566 17.0372 8.6938 17.4122C8.29194 17.7873 7.74689 17.998 7.17857 17.998C6.61025 17.998 6.06521 17.7873 5.66334 17.4122C5.26148 17.0372 5.03571 16.5286 5.03571 15.9982ZM24.3214 13.9984C24.8897 13.9984 25.4348 14.2091 25.8367 14.5841C26.2385 14.9592 26.4643 15.4678 26.4643 15.9982C26.4643 16.5286 26.2385 17.0372 25.8367 17.4122C25.4348 17.7873 24.8897 17.998 24.3214 17.998C23.7531 17.998 23.2081 17.7873 22.8062 17.4122C22.4043 17.0372 22.1786 16.5286 22.1786 15.9982C22.1786 15.4678 22.4043 14.9592 22.8062 14.5841C23.2081 14.2091 23.7531 13.9984 24.3214 13.9984Z" fill="#98A2B3"/>
</svg>
