<svg width="20" height="20" viewBox="0 0 20 20" fill="none" xmlns="http://www.w3.org/2000/svg">
<g id="Frame" clip-path="url(#clip0_4724_322175)">
<g id="Group">
<g id="Airbrush-paint-car repair-car door-car Parts">
<path id="Vector 375" d="M4.5 6.5L3 6V9.5L4.5 10.5V12H6V10.5L7.5 9.5V6.5L6 6L4.5 6.5Z" fill="#009B5D"/>
<path id="Vector" d="M18.4375 0.625005H11.2375C11.0974 0.624529 10.9591 0.65544 10.8325 0.715467C10.706 0.775494 10.5945 0.863111 10.5062 0.97188L7.8125 4.30938V4.06251C7.8125 3.97963 7.77958 3.90014 7.72097 3.84153C7.66237 3.78293 7.58288 3.75001 7.5 3.75001H3.125C3.04212 3.75001 2.96263 3.78293 2.90403 3.84153C2.84542 3.90014 2.8125 3.97963 2.8125 4.06251V9.68751C2.81228 9.74257 2.82662 9.79672 2.85406 9.84446C2.88149 9.8922 2.92106 9.93185 2.96875 9.95938L4.375 10.7625V11.5625H2.5C2.5 11.4796 2.46708 11.4001 2.40847 11.3415C2.34987 11.2829 2.27038 11.25 2.1875 11.25H0.9375C0.85462 11.25 0.775134 11.2829 0.716529 11.3415C0.657924 11.4001 0.625 11.4796 0.625 11.5625V14.0625C0.625 14.1454 0.657924 14.2249 0.716529 14.2835C0.775134 14.3421 0.85462 14.375 0.9375 14.375H2.1875C2.27038 14.375 2.34987 14.3421 2.40847 14.2835C2.46708 14.2249 2.5 14.1454 2.5 14.0625H2.73125L1.57188 18.9906C1.5611 19.0365 1.56084 19.0842 1.57112 19.1302C1.58141 19.1762 1.60196 19.2193 1.63125 19.2563C1.66013 19.2933 1.69711 19.3233 1.73936 19.3439C1.78161 19.3645 1.82801 19.3751 1.875 19.375H4.0625C4.13271 19.3748 4.2008 19.3509 4.2558 19.3073C4.31079 19.2636 4.34948 19.2027 4.36563 19.1344L4.53125 18.4375H18.4375C18.6859 18.4368 18.9239 18.3378 19.0996 18.1621C19.2752 17.9864 19.3743 17.7484 19.375 17.5V1.56251C19.3743 1.31409 19.2752 1.07607 19.0996 0.900412C18.9239 0.724758 18.6859 0.625747 18.4375 0.625005ZM1.875 13.75H1.25V11.875H1.875V13.75ZM7.8125 7.61251L12.0219 2.50001H17.5V8.75001H7.8125V7.61251ZM3.4375 4.37501H7.1875V6.07813C7.09068 6.05011 6.99656 6.01351 6.90625 5.96876C6.63978 5.82794 6.34196 5.75698 6.04063 5.76251C5.74032 5.75734 5.4436 5.82829 5.17812 5.96876C4.99563 6.06925 4.78949 6.11889 4.58125 6.1125C4.37404 6.11853 4.16901 6.06889 3.9875 5.96876C3.81527 5.87813 3.62955 5.81588 3.4375 5.78438V4.37501ZM3.4375 9.50626V6.42188C3.53432 6.4499 3.62844 6.4865 3.71875 6.53126C3.98423 6.67172 4.28095 6.74268 4.58125 6.7375C4.88259 6.74303 5.18041 6.67207 5.44688 6.53126C5.62822 6.43071 5.83337 6.38105 6.04063 6.38751C6.24792 6.38062 6.45318 6.43032 6.63437 6.53126C6.80794 6.62133 6.9946 6.68355 7.1875 6.71563V9.50626L5.78125 10.3094C5.73356 10.3369 5.69399 10.3766 5.66656 10.4243C5.63912 10.472 5.62478 10.5262 5.625 10.5813V11.5625H5V10.5813C5.00022 10.5262 4.98588 10.472 4.95844 10.4243C4.93101 10.3766 4.89144 10.3369 4.84375 10.3094L3.4375 9.50626ZM2.5 13.4375V12.1875H7.8125V13.4375H2.5ZM6.45937 14.0625L6.01562 15.625H5.19375L5.55938 14.0625H6.45937ZM3.81562 18.75H2.26875L3.37188 14.0625H4.91875L3.81562 18.75ZM18.75 17.5C18.75 17.5829 18.7171 17.6624 18.6585 17.721C18.5999 17.7796 18.5204 17.8125 18.4375 17.8125H4.67812L5.04688 16.25H6.25C6.31802 16.2498 6.38412 16.2274 6.43826 16.1863C6.4924 16.1451 6.53163 16.0874 6.55 16.0219L7.10938 14.0625H7.8125C7.8125 14.1454 7.84542 14.2249 7.90403 14.2835C7.96263 14.3421 8.04212 14.375 8.125 14.375H9.0625C9.11859 14.375 9.17364 14.3599 9.22188 14.3313L10.7844 13.3938C10.8312 13.3663 10.8701 13.3271 10.8969 13.2799C10.9238 13.2327 10.9378 13.1793 10.9375 13.125V12.5C10.9378 12.4457 10.9238 12.3923 10.8969 12.3451C10.8701 12.2979 10.8312 12.2587 10.7844 12.2313L9.22188 11.2938C9.17364 11.2651 9.11859 11.25 9.0625 11.25H8.125C8.04212 11.25 7.96263 11.2829 7.90403 11.3415C7.84542 11.4001 7.8125 11.4796 7.8125 11.5625H6.25V10.7625L7.65625 9.95938C7.70394 9.93185 7.74351 9.8922 7.77094 9.84446C7.79838 9.79672 7.81272 9.74257 7.8125 9.68751V9.37501H17.8125C17.8954 9.37501 17.9749 9.34208 18.0335 9.28348C18.0921 9.22487 18.125 9.14539 18.125 9.06251V2.18751C18.125 2.10463 18.0921 2.02514 18.0335 1.96653C17.9749 1.90793 17.8954 1.87501 17.8125 1.87501H11.875C11.8291 1.87476 11.7836 1.88472 11.742 1.90418C11.7004 1.92363 11.6636 1.9521 11.6344 1.98751L7.8125 6.62813V5.30313L10.9937 1.36563C11.0228 1.32896 11.0599 1.29945 11.1021 1.2794C11.1444 1.25935 11.1907 1.24929 11.2375 1.25001H18.4375C18.5204 1.25001 18.5999 1.28293 18.6585 1.34153C18.7171 1.40014 18.75 1.47963 18.75 1.56251V17.5ZM8.4375 13.75V11.875H8.75V13.75H8.4375ZM9.375 13.5094V12.1156L10.3125 12.6781V12.9469L9.375 13.5094Z" fill="#1D2939"/>
<path id="Vector_2" d="M17.1875 10H16.25C16.0014 10 15.7629 10.0988 15.5871 10.2746C15.4113 10.4504 15.3125 10.6889 15.3125 10.9375C15.3125 11.1861 15.4113 11.4246 15.5871 11.6004C15.7629 11.7762 16.0014 11.875 16.25 11.875H17.1875C17.4361 11.875 17.6746 11.7762 17.8504 11.6004C18.0262 11.4246 18.125 11.1861 18.125 10.9375C18.125 10.6889 18.0262 10.4504 17.8504 10.2746C17.6746 10.0988 17.4361 10 17.1875 10ZM17.1875 11.25H16.25C16.1671 11.25 16.0876 11.2171 16.029 11.1585C15.9704 11.0999 15.9375 11.0204 15.9375 10.9375C15.9375 10.8546 15.9704 10.7751 16.029 10.7165C16.0876 10.6579 16.1671 10.625 16.25 10.625H17.1875C17.2704 10.625 17.3499 10.6579 17.4085 10.7165C17.4671 10.7751 17.5 10.8546 17.5 10.9375C17.5 11.0204 17.4671 11.0999 17.4085 11.1585C17.3499 11.2171 17.2704 11.25 17.1875 11.25Z" fill="#1D2939"/>
</g>
</g>
<g id="Vector_3">
<path d="M13.0532 10.3816C13.1752 10.5036 13.3731 10.5036 13.4951 10.3816C13.6171 10.2595 13.6171 10.0617 13.4951 9.93969C13.3731 9.81767 13.1752 9.81767 13.0532 9.93969C12.9312 10.0617 12.9312 10.2595 13.0532 10.3816Z" fill="#009B5D"/>
<path d="M12.1695 11.265C12.2915 11.387 12.4893 11.387 12.6113 11.265C12.7333 11.143 12.7333 10.9451 12.6113 10.8231C12.4893 10.7011 12.2915 10.7011 12.1695 10.8231C12.0474 10.9451 12.0474 11.143 12.1695 11.265Z" fill="#009B5D"/>
<path d="M11.2854 12.1491C11.4074 12.2711 11.6052 12.2711 11.7273 12.1491C11.8493 12.027 11.8493 11.8292 11.7273 11.7072C11.6052 11.5852 11.4074 11.5852 11.2854 11.7072C11.1634 11.8292 11.1634 12.027 11.2854 12.1491Z" fill="#009B5D"/>
<path d="M13.0525 15.6845C13.1746 15.8065 13.3724 15.8064 13.4944 15.6844C13.6165 15.5624 13.6165 15.3645 13.4944 15.2425C13.3724 15.1204 13.1746 15.1204 13.0525 15.2424C12.9304 15.3644 12.9304 15.5624 13.0525 15.6845Z" fill="#009B5D"/>
<path d="M12.1691 14.8003C12.2912 14.9223 12.489 14.9223 12.611 14.8003C12.733 14.6783 12.733 14.4805 12.611 14.3584C12.489 14.2364 12.2912 14.2364 12.1691 14.3584C12.0471 14.4805 12.0471 14.6783 12.1691 14.8003Z" fill="#009B5D"/>
<path d="M11.2854 13.9166C11.4074 14.0386 11.6052 14.0386 11.7273 13.9166C11.8493 13.7945 11.8493 13.5967 11.7273 13.4747C11.6052 13.3527 11.4074 13.3527 11.2854 13.4747C11.1634 13.5967 11.1634 13.7945 11.2854 13.9166Z" fill="#009B5D"/>
<path d="M14.3751 12.8119C14.3751 12.9845 14.515 13.1244 14.6876 13.1244C14.8602 13.1244 15.0001 12.9845 15.0001 12.8119C15.0001 12.6393 14.8602 12.4994 14.6876 12.4994C14.515 12.4994 14.3751 12.6393 14.3751 12.8119Z" fill="#009B5D"/>
<path d="M13.1251 12.8119C13.1251 12.9845 13.265 13.1244 13.4376 13.1244C13.6102 13.1244 13.7501 12.9845 13.7501 12.8119C13.7501 12.6393 13.6102 12.4994 13.4376 12.4994C13.265 12.4994 13.1251 12.6393 13.1251 12.8119Z" fill="#009B5D"/>
<path d="M11.8751 12.8119C11.8751 12.9845 12.015 13.1244 12.1876 13.1244C12.3602 13.1244 12.5001 12.9845 12.5001 12.8119C12.5001 12.6393 12.3602 12.4994 12.1876 12.4994C12.015 12.4994 11.8751 12.6393 11.8751 12.8119Z" fill="#009B5D"/>
</g>
</g>
<defs>
<clipPath id="clip0_4724_322175">
<rect width="20" height="20" fill="white"/>
</clipPath>
</defs>
</svg>
