<svg width="40" height="40" viewBox="0 0 40 40" fill="none" xmlns="http://www.w3.org/2000/svg">
<g clip-path="url(#clip0_9045_99238)">
<path d="M12.8756 20.4483C13.1955 19.5617 12.8201 17.4735 12.2165 16.7571C11.6129 16.0406 9.6127 15.319 8.6901 15.4833C6.64043 15.8493 2.6807 18.8 2.32447 20.8505C2.18083 21.6811 3.24436 23.2205 3.72955 23.9136C4.21474 24.6066 5.66857 25.7904 6.50996 25.8155C8.59382 25.8754 12.1746 22.4087 12.8756 20.4483ZM12.0549 18.6389L10.3429 16.6081C10.3121 16.5768 10.2933 16.5358 10.2897 16.4921C10.2861 16.4484 10.298 16.4048 10.3233 16.369C10.3486 16.3332 10.3857 16.3074 10.4281 16.2962C10.4705 16.285 10.5155 16.289 10.5552 16.3076C11.1147 16.5235 11.6256 16.809 11.8435 17.0712C12.0614 17.3333 12.2618 17.8895 12.379 18.4762C12.3881 18.5169 12.3833 18.5594 12.3654 18.5971C12.3476 18.6348 12.3177 18.6654 12.2804 18.6841C12.2432 18.7028 12.2007 18.7085 12.1599 18.7003C12.119 18.6921 12.0821 18.6705 12.0549 18.6389Z" fill="#263238"/>
<path opacity="0.6" d="M12.8756 20.4483C13.1955 19.5617 12.8201 17.4735 12.2165 16.7571C11.6129 16.0406 9.6127 15.319 8.6901 15.4833C6.64043 15.8493 2.6807 18.8 2.32447 20.8505C2.18083 21.6811 3.24436 23.2205 3.72955 23.9136C4.21474 24.6066 5.66857 25.7904 6.50996 25.8155C8.59382 25.8754 12.1746 22.4087 12.8756 20.4483ZM12.0549 18.6389L10.3429 16.6081C10.3121 16.5768 10.2933 16.5358 10.2897 16.4921C10.2861 16.4484 10.298 16.4048 10.3233 16.369C10.3486 16.3332 10.3857 16.3074 10.4281 16.2962C10.4705 16.285 10.5155 16.289 10.5552 16.3076C11.1147 16.5235 11.6256 16.809 11.8435 17.0712C12.0614 17.3333 12.2618 17.8895 12.379 18.4762C12.3881 18.5169 12.3833 18.5594 12.3654 18.5971C12.3476 18.6348 12.3177 18.6654 12.2804 18.6841C12.2432 18.7028 12.2007 18.7085 12.1599 18.7003C12.119 18.6921 12.0821 18.6705 12.0549 18.6389Z" fill="black"/>
<path d="M12.4627 19.9551C12.7844 19.0693 12.4072 16.9802 11.8028 16.2655C11.1984 15.5507 9.19985 14.8258 8.27726 14.9901C6.22924 15.357 2.26786 18.3068 1.91992 20.3616C1.77629 21.1921 2.84148 22.7324 3.32415 23.4263C3.80682 24.1201 5.26403 25.3014 6.10541 25.3265C8.17932 25.3813 11.7551 21.9121 12.4627 19.9551ZM11.6371 18.1431L9.92337 16.1114C9.89259 16.0802 9.87377 16.0391 9.8702 15.9954C9.86663 15.9517 9.87854 15.9082 9.90384 15.8723C9.92914 15.8365 9.96623 15.8108 10.0086 15.7995C10.051 15.7883 10.096 15.7923 10.1357 15.8109C10.6952 16.0269 11.2062 16.3123 11.424 16.5745C11.6419 16.8366 11.8423 17.3928 11.9595 17.9795C11.9682 18.0199 11.9633 18.062 11.9455 18.0993C11.9278 18.1366 11.8982 18.167 11.8613 18.1856C11.8245 18.2043 11.7825 18.2103 11.7419 18.2026C11.7014 18.1949 11.6645 18.1739 11.6371 18.1431Z" fill="#263238"/>
<path d="M12.4627 19.9551C12.7844 19.0693 12.4072 16.9802 11.8028 16.2655C11.1984 15.5507 9.19985 14.8258 8.27726 14.9901C6.22924 15.357 2.26786 18.3068 1.91992 20.3616C1.77629 21.1921 2.84148 22.7324 3.32415 23.4263C3.80682 24.1201 5.26403 25.3014 6.10541 25.3265C8.17932 25.3813 11.7551 21.9121 12.4627 19.9551ZM11.6371 18.1431L9.92337 16.1114C9.89259 16.0802 9.87377 16.0391 9.8702 15.9954C9.86663 15.9517 9.87854 15.9082 9.90384 15.8723C9.92914 15.8365 9.96623 15.8108 10.0086 15.7995C10.051 15.7883 10.096 15.7923 10.1357 15.8109C10.6952 16.0269 11.2062 16.3123 11.424 16.5745C11.6419 16.8366 11.8423 17.3928 11.9595 17.9795C11.9682 18.0199 11.9633 18.062 11.9455 18.0993C11.9278 18.1366 11.8982 18.167 11.8613 18.1856C11.8245 18.2043 11.7825 18.2103 11.7419 18.2026C11.7014 18.1949 11.6645 18.1739 11.6371 18.1431Z" fill="url(#paint0_linear_9045_99238)" fill-opacity="0.4"/>
<path d="M9.78523 21.4002L6.40959 17.4036C5.8215 17.7624 5.26592 18.172 4.74919 18.6276L8.304 22.8432C8.83927 22.4067 9.33494 21.9238 9.78523 21.4002Z" fill="#009B5D"/>
<path d="M9.78523 21.4002L6.40959 17.4036C5.8215 17.7624 5.26592 18.172 4.74919 18.6276L8.304 22.8432C8.83927 22.4067 9.33494 21.9238 9.78523 21.4002Z" fill="url(#paint1_linear_9045_99238)" fill-opacity="0.4"/>
<path d="M4.33834 19.0087C3.74673 19.5947 3.30972 20.183 3.23469 20.6492C3.23244 20.6901 3.23268 21.1532 4.31144 22.6795C4.69506 23.2232 5.75134 23.9634 6.06462 23.9761C6.52753 23.9884 7.18233 23.6666 7.85778 23.1828L4.33834 19.0087Z" fill="#009B5D"/>
<path d="M4.33834 19.0087C3.74673 19.5947 3.30972 20.183 3.23469 20.6492C3.23244 20.6901 3.23268 21.1532 4.31144 22.6795C4.69506 23.2232 5.75134 23.9634 6.06462 23.9761C6.52753 23.9884 7.18233 23.6666 7.85778 23.1828L4.33834 19.0087Z" fill="url(#paint2_linear_9045_99238)" fill-opacity="0.4"/>
<path d="M10.1463 20.9536C10.4077 20.6232 10.621 20.2576 10.78 19.8674C10.9521 19.3883 10.6831 17.8792 10.3558 17.4909C10.0286 17.1027 8.58815 16.5761 8.08532 16.6694C7.67567 16.7617 7.28124 16.9119 6.91388 17.1153L10.1463 20.9536Z" fill="#009B5D"/>
<path d="M10.1463 20.9536C10.4077 20.6232 10.621 20.2576 10.78 19.8674C10.9521 19.3883 10.6831 17.8792 10.3558 17.4909C10.0286 17.1027 8.58815 16.5761 8.08532 16.6694C7.67567 16.7617 7.28124 16.9119 6.91388 17.1153L10.1463 20.9536Z" fill="url(#paint3_linear_9045_99238)" fill-opacity="0.4"/>
<path d="M7.73689 20.4167L7.04297 19.5938L6.44287 20.0997L7.1368 20.9227L7.73689 20.4167Z" fill="white"/>
<path d="M7.50374 20.4251L7.41 20.3135L7.7052 20.0643C7.73382 20.0446 7.75798 20.0191 7.77612 19.9894C7.79426 19.9597 7.80597 19.9266 7.8105 19.8921C7.81503 19.8576 7.81227 19.8226 7.80241 19.7892C7.79255 19.7559 7.7758 19.725 7.75325 19.6985C7.7307 19.672 7.70284 19.6506 7.67149 19.6356C7.64013 19.6205 7.60597 19.6123 7.57121 19.6113C7.53645 19.6103 7.50187 19.6166 7.4697 19.6298C7.43753 19.643 7.40848 19.6628 7.38445 19.6879L7.08925 19.9371L6.99552 19.8254L7.29071 19.5762C7.32954 19.5386 7.3757 19.5094 7.42631 19.4904C7.47692 19.4713 7.5309 19.4629 7.5849 19.4656C7.6389 19.4683 7.69177 19.4821 7.74022 19.5061C7.78866 19.5301 7.83166 19.5638 7.86652 19.6052C7.90139 19.6465 7.92738 19.6946 7.94289 19.7464C7.9584 19.7982 7.96309 19.8526 7.95667 19.9063C7.95025 19.96 7.93286 20.0118 7.90558 20.0584C7.87829 20.1051 7.8417 20.1457 7.79807 20.1776L7.50374 20.4251Z" fill="white"/>
<path d="M5.75057 22.0886L5.05664 21.2656L4.45655 21.7716L5.15047 22.5946L5.75057 22.0886Z" fill="white"/>
<path d="M5.10573 21.6073L5.012 21.4956L5.30634 21.2481C5.34517 21.2105 5.39132 21.1813 5.44193 21.1622C5.49254 21.1432 5.54652 21.1348 5.60053 21.1375C5.65453 21.1402 5.70739 21.154 5.75584 21.178C5.80429 21.202 5.84728 21.2357 5.88215 21.277C5.91701 21.3184 5.94301 21.3664 5.95852 21.4182C5.97402 21.47 5.97871 21.5245 5.97229 21.5781C5.96587 21.6318 5.94848 21.6836 5.9212 21.7303C5.89392 21.777 5.85733 21.8176 5.8137 21.8495L5.7183 21.737C5.74476 21.7166 5.7668 21.6911 5.78309 21.6619C5.79939 21.6328 5.8096 21.6007 5.8131 21.5674C5.8166 21.5342 5.81333 21.5007 5.80348 21.4688C5.79362 21.4369 5.77739 21.4073 5.75577 21.3818C5.73415 21.3564 5.70759 21.3356 5.67769 21.3207C5.6478 21.3058 5.6152 21.2972 5.58186 21.2953C5.54852 21.2934 5.51515 21.2982 5.48375 21.3096C5.45236 21.321 5.42359 21.3386 5.39921 21.3614L5.10573 21.6073Z" fill="white"/>
<path d="M10.1309 18.8975L9.84311 18.555L9.79375 17.8981L8.75931 18.7706L9.39906 18.9291L9.68685 19.2716L10.1309 18.8975Z" fill="white"/>
<path d="M8.3956 18.3081C8.41723 18.0624 8.53508 17.8353 8.72347 17.6762C8.91185 17.517 9.15549 17.4388 9.40129 17.4586L9.38179 17.6589C9.28541 17.6508 9.18837 17.6617 9.0962 17.691C9.00404 17.7204 8.91856 17.7676 8.84464 17.83C8.77073 17.8924 8.70983 17.9687 8.66543 18.0546C8.62103 18.1405 8.59399 18.2344 8.58586 18.3308L8.3956 18.3081Z" fill="white"/>
<path d="M8.85386 18.3494C8.86454 18.2248 8.9241 18.1096 9.01952 18.0288C9.11495 17.9481 9.23846 17.9084 9.36306 17.9185L9.34356 18.1188C9.27011 18.1135 9.19749 18.1371 9.14119 18.1845C9.11344 18.2079 9.09058 18.2364 9.07392 18.2686C9.05726 18.3008 9.04713 18.336 9.04412 18.3721L8.85386 18.3494Z" fill="white"/>
<path d="M12.9744 28.7937L12.8746 28.4362C12.8377 28.3055 12.8466 28.1662 12.8998 28.0413C12.953 27.9164 13.0474 27.8135 13.1672 27.7496L13.5204 27.5604C13.6402 27.4965 13.7345 27.3935 13.7876 27.2686L14.3111 26.042C14.3648 25.9173 14.3738 25.7779 14.3365 25.6473L14.1745 25.0825C14.1376 24.9518 14.1465 24.8125 14.1997 24.6876C14.2529 24.5627 14.3473 24.4597 14.4671 24.3959L15.0608 24.0785C15.1819 24.0154 15.2775 23.9126 15.3317 23.7873L16.1798 21.8041L14.7972 21.2093L13.4192 20.6193L12.5803 22.6045C12.5276 22.7295 12.5186 22.8686 12.555 22.9992L12.7356 23.6488C12.7719 23.7795 12.7626 23.9186 12.7095 24.0433C12.6563 24.1681 12.5624 24.271 12.4431 24.3354L11.9217 24.6104C11.8025 24.674 11.7084 24.7763 11.6549 24.9004L11.1295 26.1361C11.0761 26.2607 11.0665 26.3997 11.1023 26.5305L11.2133 26.9173C11.2502 27.0479 11.2413 27.1873 11.1881 27.3122C11.1349 27.4371 11.0405 27.54 10.9207 27.6039L10.5934 27.7793C10.4736 27.8431 10.3792 27.9461 10.326 28.071C10.2728 28.1959 10.2639 28.3352 10.3008 28.4658L10.3675 28.7068C10.4044 28.8375 10.3955 28.9768 10.3423 29.1017C10.2891 29.2266 10.1947 29.3295 10.0749 29.3934C9.95509 29.4572 9.86062 29.56 9.8071 29.6847C9.75357 29.8095 9.7442 29.9488 9.78052 30.0796L9.99114 30.8336L10.5914 31.0887L11.1912 31.3457L11.8807 30.9754C12.0005 30.9116 12.095 30.8088 12.1485 30.684C12.202 30.5593 12.2114 30.42 12.1751 30.2892C12.1382 30.1585 12.147 30.0192 12.2003 29.8943C12.2535 29.7694 12.3478 29.6664 12.4676 29.6026L12.6847 29.4848C12.8045 29.4198 12.8984 29.3159 12.9511 29.1902C13.0038 29.0646 13.012 28.9247 12.9744 28.7937Z" fill="#263238"/>
<path opacity="0.6" d="M12.9744 28.7937L12.8746 28.4362C12.8377 28.3055 12.8466 28.1662 12.8998 28.0413C12.953 27.9164 13.0474 27.8135 13.1672 27.7496L13.5204 27.5604C13.6402 27.4965 13.7345 27.3935 13.7876 27.2686L14.3111 26.042C14.3648 25.9173 14.3738 25.7779 14.3365 25.6473L14.1745 25.0825C14.1376 24.9518 14.1465 24.8125 14.1997 24.6876C14.2529 24.5627 14.3473 24.4597 14.4671 24.3959L15.0608 24.0785C15.1819 24.0154 15.2775 23.9126 15.3317 23.7873L16.1798 21.8041L14.7972 21.2093L13.4192 20.6193L12.5803 22.6045C12.5276 22.7295 12.5186 22.8686 12.555 22.9992L12.7356 23.6488C12.7719 23.7795 12.7626 23.9186 12.7095 24.0433C12.6563 24.1681 12.5624 24.271 12.4431 24.3354L11.9217 24.6104C11.8025 24.674 11.7084 24.7763 11.6549 24.9004L11.1295 26.1361C11.0761 26.2607 11.0665 26.3997 11.1023 26.5305L11.2133 26.9173C11.2502 27.0479 11.2413 27.1873 11.1881 27.3122C11.1349 27.4371 11.0405 27.54 10.9207 27.6039L10.5934 27.7793C10.4736 27.8431 10.3792 27.9461 10.326 28.071C10.2728 28.1959 10.2639 28.3352 10.3008 28.4658L10.3675 28.7068C10.4044 28.8375 10.3955 28.9768 10.3423 29.1017C10.2891 29.2266 10.1947 29.3295 10.0749 29.3934C9.95509 29.4572 9.86062 29.56 9.8071 29.6847C9.75357 29.8095 9.7442 29.9488 9.78052 30.0796L9.99114 30.8336L10.5914 31.0887L11.1912 31.3457L11.8807 30.9754C12.0005 30.9116 12.095 30.8088 12.1485 30.684C12.202 30.5593 12.2114 30.42 12.1751 30.2892C12.1382 30.1585 12.147 30.0192 12.2003 29.8943C12.2535 29.7694 12.3478 29.6664 12.4676 29.6026L12.6847 29.4848C12.8045 29.4198 12.8984 29.3159 12.9511 29.1902C13.0038 29.0646 13.012 28.9247 12.9744 28.7937Z" fill="white"/>
<path opacity="0.2" d="M15.0659 24.0728C15.1843 24.0101 15.2781 23.9092 15.332 23.7865L16.1801 21.8032L15.4898 21.5099L14.7999 21.2147L13.422 20.6247L12.7909 22.0979L14.1706 22.6882L10.5824 31.0859L11.1822 31.3429L11.8717 30.9726C11.9915 30.9088 12.086 30.806 12.1395 30.6812C12.1931 30.5565 12.2024 30.4172 12.1661 30.2864C12.1292 30.1557 12.1381 30.0164 12.1913 29.8915C12.2445 29.7666 12.3389 29.6636 12.4587 29.5998L12.6758 29.482C12.7954 29.4179 12.8896 29.3151 12.9431 29.1904C12.9966 29.0657 13.0061 28.9266 12.9702 28.7958L12.8704 28.4382C12.8335 28.3076 12.8423 28.1682 12.8956 28.0433C12.9488 27.9184 13.0431 27.8155 13.1629 27.7516L13.5162 27.5625C13.636 27.4985 13.7303 27.3955 13.7834 27.2706L14.3069 26.0441C14.3604 25.9195 14.3699 25.7805 14.3341 25.6498L14.1748 25.0816C14.1378 24.9509 14.1467 24.8116 14.1999 24.6867C14.2532 24.5618 14.3475 24.4589 14.4673 24.395L15.0659 24.0728Z" fill="black"/>
<path d="M19.7506 19.5973C19.4647 19.064 17.9555 17.8733 17.0873 17.5118C16.219 17.1502 14.3209 16.8662 13.7387 17.0284C12.4458 17.3872 11.2703 19.3727 12.2212 20.5844C12.605 21.0729 14.2984 21.8908 15.0626 22.2535C15.8267 22.6162 17.6004 23.1991 18.2335 23.1515C19.796 23.0379 20.3793 20.7777 19.7506 19.5973ZM17.7486 19.3684L15.278 18.3139C15.1016 18.2383 15.1228 18.0004 15.3148 17.9928C15.8963 17.9709 16.4761 18.0217 16.7992 18.1589C17.1223 18.2961 17.5588 18.6803 17.9438 19.1171C18.0749 19.262 17.9214 19.4432 17.7413 19.3668L17.7486 19.3684Z" fill="#263238"/>
<path d="M19.7506 19.5973C19.4647 19.064 17.9555 17.8733 17.0873 17.5118C16.219 17.1502 14.3209 16.8662 13.7387 17.0284C12.4458 17.3872 11.2703 19.3727 12.2212 20.5844C12.605 21.0729 14.2984 21.8908 15.0626 22.2535C15.8267 22.6162 17.6004 23.1991 18.2335 23.1515C19.796 23.0379 20.3793 20.7777 19.7506 19.5973ZM17.7486 19.3684L15.278 18.3139C15.1016 18.2383 15.1228 18.0004 15.3148 17.9928C15.8963 17.9709 16.4761 18.0217 16.7992 18.1589C17.1223 18.2961 17.5588 18.6803 17.9438 19.1171C18.0749 19.262 17.9214 19.4432 17.7413 19.3668L17.7486 19.3684Z" fill="#263238"/>
<path d="M19.7506 19.5973C19.4647 19.064 17.9555 17.8733 17.0873 17.5118C16.219 17.1502 14.3209 16.8662 13.7387 17.0284C12.4458 17.3872 11.2703 19.3727 12.2212 20.5844C12.605 21.0729 14.2984 21.8908 15.0626 22.2535C15.8267 22.6162 17.6004 23.1991 18.2335 23.1515C19.796 23.0379 20.3793 20.7777 19.7506 19.5973ZM17.7486 19.3684L15.278 18.3139C15.1016 18.2383 15.1228 18.0004 15.3148 17.9928C15.8963 17.9709 16.4761 18.0217 16.7992 18.1589C17.1223 18.2961 17.5588 18.6803 17.9438 19.1171C18.0749 19.262 17.9214 19.4432 17.7413 19.3668L17.7486 19.3684Z" fill="url(#paint4_linear_9045_99238)"/>
<path d="M19.1439 19.3412C18.8576 18.8098 17.3469 17.6264 16.4783 17.2571C15.6098 16.8878 13.712 16.6116 13.1301 16.7719C11.8372 17.1307 10.6636 19.1166 11.6126 20.3279C11.9979 20.8187 13.6917 21.6347 14.4559 21.9974C15.22 22.3601 16.9918 22.9426 17.6264 22.8972C19.1911 22.7822 19.7781 20.5228 19.1439 19.3412ZM17.1401 19.1119L14.6874 18.0727C14.5113 17.9953 14.5325 17.7574 14.7223 17.7512C15.3043 17.7275 15.8859 17.7787 16.2086 17.9177C16.5312 18.0568 16.9667 18.4369 17.3536 18.8741C17.4755 19.0075 17.322 19.1887 17.1401 19.1119Z" fill="#263238"/>
<path d="M19.1439 19.3412C18.8576 18.8098 17.3469 17.6264 16.4783 17.2571C15.6098 16.8878 13.712 16.6116 13.1301 16.7719C11.8372 17.1307 10.6636 19.1166 11.6126 20.3279C11.9979 20.8187 13.6917 21.6347 14.4559 21.9974C15.22 22.3601 16.9918 22.9426 17.6264 22.8972C19.1911 22.7822 19.7781 20.5228 19.1439 19.3412ZM17.1401 19.1119L14.6874 18.0727C14.5113 17.9953 14.5325 17.7574 14.7223 17.7512C15.3043 17.7275 15.8859 17.7787 16.2086 17.9177C16.5312 18.0568 16.9667 18.4369 17.3536 18.8741C17.4755 19.0075 17.322 19.1887 17.1401 19.1119Z" fill="url(#paint5_linear_9045_99238)" fill-opacity="0.4"/>
<path d="M18.4972 11.1584C18.8437 11.1377 19.017 11.1274 19.1848 11.1457C19.4395 11.1735 19.6864 11.25 19.9123 11.371C20.061 11.4507 20.1981 11.5571 20.4724 11.7701L37.4384 24.9431C38.1294 25.4796 38.4749 25.7479 38.6676 26.0693C38.9499 26.5402 39.0263 27.1065 38.8787 27.6354C38.7779 27.9964 38.5158 28.3465 37.9915 29.0468C37.4504 29.7697 37.1798 30.1311 36.8528 30.3313C36.3736 30.6246 35.793 30.7029 35.2533 30.5469C34.8849 30.4404 34.5283 30.1635 33.8151 29.6098L16.8956 16.4728C16.6249 16.2627 16.4896 16.1576 16.3765 16.0347C16.2174 15.8619 16.0901 15.6624 16.0002 15.4454C15.9363 15.2911 15.8972 15.1207 15.8188 14.7799C15.5871 13.7714 15.4712 13.2672 15.5451 12.862C15.6577 12.2446 16.0535 11.7158 16.6142 11.4339C16.9822 11.2489 17.4872 11.2187 18.4972 11.1584Z" fill="#009B5D"/>
<path d="M18.4972 11.1584C18.8437 11.1377 19.017 11.1274 19.1848 11.1457C19.4395 11.1735 19.6864 11.25 19.9123 11.371C20.061 11.4507 20.1981 11.5571 20.4724 11.7701L37.4384 24.9431C38.1294 25.4796 38.4749 25.7479 38.6676 26.0693C38.9499 26.5402 39.0263 27.1065 38.8787 27.6354C38.7779 27.9964 38.5158 28.3465 37.9915 29.0468C37.4504 29.7697 37.1798 30.1311 36.8528 30.3313C36.3736 30.6246 35.793 30.7029 35.2533 30.5469C34.8849 30.4404 34.5283 30.1635 33.8151 29.6098L16.8956 16.4728C16.6249 16.2627 16.4896 16.1576 16.3765 16.0347C16.2174 15.8619 16.0901 15.6624 16.0002 15.4454C15.9363 15.2911 15.8972 15.1207 15.8188 14.7799C15.5871 13.7714 15.4712 13.2672 15.5451 12.862C15.6577 12.2446 16.0535 11.7158 16.6142 11.4339C16.9822 11.2489 17.4872 11.2187 18.4972 11.1584Z" fill="url(#paint6_linear_9045_99238)" fill-opacity="0.6"/>
<g clip-path="url(#clip1_9045_99238)">
<path d="M26.029 18.346L23.5293 18.4334L22.6403 18.9318L21.932 18.3651L22.8211 17.8669L23.1525 16.9144L21.1954 15.3488C20.9984 15.1912 20.776 15.1163 20.5624 15.1973L22.6267 16.8488L22.42 17.1072C21.9767 17.6614 21.146 17.7363 20.5688 17.2746L18.3164 15.4727L19.0681 15.2055L20.9493 16.7104C21.1462 16.8679 21.3688 16.9421 21.5827 16.861L19.5185 15.2097L19.7252 14.9513C20.1687 14.397 20.9989 14.3219 21.5764 14.7839L24.1373 16.8327L23.7272 17.7769L25.2345 17.7104L26.029 18.346Z" fill="white"/>
<path d="M25.1493 19.9854L26.8423 18.9975L26.1732 18.4622L23.75 19.8203L25.923 21.5587L26.6163 21.1589L25.1493 19.9854Z" fill="white"/>
<path d="M33.1585 24.0486L31.5647 22.7735L30.9204 23.1346L32.4781 24.3808C32.7581 24.6048 32.6946 24.885 32.3706 25.0666C32.0467 25.2482 31.6397 25.2067 31.3597 24.9827L30.4254 24.2353L31.288 23.7767L30.6646 23.278L29.475 23.9447L29.4762 23.9457L29.1427 24.1326L30.7353 25.4067C31.7659 26.2491 32.3236 25.9394 32.9928 25.5643C33.662 25.1893 33.7363 24.5108 33.1585 24.0486Z" fill="white"/>
<path d="M36.3959 27.6716C36.8181 27.435 36.8646 27.0065 36.4991 26.7141L34.4738 25.0938L33.8368 25.4509L35.8298 27.0452C35.8913 27.0944 35.8829 27.1655 35.8125 27.2049C35.7414 27.2448 35.6354 27.2378 35.574 27.1886L33.581 25.5942L32.0513 26.4515L32.7673 27.0244L33.6601 26.524L34.2509 26.9967L33.9305 27.9639L34.6616 28.5488L34.9693 27.5714C35.3348 27.8639 35.973 27.9087 36.3959 27.6716Z" fill="white"/>
<path d="M30.6227 22.0048L29.1517 22.8043L29.1884 20.8464L28.6132 20.3862L26.1767 21.7517L26.7989 22.2494L28.2817 21.3934L28.2339 23.4074L28.8091 23.8676L31.2448 22.5025L30.6227 22.0048Z" fill="white"/>
</g>
<ellipse cx="0.899083" cy="0.899084" rx="0.899083" ry="0.899084" transform="matrix(0.800519 0.599308 -0.599304 0.800521 17.4883 12.0859)" fill="white"/>
<path d="M12.0081 17.7177C11.5659 17.3567 11.2197 16.8923 11 16.3655C10.7803 15.8387 10.6938 15.2659 10.7484 14.6977C10.8029 14.1296 10.9967 13.5836 11.3127 13.1083C11.6286 12.6329 12.0569 12.2428 12.5596 11.9725C13.0623 11.7022 13.6239 11.56 14.1947 11.5586C14.7654 11.5572 15.3277 11.6966 15.8318 11.9644C16.3358 12.2322 16.766 12.6202 17.0843 13.094C17.4026 13.5678 17.5991 14.1128 17.6564 14.6807" stroke="#868A8C" stroke-width="0.6"/>
<path d="M17.2719 16.651C16.8654 17.4202 16.1848 18.0087 15.365 18.2999" stroke="#868A8C" stroke-width="0.6"/>
</g>
<defs>
<linearGradient id="paint0_linear_9045_99238" x1="4.75072" y1="25.8622" x2="8.32928" y2="15.8422" gradientUnits="userSpaceOnUse">
<stop stop-color="white" stop-opacity="0"/>
<stop offset="1"/>
</linearGradient>
<linearGradient id="paint1_linear_9045_99238" x1="6.17608" y1="19.8409" x2="8.35203" y2="17.9749" gradientUnits="userSpaceOnUse">
<stop stop-color="#66E2B0" stop-opacity="0"/>
<stop offset="1" stop-color="#8CFFD1"/>
</linearGradient>
<linearGradient id="paint2_linear_9045_99238" x1="4.61862" y1="21.5202" x2="6.63042" y2="19.7907" gradientUnits="userSpaceOnUse">
<stop stop-color="#66E2B0" stop-opacity="0"/>
<stop offset="1" stop-color="#8CFFD1"/>
</linearGradient>
<linearGradient id="paint3_linear_9045_99238" x1="7.99687" y1="18.2814" x2="9.7821" y2="16.7502" gradientUnits="userSpaceOnUse">
<stop stop-color="#66E2B0" stop-opacity="0"/>
<stop offset="1" stop-color="#8CFFD1"/>
</linearGradient>
<linearGradient id="paint4_linear_9045_99238" x1="15.8315" y1="20.6874" x2="16.6433" y2="16.8293" gradientUnits="userSpaceOnUse">
<stop stop-color="#00341F" stop-opacity="0"/>
<stop offset="1" stop-color="#00341F"/>
</linearGradient>
<linearGradient id="paint5_linear_9045_99238" x1="18.6319" y1="22.4603" x2="13.5135" y2="16.5338" gradientUnits="userSpaceOnUse">
<stop stop-color="#808080"/>
<stop offset="0.509615" stop-color="white" stop-opacity="0"/>
<stop offset="1"/>
</linearGradient>
<linearGradient id="paint6_linear_9045_99238" x1="24.1599" y1="19.7458" x2="26.6757" y2="15.0581" gradientUnits="userSpaceOnUse">
<stop stop-color="#8CFFD1" stop-opacity="0.45"/>
<stop offset="0.45" stop-color="#8CFFD1" stop-opacity="0"/>
<stop offset="1" stop-color="#8CFFD1"/>
</linearGradient>
<clipPath id="clip0_9045_99238">
<rect width="40" height="40" fill="white"/>
</clipPath>
<clipPath id="clip1_9045_99238">
<rect width="22.272" height="2.59613" fill="white" transform="matrix(0.78087 0.624694 0.62469 -0.780872 18.3164 15.4727)"/>
</clipPath>
</defs>
</svg>
