<svg width="40" height="40" viewBox="0 0 40 40" fill="none" xmlns="http://www.w3.org/2000/svg">
<path d="M22.9484 4.157C23.0966 4.51526 23.3809 4.80003 23.7389 4.94871L24.9943 5.46874C25.3526 5.61714 25.6373 5.9018 25.7857 6.26009C25.9341 6.61838 25.9341 7.02095 25.7857 7.37923L25.266 8.63379C25.1176 8.99224 25.1173 9.39522 25.2665 9.75349L25.7852 11.0077C25.8588 11.1851 25.8967 11.3753 25.8967 11.5674C25.8967 11.7595 25.8589 11.9498 25.7854 12.1273C25.7119 12.3047 25.6041 12.466 25.4683 12.6018C25.3324 12.7376 25.1711 12.8453 24.9936 12.9188L23.7391 13.4384C23.3809 13.5866 23.0961 13.8709 22.9475 14.229L22.4274 15.4844C22.279 15.8427 21.9944 16.1274 21.6361 16.2758C21.2779 16.4242 20.8753 16.4242 20.517 16.2758L19.2625 15.7561C18.9042 15.6081 18.5018 15.6084 18.1438 15.757L16.8883 16.2762C16.5303 16.4243 16.1281 16.4242 15.7701 16.2759C15.4121 16.1276 15.1276 15.8433 14.9791 15.4854L14.4589 14.2295C14.3108 13.8713 14.0265 13.5865 13.6685 13.4378L12.413 12.9178C12.0549 12.7695 11.7704 12.485 11.6219 12.1269C11.4734 11.7688 11.4732 11.3664 11.6213 11.0082L12.141 9.75365C12.289 9.39536 12.2887 8.99293 12.1401 8.63486L11.6212 7.3785C11.5477 7.20104 11.5098 7.01083 11.5098 6.81873C11.5097 6.62662 11.5476 6.4364 11.6211 6.25892C11.6946 6.08144 11.8023 5.92019 11.9382 5.78437C12.074 5.64856 12.2353 5.54085 12.4128 5.46739L13.6673 4.94773C14.0253 4.79973 14.3099 4.51575 14.4586 4.15812L14.9786 2.90266C15.1271 2.54437 15.4117 2.25971 15.77 2.11131C16.1282 1.9629 16.5308 1.9629 16.8891 2.11131L18.1436 2.63096C18.5019 2.779 18.9043 2.7787 19.2623 2.63012L20.5183 2.11211C20.8765 1.96379 21.279 1.96382 21.6372 2.1122C21.9954 2.26057 22.28 2.54515 22.4284 2.90335L22.9486 4.15918L22.9484 4.157Z" fill="#005D38"/>
<path d="M22.9484 4.157C23.0966 4.51526 23.3809 4.80003 23.7389 4.94871L24.9943 5.46874C25.3526 5.61714 25.6373 5.9018 25.7857 6.26009C25.9341 6.61838 25.9341 7.02095 25.7857 7.37923L25.266 8.63379C25.1176 8.99224 25.1173 9.39522 25.2665 9.75349L25.7852 11.0077C25.8588 11.1851 25.8967 11.3753 25.8967 11.5674C25.8967 11.7595 25.8589 11.9498 25.7854 12.1273C25.7119 12.3047 25.6041 12.466 25.4683 12.6018C25.3324 12.7376 25.1711 12.8453 24.9936 12.9188L23.7391 13.4384C23.3809 13.5866 23.0961 13.8709 22.9475 14.229L22.4274 15.4844C22.279 15.8427 21.9944 16.1274 21.6361 16.2758C21.2779 16.4242 20.8753 16.4242 20.517 16.2758L19.2625 15.7561C18.9042 15.6081 18.5018 15.6084 18.1438 15.757L16.8883 16.2762C16.5303 16.4243 16.1281 16.4242 15.7701 16.2759C15.4121 16.1276 15.1276 15.8433 14.9791 15.4854L14.4589 14.2295C14.3108 13.8713 14.0265 13.5865 13.6685 13.4378L12.413 12.9178C12.0549 12.7695 11.7704 12.485 11.6219 12.1269C11.4734 11.7688 11.4732 11.3664 11.6213 11.0082L12.141 9.75365C12.289 9.39536 12.2887 8.99293 12.1401 8.63486L11.6212 7.3785C11.5477 7.20104 11.5098 7.01083 11.5098 6.81873C11.5097 6.62662 11.5476 6.4364 11.6211 6.25892C11.6946 6.08144 11.8023 5.92019 11.9382 5.78437C12.074 5.64856 12.2353 5.54085 12.4128 5.46739L13.6673 4.94773C14.0253 4.79973 14.3099 4.51575 14.4586 4.15812L14.9786 2.90266C15.1271 2.54437 15.4117 2.25971 15.77 2.11131C16.1282 1.9629 16.5308 1.9629 16.8891 2.11131L18.1436 2.63096C18.5019 2.779 18.9043 2.7787 19.2623 2.63012L20.5183 2.11211C20.8765 1.96379 21.279 1.96382 21.6372 2.1122C21.9954 2.26057 22.28 2.54515 22.4284 2.90335L22.9486 4.15918L22.9484 4.157Z" fill="url(#paint0_linear_9045_99479)"/>
<path d="M24.3019 4.157C24.4501 4.51526 24.7344 4.80003 25.0924 4.94871L26.3478 5.46874C26.7061 5.61714 26.9908 5.9018 27.1392 6.26009C27.2876 6.61838 27.2876 7.02095 27.1392 7.37923L26.6195 8.63379C26.4711 8.99224 26.4709 9.39522 26.62 9.75349L27.1387 11.0077C27.2123 11.1851 27.2502 11.3753 27.2502 11.5674C27.2503 11.7595 27.2124 11.9498 27.1389 12.1273C27.0654 12.3047 26.9576 12.466 26.8218 12.6018C26.6859 12.7376 26.5247 12.8453 26.3472 12.9188L25.0926 13.4384C24.7344 13.5866 24.4496 13.8709 24.301 14.229L23.781 15.4844C23.6326 15.8427 23.3479 16.1274 22.9896 16.2758C22.6314 16.4242 22.2288 16.4242 21.8705 16.2758L20.616 15.7561C20.2577 15.6081 19.8553 15.6084 19.4973 15.757L18.2419 16.2762C17.8838 16.4243 17.4816 16.4242 17.1236 16.2759C16.7656 16.1276 16.4811 15.8433 16.3326 15.4854L15.8125 14.2295C15.6643 13.8713 15.38 13.5865 15.022 13.4378L13.7666 12.9178C13.4084 12.7695 13.1239 12.485 12.9754 12.1269C12.827 11.7688 12.8268 11.3664 12.9749 11.0082L13.4945 9.75365C13.6425 9.39536 13.6422 8.99293 13.4937 8.63486L12.9748 7.3785C12.9012 7.20104 12.8633 7.01083 12.8633 6.81873C12.8633 6.62662 12.9011 6.4364 12.9746 6.25892C13.0481 6.08144 13.1559 5.92019 13.2917 5.78437C13.4276 5.64856 13.5888 5.54085 13.7663 5.46739L15.0209 4.94773C15.3788 4.79973 15.6634 4.51575 15.8122 4.15812L16.3322 2.90266C16.4806 2.54437 16.7652 2.25971 17.1235 2.11131C17.4818 1.9629 17.8843 1.9629 18.2426 2.11131L19.4971 2.63096C19.8554 2.779 20.2578 2.7787 20.6159 2.63012L21.8718 2.11211C22.23 1.96379 22.6325 1.96382 22.9907 2.1122C23.3489 2.26057 23.6335 2.54515 23.7819 2.90335L24.3021 4.15918L24.3019 4.157Z" fill="#018E56"/>
<path d="M24.3019 4.157C24.4501 4.51526 24.7344 4.80003 25.0924 4.94871L26.3478 5.46874C26.7061 5.61714 26.9908 5.9018 27.1392 6.26009C27.2876 6.61838 27.2876 7.02095 27.1392 7.37923L26.6195 8.63379C26.4711 8.99224 26.4709 9.39522 26.62 9.75349L27.1387 11.0077C27.2123 11.1851 27.2502 11.3753 27.2502 11.5674C27.2503 11.7595 27.2124 11.9498 27.1389 12.1273C27.0654 12.3047 26.9576 12.466 26.8218 12.6018C26.6859 12.7376 26.5247 12.8453 26.3472 12.9188L25.0926 13.4384C24.7344 13.5866 24.4496 13.8709 24.301 14.229L23.781 15.4844C23.6326 15.8427 23.3479 16.1274 22.9896 16.2758C22.6314 16.4242 22.2288 16.4242 21.8705 16.2758L20.616 15.7561C20.2577 15.6081 19.8553 15.6084 19.4973 15.757L18.2419 16.2762C17.8838 16.4243 17.4816 16.4242 17.1236 16.2759C16.7656 16.1276 16.4811 15.8433 16.3326 15.4854L15.8125 14.2295C15.6643 13.8713 15.38 13.5865 15.022 13.4378L13.7666 12.9178C13.4084 12.7695 13.1239 12.485 12.9754 12.1269C12.827 11.7688 12.8268 11.3664 12.9749 11.0082L13.4945 9.75365C13.6425 9.39536 13.6422 8.99293 13.4937 8.63486L12.9748 7.3785C12.9012 7.20104 12.8633 7.01083 12.8633 6.81873C12.8633 6.62662 12.9011 6.4364 12.9746 6.25892C13.0481 6.08144 13.1559 5.92019 13.2917 5.78437C13.4276 5.64856 13.5888 5.54085 13.7663 5.46739L15.0209 4.94773C15.3788 4.79973 15.6634 4.51575 15.8122 4.15812L16.3322 2.90266C16.4806 2.54437 16.7652 2.25971 17.1235 2.11131C17.4818 1.9629 17.8843 1.9629 18.2426 2.11131L19.4971 2.63096C19.8554 2.779 20.2578 2.7787 20.6159 2.63012L21.8718 2.11211C22.23 1.96379 22.6325 1.96382 22.9907 2.1122C23.3489 2.26057 23.6335 2.54515 23.7819 2.90335L24.3021 4.15918L24.3019 4.157Z" fill="url(#paint1_linear_9045_99479)"/>
<path d="M22.2123 7.28521C22.4383 7.10089 22.7718 7.1142 22.9825 7.32488C23.2072 7.54962 23.2073 7.91405 22.9825 8.13879L19.7454 11.3759C19.5207 11.6006 19.1562 11.6006 18.9315 11.3759L17.4928 9.93718C17.268 9.71244 17.268 9.34802 17.4928 9.12328L17.5364 9.08361C17.7474 8.91158 18.0521 8.91157 18.263 9.08361L18.3067 9.12328L19.3384 10.155L22.1686 7.32488L22.2123 7.28521ZM22.7432 7.56422C22.6506 7.47168 22.5005 7.47168 22.408 7.56422L19.3384 10.6337L18.0673 9.36262C17.9748 9.27008 17.8247 9.27008 17.7321 9.36262C17.6396 9.45516 17.9748 9.03074 18.0673 9.12328L19.2962 10.4611C19.3771 10.5421 19.3735 10.5218 19.4654 10.4611L19.5658 10.155L22.5121 7.32488C22.6047 7.23234 22.8357 7.65677 22.7432 7.56422Z" fill="white"/>
<path d="M25.2364 34.4595C25.2364 34.4595 23.8928 34.4595 23.3319 34.4474C22.661 34.433 21.9816 34.1814 21.4722 33.3991C20.5517 31.9852 20.5517 29.693 21.4722 28.2791C21.9325 27.5722 22.8188 27.2188 23.422 27.2188H25.2187C26.1392 28.6326 26.1569 33.0456 25.2364 34.4595Z" fill="black"/>
<path d="M25.2189 34.4594C23.9171 34.4594 22.8617 32.8385 22.8617 30.8391C22.8617 28.8396 23.9171 27.2188 25.2189 27.2188C26.5208 27.2188 27.5762 28.8396 27.5762 30.8391C27.5762 32.8385 26.5208 34.4594 25.2189 34.4594Z" fill="#263238"/>
<g opacity="0.3">
<path d="M25.332 29.021V30.1588C25.332 30.2567 25.2804 30.3361 25.2166 30.3361H25.2159C25.1521 30.3361 25.1004 30.2567 25.1004 30.1588V29.021C25.1004 28.9231 25.1521 28.8438 25.2159 28.8438H25.2166C25.2804 28.8438 25.332 28.9231 25.332 29.021Z" fill="white"/>
</g>
<g opacity="0.3">
<path d="M25.332 31.521V32.6588C25.332 32.7567 25.2804 32.8361 25.2166 32.8361H25.2159C25.1521 32.8361 25.1004 32.7567 25.1004 32.6588V31.521C25.1004 31.4231 25.1521 31.3438 25.2159 31.3438H25.2166C25.2804 31.3438 25.332 31.4231 25.332 31.521Z" fill="white"/>
</g>
<g opacity="0.3">
<path d="M25.6587 30.6547C25.6036 30.7025 25.5336 30.6728 25.5025 30.588C25.4704 30.5033 25.4891 30.3949 25.5442 30.3456L26.186 29.7738L26.1863 29.7735C26.2416 29.7248 26.3121 29.7541 26.3438 29.839L26.344 29.8395C26.3758 29.9244 26.3567 30.0327 26.3014 30.0815L25.6604 30.6532L25.6588 30.6547H25.6587Z" fill="white"/>
</g>
<g opacity="0.3">
<path d="M24.0916 31.8306L24.0914 31.8301C24.0597 31.7452 24.0788 31.6369 24.134 31.5881L24.7751 31.0164C24.8303 30.967 24.9012 30.9956 24.9337 31.0804C24.9657 31.1657 24.9467 31.2747 24.8912 31.324L24.2502 31.8958C24.1947 31.9449 24.1237 31.9158 24.0916 31.8306Z" fill="white"/>
</g>
<g opacity="0.3">
<path d="M26.3437 31.8388C26.3118 31.9235 26.2413 31.9525 26.1861 31.9035L25.5443 31.3318C25.4891 31.2821 25.4704 31.1732 25.5026 31.0882C25.5347 31.0034 25.6053 30.9749 25.6604 31.0241L26.3014 31.5959L26.3017 31.5962C26.3569 31.6451 26.3758 31.7536 26.3438 31.8383L26.3437 31.8388Z" fill="white"/>
</g>
<g opacity="0.3">
<path d="M24.9311 30.5899C24.8989 30.6744 24.8281 30.7028 24.7731 30.6533L24.1321 30.0815L24.1318 30.0813C24.0766 30.0323 24.0578 29.9238 24.0897 29.8391C24.1218 29.7539 24.1927 29.7247 24.2483 29.7739L24.8893 30.3456L24.8896 30.3459C24.9448 30.3949 24.9637 30.5034 24.9317 30.5881L24.9311 30.5899Z" fill="white"/>
</g>
<path d="M25.2158 30.5391C25.3231 30.5391 25.4102 30.6727 25.4102 30.8376C25.4102 31.0024 25.3231 31.136 25.2158 31.136C25.1085 31.136 25.0215 31.0024 25.0215 30.8375C25.0215 30.6726 25.1085 30.5391 25.2158 30.5391Z" fill="#263238"/>
<path opacity="0.3" d="M25.2189 34.4594C23.9171 34.4594 22.8617 32.8385 22.8617 30.8391C22.8617 28.8396 23.9171 27.2188 25.2189 27.2188C26.5208 27.2188 27.5762 28.8396 27.5762 30.8391C27.5762 32.8385 26.5208 34.4594 25.2189 34.4594Z" fill="black"/>
<path d="M18.043 32.4086C18.043 32.4086 17.5365 26.8008 21.036 26.8008C21.036 26.8008 22.9508 26.8228 23.2589 29.4419C23.567 32.0611 23.369 32.4086 23.369 32.4086H18.043Z" fill="#686868"/>
<path opacity="0.3" d="M18.043 32.4086C18.043 32.4086 17.5365 26.8008 21.036 26.8008C21.036 26.8008 22.9508 26.8228 23.2589 29.4419C23.567 32.0611 23.369 32.4086 23.369 32.4086H18.043Z" fill="black"/>
<path d="M34.0518 32.6312C34.0518 32.6312 33.4955 26.6504 37.1543 25.9375C37.1543 25.9375 39.218 25.9628 39.55 28.9692C39.8821 31.9757 38.4372 32.4941 38.4372 32.4941L34.0518 32.6312Z" fill="#3E7BBD"/>
<path opacity="0.3" d="M34.0518 32.6312C34.0518 32.6312 33.4955 26.6504 37.1543 25.9375C37.1543 25.9375 39.218 25.9628 39.55 28.9692C39.8821 31.9757 38.4372 32.4941 38.4372 32.4941L34.0518 32.6312Z" fill="black"/>
<path d="M37.2578 34.2954C37.2578 34.2954 36.0105 34.2954 35.4897 34.2833C34.8668 34.2689 34.236 34.0173 33.7632 33.2351C32.9086 31.8212 32.9086 29.5289 33.7632 28.1151C34.1904 27.4082 35.0133 27.0547 35.5733 27.0547H37.2414C38.096 28.4686 38.1124 32.8816 37.2578 34.2954Z" fill="black"/>
<path d="M37.2432 34.2955C36.0346 34.2955 35.0548 32.6746 35.0548 30.6751C35.0548 28.6756 36.0346 27.0547 37.2432 27.0547C38.4518 27.0547 39.4316 28.6756 39.4316 30.6751C39.4316 32.6746 38.4518 34.2955 37.2432 34.2955Z" fill="#263238"/>
<g opacity="0.3">
<path d="M37.3496 28.857V29.9947C37.3496 30.0926 37.3017 30.172 37.2425 30.172H37.2418C37.1826 30.172 37.1347 30.0926 37.1347 29.9947V28.857C37.1347 28.7591 37.1826 28.6797 37.2418 28.6797H37.2425C37.3017 28.6797 37.3496 28.759 37.3496 28.857Z" fill="white"/>
</g>
<g opacity="0.3">
<path d="M37.3496 31.357V32.4947C37.3496 32.5926 37.3017 32.672 37.2425 32.672H37.2418C37.1826 32.672 37.1347 32.5927 37.1347 32.4947V31.357C37.1347 31.2591 37.1826 31.1797 37.2418 31.1797H37.2425C37.3017 31.1797 37.3496 31.2591 37.3496 31.357Z" fill="white"/>
</g>
<g opacity="0.3">
<path d="M37.6502 30.4906C37.599 30.5385 37.5341 30.5087 37.5051 30.424C37.4754 30.3393 37.4927 30.2308 37.5439 30.1816L38.1398 29.6098L38.1401 29.6095C38.1913 29.5607 38.2569 29.5901 38.2864 29.675L38.2865 29.6755C38.316 29.7604 38.2983 29.8687 38.247 29.9175L37.6518 30.4892L37.6504 30.4906H37.6502Z" fill="white"/>
</g>
<g opacity="0.3">
<path d="M36.1979 31.6704L36.1977 31.6699C36.1682 31.585 36.186 31.4768 36.2373 31.428L36.8324 30.8562C36.8838 30.8068 36.9497 30.8354 36.9797 30.9203C37.0094 31.0056 36.9918 31.1145 36.9403 31.1639L36.3452 31.7356C36.2937 31.7848 36.2278 31.7556 36.198 31.6704H36.1979Z" fill="white"/>
</g>
<g opacity="0.3">
<path d="M38.2862 31.6747C38.2566 31.7595 38.1911 31.7884 38.1399 31.7395L37.544 31.1677C37.4927 31.1181 37.4755 31.0091 37.5053 30.9241C37.535 30.8394 37.6007 30.8108 37.6518 30.8601L38.247 31.4318L38.2473 31.4321C38.2985 31.4811 38.316 31.5895 38.2863 31.6743L38.2862 31.6747Z" fill="white"/>
</g>
<g opacity="0.3">
<path d="M36.9791 30.4258C36.9492 30.5103 36.8836 30.5387 36.8325 30.4892L36.2374 29.9175L36.2371 29.9172C36.1858 29.8682 36.1684 29.7598 36.198 29.675C36.2278 29.5898 36.2937 29.5607 36.3452 29.6098L36.9403 30.1816L36.9406 30.1819C36.9919 30.2309 37.0093 30.3393 36.9797 30.424L36.9791 30.4258Z" fill="white"/>
</g>
<path d="M37.2415 30.3789C37.3411 30.3789 37.4219 30.5125 37.4219 30.6774C37.4219 30.8423 37.3411 30.9758 37.2415 30.9758C37.1419 30.9758 37.061 30.8422 37.061 30.6774C37.061 30.5126 37.1419 30.3789 37.2415 30.3789Z" fill="#263238"/>
<path d="M20.834 34.7017C20.834 34.7017 19.4905 34.7017 18.9295 34.6896C18.2587 34.6752 17.5792 34.4236 17.0699 33.6413C16.1493 32.2274 16.1493 29.9352 17.0699 28.5213C17.5301 27.8144 18.4165 27.4609 19.0197 27.4609H20.8163C21.7369 28.8748 21.7546 33.2878 20.834 34.7017Z" fill="black"/>
<path d="M20.8147 34.7016C19.5128 34.7016 18.4574 33.0807 18.4574 31.0813C18.4574 29.0818 19.5128 27.4609 20.8147 27.4609C22.1165 27.4609 23.1719 29.0818 23.1719 31.0813C23.1719 33.0807 22.1165 34.7016 20.8147 34.7016Z" fill="#263238"/>
<g opacity="0.3">
<path d="M20.9316 29.2632V30.401C20.9316 30.4989 20.88 30.5783 20.8162 30.5783H20.8155C20.7517 30.5783 20.7 30.4989 20.7 30.401V29.2632C20.7 29.1653 20.7517 29.0859 20.8155 29.0859H20.8162C20.88 29.0859 20.9316 29.1653 20.9316 29.2632Z" fill="white"/>
</g>
<g opacity="0.3">
<path d="M20.9316 31.7632V32.901C20.9316 32.9989 20.88 33.0783 20.8162 33.0783H20.8155C20.7517 33.0783 20.7 32.9989 20.7 32.901V31.7632C20.7 31.6653 20.7517 31.5859 20.8155 31.5859H20.8162C20.88 31.5859 20.9316 31.6653 20.9316 31.7632Z" fill="white"/>
</g>
<g opacity="0.3">
<path d="M21.2583 30.8929C21.2032 30.9408 21.1332 30.911 21.1021 30.8263C21.0701 30.7416 21.0887 30.6331 21.1438 30.5839L21.7856 30.0121L21.7859 30.0118C21.8412 29.9631 21.9117 29.9924 21.9434 30.0773L21.9436 30.0778C21.9754 30.1627 21.9563 30.271 21.901 30.3198L21.26 30.8915L21.2584 30.8929H21.2583Z" fill="white"/>
</g>
<g opacity="0.3">
<path d="M19.6893 32.0728L19.6891 32.0723C19.6573 31.9874 19.6764 31.8791 19.7317 31.8303L20.3727 31.2586C20.428 31.2092 20.4989 31.2378 20.5313 31.3226C20.5633 31.4079 20.5444 31.5168 20.4889 31.5662L19.8479 32.138C19.7924 32.1871 19.7214 32.158 19.6893 32.0728Z" fill="white"/>
</g>
<g opacity="0.3">
<path d="M21.9433 32.081C21.9113 32.1657 21.8408 32.1947 21.7856 32.1457L21.1438 31.574C21.0886 31.5243 21.07 31.4154 21.1022 31.3304C21.1343 31.2456 21.2049 31.217 21.26 31.2663L21.901 31.8381L21.9013 31.8383C21.9565 31.8873 21.9754 31.9958 21.9435 32.0805L21.9433 32.081Z" fill="white"/>
</g>
<g opacity="0.3">
<path d="M20.5287 30.8282C20.4965 30.9126 20.4258 30.941 20.3708 30.8916L19.7298 30.3198L19.7295 30.3195C19.6743 30.2706 19.6554 30.1621 19.6874 30.0774C19.7195 29.9922 19.7905 29.963 19.8459 30.0122L20.487 30.5839L20.4873 30.5842C20.5424 30.6332 20.5613 30.7417 20.5294 30.8264L20.5287 30.8282Z" fill="white"/>
</g>
<path d="M20.8135 30.7812C20.9208 30.7812 21.0078 30.9149 21.0078 31.0798C21.0078 31.2446 20.9208 31.3782 20.8135 31.3782C20.7062 31.3782 20.6192 31.2445 20.6192 31.0797C20.6192 30.9148 20.7062 30.7812 20.8135 30.7812Z" fill="#263238"/>
<path d="M6.17389 34.4595C6.17389 34.4595 4.83035 34.4595 4.26937 34.4474C3.59851 34.433 2.91906 34.1814 2.40974 33.3991C1.48917 31.9852 1.48917 29.693 2.40974 28.2791C2.86998 27.5722 3.75634 27.2188 4.35953 27.2188H6.15616C7.07673 28.6326 7.09446 33.0456 6.17389 34.4595Z" fill="black"/>
<path d="M6.15645 34.4596C4.85459 34.4596 3.79922 32.8387 3.79922 30.8392C3.79922 28.8397 4.85459 27.2188 6.15645 27.2188C7.45831 27.2188 8.51367 28.8397 8.51367 30.8392C8.51367 32.8387 7.45831 34.4596 6.15645 34.4596Z" fill="#263238"/>
<path opacity="0.3" d="M6.15645 34.4596C4.85459 34.4596 3.79922 32.8387 3.79922 30.8392C3.79922 28.8397 4.85459 27.2188 6.15645 27.2188C7.45831 27.2188 8.51367 28.8397 8.51367 30.8392C8.51367 32.8387 7.45831 34.4596 6.15645 34.4596Z" fill="black"/>
<g opacity="0.3">
<path d="M6.26953 29.021V30.1588C6.26953 30.2567 6.21787 30.3361 6.15411 30.3361H6.15335C6.08959 30.3361 6.03793 30.2567 6.03793 30.1588V29.021C6.03793 28.9231 6.08959 28.8438 6.15335 28.8438H6.15411C6.21787 28.8438 6.26953 28.9231 6.26953 29.021Z" fill="white"/>
</g>
<g opacity="0.3">
<path d="M6.26953 31.521V32.6588C6.26953 32.7567 6.21787 32.8361 6.15411 32.8361H6.15335C6.08959 32.8361 6.03793 32.7567 6.03793 32.6588V31.521C6.03793 31.4231 6.08959 31.3438 6.15335 31.3438H6.15411C6.21787 31.3438 6.26953 31.4231 6.26953 31.521Z" fill="white"/>
</g>
<g opacity="0.3">
<path d="M6.59618 30.6547C6.54109 30.7025 6.47113 30.6728 6.43997 30.588C6.40794 30.5033 6.42662 30.3949 6.48171 30.3456L7.12351 29.7738L7.12379 29.7735C7.17907 29.7248 7.2496 29.7541 7.28134 29.839L7.28153 29.8395C7.31326 29.9244 7.2942 30.0327 7.23892 30.0815L6.59789 30.6532L6.59618 30.6547Z" fill="white"/>
</g>
<g opacity="0.3">
<path d="M5.02716 31.8306L5.02697 31.8301C4.99524 31.7452 5.0143 31.6369 5.06957 31.5881L5.71061 31.0164C5.76589 30.967 5.8368 30.9956 5.8692 31.0804C5.90122 31.1657 5.88226 31.2747 5.82679 31.324L5.18575 31.8958C5.13019 31.9449 5.05928 31.9158 5.02716 31.8306Z" fill="white"/>
</g>
<g opacity="0.3">
<path d="M7.28115 31.8388C7.24922 31.9235 7.1787 31.9525 7.12351 31.9035L6.48172 31.3318C6.42654 31.2821 6.40785 31.1732 6.44007 31.0882C6.47219 31.0034 6.54281 30.9749 6.5979 31.0241L7.23893 31.5959L7.23922 31.5962C7.2944 31.6451 7.31327 31.7536 7.28134 31.8383L7.28115 31.8388Z" fill="white"/>
</g>
<g opacity="0.3">
<path d="M5.86856 30.5899C5.83635 30.6744 5.76563 30.7028 5.71064 30.6533L5.06961 30.0815L5.06932 30.0813C5.01414 30.0323 4.99527 29.9238 5.02719 29.8391C5.05931 29.7539 5.13022 29.7247 5.18579 29.7739L5.82682 30.3456L5.82711 30.3459C5.88229 30.3949 5.90116 30.5034 5.86923 30.5881L5.86856 30.5899Z" fill="white"/>
</g>
<path d="M6.15333 30.5391C6.26064 30.5391 6.34766 30.6727 6.34766 30.8376C6.34766 31.0024 6.26064 31.136 6.15333 31.136C6.04601 31.136 5.959 31.0024 5.959 30.8375C5.959 30.6726 6.04601 30.5391 6.15333 30.5391Z" fill="#263238"/>
<path d="M39.893 26.1361C39.6908 25.0574 39.3537 23.3045 39.1851 23.1023C39.0165 22.9 38.1401 22.8326 38.1401 22.8326C37.2299 21.8214 34.331 20.1023 32.8478 19.3606C31.3647 18.619 30.2185 18.4505 24.5892 18.1134C18.9598 17.7763 15.6227 18.5854 15.6227 18.5854C12.7575 18.8887 8.00455 22.9675 8.00455 22.9675C5.31394 23.4712 3.48758 24.8552 3.48758 24.8552C3.48758 24.8552 2.03815 25.0575 1.39769 25.7653C0.757225 26.4732 0.689842 27.2822 0.689842 27.2822C0.689842 27.2822 0.319099 27.2822 0.116764 27.5856C-0.0854759 27.889 0.0156441 29.9789 0.116764 31.0239C0.217884 32.0688 1.02685 32.5408 1.02685 32.5408L17.393 32.4407H17.397C17.7437 32.4386 18.0205 32.1546 18.0177 31.808C18.0057 30.3436 18.2655 26.8289 21.0359 26.8289C21.0359 26.8289 22.9507 26.8509 23.2588 29.47C23.523 31.7157 23.4151 32.291 23.379 32.4095L34.7357 32.5409L34.8029 32.5264C34.7638 31.8143 34.4699 28.4493 36.18 27.2212C36.6919 26.8536 37.5754 26.8109 38.1084 27.1474C38.6474 27.4877 39.2725 28.1864 39.4158 29.614C39.4849 30.1605 39.4853 30.6539 39.4642 31.3284L39.8932 31.0915C39.9606 30.687 40.0952 27.2147 39.893 26.1361Z" fill="#D0D5DD"/>
<path d="M2.25764 26.9317C2.17405 27.0431 1.36061 28.1872 1.36061 28.1872C1.15103 28.2987 2.03491 28.946 2.03491 28.8415H8.99621L10.8789 28.1983C10.8148 28.0414 10.086 27.0153 9.47303 26.9317C8.86012 26.8481 2.25764 26.9317 2.25764 26.9317Z" fill="#474747"/>
<path d="M30.6625 31.6736C30.6687 31.6736 30.6739 31.6688 30.6744 31.6625C30.6759 31.6419 30.8269 29.5903 30.8586 28.443C30.8645 28.227 30.8875 27.7517 30.914 27.2014C30.9703 26.0322 31.0475 24.4309 31.0254 24.0052C30.993 23.3814 30.3212 22.9169 30.3144 22.9122C30.309 22.9085 30.3016 22.91 30.2978 22.9153C30.2941 22.9208 30.2956 22.9282 30.301 22.9319C30.3077 22.9365 30.9699 23.3945 31.0016 24.0064C31.0236 24.4308 30.9465 26.0315 30.8903 27.2002C30.8638 27.7506 30.8408 28.2261 30.8348 28.4423C30.8031 29.589 30.6522 31.6402 30.6507 31.6609C30.6502 31.6674 30.6551 31.6731 30.6616 31.6737H30.6625V31.6736Z" fill="#263238"/>
<path d="M23.9902 31.946H23.9907L34.3533 31.5248C34.3592 31.5245 34.364 31.52 34.3646 31.5143L34.5454 29.9429C35.0129 27.7452 35.9032 27.0363 36.3815 26.6555C36.5264 26.5402 36.6311 26.4568 36.664 26.3727C36.797 26.0332 36.9688 23.342 36.9326 22.9802C36.9074 22.7289 36.1979 22.199 35.7739 21.8823C35.6289 21.774 35.5143 21.6885 35.4845 21.6562C35.4801 21.6514 35.4725 21.651 35.4676 21.6555C35.4628 21.66 35.4625 21.6675 35.467 21.6724C35.4982 21.7062 35.6079 21.7882 35.7597 21.9014C36.1804 22.2157 36.8848 22.7416 36.9089 22.9825C36.9437 23.3299 36.7685 26.0407 36.6419 26.3639C36.6113 26.4421 36.5088 26.5239 36.3668 26.6368C35.8861 27.0196 34.9915 27.7319 34.5221 29.9389L34.3422 31.5015L23.9987 31.9218C23.9836 31.8309 23.9984 30.9539 24.0154 29.9431C24.0505 27.8496 24.0988 24.9826 23.9878 24.4713C23.7687 23.4611 22.8593 23.1543 22.8501 23.1512C22.8439 23.1493 22.8372 23.1527 22.8352 23.1589C22.8332 23.1652 22.8365 23.1719 22.8428 23.1739C22.8519 23.1768 23.7483 23.4798 23.9646 24.4763C24.0748 24.9848 24.0247 27.9684 23.9915 29.9425C23.9629 31.6497 23.9618 31.9302 23.984 31.9441C23.9859 31.9452 23.988 31.9459 23.9903 31.9459L23.9902 31.946Z" fill="#263238"/>
<path d="M8.99953 22.8717H21.394C21.394 22.8717 24.5479 19.9113 25.4609 18.9708C24.3185 18.7997 17.5933 18.6757 15.5288 18.9708C15.5288 18.9708 11.9876 19.6071 8.99963 22.8717H8.99953Z" fill="#676767"/>
<path d="M22.8068 22.8675C22.8068 22.8675 26.0938 19.5322 26.7705 19.2422C27.4471 18.9521 29.719 19.1213 30.6374 19.2422C31.5558 19.363 34.8926 20.8144 35.4727 21.6603C35.4727 21.6603 34.9394 22.4324 33.9968 22.6741C33.0542 22.9158 33.2959 22.7467 31.3141 22.8675C29.3323 22.9884 22.8068 23.1816 22.8068 23.1816V22.8675Z" fill="#474747"/>
<path opacity="0.7" d="M0.690375 27.2515C0.769861 27.3619 0.832668 27.9794 1.41223 27.9846L2.03906 27.21C2.03906 27.21 1.75552 26.0098 1.93308 25.3281C1.93308 25.3281 1.36915 25.6814 1.16281 26.0343C0.956567 26.3874 0.690375 27.2515 0.690375 27.2515Z" fill="white"/>
<path opacity="0.3" d="M16.6563 25.1374C16.6563 25.1374 17.3642 24.8381 20.9821 24.094L22.8096 23.1836C23.083 23.2021 23.3638 23.4081 23.6488 23.7274C24.8165 23.9552 32.373 23.3365 32.373 23.3365C32.373 23.3365 24.6328 23.9412 22.3052 24.094C19.9776 24.2466 20.0375 24.2569 16.6563 25.1374Z" fill="black"/>
<path d="M39.3181 23.4346C39.2943 23.4215 38.485 23.5424 37.9412 23.6824C37.9412 23.6824 39.0109 24.881 39.3667 24.9387L39.6523 24.8847C39.6523 24.8847 39.6033 23.5907 39.3181 23.4346Z" fill="#D7504D"/>
<path d="M16.2555 25.6409C16.2573 25.6409 16.259 25.6406 16.2607 25.6398C16.2666 25.6369 16.2692 25.6299 16.2664 25.6239C16.266 25.6232 16.2328 25.5501 16.2749 25.4519C16.3157 25.3568 16.4363 25.2196 16.7794 25.1051C16.9837 25.0371 17.4498 24.9204 17.9897 24.7855C19.2223 24.4771 20.9104 24.0547 21.0483 23.8185C21.2418 23.4866 21.4042 22.8804 21.4058 22.8744C21.4076 22.8681 21.4037 22.8614 21.3975 22.8598C21.391 22.8581 21.3845 22.8619 21.3829 22.8683C21.3812 22.8743 21.2197 23.4775 21.0277 23.8066C20.8948 24.0342 19.2124 24.455 17.9838 24.7624C17.4435 24.8975 16.9769 25.0143 16.7718 25.0826C16.489 25.1768 16.3143 25.2983 16.2526 25.4434C16.2067 25.5514 16.2432 25.6307 16.2448 25.6341C16.2468 25.6384 16.2511 25.6408 16.2555 25.6408V25.6409Z" fill="#263238"/>
<path opacity="0.3" d="M24.3574 31.1982C24.3574 31.1982 33.7967 31.0658 33.9175 30.8848C34.0381 30.7038 33.2265 30.1563 33.2265 30.1563C33.1058 30.073 24.418 30.671 24.3574 31.1982Z" fill="white"/>
<path d="M5.23173 27.3758C4.73516 27.3758 4.33261 27.2043 4.33261 26.9926C4.33261 26.781 4.73516 26.6094 5.23173 26.6094C5.72831 26.6094 6.13086 26.781 6.13086 26.9926C6.13086 27.2043 5.72831 27.3758 5.23173 27.3758Z" fill="#E0E0E0"/>
<path d="M1.75941 30.8033C1.75941 30.8033 1.02651 31.1463 1.05519 31.1475C1.08388 31.1488 1.22703 31.8937 1.22703 31.8937L12.4828 31.7381L13.543 30.8393L10.1632 30.793L1.75941 30.8033Z" fill="#263238"/>
<path d="M16.3789 30.8359C16.3444 30.8939 15.3185 30.8359 15.3185 30.8359L14.2802 31.7125L15.8067 31.6768L16.3789 30.8359Z" fill="#263238"/>
<path opacity="0.7" d="M10.7156 26.7975C10.7156 26.7975 16.7623 25.4388 17.2295 25.4856C17.6967 25.5324 18.9892 25.9105 18.8956 26.2619C18.8019 26.6133 17.8138 27.1488 16.5019 27.3597C15.457 27.5276 13.7611 27.7345 12.6367 27.8048C11.2643 27.8905 10.7157 26.7975 10.7157 26.7975H10.7156Z" fill="white"/>
<path opacity="0.3" d="M10.9902 29.3428C10.9902 29.3428 13.2929 28.2191 14.1823 28.2191C15.0717 28.2191 19.0391 27.0547 19.0391 27.0547C19.0391 27.0547 16.0708 28.9343 15.4143 29.0904C14.7579 29.2466 10.9902 29.3427 10.9902 29.3427V29.3428Z" fill="black"/>
<path opacity="0.3" d="M9.70015 22.6087C9.70015 22.6087 13.0477 19.57 15.8415 19.2866C18.6354 19.0033 20.3789 19.0852 20.3789 19.0852C20.3789 19.0852 19.5489 21.213 18.0156 21.6341C16.4824 22.0552 9.70005 22.6087 9.70005 22.6087H9.70015Z" fill="white"/>
<path opacity="0.3" d="M0.230653 27.8126C0.230653 27.8126 0.151355 28.4126 0.296793 28.6902C0.442231 28.9679 1.79102 29.3359 1.79102 29.3359L0.230653 27.8125V27.8126Z" fill="black"/>
<path opacity="0.7" d="M16.6055 26.6183C16.6055 26.9922 16.1992 27.2952 15.698 27.2952C15.1967 27.2952 14.7904 26.9922 14.7904 26.6183C14.7904 26.2444 15.1967 25.9414 15.698 25.9414C16.1992 25.9414 16.6055 26.2445 16.6055 26.6183Z" fill="white"/>
<path opacity="0.7" d="M15.925 25.8926L17.2277 25.7639C17.2277 25.7639 17.6158 26.5764 16.8439 27.0524C16.8439 27.0524 17.7954 26.7719 17.5056 25.7639C17.4872 25.6751 17.4468 25.5835 17.2278 25.6295C17.157 25.6443 15.925 25.8926 15.925 25.8926Z" fill="#FF9F78"/>
<path d="M22.7979 23.1986L22.8102 23.1982C22.8755 23.1962 29.3586 23.0036 31.3179 22.8841C32.1347 22.8344 32.5793 22.8338 32.8735 22.8334C33.3028 22.8328 33.4474 22.8327 34.0029 22.6904C34.939 22.4503 35.4801 21.6795 35.4856 21.6717L35.4902 21.665L35.4856 21.6583C34.9027 20.8082 31.5784 19.3582 30.6421 19.235C29.7142 19.113 27.4506 18.9438 26.7689 19.2359C26.0978 19.5236 22.8343 22.8306 22.8016 22.8638L22.7981 22.8673V23.1986H22.7979ZM35.4611 21.6649C35.4059 21.7409 34.8777 22.4413 33.9968 22.6673C33.4444 22.8089 33.3005 22.809 32.8733 22.8096C32.5789 22.81 32.1338 22.8105 31.3163 22.8603C29.398 22.9774 23.1418 23.1645 22.8217 23.174V22.8772C22.9448 22.7523 26.1209 19.5394 26.778 19.2578C27.4551 18.9677 29.7127 19.1367 30.6387 19.2586C31.5698 19.3812 34.8677 20.8177 35.4611 21.6649Z" fill="black"/>
<path opacity="0.3" d="M28.9622 24.6775L30.1608 24.5827C30.2748 24.5737 30.3745 24.6588 30.3835 24.7728L30.3997 24.9773C30.4087 25.0913 30.3236 25.191 30.2096 25.2L29.011 25.2948C28.897 25.3038 28.7973 25.2187 28.7883 25.1047L28.7721 24.9002C28.7631 24.7862 28.8482 24.6865 28.9622 24.6775Z" fill="black"/>
<path opacity="0.3" d="M34.7493 24.0564L35.9479 23.9616C36.0619 23.9526 36.1616 24.0377 36.1706 24.1517L36.1868 24.3562C36.1958 24.4702 36.1107 24.5699 35.9967 24.5789L34.7981 24.6737C34.6841 24.6827 34.5844 24.5976 34.5754 24.4836L34.5592 24.2791C34.5502 24.1651 34.6353 24.0654 34.7493 24.0564Z" fill="black"/>
<path d="M29.8856 19.1656C29.9473 19.1708 30.6641 22.9224 30.6641 22.9224H29.625L29.1428 19.1133C29.1428 19.1133 29.8239 19.1604 29.8856 19.1656Z" fill="black"/>
<path d="M23.909 21.7734L24.4668 23.1051L22.8068 23.1841V22.8416L23.909 21.7734Z" fill="black"/>
<path d="M26.2922 22.1825C26.2836 22.1708 26.2747 22.1588 26.2658 22.1464C26.0491 21.8484 25.0871 21.469 24.1658 21.7806C23.4936 22.008 23.6148 22.7978 23.7295 23.2084C23.7846 23.4055 23.9495 23.5512 24.1521 23.5809C24.7033 23.6615 25.7213 23.5822 25.9813 23.4471C25.9953 23.4398 26.0091 23.4323 26.0227 23.4248C26.4676 23.1756 26.5943 22.5935 26.2922 22.1825Z" fill="#EEF3F6"/>
<path d="M24.6888 23.6245C25.2053 23.6245 25.7947 23.5573 25.9867 23.4574C26.0008 23.4501 26.0147 23.4426 26.0284 23.435C26.2436 23.3144 26.3971 23.1072 26.4493 22.8662C26.5014 22.6256 26.4476 22.3737 26.3018 22.1753L26.2755 22.1392C26.0522 21.8322 25.0801 21.4585 24.162 21.7691C23.4889 21.9968 23.5949 22.7705 23.718 23.2114C23.7742 23.4127 23.944 23.5624 24.1504 23.5925C24.301 23.6144 24.4896 23.6245 24.6889 23.6245H24.6888ZM24.8926 21.6758C25.5368 21.6758 26.0951 21.9319 26.2561 22.1533L26.2825 22.1895C26.4243 22.3824 26.4767 22.6272 26.426 22.8612C26.3752 23.0955 26.226 23.297 26.0167 23.4142C26.0033 23.4218 25.9895 23.4291 25.9756 23.4363C25.7125 23.5732 24.691 23.6477 24.1536 23.569C23.9566 23.5402 23.7944 23.3973 23.7408 23.2052C23.6199 22.7723 23.5149 22.0132 24.1695 21.7918C24.4118 21.7099 24.6579 21.6759 24.8925 21.6759L24.8926 21.6758Z" fill="black"/>
<path opacity="0.3" d="M24.0503 22.026C24.0503 22.026 24.2762 21.8515 24.6767 21.8309C25.0772 21.8104 26.1249 21.8906 26.2682 22.4811C26.4116 23.0715 23.5496 22.209 24.0503 22.026Z" fill="white"/>
<path d="M11.4922 13.8486C13.3021 13.8614 15.2763 13.9739 16.7402 14.1465C17.3589 14.4643 17.9663 15.1291 18.5352 16.0332C19.1175 16.9587 19.6229 18.0746 20.0391 19.1621C20.4542 20.2468 20.7749 21.2894 20.9922 22.0615C21.0576 22.2939 21.1101 22.5023 21.1562 22.6787C20.9127 22.6742 20.6115 22.6699 20.2646 22.668C19.3263 22.6629 18.0396 22.6661 16.6211 22.6729C13.9392 22.6857 10.7845 22.7092 8.59375 22.7119C8.53993 22.5162 8.46755 22.2501 8.38184 21.9336C8.19579 21.2467 7.94813 20.3239 7.69629 19.3721C7.18732 17.4484 6.67589 15.4587 6.60156 15C6.56249 14.759 6.67562 14.5649 6.8916 14.3877C6.99685 14.3013 7.10984 14.2348 7.19922 14.1895C7.24305 14.1672 7.2791 14.1506 7.30273 14.1406C7.30559 14.1394 7.30808 14.1377 7.31055 14.1367C7.65171 14.0378 8.2206 13.9605 8.96094 13.9111C9.69748 13.862 10.5705 13.8421 11.4922 13.8486Z" fill="#92959B" stroke="#D0D5DD"/>
<path d="M21.3971 22.7891C21.3971 22.7891 21.2159 23.6365 20.9498 23.8089C20.4097 24.1588 18.5169 24.6022 17.1775 24.971C16.2511 25.226 16.2065 25.4394 16.2511 25.6706C13.4386 25.9145 11.9529 25.8155 11.7701 25.824C11.4566 25.8386 11.0883 25.8489 10.6818 25.8552C9.54402 25.8727 8.10783 25.8586 6.74174 25.8176C4.51633 25.7506 2.90802 26.0066 2.64665 25.8176C2.13411 25.447 7.36965 23.364 7.36965 23.364C8.40601 22.7891 8.78547 22.7891 8.78547 22.7891L21.3971 22.7891Z" fill="#474747"/>
<path d="M18.889 20.9645C18.7338 20.5563 17.5862 17.117 15.9986 16.4175C14.411 15.7179 9.39026 15.2282 9.01026 16.0677C8.63026 16.9072 10.1772 21.1045 10.9643 21.4892C11.7514 21.8739 13.3525 20.8246 15.1166 21.1743C16.8807 21.5241 19.3775 22.2489 18.889 20.9645Z" fill="#818285"/>
<path d="M7.47829 19.508C7.47829 19.508 4.15165 23.7289 3.88867 25.0111H4.38375C4.38375 25.0111 5.38947 22.4466 7.75685 19.7832L7.47829 19.5078V19.508Z" fill="#4D4D4D"/>
<path d="M5.25011 25.1248C5.25011 25.1248 5.23809 24.5347 5.46742 24.4192C5.69688 24.3037 7.65278 23.6367 7.7615 23.6367C7.87023 23.6367 8.90855 23.6495 8.93273 23.7266C8.9569 23.8036 7.15053 24.4706 7.08778 24.663C7.02504 24.8555 7.14578 25.0479 7.01302 25.1248C6.88026 25.2017 5.25025 25.1248 5.25025 25.1248H5.25011Z" fill="#676767"/>
<path d="M14.3055 24.1507C13.9916 24.2405 13.6776 24.0224 13.3275 24.2405C13.0356 24.4224 11.8666 25.0144 11.5052 25.4814C10.3214 25.4976 8.8271 25.4845 7.40573 25.4466C7.36101 25.1993 7.32076 24.7904 7.51976 24.7023C7.8096 24.574 9.59654 23.6889 9.83803 23.7017C10.0795 23.7145 13.7983 23.4965 14.0398 23.6375C14.2813 23.7786 14.6193 24.0609 14.3055 24.1507Z" fill="#676767"/>
<path d="M14.8281 24.2466C14.8281 24.2466 14.9596 24.0247 15.1143 23.889C15.2691 23.7535 15.6172 23.6055 15.6172 23.6055H17.0445C17.0445 23.6055 16.708 23.9754 16.4991 24.1109C16.2902 24.2465 15.8841 24.2465 15.8841 24.2465H14.8281V24.2466Z" fill="#676767"/>
<path d="M7.90639 24.6904C7.90639 24.6904 9.66916 23.8438 9.85027 23.8438H11.0158C11.0158 23.8438 9.657 24.6776 9.62081 24.6904C9.58461 24.7032 7.90625 24.6904 7.90625 24.6904H7.90639Z" fill="#959595"/>
<path d="M5.59766 24.4696L7.74934 23.7383H8.08739L6.30044 24.4696H5.59766Z" fill="#959595"/>
<path d="M10.5942 24.2695L9.84961 24.6957L11.3983 24.7582L11.8861 24.3095L10.5942 24.2695Z" fill="#959595"/>
<path d="M15.9363 23.6914H15.6939L15.2297 23.9895L15.1445 24.1619H15.503L15.6216 23.9344L15.9363 23.6914Z" fill="#959595"/>
<path d="M13.4434 25.3618C13.4661 25.3254 14.6617 24.5391 14.787 24.5391C14.9123 24.5391 15.9371 24.6075 15.9371 24.6075L14.9578 24.9503H14.582L13.9557 25.3616H13.4434V25.3618Z" fill="#666666"/>
<defs>
<linearGradient id="paint0_linear_9045_99479" x1="19.1517" y1="8.93316" x2="21.1372" y2="-0.0543959" gradientUnits="userSpaceOnUse">
<stop stop-color="#00341F" stop-opacity="0"/>
<stop offset="1" stop-color="#00341F"/>
</linearGradient>
<linearGradient id="paint1_linear_9045_99479" x1="19.9842" y1="16.3272" x2="25.0045" y2="-3.07211" gradientUnits="userSpaceOnUse">
<stop stop-color="#00341F" stop-opacity="0.48"/>
<stop offset="0.440496" stop-color="#BBFFE3" stop-opacity="0.2"/>
<stop offset="1" stop-color="#00341F"/>
</linearGradient>
</defs>
</svg>
