<svg width="40" height="40" viewBox="0 0 40 40" fill="none" xmlns="http://www.w3.org/2000/svg">
<g clip-path="url(#clip0_9045_99670)">
<g clip-path="url(#clip1_9045_99670)">
<ellipse opacity="0.7" cx="21.5" cy="0.5" rx="21.5" ry="0.5" transform="matrix(-1 0 0 1 48.8555 34.6367)" fill="url(#paint0_radial_9045_99670)"/>
<path d="M31.835 35.1152C31.835 35.1152 30.5742 35.1152 30.0477 35.1038C29.4182 35.0903 28.7806 34.8542 28.3026 34.1201C27.4387 32.7933 27.4387 30.6422 28.3026 29.3154C28.7345 28.652 29.5663 28.3203 30.1323 28.3203H31.8183C32.6822 29.6471 32.6988 33.7884 31.835 35.1152Z" fill="black"/>
<path d="M31.8172 35.1151C30.5955 35.1151 29.6051 33.594 29.6051 31.7177C29.6051 29.8414 30.5955 28.3203 31.8172 28.3203C33.0389 28.3203 34.0293 29.8414 34.0293 31.7177C34.0293 33.594 33.0389 35.1151 31.8172 35.1151Z" fill="#263238"/>
<g opacity="0.3">
<path d="M31.9238 30.0101V31.0778C31.9238 31.1697 31.8754 31.2442 31.8155 31.2442H31.8148C31.755 31.2442 31.7065 31.1697 31.7065 31.0778V30.0101C31.7065 29.9183 31.755 29.8438 31.8148 29.8438H31.8155C31.8754 29.8438 31.9238 29.9183 31.9238 30.0101Z" fill="white"/>
</g>
<g opacity="0.3">
<path d="M31.9238 32.3578V33.4255C31.9238 33.5173 31.8754 33.5918 31.8155 33.5918H31.8148C31.755 33.5918 31.7065 33.5173 31.7065 33.4255V32.3578C31.7065 32.2659 31.755 32.1914 31.8148 32.1914H31.8155C31.8754 32.1914 31.9238 32.2659 31.9238 32.3578Z" fill="white"/>
</g>
<g opacity="0.3">
<path d="M32.2292 31.5443C32.1775 31.5892 32.1118 31.5613 32.0826 31.4817C32.0525 31.4022 32.07 31.3005 32.1217 31.2542L32.724 30.7177L32.7243 30.7174C32.7762 30.6717 32.8424 30.6992 32.8721 30.7789L32.8723 30.7793C32.9021 30.859 32.8842 30.9606 32.8323 31.0064L32.2308 31.5429L32.2292 31.5443H32.2292Z" fill="white"/>
</g>
<g opacity="0.3">
<path d="M30.7577 32.65L30.7575 32.6496C30.7277 32.5699 30.7456 32.4683 30.7975 32.4225L31.3991 31.886C31.4509 31.8397 31.5175 31.8665 31.5479 31.9461C31.5779 32.0261 31.5601 32.1284 31.5081 32.1747L30.9065 32.7112C30.8545 32.7574 30.7878 32.73 30.7577 32.65Z" fill="white"/>
</g>
<g opacity="0.3">
<path d="M32.8721 32.6543C32.8421 32.7339 32.7759 32.761 32.7241 32.7151L32.1218 32.1785C32.0701 32.1319 32.0525 32.0297 32.0827 31.9499C32.1128 31.8704 32.1791 31.8436 32.2308 31.8898L32.8323 32.4264L32.8326 32.4266C32.8844 32.4726 32.9021 32.5744 32.8721 32.6539L32.8721 32.6543Z" fill="white"/>
</g>
<g opacity="0.3">
<path d="M31.5473 31.4835C31.5171 31.5627 31.4507 31.5894 31.3991 31.543L30.7975 31.0064L30.7973 31.0062C30.7455 30.9602 30.7278 30.8584 30.7577 30.7789C30.7879 30.699 30.8544 30.6716 30.9066 30.7177L31.5081 31.2543L31.5084 31.2545C31.5602 31.3005 31.5779 31.4023 31.5479 31.4818L31.5473 31.4835Z" fill="white"/>
</g>
<path d="M31.8137 31.4375C31.9144 31.4375 31.9961 31.5629 31.9961 31.7176C31.9961 31.8723 31.9144 31.9977 31.8137 31.9977C31.713 31.9977 31.6314 31.8723 31.6314 31.7175C31.6314 31.5628 31.713 31.4375 31.8137 31.4375Z" fill="#263238"/>
<path opacity="0.3" d="M31.8172 35.1151C30.5955 35.1151 29.6051 33.594 29.6051 31.7177C29.6051 29.8414 30.5955 28.3203 31.8172 28.3203C33.0389 28.3203 34.0293 29.8414 34.0293 31.7177C34.0293 33.594 33.0389 35.1151 31.8172 35.1151Z" fill="black"/>
<path d="M25.0818 33.1883C25.0818 33.1883 24.6065 27.9258 27.8905 27.9258C27.8905 27.9258 29.6874 27.9464 29.9766 30.4043C30.2657 32.8621 30.0799 33.1883 30.0799 33.1883H25.0818Z" fill="#3E7BBD"/>
<path opacity="0.3" d="M25.0818 33.1883C25.0818 33.1883 24.6065 27.9258 27.8905 27.9258C27.8905 27.9258 29.6874 27.9464 29.9766 30.4043C30.2657 32.8621 30.0799 33.1883 30.0799 33.1883H25.0818Z" fill="black"/>
<path d="M40.1062 33.3987C40.1062 33.3987 39.5842 27.7862 43.0178 27.1172C43.0178 27.1172 44.9544 27.1409 45.266 29.9622C45.5776 32.7835 44.2217 33.2701 44.2217 33.2701L40.1062 33.3987Z" fill="#3E7BBD"/>
<path opacity="0.3" d="M40.1062 33.3987C40.1062 33.3987 39.5842 27.7862 43.0178 27.1172C43.0178 27.1172 44.9544 27.1409 45.266 29.9622C45.5776 32.7835 44.2217 33.2701 44.2217 33.2701L40.1062 33.3987Z" fill="black"/>
<path d="M43.1132 34.9589C43.1132 34.9589 41.9427 34.9589 41.4539 34.9476C40.8694 34.9341 40.2774 34.698 39.8337 33.9638C39.0317 32.637 39.0317 30.486 39.8337 29.1591C40.2347 28.4958 41.0069 28.1641 41.5324 28.1641H43.0978C43.8998 29.4909 43.9152 33.6321 43.1132 34.9589Z" fill="black"/>
<path d="M27.7842 35.1152C27.7842 35.1152 26.5234 35.1152 25.997 35.1038C25.3674 35.0903 24.7298 34.8542 24.2518 34.1201C23.3879 32.7933 23.3879 30.6422 24.2518 29.3154C24.6837 28.652 25.5155 28.3203 26.0816 28.3203H27.7676C28.6315 29.6471 28.6481 33.7884 27.7842 35.1152Z" fill="black"/>
<path d="M27.7664 35.1151C26.5447 35.1151 25.5543 33.594 25.5543 31.7177C25.5543 29.8414 26.5447 28.3203 27.7664 28.3203C28.9881 28.3203 29.9785 29.8414 29.9785 31.7177C29.9785 33.594 28.9881 35.1151 27.7664 35.1151Z" fill="#263238"/>
<g opacity="0.3">
<path d="M27.877 30.0101V31.0778C27.877 31.1697 27.8285 31.2442 27.7686 31.2442H27.7679C27.7081 31.2442 27.6596 31.1697 27.6596 31.0778V30.0101C27.6596 29.9183 27.7081 29.8438 27.7679 29.8438H27.7686C27.8285 29.8438 27.877 29.9183 27.877 30.0101Z" fill="white"/>
</g>
<g opacity="0.3">
<path d="M27.877 32.3578V33.4255C27.877 33.5173 27.8285 33.5918 27.7686 33.5918H27.7679C27.7081 33.5918 27.6596 33.5173 27.6596 33.4255V32.3578C27.6596 32.2659 27.7081 32.1914 27.7679 32.1914H27.7686C27.8285 32.1914 27.877 32.2659 27.877 32.3578Z" fill="white"/>
</g>
<g opacity="0.3">
<path d="M28.1823 31.5443C28.1306 31.5892 28.0649 31.5613 28.0357 31.4817C28.0056 31.4022 28.0232 31.3005 28.0749 31.2542L28.6772 30.7177L28.6774 30.7174C28.7293 30.6717 28.7955 30.6992 28.8253 30.7789L28.8254 30.7793C28.8552 30.859 28.8373 30.9606 28.7855 31.0064L28.1839 31.5429L28.1824 31.5443H28.1823Z" fill="white"/>
</g>
<g opacity="0.3">
<path d="M26.7089 32.65L26.7087 32.6496C26.6789 32.5699 26.6968 32.4683 26.7487 32.4225L27.3502 31.886C27.4021 31.8397 27.4687 31.8665 27.4991 31.9461C27.5291 32.0261 27.5113 32.1284 27.4593 32.1747L26.8577 32.7112C26.8056 32.7574 26.739 32.73 26.7089 32.65Z" fill="white"/>
</g>
<g opacity="0.3">
<path d="M28.8231 32.6543C28.7932 32.7339 28.727 32.761 28.6752 32.7151L28.0729 32.1785C28.0211 32.1319 28.0036 32.0297 28.0338 31.9499C28.064 31.8704 28.1303 31.8436 28.1819 31.8898L28.7835 32.4264L28.7838 32.4266C28.8356 32.4726 28.8533 32.5744 28.8233 32.6539L28.8231 32.6543Z" fill="white"/>
</g>
<g opacity="0.3">
<path d="M27.4985 31.4835C27.4682 31.5627 27.4019 31.5894 27.3503 31.543L26.7487 31.0064L26.7484 31.0062C26.6966 30.9602 26.6789 30.8584 26.7089 30.7789C26.739 30.699 26.8057 30.6716 26.8577 30.7177L27.4593 31.2543L27.4596 31.2545C27.5113 31.3005 27.5291 31.4023 27.4991 31.4818L27.4985 31.4835Z" fill="white"/>
</g>
<path d="M27.7669 31.4375C27.8676 31.4375 27.9492 31.5629 27.9492 31.7176C27.9492 31.8723 27.8676 31.9977 27.7669 31.9977C27.6661 31.9977 27.5845 31.8723 27.5845 31.7175C27.5845 31.5628 27.6661 31.4375 27.7669 31.4375Z" fill="#263238"/>
<path d="M13.9444 35.1152C13.9444 35.1152 12.6835 35.1152 12.1571 35.1038C11.5275 35.0903 10.8899 34.8542 10.412 34.1201C9.54809 32.7933 9.54809 30.6422 10.412 29.3154C10.8439 28.652 11.6757 28.3203 12.2417 28.3203H13.9277C14.7916 29.6471 14.8083 33.7884 13.9444 35.1152Z" fill="black"/>
<path d="M13.9285 35.1153C12.7068 35.1153 11.7164 33.5942 11.7164 31.7178C11.7164 29.8414 12.7068 28.3203 13.9285 28.3203C15.1502 28.3203 16.1406 29.8414 16.1406 31.7178C16.1406 33.5942 15.1502 35.1153 13.9285 35.1153Z" fill="#263238"/>
<path opacity="0.3" d="M13.9285 35.1153C12.7068 35.1153 11.7164 33.5942 11.7164 31.7178C11.7164 29.8414 12.7068 28.3203 13.9285 28.3203C15.1502 28.3203 16.1406 29.8414 16.1406 31.7178C16.1406 33.5942 15.1502 35.1153 13.9285 35.1153Z" fill="black"/>
<g opacity="0.3">
<path d="M14.0352 30.0101V31.0778C14.0352 31.1697 13.9867 31.2442 13.9268 31.2442H13.9261C13.8663 31.2442 13.8178 31.1697 13.8178 31.0778V30.0101C13.8178 29.9183 13.8663 29.8438 13.9261 29.8438H13.9268C13.9867 29.8438 14.0352 29.9183 14.0352 30.0101Z" fill="white"/>
</g>
<g opacity="0.3">
<path d="M14.0352 32.3578V33.4255C14.0352 33.5173 13.9867 33.5918 13.9268 33.5918H13.9261C13.8663 33.5918 13.8178 33.5173 13.8178 33.4255V32.3578C13.8178 32.2659 13.8663 32.1914 13.9261 32.1914H13.9268C13.9867 32.1914 14.0352 32.2659 14.0352 32.3578Z" fill="white"/>
</g>
<g opacity="0.3">
<path d="M14.3424 31.5443C14.2907 31.5892 14.2251 31.5613 14.1959 31.4817C14.1658 31.4022 14.1833 31.3005 14.235 31.2542L14.8373 30.7177L14.8376 30.7174C14.8894 30.6717 14.9556 30.6992 14.9854 30.7789L14.9856 30.7793C15.0154 30.859 14.9975 30.9606 14.9456 31.0064L14.3441 31.5429L14.3424 31.5443Z" fill="white"/>
</g>
<g opacity="0.3">
<path d="M12.869 32.65L12.8688 32.6496C12.8391 32.5699 12.857 32.4683 12.9088 32.4225L13.5104 31.886C13.5623 31.8397 13.6288 31.8665 13.6592 31.9461C13.6893 32.0261 13.6715 32.1284 13.6194 32.1747L13.0179 32.7112C12.9657 32.7574 12.8992 32.73 12.869 32.65Z" fill="white"/>
</g>
<g opacity="0.3">
<path d="M14.9852 32.6543C14.9553 32.7339 14.8891 32.761 14.8373 32.7151L14.235 32.1785C14.1832 32.1319 14.1657 32.0297 14.1959 31.9499C14.2261 31.8704 14.2924 31.8436 14.3441 31.8898L14.9456 32.4264L14.9459 32.4266C14.9977 32.4726 15.0154 32.5744 14.9854 32.6539L14.9852 32.6543Z" fill="white"/>
</g>
<g opacity="0.3">
<path d="M13.6586 31.4835C13.6284 31.5627 13.562 31.5894 13.5104 31.543L12.9089 31.0064L12.9086 31.0062C12.8568 30.9602 12.8391 30.8584 12.8691 30.7789C12.8992 30.699 12.9657 30.6716 13.0179 30.7177L13.6195 31.2543L13.6197 31.2545C13.6715 31.3005 13.6892 31.4023 13.6593 31.4818L13.6586 31.4835Z" fill="white"/>
</g>
<path d="M13.9251 31.4375C14.0258 31.4375 14.1074 31.5629 14.1074 31.7176C14.1074 31.8723 14.0258 31.9977 13.9251 31.9977C13.8243 31.9977 13.7427 31.8723 13.7427 31.7175C13.7427 31.5628 13.8243 31.4375 13.9251 31.4375Z" fill="#263238"/>
<path d="M45.5871 27.3049C45.3973 26.2927 45.081 24.6477 44.9227 24.458C44.7645 24.2682 43.9421 24.2049 43.9421 24.2049C43.088 23.256 40.3675 21.6427 38.9757 20.9467C37.5838 20.2508 36.5082 20.0927 31.2255 19.7763C25.9427 19.46 22.8111 20.2192 22.8111 20.2192C20.1223 20.5039 15.662 24.3315 15.662 24.3315C13.137 24.8042 11.4231 26.103 11.4231 26.103C11.4231 26.103 10.0629 26.2928 9.4619 26.957C8.86087 27.6213 8.79764 28.3805 8.79764 28.3805C8.79764 28.3805 8.44972 28.3805 8.25984 28.6652C8.07005 28.9499 8.16494 30.9112 8.25984 31.8918C8.35474 32.8724 9.1139 33.3153 9.1139 33.3153L24.4723 33.2214H24.4762C24.8015 33.2194 25.0612 32.9529 25.0586 32.6276C25.0473 31.2534 25.2912 27.9551 27.891 27.9551C27.891 27.9551 29.6879 27.9757 29.977 30.4336C30.225 32.541 30.1237 33.0809 30.0898 33.1921L40.7473 33.3154L40.8104 33.3018C40.7737 32.6335 40.4978 29.4757 42.1027 28.3233C42.5831 27.9783 43.4122 27.9383 43.9123 28.254C44.4182 28.5734 45.0048 29.229 45.1393 30.5687C45.2041 31.0816 45.2045 31.5446 45.1847 32.1775L45.5873 31.9552C45.6505 31.5756 45.7771 28.3174 45.5873 27.3051L45.5871 27.3049Z" fill="#D0D5DD"/>
<path d="M10.2689 28.0505C10.1905 28.155 9.42711 29.2287 9.42711 29.2287C9.23043 29.3333 10.0599 29.9408 10.0599 29.8427H16.5926L18.3594 29.2391C18.2992 29.0919 17.6152 28.1289 17.0401 28.0505C16.4649 27.972 10.2689 28.0505 10.2689 28.0505Z" fill="#474747"/>
<path d="M36.9253 32.5011C36.9311 32.5011 36.936 32.4966 36.9365 32.4907C36.9379 32.4714 37.0796 30.5461 37.1094 29.4695C37.1149 29.2668 37.1365 28.8207 37.1613 28.3043C37.2142 27.2071 37.2866 25.7045 37.2659 25.3049C37.2355 24.7196 36.605 24.2836 36.5987 24.2793C36.5936 24.2758 36.5866 24.2772 36.5831 24.2822C36.5796 24.2873 36.581 24.2943 36.5861 24.2978C36.5923 24.3021 37.2137 24.7319 37.2435 25.3061C37.2642 25.7044 37.1918 27.2065 37.1391 28.3033C37.1142 28.8198 37.0926 29.266 37.087 29.4688C37.0572 30.5449 36.9156 32.4698 36.9142 32.4892C36.9138 32.4953 36.9183 32.5007 36.9245 32.5012H36.9253V32.5011Z" fill="#263238"/>
<path d="M30.6624 32.7574H30.6628L40.3874 32.3622C40.393 32.3619 40.3974 32.3577 40.3981 32.3523L40.5677 30.8777C41.0064 28.8153 41.8419 28.1501 42.2908 27.7927C42.4267 27.6845 42.525 27.6062 42.5559 27.5273C42.6806 27.2088 42.8419 24.6833 42.8079 24.3437C42.7843 24.1079 42.1184 23.6107 41.7206 23.3135C41.5845 23.2118 41.477 23.1316 41.449 23.1012C41.4448 23.0968 41.4377 23.0964 41.4331 23.1006C41.4286 23.1048 41.4283 23.1119 41.4325 23.1164C41.4618 23.1482 41.5648 23.2251 41.7072 23.3314C42.102 23.6263 42.763 24.1198 42.7856 24.3459C42.8183 24.6719 42.6539 27.2158 42.5351 27.5191C42.5064 27.5925 42.4102 27.6692 42.2769 27.7752C41.8259 28.1344 40.9863 28.8028 40.5458 30.8739L40.377 32.3403L30.6703 32.7347C30.6562 32.6495 30.67 31.8264 30.686 30.8779C30.719 28.9133 30.7642 26.2228 30.6601 25.7431C30.4545 24.795 29.6011 24.5071 29.5925 24.5042C29.5866 24.5025 29.5803 24.5056 29.5784 24.5114C29.5766 24.5173 29.5797 24.5237 29.5856 24.5255C29.5941 24.5282 30.4354 24.8125 30.6383 25.7477C30.7418 26.2249 30.6947 29.0248 30.6636 30.8773C30.6367 32.4793 30.6357 32.7426 30.6565 32.7556C30.6583 32.7567 30.6603 32.7573 30.6624 32.7573L30.6624 32.7574Z" fill="#263238"/>
<path d="M16.5951 24.2416H28.2264C28.2264 24.2416 31.1861 21.4636 32.043 20.5809C30.9709 20.4204 24.6597 20.304 22.7224 20.5809C22.7224 20.5809 19.3992 21.1781 16.5952 24.2416H16.5951Z" fill="#676767"/>
<path d="M29.5535 24.2399C29.5535 24.2399 32.638 21.1099 33.2731 20.8378C33.9081 20.5656 36.04 20.7244 36.9019 20.8378C37.7638 20.9512 40.8951 22.3132 41.4395 23.107C41.4395 23.107 40.939 23.8315 40.0545 24.0583C39.1699 24.2852 39.3968 24.1265 37.537 24.2399C35.6772 24.3533 29.5535 24.5346 29.5535 24.5346V24.2399Z" fill="#474747"/>
<path d="M10.2715 28.0616H10.273C10.2791 28.0607 10.2834 28.0551 10.2826 28.0489C10.1542 27.0734 11.4165 26.0924 11.4292 26.0826C11.4341 26.0789 11.435 26.0718 11.4313 26.0669C11.4274 26.0619 11.4204 26.0611 11.4155 26.0648C11.4027 26.0746 10.1303 27.0635 10.2603 28.0519C10.2611 28.0575 10.266 28.0616 10.2715 28.0616Z" fill="#263238"/>
<path opacity="0.7" d="M8.79685 28.3518C8.87144 28.4554 8.93038 29.0349 9.47426 29.0398L10.0625 28.3128C10.0625 28.3128 9.79642 27.1865 9.96304 26.5469C9.96304 26.5469 9.43383 26.8784 9.2402 27.2096C9.04665 27.5409 8.79685 28.3518 8.79685 28.3518Z" fill="white"/>
<path opacity="0.3" d="M23.7821 26.3686C23.7821 26.3686 24.6979 25.4519 28.0931 24.7536L29.5566 24.5352C29.8132 24.5525 30.0767 24.7459 30.3442 25.0455C31.44 25.2592 38.5312 24.6786 38.5312 24.6786C38.5312 24.6786 31.2676 25.2461 29.0833 25.3895C26.899 25.5327 26.9551 25.5424 23.7821 26.3686H23.7821Z" fill="black"/>
<path d="M23.4047 26.8368C23.4063 26.8368 23.4079 26.8365 23.4095 26.8358C23.4151 26.8331 23.4175 26.8265 23.4149 26.8208C23.4145 26.8202 23.3833 26.7516 23.4229 26.6595C23.4611 26.5702 23.5743 26.4414 23.8963 26.334C24.088 26.2702 24.5255 26.1607 25.032 26.034C26.1888 25.7447 27.773 25.3483 27.9024 25.1266C28.084 24.8152 28.2364 24.2463 28.2379 24.2406C28.2395 24.2347 28.2359 24.2285 28.23 24.2269C28.2239 24.2253 28.2179 24.2289 28.2163 24.2349C28.2148 24.2405 28.0632 24.8066 27.883 25.1154C27.7583 25.329 26.1795 25.724 25.0266 26.0124C24.5196 26.1392 24.0817 26.2488 23.8892 26.3129C23.6237 26.4013 23.4598 26.5153 23.4019 26.6514C23.3588 26.7529 23.3931 26.8273 23.3946 26.8304C23.3965 26.8344 23.4005 26.8367 23.4047 26.8367V26.8368Z" fill="#263238"/>
<path opacity="0.3" d="M31.0093 32.0554C31.0093 32.0554 39.8674 31.9312 39.9807 31.7613C40.0939 31.5915 39.3323 31.0776 39.3323 31.0776C39.219 30.9995 31.0661 31.5607 31.0093 32.0554Z" fill="white"/>
<path d="M13.0586 28.4693C12.5926 28.4693 12.2148 28.3082 12.2148 28.1096C12.2148 27.911 12.5926 27.75 13.0586 27.75C13.5246 27.75 13.9023 27.911 13.9023 28.1096C13.9023 28.3082 13.5246 28.4693 13.0586 28.4693Z" fill="#E0E0E0"/>
<path d="M9.80132 31.6815C9.80132 31.6815 9.11354 32.0034 9.14046 32.0046C9.16738 32.0058 9.30172 32.7048 9.30172 32.7048L19.8645 32.5588L20.8594 31.7153L17.6877 31.6719L9.80132 31.6815Z" fill="#263238"/>
<path d="M23.5215 31.7188C23.4891 31.7731 22.5264 31.7188 22.5264 31.7188L21.552 32.5413L22.9845 32.5079L23.5215 31.7188Z" fill="#263238"/>
<path d="M17.0544 28.1206H17.0555L18.2087 27.9991C18.2149 27.9985 18.2194 27.993 18.2187 27.9868C18.218 27.9807 18.2123 27.9751 18.2064 27.9769L17.0532 28.0984C17.047 28.099 17.0426 28.1044 17.0433 28.1106C17.0439 28.1163 17.0487 28.1206 17.0544 28.1206Z" fill="#263238"/>
<path opacity="0.7" d="M18.2059 27.9275C18.2059 27.9275 23.8803 26.6525 24.3187 26.6964C24.7571 26.7403 25.9701 27.0952 25.8822 27.425C25.7943 27.7547 24.867 28.2573 23.6359 28.4551C22.6553 28.6127 21.0638 28.8069 20.0086 28.8728C18.7208 28.9533 18.206 27.9275 18.206 27.9275H18.2059Z" fill="white"/>
<path opacity="0.3" d="M18.4623 30.3113C18.4623 30.3113 20.6233 29.2568 21.4579 29.2568C22.2925 29.2568 26.0156 28.1641 26.0156 28.1641C26.0156 28.1641 23.2301 29.928 22.6141 30.0745C21.998 30.221 18.4623 30.3112 18.4623 30.3112V30.3113Z" fill="black"/>
<path opacity="0.3" d="M17.2522 23.9926C17.2522 23.9926 20.3936 21.141 23.0154 20.8751C25.6372 20.6092 27.2734 20.6861 27.2734 20.6861C27.2734 20.6861 26.4945 22.6829 25.0556 23.078C23.6168 23.4732 17.2521 23.9926 17.2521 23.9926H17.2522Z" fill="white"/>
<path opacity="0.3" d="M8.36774 28.879C8.36774 28.879 8.29332 29.442 8.42981 29.7025C8.56629 29.9632 9.83203 30.3085 9.83203 30.3085L8.36774 28.8789V28.879Z" fill="black"/>
<path opacity="0.7" d="M23.7344 27.7602C23.7344 28.1111 23.3531 28.3955 22.8827 28.3955C22.4124 28.3955 22.0311 28.1111 22.0311 27.7602C22.0311 27.4093 22.4124 27.125 22.8827 27.125C23.3531 27.125 23.7344 27.4094 23.7344 27.7602Z" fill="white"/>
<path opacity="0.7" d="M23.096 27.0749L24.3185 26.9541C24.3185 26.9541 24.6827 27.7166 23.9583 28.1632C23.9583 28.1632 24.8513 27.9 24.5793 26.9541C24.5621 26.8708 24.5241 26.7848 24.3186 26.8279C24.2521 26.8419 23.096 27.0749 23.096 27.0749Z" fill="#FF9F78"/>
<path opacity="0.3" d="M16.3847 24.4003C16.3847 24.4003 11.6811 25.1701 10.8434 27.491C10.8434 27.491 22.935 24.4837 22.8826 24.4003C22.8303 24.317 16.3846 24.4003 16.3846 24.4003H16.3847Z" fill="white"/>
<path d="M29.5462 24.5462L29.5577 24.5459C29.619 24.544 35.7029 24.3632 37.5416 24.2511C38.3081 24.2044 38.7253 24.2038 39.0014 24.2035C39.4043 24.203 39.54 24.2029 40.0612 24.0692C40.9397 23.8439 41.4476 23.1207 41.4526 23.1133L41.457 23.107L41.4526 23.1007C40.9056 22.303 37.786 20.9423 36.9074 20.8267C36.0366 20.7122 33.9124 20.5534 33.2727 20.8275C32.6429 21.0975 29.5803 24.2008 29.5496 24.232L29.5464 24.2353V24.5462H29.5462ZM41.4297 23.1069C41.3779 23.1783 40.8822 23.8355 40.0555 24.0476C39.5371 24.1805 39.4021 24.1806 39.0012 24.1811C38.7249 24.1815 38.3073 24.182 37.5401 24.2287C35.7399 24.3386 29.8689 24.5142 29.5685 24.5231V24.2445C29.684 24.1274 32.6646 21.1123 33.2812 20.848C33.9166 20.5758 36.0352 20.7345 36.9042 20.8488C37.778 20.9639 40.8728 22.3119 41.4297 23.1069Z" fill="black"/>
<path opacity="0.3" d="M35.328 25.9324L36.4528 25.8434C36.5598 25.835 36.6533 25.9148 36.6618 26.0218L36.677 26.2137C36.6854 26.3207 36.6056 26.4142 36.4986 26.4227L35.3738 26.5116C35.2668 26.5201 35.1733 26.4402 35.1648 26.3333L35.1496 26.1413C35.1412 26.0344 35.221 25.9408 35.328 25.9324Z" fill="black"/>
<path d="M36.1972 20.7639C36.2551 20.7689 36.9277 24.2894 36.9277 24.2894H35.9527L35.5001 20.7148C35.5001 20.7148 36.1393 20.759 36.1972 20.7639Z" fill="black"/>
<path d="M30.5878 23.2109L31.1113 24.4606L29.5536 24.5347V24.2134L30.5878 23.2109Z" fill="black"/>
<path d="M32.8238 23.5959C32.8158 23.5849 32.8074 23.5736 32.799 23.562C32.5957 23.2823 31.6929 22.9263 30.8283 23.2187C30.1975 23.4321 30.3113 24.1733 30.4189 24.5586C30.4706 24.7436 30.6254 24.8803 30.8155 24.9081C31.3328 24.9838 32.2881 24.9094 32.5321 24.7826C32.5452 24.7758 32.5582 24.7687 32.5709 24.7616C32.9885 24.5279 33.1073 23.9816 32.8238 23.5959Z" fill="#EEF3F6"/>
<path d="M31.3199 24.9484C31.8045 24.9484 32.3577 24.8853 32.5378 24.7916C32.5511 24.7847 32.5641 24.7777 32.577 24.7705C32.779 24.6574 32.923 24.4629 32.972 24.2367C33.0209 24.011 32.9704 23.7746 32.8335 23.5884L32.8088 23.5545C32.5993 23.2664 31.6871 22.9157 30.8255 23.2072C30.1938 23.4209 30.2933 24.1469 30.4088 24.5607C30.4616 24.7496 30.6209 24.8901 30.8146 24.9183C30.9559 24.9389 31.1329 24.9484 31.32 24.9484H31.3199ZM31.5111 23.1196C32.1157 23.1196 32.6396 23.36 32.7907 23.5677L32.8155 23.6017C32.9486 23.7827 32.9977 24.0125 32.9501 24.2321C32.9024 24.4519 32.7624 24.6411 32.566 24.751C32.5534 24.7582 32.5405 24.765 32.5275 24.7717C32.2805 24.9003 31.3219 24.9701 30.8177 24.8962C30.6327 24.8692 30.4806 24.7352 30.4302 24.5549C30.3168 24.1486 30.2183 23.4363 30.8325 23.2285C31.06 23.1517 31.2909 23.1197 31.511 23.1197L31.5111 23.1196Z" fill="black"/>
<path opacity="0.3" d="M30.7224 23.4474C30.7224 23.4474 30.9343 23.2837 31.3102 23.2644C31.686 23.245 32.6692 23.3203 32.8037 23.8745C32.9382 24.4286 30.2525 23.6192 30.7224 23.4474Z" fill="white"/>
<mask id="mask0_9045_99670" style="mask-type:alpha" maskUnits="userSpaceOnUse" x="8" y="19" width="38" height="15">
<path d="M45.5871 27.3049C45.3973 26.2927 45.081 24.6477 44.9227 24.458C44.7645 24.2682 43.9421 24.2049 43.9421 24.2049C43.088 23.256 40.3675 21.6427 38.9757 20.9467C37.5838 20.2508 36.5082 20.0927 31.2255 19.7763C25.9427 19.46 22.8111 20.2192 22.8111 20.2192C20.1223 20.5039 15.662 24.3315 15.662 24.3315C13.137 24.8042 11.4231 26.103 11.4231 26.103C11.4231 26.103 10.0629 26.2928 9.4619 26.957C8.86087 27.6213 8.79764 28.3805 8.79764 28.3805C8.79764 28.3805 8.44972 28.3805 8.25984 28.6652C8.07005 28.9499 8.16494 30.9112 8.25984 31.8918C8.35474 32.8724 9.1139 33.3153 9.1139 33.3153L24.4723 33.2214H24.4762C24.8015 33.2194 25.0612 32.9529 25.0586 32.6276C25.0473 31.2534 25.2912 27.9551 27.891 27.9551C27.891 27.9551 29.6879 27.9757 29.977 30.4336C30.225 32.541 30.1237 33.0809 30.0898 33.1921L40.7473 33.3154L40.8104 33.3018C40.7737 32.6335 40.4978 29.4757 42.1027 28.3233C42.5831 27.9783 43.4122 27.9383 43.9123 28.254C44.4182 28.5734 45.0048 29.229 45.1393 30.5687C45.2041 31.0816 45.2045 31.5446 45.1847 32.1775L45.5873 31.9552C45.6505 31.5756 45.7771 28.3174 45.5873 27.3051L45.5871 27.3049Z" fill="#D0D5DD"/>
</mask>
<g mask="url(#mask0_9045_99670)">
<ellipse opacity="0.1" cx="8.37885" cy="8.37876" rx="8.37885" ry="8.37876" transform="matrix(-1 0 0 1 51.0508 18.3594)" fill="url(#paint1_radial_9045_99670)"/>
<ellipse opacity="0.3" cx="3.10295" cy="8.37883" rx="3.10295" ry="8.37883" transform="matrix(-0.404386 -0.914588 -0.914592 0.404379 20.4219 25.0352)" fill="url(#paint2_radial_9045_99670)"/>
<ellipse opacity="0.3" cx="6.70308" cy="6.70301" rx="6.70308" ry="6.70301" transform="matrix(-1 0 0 1 39.6562 20.3711)" fill="url(#paint3_radial_9045_99670)"/>
</g>
</g>
<path d="M2.60836 10.6214C2.39992 9.29495 2.2957 8.63172 2.49552 8.1252C2.67078 7.68095 2.99921 7.31408 3.42144 7.09093C3.90285 6.83649 4.57352 6.86698 5.91488 6.92795L21 7.61364L36.0851 6.92795C37.4265 6.86698 38.0972 6.83649 38.5786 7.09093C39.0008 7.31408 39.3292 7.68095 39.5045 8.1252C39.7043 8.63172 39.6001 9.29495 39.3916 10.6214L39.047 12.8143C38.903 13.731 38.831 14.1894 38.6082 14.5403C38.4117 14.8497 38.134 15.0993 37.8053 15.2616C37.4326 15.4456 36.9692 15.4683 36.0423 15.5137L21 16.25L5.9577 15.5137C5.0308 15.4683 4.56735 15.4456 4.19468 15.2616C3.86602 15.0993 3.58829 14.8497 3.39182 14.5403C3.16905 14.1894 3.09702 13.731 2.95295 12.8143L2.60836 10.6214Z" fill="#018E56"/>
<path d="M2.60836 10.6214C2.39992 9.29495 2.2957 8.63172 2.49552 8.1252C2.67078 7.68095 2.99921 7.31408 3.42144 7.09093C3.90285 6.83649 4.57352 6.86698 5.91488 6.92795L21 7.61364L36.0851 6.92795C37.4265 6.86698 38.0972 6.83649 38.5786 7.09093C39.0008 7.31408 39.3292 7.68095 39.5045 8.1252C39.7043 8.63172 39.6001 9.29495 39.3916 10.6214L39.047 12.8143C38.903 13.731 38.831 14.1894 38.6082 14.5403C38.4117 14.8497 38.134 15.0993 37.8053 15.2616C37.4326 15.4456 36.9692 15.4683 36.0423 15.5137L21 16.25L5.9577 15.5137C5.0308 15.4683 4.56735 15.4456 4.19468 15.2616C3.86602 15.0993 3.58829 14.8497 3.39182 14.5403C3.16905 14.1894 3.09702 13.731 2.95295 12.8143L2.60836 10.6214Z" fill="url(#paint4_linear_9045_99670)"/>
<path d="M7.01419 9.1203C7.104 8.84391 7.49502 8.84391 7.58483 9.1203L7.94751 10.2365C7.98767 10.3601 8.10286 10.4438 8.23283 10.4438H9.40649C9.69711 10.4438 9.81794 10.8157 9.58283 10.9865L8.63331 11.6764C8.52817 11.7528 8.48417 11.8882 8.52433 12.0118L8.88701 13.128C8.97682 13.4044 8.66047 13.6342 8.42536 13.4634L7.47585 12.7736C7.3707 12.6972 7.22832 12.6972 7.12318 12.7736L6.17366 13.4634C5.93855 13.6342 5.6222 13.4044 5.71201 13.128L6.07469 12.0118C6.11485 11.8882 6.07086 11.7528 5.96571 11.6764L5.0162 10.9865C4.78108 10.8157 4.90191 10.4438 5.19253 10.4438H6.36619C6.49616 10.4438 6.61135 10.3601 6.65151 10.2365L7.01419 9.1203Z" fill="#FAC515"/>
<path d="M13.7028 9.03259C13.7977 8.76721 14.173 8.76721 14.2678 9.03259L14.7011 10.2448C14.7437 10.3641 14.8568 10.4438 14.9836 10.4438H16.3201C16.6176 10.4438 16.7337 10.8302 16.4854 10.9941L15.4549 11.6748C15.3396 11.751 15.2912 11.896 15.3377 12.0261L15.7427 13.1591C15.8397 13.4305 15.5354 13.6692 15.2948 13.5104L14.1507 12.7547C14.0504 12.6884 13.9203 12.6884 13.82 12.7547L12.6758 13.5104C12.4353 13.6692 12.1309 13.4305 12.228 13.1591L12.6329 12.0261C12.6794 11.896 12.631 11.751 12.5157 11.6748L11.4852 10.9941C11.237 10.8302 11.3531 10.4438 11.6506 10.4438H12.9871C13.1138 10.4438 13.2269 10.3641 13.2696 10.2448L13.7028 9.03259Z" fill="#FAC515"/>
<path d="M20.3911 9.1203C20.481 8.84391 20.872 8.84391 20.9618 9.1203L21.3245 10.2365C21.3646 10.3601 21.4798 10.4438 21.6098 10.4438H22.7834C23.0741 10.4438 23.1949 10.8157 22.9598 10.9865L22.0103 11.6764C21.9051 11.7528 21.8611 11.8882 21.9013 12.0118L22.264 13.128C22.3538 13.4044 22.0374 13.6342 21.8023 13.4634L20.8528 12.7736C20.7477 12.6972 20.6053 12.6972 20.5001 12.7736L19.5506 13.4634C19.3155 13.6342 18.9992 13.4044 19.089 13.128L19.4516 12.0118C19.4918 11.8882 19.4478 11.7528 19.3427 11.6764L18.3931 10.9865C18.158 10.8157 18.2789 10.4438 18.5695 10.4438H19.7431C19.8731 10.4438 19.9883 10.3601 20.0285 10.2365L20.3911 9.1203Z" fill="#FAC515"/>
<path d="M27.0876 9.03259C27.1824 8.76721 27.5577 8.76721 27.6526 9.03259L28.0858 10.2448C28.1285 10.3641 28.2416 10.4438 28.3683 10.4438H29.7049C30.0023 10.4438 30.1184 10.8302 29.8702 10.9941L28.8397 11.6748C28.7244 11.751 28.676 11.896 28.7225 12.0261L29.1274 13.1591C29.2245 13.4305 28.9201 13.6692 28.6796 13.5104L27.5354 12.7547C27.4351 12.6884 27.305 12.6884 27.2047 12.7547L26.0606 13.5104C25.82 13.6692 25.5157 13.4305 25.6127 13.1591L26.0177 12.0261C26.0642 11.896 26.0158 11.751 25.9005 11.6748L24.87 10.9941C24.6217 10.8302 24.7378 10.4438 25.0353 10.4438H26.3718C26.4986 10.4438 26.6117 10.3641 26.6543 10.2448L27.0876 9.03259Z" fill="#FAC515"/>
<path d="M33.7837 9.1203C33.8735 8.84391 34.2646 8.84391 34.3544 9.1203L34.717 10.2365C34.7572 10.3601 34.8724 10.4438 35.0024 10.4438H36.176C36.4666 10.4438 36.5875 10.8157 36.3524 10.9865L35.4028 11.6764C35.2977 11.7528 35.2537 11.8882 35.2939 12.0118L35.6565 13.128C35.7463 13.4044 35.43 13.6342 35.1949 13.4634L34.2454 12.7736C34.1402 12.6972 33.9979 12.6972 33.8927 12.7736L32.9432 13.4634C32.7081 13.6342 32.3917 13.4044 32.4815 13.128L32.8442 12.0118C32.8844 11.8882 32.8404 11.7528 32.7352 11.6764L31.7857 10.9865C31.5506 10.8157 31.6714 10.4438 31.9621 10.4438H33.1357C33.2657 10.4438 33.3809 10.3601 33.421 10.2365L33.7837 9.1203Z" fill="#FAC515"/>
</g>
<defs>
<radialGradient id="paint0_radial_9045_99670" cx="0" cy="0" r="1" gradientUnits="userSpaceOnUse" gradientTransform="translate(21.5 0.5) scale(21.5 0.5)">
<stop stop-color="#002D5D"/>
<stop offset="1" stop-color="#002D5D" stop-opacity="0"/>
</radialGradient>
<radialGradient id="paint1_radial_9045_99670" cx="0" cy="0" r="1" gradientUnits="userSpaceOnUse" gradientTransform="translate(9.21673 7.54088) rotate(90) scale(7.12194 6.37599)">
<stop stop-color="#00341F"/>
<stop offset="1" stop-color="#00341F" stop-opacity="0"/>
</radialGradient>
<radialGradient id="paint2_radial_9045_99670" cx="0" cy="0" r="1" gradientUnits="userSpaceOnUse" gradientTransform="translate(3.41325 7.54095) rotate(90) scale(7.12201 2.36123)">
<stop stop-color="#00341F"/>
<stop offset="1" stop-color="#00341F" stop-opacity="0"/>
</radialGradient>
<radialGradient id="paint3_radial_9045_99670" cx="0" cy="0" r="1" gradientUnits="userSpaceOnUse" gradientTransform="translate(7.37339 6.03271) rotate(90) scale(5.69755 5.10079)">
<stop stop-color="white"/>
<stop offset="1" stop-color="white" stop-opacity="0"/>
</radialGradient>
<linearGradient id="paint4_linear_9045_99670" x1="20.8082" y1="16.2104" x2="21.6887" y2="2.59994" gradientUnits="userSpaceOnUse">
<stop stop-color="#00341F" stop-opacity="0.48"/>
<stop offset="0.449412" stop-color="#00341F" stop-opacity="0"/>
<stop offset="1" stop-color="#00341F"/>
</linearGradient>
<clipPath id="clip0_9045_99670">
<rect width="40" height="40" fill="white"/>
</clipPath>
<clipPath id="clip1_9045_99670">
<rect width="40.5" height="36" fill="white" transform="translate(1)"/>
</clipPath>
</defs>
</svg>
