<svg width="20" height="20" viewBox="0 0 20 20" fill="none" xmlns="http://www.w3.org/2000/svg">
<rect width="6" height="2.5" transform="matrix(1 0 0 -1 6 5.5)" fill="#009B5D"/>
<rect x="19" y="13.5" width="2.3" height="2" transform="rotate(90 19 13.5)" fill="#009B5D"/>
<path d="M19.0778 11.9801C18.8456 11.9801 18.6556 12.1701 18.6556 12.4023V13.0357H17.3889V10.2912C17.3889 10.1646 17.3256 10.0379 17.22 9.95345L15.5311 8.68679C15.4678 8.62346 15.3622 8.60234 15.2778 8.60234H14.4333V7.33568C14.4333 7.10345 14.2433 6.91345 14.0111 6.91345H10.6333V5.8579H11.6889C11.9211 5.8579 12.1111 5.6679 12.1111 5.43568V3.32457C12.1111 3.09234 11.9211 2.90234 11.6889 2.90234H5.77778C5.54556 2.90234 5.35556 3.09234 5.35556 3.32457V5.43568C5.35556 5.6679 5.54556 5.8579 5.77778 5.8579H6.83333V6.91345H5.14444C4.91222 6.91345 4.72222 7.10345 4.72222 7.33568V8.81345H3.03333C2.80111 8.81345 2.61111 9.00345 2.61111 9.23568V11.5579H1.34444V10.2912C1.34444 10.059 1.15444 9.86901 0.922222 9.86901C0.69 9.86901 0.5 10.059 0.5 10.2912V13.669C0.5 13.9012 0.69 14.0912 0.922222 14.0912C1.15444 14.0912 1.34444 13.9012 1.34444 13.669V12.4023H2.61111V14.5135C2.61111 14.7457 2.80111 14.9357 3.03333 14.9357H4.97556L6.96 16.9201C6.98111 16.9412 7.00222 16.9623 7.02333 16.9623C7.02333 16.9623 7.04444 16.9623 7.04444 16.9835C7.06556 16.9835 7.06556 17.0046 7.08667 17.0046C7.10778 17.0046 7.10778 17.0046 7.12889 17.0257C7.15 17.0257 7.15 17.0257 7.17111 17.0468H16.9667C17.1989 17.0468 17.3889 16.8568 17.3889 16.6246V15.9912H18.6556V16.6246C18.6556 16.8568 18.8456 17.0468 19.0778 17.0468C19.31 17.0468 19.5 16.8568 19.5 16.6246V12.4023C19.5 12.1701 19.31 11.9801 19.0778 11.9801ZM6.2 3.74679H11.2667V5.01345H6.2V3.74679ZM9.78889 5.8579V6.91345H7.67778V5.8579H9.78889ZM3.45556 9.6579H4.72222V14.0912H3.45556V9.6579ZM5.56667 9.23568V7.7579H6.83333V15.6112L5.56667 14.3446V9.23568ZM16.5444 16.2023H7.67778V7.7579H13.5889V9.02457C13.5889 9.25679 13.7789 9.44679 14.0111 9.44679H15.13L16.5444 10.5023V16.2023ZM17.3889 15.1468V13.8801H18.6556V15.1468H17.3889Z" fill="#1D2939"/>
</svg>
