<svg width="24" height="24" viewBox="0 0 24 24" fill="none" xmlns="http://www.w3.org/2000/svg">
<path d="M12.4027 4.55309C12.5881 4.07082 12.6809 3.82969 12.8148 3.75974C12.9308 3.69911 13.0692 3.69911 13.1852 3.75974C13.3191 3.82969 13.4119 4.07082 13.5973 4.55309L14.7342 7.50886C15.0162 8.24209 15.1572 8.60871 15.3765 8.91709C15.5708 9.1904 15.8096 9.42919 16.0829 9.62353C16.3913 9.8428 16.7579 9.98381 17.4911 10.2658L20.4469 11.4027C20.9292 11.5881 21.1703 11.6809 21.2403 11.8148C21.3009 11.9308 21.3009 12.0692 21.2403 12.1852C21.1703 12.3191 20.9292 12.4119 20.4469 12.5973L17.4911 13.7342C16.7579 14.0162 16.3913 14.1572 16.0829 14.3765C15.8096 14.5708 15.5708 14.8096 15.3765 15.0829C15.1572 15.3913 15.0162 15.7579 14.7342 16.4911L13.5973 19.4469C13.4119 19.9292 13.3191 20.1703 13.1852 20.2403C13.0692 20.3009 12.9308 20.3009 12.8148 20.2403C12.6809 20.1703 12.5881 19.9292 12.4027 19.4469L11.2658 16.4911C10.9838 15.7579 10.8428 15.3913 10.6235 15.0829C10.4292 14.8096 10.1904 14.5708 9.91709 14.3765C9.60871 14.1572 9.24209 14.0162 8.50886 13.7342L5.55309 12.5973C5.07082 12.4119 4.82969 12.3191 4.75974 12.1852C4.69911 12.0692 4.69911 11.9308 4.75974 11.8148C4.82969 11.6809 5.07082 11.5881 5.55309 11.4027L8.50886 10.2658C9.24209 9.98381 9.60871 9.8428 9.91709 9.62353C10.1904 9.42919 10.4292 9.1904 10.6235 8.91709C10.8428 8.60871 10.9838 8.24209 11.2658 7.50886L12.4027 4.55309Z" fill="#009B5D"/>
<path d="M4.5 22V17M4.5 7V2M2 4.5H7M2 19.5H7M13 3L11.2658 7.50886C10.9838 8.24209 10.8428 8.60871 10.6235 8.91709C10.4292 9.1904 10.1904 9.42919 9.91709 9.62353C9.60871 9.8428 9.24209 9.98381 8.50886 10.2658L4 12L8.50886 13.7342C9.24209 14.0162 9.60871 14.1572 9.91709 14.3765C10.1904 14.5708 10.4292 14.8096 10.6235 15.0829C10.8428 15.3913 10.9838 15.7579 11.2658 16.4911L13 21L14.7342 16.4911C15.0162 15.7579 15.1572 15.3913 15.3765 15.0829C15.5708 14.8096 15.8096 14.5708 16.0829 14.3765C16.3913 14.1572 16.7579 14.0162 17.4911 13.7342L22 12L17.4911 10.2658C16.7579 9.98381 16.3913 9.8428 16.0829 9.62353C15.8096 9.42919 15.5708 9.1904 15.3765 8.91709C15.1572 8.60871 15.0162 8.24209 14.7342 7.50886L13 3Z" stroke="#1D2939" stroke-linecap="round" stroke-linejoin="round"/>
</svg>
