<svg width="26" height="25" viewBox="0 0 26 25" fill="none" xmlns="http://www.w3.org/2000/svg">
<path d="M14.2279 2.22479C13.7887 1.90599 13.5691 1.74659 13.3267 1.68532C13.1127 1.63126 12.8873 1.63126 12.6733 1.68532C12.4309 1.74659 12.2113 1.90599 11.7721 2.22479L3.29424 8.3791C2.72753 8.79049 2.44417 8.99619 2.24003 9.25379C2.05921 9.48197 1.9245 9.73904 1.84253 10.0123C1.75 10.3209 1.75 10.6559 1.75 11.326V19.7668C1.75 21.0736 1.75 21.727 2.02248 22.2261C2.26217 22.6651 2.64462 23.0221 3.11502 23.2458C3.6498 23.5001 4.34987 23.5001 5.75 23.5001H8.25C8.60003 23.5001 8.77505 23.5001 8.90874 23.4365C9.02635 23.3806 9.12196 23.2914 9.18188 23.1816C9.25 23.0568 9.25 22.8935 9.25 22.5668V14.8668C9.25 14.2134 9.25 13.8867 9.38624 13.6371C9.50608 13.4176 9.69731 13.2391 9.93251 13.1273C10.1999 13.0001 10.5499 13.0001 11.25 13.0001H14.75C15.4501 13.0001 15.8001 13.0001 16.0675 13.1273C16.3027 13.2391 16.4939 13.4176 16.6138 13.6371C16.75 13.8867 16.75 14.2134 16.75 14.8668V22.5668C16.75 22.8935 16.75 23.0568 16.8181 23.1816C16.878 23.2914 16.9737 23.3806 17.0913 23.4365C17.225 23.5001 17.4 23.5001 17.75 23.5001H20.25C21.6501 23.5001 22.3502 23.5001 22.885 23.2458C23.3554 23.0221 23.7378 22.6651 23.9775 22.2261C24.25 21.727 24.25 21.0736 24.25 19.7668V11.326C24.25 10.6559 24.25 10.3209 24.1575 10.0123C24.0755 9.73904 23.9408 9.48197 23.76 9.25379C23.5558 8.99619 23.2725 8.79049 22.7058 8.3791L14.2279 2.22479Z" stroke="#98A2B3" stroke-width="2" stroke-linecap="round" stroke-linejoin="round"/>
</svg>
