<svg width="24" height="25" viewBox="0 0 24 25" fill="none" xmlns="http://www.w3.org/2000/svg">
<path d="M22.2234 0.189941H1.77187C0.792187 0.189941 0 0.963379 0 1.91963V22.4556C0 23.4118 0.792187 24.1899 1.77187 24.1899H22.2234C23.2031 24.1899 24 23.4118 24 22.4603V1.91963C24 0.963379 23.2031 0.189941 22.2234 0.189941ZM7.12031 20.6415H3.55781V9.18525H7.12031V20.6415ZM5.33906 7.62432C4.19531 7.62432 3.27188 6.70088 3.27188 5.56182C3.27188 4.42275 4.19531 3.49932 5.33906 3.49932C6.47813 3.49932 7.40156 4.42275 7.40156 5.56182C7.40156 6.69619 6.47813 7.62432 5.33906 7.62432ZM20.4516 20.6415H16.8937V15.0728C16.8937 13.7462 16.8703 12.0353 15.0422 12.0353C13.1906 12.0353 12.9094 13.4837 12.9094 14.979V20.6415H9.35625V9.18525H12.7687V10.7509H12.8156C13.2891 9.85088 14.4516 8.89932 16.1813 8.89932C19.7859 8.89932 20.4516 11.2712 20.4516 14.3556V20.6415V20.6415Z" fill="#98A2B3"/>
</svg>
