<svg width="70" height="48" viewBox="0 0 70 48" fill="none" xmlns="http://www.w3.org/2000/svg">
<path d="M68.7585 0.0103873L1.23279 8.30672C0.555309 8.39557 0 9.00641 0 9.69499V46.0789C0 47.1451 1.27721 47.556 2.06575 46.7342L9.07376 39.4818C9.29589 39.2486 9.59575 39.0931 9.90673 39.0598L63.8828 32.4294C64.9046 32.3072 65.4821 31.0744 64.8713 30.3303L54.9535 18.4134C54.5981 17.9913 54.6203 17.3361 55.009 16.8585L69.6914 1.93176C70.3911 1.05437 69.8247 -0.122887 68.7585 0.0103873Z" fill="#EAAA08"/>
<path d="M16.0318 19.788L13.9339 20.0388L9.78988 15.1458L10.425 20.4583L8.32697 20.7091L7.29736 12.0963L9.39534 11.8455L13.5423 16.763L12.9042 11.426L15.0022 11.1752L16.0318 19.788Z" fill="white"/>
<path d="M18.8219 12.4235L19.0302 14.1657L21.8398 13.8298L22.0334 15.4493L19.2238 15.7851L19.4497 17.6746L22.6273 17.2947L22.8282 18.9755L17.5526 19.6062L16.523 10.9934L21.7986 10.3628L21.9996 12.0436L18.8219 12.4235Z" fill="white"/>
<path d="M35.0124 8.78312L33.7968 17.6643L31.2572 17.9679L29.2054 12.4639L28.4598 18.3023L25.9202 18.6059L22.7067 10.2542L24.9519 9.9858L26.9406 16.1071L27.7247 9.65433L30.0312 9.3786L32.253 15.472L32.7549 9.05299L35.0124 8.78312Z" fill="white"/>
<path d="M38.9986 15.3998L41.7468 15.0713L41.9404 16.6908L37.0942 17.2701L36.0646 8.65734L38.1625 8.40654L38.9986 15.3998Z" fill="white"/>
<path d="M49.2973 7.07543L47.0053 13.1982L47.3456 16.0446L45.2476 16.2954L44.9074 13.449L41.2367 8.03904L43.6168 7.75451L45.7166 11.1621L46.9417 7.35704L49.2973 7.07543Z" fill="white"/>
<path d="M15.1301 31.6168L11.5598 32.0436L11.1546 33.8591L9.69464 34.0337L11.7288 25.1293L13.3483 24.9357L17.424 33.1096L15.9518 33.2856L15.1301 31.6168ZM14.6011 30.5227L12.7409 26.7256L11.816 30.8557L14.6011 30.5227Z" fill="white"/>
<path d="M20.518 24.091C21.4259 23.9825 22.2403 24.0635 22.9613 24.3341C23.6894 24.5955 24.2766 25.0313 24.7229 25.6417C25.1764 26.2428 25.455 26.9769 25.5586 27.8439C25.6622 28.7109 25.5641 29.4859 25.2641 30.1689C24.9723 30.8509 24.5034 31.4047 23.8574 31.8304C23.2186 32.2469 22.4453 32.5094 21.5374 32.6179L18.7523 32.9509L17.733 24.424L20.518 24.091ZM21.401 31.4769C22.3989 31.3576 23.1313 30.9963 23.5985 30.3929C24.0656 29.7895 24.2405 28.9971 24.1231 28.0155C24.0048 27.0259 23.6466 26.2847 23.0485 25.7921C22.4503 25.2994 21.6523 25.1128 20.6544 25.232L19.2681 25.3978L20.0146 31.6426L21.401 31.4769Z" fill="white"/>
<path d="M29.2165 23.0512C30.1244 22.9426 30.9388 23.0237 31.6597 23.2942C32.3878 23.5556 32.9751 23.9915 33.4213 24.6018C33.8748 25.203 34.1534 25.9371 34.2571 26.8041C34.3607 27.6711 34.2625 28.4461 33.9626 29.129C33.6708 29.811 33.2019 30.3648 32.5559 30.7905C31.9171 31.207 31.1437 31.4695 30.2358 31.5781L27.4508 31.911L26.4315 23.3841L29.2165 23.0512ZM30.0994 30.4371C31.0973 30.3178 31.8298 29.9564 32.2969 29.353C32.764 28.7497 32.9389 27.9572 32.8216 26.9757C32.7033 25.986 32.3451 25.2448 31.7469 24.7522C31.1488 24.2596 30.3508 24.0729 29.3529 24.1922L27.9665 24.3579L28.713 30.6028L30.0994 30.4371Z" fill="white"/>
<path d="M36.6635 23.3058L36.9627 25.8087L39.9072 25.4567L40.0436 26.5977L37.0991 26.9497L37.4115 29.5629L40.7241 29.1669L40.8605 30.3079L36.1493 30.8711L35.1284 22.332L39.8397 21.7688L39.9761 22.9098L36.6635 23.3058Z" fill="white"/>
<path d="M44.3489 21.2422C45.2568 21.1336 46.0712 21.2147 46.7922 21.4852C47.5203 21.7466 48.1075 22.1825 48.5538 22.7928C49.0073 23.394 49.2858 24.1281 49.3895 24.9951C49.4931 25.8621 49.395 26.6371 49.095 27.32C48.8032 28.002 48.3343 28.5558 47.6883 28.9815C47.0495 29.398 46.2762 29.6605 45.3683 29.7691L42.5832 30.102L41.5639 21.5751L44.3489 21.2422ZM45.2319 28.6281C46.2297 28.5088 46.9622 28.1474 47.4293 27.544C47.8965 26.9406 48.0714 26.1482 47.954 25.1667C47.8357 24.177 47.4775 23.4358 46.8793 22.9432C46.2812 22.4506 45.4832 22.2639 44.4853 22.3832L43.0989 22.5489L43.8455 28.7938L45.2319 28.6281Z" fill="white"/>
</svg>
