<svg width="70" height="48" viewBox="0 0 70 48" fill="none" xmlns="http://www.w3.org/2000/svg">
<path d="M1.24154 0.0103873L68.7672 8.30672C69.4447 8.39557 70 9.00641 70 9.69499V46.0789C70 47.1451 68.7228 47.556 67.9342 46.7342L60.9262 39.4818C60.7041 39.2486 60.4042 39.0931 60.0933 39.0598L6.11716 32.4294C5.09539 32.3072 4.51787 31.0744 5.12871 30.3303L15.0465 18.4134C15.4019 17.9913 15.3797 17.3361 14.991 16.8585L0.308624 1.93176C-0.391068 1.05437 0.175346 -0.122887 1.24154 0.0103873Z" fill="#EAAA08"/>
<path d="M27.5104 8.7262C27.2721 8.69716 27.0903 8.60245 26.9647 8.44208C26.8402 8.27377 26.7924 8.0705 26.8215 7.83226C26.8496 7.60197 26.9438 7.42406 27.1042 7.29855C27.2645 7.17303 27.4638 7.1248 27.7021 7.15385C27.9403 7.18289 28.1182 7.27712 28.2358 7.43652C28.3623 7.58894 28.411 7.78428 28.3819 8.02251C28.3171 8.55457 28.0265 8.78914 27.5104 8.7262ZM29.3448 8.94986C29.1065 8.92081 28.9247 8.8261 28.7992 8.66573C28.6736 8.50537 28.6259 8.30209 28.6559 8.05592C28.7188 7.53974 29.0124 7.3136 29.5365 7.3775C29.7747 7.40655 29.9526 7.50077 30.0702 7.66017C30.1967 7.8126 30.2454 8.00793 30.2164 8.24617C30.1515 8.77823 29.861 9.01279 29.3448 8.94986ZM33.1573 13.5732L33.9911 13.6749L33.8154 15.1162L32.8386 14.9971C32.2509 14.9255 31.7894 14.7121 31.4539 14.3569C31.035 14.6201 30.5317 14.7159 29.944 14.6442L25.6915 14.1258C25.0165 14.0435 24.516 13.7528 24.19 13.2536C23.897 12.8149 23.7887 12.2819 23.8652 11.6546L24.0133 10.4396L25.5981 9.83493L25.3658 11.7408C25.327 12.0585 25.363 12.2925 25.4736 12.443C25.5931 12.5865 25.8037 12.6767 26.1055 12.7135L29.9887 13.1869C30.2905 13.2237 30.5131 13.1824 30.6566 13.0629C30.8002 12.9433 30.8908 12.7287 30.9286 12.419L31.1958 10.2273L32.7925 9.62407L32.428 12.6139C32.3902 12.9236 32.4267 13.1537 32.5373 13.3042C32.6488 13.4468 32.8555 13.5365 33.1573 13.5732ZM37.6489 9.15235C37.4107 9.12331 37.2288 9.0286 37.1033 8.86823C36.9778 8.70786 36.93 8.50459 36.9601 8.25841C36.9881 8.02812 37.0824 7.85021 37.2427 7.7247C37.4031 7.59918 37.6024 7.55095 37.8406 7.58C38.0789 7.60904 38.2568 7.70327 38.3744 7.86267C38.5008 8.01509 38.5496 8.21043 38.5205 8.44866C38.4556 8.98072 38.1651 9.21529 37.6489 9.15235ZM38.9579 14.2805L40.84 14.5099L40.6643 15.9513L37.8412 15.6071C37.4362 15.5577 37.1219 15.4912 36.8984 15.4075C36.6454 15.4331 36.3244 15.4221 35.9353 15.3747L33.1003 15.029L33.276 13.5877L35.1581 13.8172C34.9154 13.296 34.8245 12.7852 34.8855 12.2849C34.9823 11.4908 35.2945 10.8801 35.8221 10.4528C36.2963 10.0674 36.8748 9.91628 37.5577 9.99954C38.336 10.0944 38.9051 10.4499 39.2652 11.066C39.5664 11.5702 39.6749 12.1677 39.5907 12.8586C39.5297 13.3589 39.3188 13.8328 38.9579 14.2805ZM37.068 13.9171C37.3535 13.8229 37.5956 13.655 37.7943 13.4133C38.002 13.1646 38.1237 12.8933 38.1595 12.5995C38.2011 12.258 38.1502 11.9818 38.0067 11.7709C37.872 11.553 37.6658 11.4271 37.3878 11.3932C36.7843 11.3196 36.4385 11.6442 36.3504 12.3668C36.3126 12.6765 36.3606 12.9765 36.4945 13.2669C36.6293 13.5493 36.8205 13.766 37.068 13.9171ZM44.3682 14.9401L45.4403 15.0708L45.2645 16.5121L44.0495 16.364C43.4698 16.2933 43.0083 16.0799 42.6649 15.7237C42.2459 15.9869 41.7466 16.0832 41.1669 16.0125L39.9519 15.8644L40.1276 14.4231L41.1997 14.5538C41.5014 14.5906 41.7236 14.5532 41.8661 14.4416C42.0097 14.3221 42.1003 14.1075 42.1381 13.7978L42.4067 11.5941L44.0035 10.9909L43.639 13.9808C43.6012 14.2905 43.6376 14.5206 43.7482 14.6711C43.8598 14.8136 44.0664 14.9033 44.3682 14.9401ZM40.9752 17.0892C41.2134 17.1183 41.3918 17.2085 41.5103 17.36C41.6359 17.5204 41.6841 17.7197 41.655 17.9579C41.5902 18.49 41.2996 18.7245 40.7835 18.6616C40.5452 18.6326 40.3634 18.5379 40.2378 18.3775C40.1123 18.2171 40.0646 18.0138 40.0946 17.7677C40.1575 17.2515 40.4511 17.0253 40.9752 17.0892ZM42.8096 17.3129C43.0478 17.3419 43.2262 17.4322 43.3448 17.5837C43.4703 17.744 43.5185 17.9433 43.4895 18.1816C43.4246 18.7136 43.1341 18.9482 42.6179 18.8853C42.3796 18.8562 42.1978 18.7615 42.0723 18.6011C41.9467 18.4408 41.899 18.2375 41.929 17.9913C41.9919 17.4751 42.2855 17.249 42.8096 17.3129ZM54.0339 10.9929C53.7956 10.9638 53.6138 10.8691 53.4883 10.7087C53.3627 10.5484 53.315 10.3451 53.345 10.0989C53.3731 9.86863 53.4673 9.69072 53.6277 9.56521C53.788 9.43969 53.9873 9.39146 54.2256 9.42051C54.4638 9.44955 54.6417 9.54377 54.7593 9.70318C54.8858 9.8556 54.9345 10.0509 54.9054 10.2892C54.8406 10.8212 54.5501 11.0558 54.0339 10.9929ZM48.7382 15.4608C49.2608 14.3479 49.9314 13.4746 50.7501 12.841C51.6588 12.1298 52.6373 11.8381 53.6856 11.9659C54.6226 12.0801 55.3334 12.4972 55.8178 13.2171C56.2275 13.8231 56.3829 14.5312 56.2842 15.3412L56.2522 15.6032C56.1641 16.3259 55.869 16.8621 55.367 17.2119C54.9353 17.5139 54.4097 17.6271 53.7903 17.5516L48.6444 16.9242C48.0647 16.8535 47.6032 16.6401 47.2597 16.2839C46.8408 16.5471 46.3415 16.6434 45.7618 16.5727L44.5468 16.4246L44.7225 14.9833L45.7946 15.114C46.0963 15.1508 46.3185 15.1134 46.461 15.0018C46.6045 14.8823 46.6952 14.6677 46.7329 14.358L46.9247 12.7856L48.5214 12.1825L48.2338 14.541C48.1719 15.0492 48.34 15.3558 48.7382 15.4608ZM54.7629 15.3249L54.7833 15.1582C54.8414 14.6817 54.7538 14.2761 54.5206 13.9414C54.2874 13.6068 53.9564 13.4133 53.5276 13.361C52.9081 13.2855 52.2994 13.453 51.7013 13.8637C51.1111 14.2753 50.6114 14.8712 50.2019 15.6513L53.9065 16.103C54.1924 16.1379 54.3942 16.102 54.512 15.9955C54.6386 15.882 54.7223 15.6585 54.7629 15.3249ZM57.8298 18.0441L58.6692 11.1591L60.2674 10.544L59.3307 18.2271L57.8298 18.0441Z" fill="white"/>
<path d="M28.9346 29.632C28.212 29.5439 27.6802 29.2454 27.3393 28.7364C27.0462 28.2977 26.938 27.7646 27.0144 27.1373L27.5837 22.4679L29.1805 21.8647L28.524 27.2488C28.4863 27.5585 28.5227 27.7886 28.6333 27.9391C28.7449 28.0817 28.9515 28.1713 29.2533 28.2081L30.3254 28.3388L30.1496 29.7801L28.9346 29.632ZM29.4314 29.6926L29.6071 28.2513L31.7036 28.5069L31.5279 29.9482L29.4314 29.6926ZM33.8506 22.023C33.3662 21.964 33.154 21.6883 33.214 21.1959C33.2402 20.9815 33.3245 20.8185 33.4671 20.7069C33.6185 20.5884 33.8054 20.5427 34.0278 20.5698C34.5043 20.6279 34.7135 20.8952 34.6554 21.3716C34.5953 21.864 34.3271 22.0811 33.8506 22.023ZM32.7318 23.6637C32.4936 23.6347 32.3117 23.5399 32.1862 23.3796C32.0607 23.2192 32.0129 23.0159 32.043 22.7698C32.071 22.5395 32.1653 22.3616 32.3256 22.236C32.486 22.1105 32.6853 22.0623 32.9235 22.0913C33.1618 22.1204 33.3397 22.2146 33.4572 22.374C33.5837 22.5264 33.6324 22.7218 33.6034 22.96C33.5385 23.4921 33.248 23.7266 32.7318 23.6637ZM33.8774 22.9934C33.9054 22.7631 33.9997 22.5852 34.16 22.4597C34.3204 22.3342 34.5197 22.2859 34.7579 22.315C34.9962 22.344 35.1741 22.4383 35.2917 22.5977C35.4181 22.7501 35.4669 22.9454 35.4378 23.1837C35.3729 23.7157 35.0824 23.9503 34.5662 23.8874C34.328 23.8583 34.1461 23.7636 34.0206 23.6032C33.8951 23.4429 33.8474 23.2396 33.8774 22.9934ZM35.232 28.937L36.3041 29.0677L36.1283 30.5091L34.9133 30.3609C34.3336 30.2903 33.8721 30.0768 33.5286 29.7207C33.1097 29.9839 32.6104 30.0802 32.0307 30.0095L30.8157 29.8614L30.9914 28.42L32.0635 28.5507C32.3652 28.5875 32.5874 28.5501 32.7299 28.4386C32.8735 28.3191 32.9641 28.1045 33.0019 27.7947L33.2705 25.5911L34.8673 24.9879L34.5027 27.9777C34.465 28.2874 34.5014 28.5175 34.612 28.668C34.7236 28.8106 34.9302 28.9003 35.232 28.937ZM35.4106 30.4216L35.5863 28.9802L37.6828 29.2358L37.507 30.6772L35.4106 30.4216ZM36.7948 30.5903L36.9706 29.149L39.067 29.4046L38.8913 30.8459L36.7948 30.5903ZM38.1791 30.7591L38.3548 29.3178L40.4513 29.5734L40.2756 31.0147L38.1791 30.7591ZM39.5634 30.9279L39.7391 29.4866L41.8356 29.7422L41.6599 31.1835L39.5634 30.9279ZM40.9477 31.0967L41.1234 29.6553L42.1955 29.786C42.4972 29.8228 42.7194 29.7854 42.8619 29.6739C43.0055 29.5544 43.0961 29.3398 43.1339 29.03L43.4025 26.8264L44.9993 26.2232L44.626 29.2845C44.5379 30.0072 44.2468 30.5439 43.7527 30.8947C43.3201 31.2046 42.79 31.3213 42.1627 31.2448L40.9477 31.0967ZM41.2671 33.8314C41.0288 33.8024 40.8469 33.7077 40.7214 33.5473C40.5959 33.3869 40.5482 33.1836 40.5782 32.9375C40.6411 32.4213 40.9346 32.1952 41.4588 32.2591C41.697 32.2881 41.8754 32.3784 41.9939 32.5298C42.1194 32.6902 42.1677 32.8895 42.1386 33.1277C42.0738 33.6598 41.7832 33.8943 41.2671 33.8314ZM43.1015 34.0551C42.8632 34.026 42.6814 33.9313 42.5558 33.7709C42.4303 33.6106 42.3826 33.4073 42.4126 33.1611C42.4755 32.6449 42.7691 32.4188 43.2932 32.4827C43.5314 32.5118 43.7098 32.602 43.8283 32.7535C43.9539 32.9138 44.0021 33.1131 43.973 33.3514C43.9082 33.8834 43.6176 34.118 43.1015 34.0551ZM45.5421 31.6568L46.4683 30.307L48.3503 30.5364C48.7553 30.5858 48.9864 30.3762 49.0435 29.9077C49.15 29.0342 48.8109 28.3118 48.0263 27.7407L48.9202 26.5562C50.071 27.4298 50.6184 28.4919 50.5627 29.7424C50.5461 30.1433 50.6 30.4279 50.7245 30.5962C50.857 30.7655 51.102 30.8719 51.4593 30.9155L52.3646 31.0259L52.1889 32.4672L51.2002 32.3466C50.6126 32.275 50.1361 32.0517 49.7708 31.6767C49.4372 31.9665 48.9965 32.078 48.4486 32.0112L45.5421 31.6568ZM51.4752 32.3802L51.6509 30.9388L53.4258 31.1552C54.8234 31.3256 55.986 31.0443 56.9136 30.3111C56.4888 29.3003 55.8912 28.7479 55.1209 28.654C54.4857 28.5766 53.7487 28.8373 52.91 29.4362L53.0712 28.114C53.8274 27.4647 54.6263 27.1914 55.4681 27.294C56.0875 27.3695 56.6634 27.6695 57.1959 28.1938C57.7284 28.718 58.1701 29.4247 58.5211 30.3137L58.4485 30.9093C57.7876 31.5702 57.0042 32.0469 56.0981 32.3394C55.2 32.6328 54.2467 32.7181 53.2381 32.5951L51.4752 32.3802Z" fill="white"/>
</svg>
