<svg width="18" height="18" viewBox="0 0 18 18" fill="none" xmlns="http://www.w3.org/2000/svg">
<path d="M5.98356 6.56761C6.56356 7.77563 7.35422 8.90783 8.35553 9.90915C9.35685 10.9105 10.4891 11.7011 11.6971 12.2811C11.801 12.331 11.8529 12.356 11.9187 12.3751C12.1523 12.4432 12.4392 12.3943 12.637 12.2526C12.6927 12.2128 12.7403 12.1651 12.8356 12.0699C13.1269 11.7785 13.2726 11.6329 13.4191 11.5376C13.9715 11.1785 14.6837 11.1785 15.2361 11.5376C15.3825 11.6329 15.5282 11.7785 15.8196 12.0699L15.9819 12.2323C16.4248 12.6751 16.6462 12.8966 16.7665 13.1344C17.0058 13.6073 17.0058 14.1659 16.7665 14.6389C16.6462 14.8767 16.4248 15.0981 15.9819 15.541L15.8506 15.6723C15.4092 16.1137 15.1886 16.3344 14.8885 16.5029C14.5556 16.6899 14.0385 16.8244 13.6567 16.8233C13.3126 16.8222 13.0774 16.7555 12.607 16.622C10.0792 15.9045 7.69387 14.5508 5.70388 12.5608C3.7139 10.5708 2.36017 8.18551 1.6427 5.65768C1.50919 5.18731 1.44244 4.95212 1.44141 4.608C1.44028 4.22615 1.57475 3.70907 1.76176 3.37615C1.9303 3.07613 2.15098 2.85545 2.59233 2.4141L2.72369 2.28273C3.16656 1.83987 3.388 1.61843 3.62581 1.49814C4.09878 1.25892 4.65734 1.25892 5.1303 1.49814C5.36812 1.61843 5.58955 1.83987 6.03242 2.28273L6.19481 2.44513C6.48615 2.73646 6.63182 2.88213 6.72706 3.02862C7.08622 3.58102 7.08622 4.29317 6.72706 4.84558C6.63182 4.99207 6.48615 5.13773 6.19481 5.42907C6.09955 5.52433 6.05192 5.57196 6.01206 5.62764C5.87038 5.8255 5.82146 6.11238 5.88957 6.34601C5.90873 6.41175 5.93367 6.4637 5.98356 6.56761Z" stroke="white" stroke-width="1.66667" stroke-linecap="round" stroke-linejoin="round"/>
</svg>
