<svg width="29" height="30" viewBox="0 0 29 30" fill="none" xmlns="http://www.w3.org/2000/svg">
<path d="M6.25 6.75L9 4M9 4L6.25 1.25M9 4H6.25C3.21243 4 0.75 6.46243 0.75 9.5M22.75 23.25L20 26M20 26L22.75 28.75M20 26H22.75C25.7876 26 28.25 23.5376 28.25 20.5" stroke="#98A2B3" stroke-width="1.5" stroke-linecap="round" stroke-linejoin="round"/>
<path d="M19.6906 12.0432L19.5064 11.9706L17.9457 8.75232C17.6526 8.14753 17.2156 7.64174 16.6813 7.28905C16.147 6.93636 15.5356 6.75004 14.9125 6.75H10.9827C10.2611 6.74997 9.55777 6.99973 8.97239 7.46388C8.38701 7.92803 7.94929 8.58304 7.72125 9.33608L6.97738 11.7906C6.35416 12.0795 5.82228 12.5642 5.44832 13.184C5.07435 13.8038 4.87493 14.5311 4.875 15.275V16.9582C4.875 18.032 5.45662 18.9545 6.29125 19.3704C6.39933 20.0515 6.71632 20.6713 7.18942 21.1266C7.66251 21.5819 8.26315 21.8452 8.89128 21.8726C9.51942 21.9 10.1371 21.6899 10.6415 21.2773C11.1459 20.8646 11.5066 20.2744 11.6634 19.6048H17.3366C17.4934 20.2744 17.8541 20.8646 18.3585 21.2773C18.8629 21.6899 19.4806 21.9 20.1087 21.8726C20.7369 21.8452 21.3375 21.5819 21.8106 21.1266C22.2837 20.6713 22.6007 20.0515 22.7087 19.3704C23.1308 19.1608 23.4889 18.8218 23.7402 18.3939C23.9914 17.9661 24.125 17.4675 24.125 16.9582V16.4455C24.1249 15.6651 23.9052 14.9037 23.496 14.2661C23.0869 13.6284 22.5083 13.1456 21.8398 12.884L19.7635 12.0719V12.0432H19.6906ZM10.9827 8.26233H12.4375V12.0432H8.34962L9.02475 9.81398C9.16163 9.36196 9.42443 8.96881 9.77588 8.6903C10.1273 8.41179 10.5496 8.26206 10.9827 8.26233ZM13.8125 8.26233H14.9125C15.2864 8.26218 15.6533 8.37384 15.974 8.58535C16.2947 8.79686 16.557 9.10027 16.733 9.46312L17.9843 12.0432H13.8125V8.26233ZM19.4541 13.5555L21.3791 14.3086C21.7802 14.4656 22.1273 14.7553 22.3727 15.1379C22.6182 15.5205 22.75 15.9773 22.75 16.4455V16.9582C22.75 17.2229 22.6675 17.4664 22.53 17.6599C22.3048 17.0785 21.9196 16.5893 21.4286 16.2609C20.9376 15.9326 20.3654 15.7817 19.7924 15.8294C19.2194 15.8772 18.6744 16.1211 18.2339 16.527C17.7935 16.9329 17.4797 17.4803 17.3366 18.0925H11.6634C11.5203 17.4803 11.2065 16.9329 10.7661 16.527C10.3256 16.1211 9.78059 15.8772 9.2076 15.8294C8.63461 15.7817 8.06242 15.9326 7.57141 16.2609C7.0804 16.5893 6.69523 17.0785 6.47 17.6599C6.3269 17.46 6.24938 17.2127 6.25 16.9582V15.275C6.25 14.5945 6.525 13.9744 6.965 13.5555H19.4541ZM7.625 18.8486C7.625 18.4475 7.76987 18.0629 8.02773 17.7793C8.28559 17.4956 8.63533 17.3363 9 17.3363C9.36467 17.3363 9.71441 17.4956 9.97227 17.7793C10.2301 18.0629 10.375 18.4475 10.375 18.8486C10.375 19.2497 10.2301 19.6344 9.97227 19.918C9.71441 20.2016 9.36467 20.361 9 20.361C8.63533 20.361 8.28559 20.2016 8.02773 19.918C7.76987 19.6344 7.625 19.2497 7.625 18.8486ZM20 17.3363C20.3647 17.3363 20.7144 17.4956 20.9723 17.7793C21.2301 18.0629 21.375 18.4475 21.375 18.8486C21.375 19.2497 21.2301 19.6344 20.9723 19.918C20.7144 20.2016 20.3647 20.361 20 20.361C19.6353 20.361 19.2856 20.2016 19.0277 19.918C18.7699 19.6344 18.625 19.2497 18.625 18.8486C18.625 18.4475 18.7699 18.0629 19.0277 17.7793C19.2856 17.4956 19.6353 17.3363 20 17.3363Z" fill="#98A2B3"/>
</svg>
