<svg width="20" height="20" viewBox="0 0 20 20" fill="none" xmlns="http://www.w3.org/2000/svg">
<circle cx="10" cy="10" r="2" fill="#009B5D"/>
<path d="M9.99984 1.66797V3.7513M9.99984 1.66797C5.39746 1.66797 1.6665 5.39893 1.6665 10.0013M9.99984 1.66797C14.6022 1.66797 18.3332 5.39893 18.3332 10.0013M9.99984 16.2513V18.3346M9.99984 18.3346C14.6022 18.3346 18.3332 14.6037 18.3332 10.0013M9.99984 18.3346C5.39746 18.3346 1.6665 14.6037 1.6665 10.0013M3.74984 10.0013H1.6665M18.3332 10.0013H16.2498M15.8985 15.9L14.4204 14.4219M4.1012 15.9L5.5808 14.4204M4.1012 4.16797L5.54824 5.61501M15.8985 4.16797L11.2498 8.7513M11.6665 10.0013C11.6665 10.9218 10.9203 11.668 9.99984 11.668C9.07936 11.668 8.33317 10.9218 8.33317 10.0013C8.33317 9.08083 9.07936 8.33464 9.99984 8.33464C10.9203 8.33464 11.6665 9.08083 11.6665 10.0013Z" stroke="#1D2939" stroke-width="1.2" stroke-linecap="round" stroke-linejoin="round"/>
</svg>
