<svg width="100" height="56" viewBox="0 36 100 41" fill="none" xmlns="http://www.w3.org/2000/svg">
    <g clip-path="url(#clip0_4066_27374)">
        <path opacity="0.16"
              d="M4.69011 72.7238C9.5488 68.6603 13.4206 65.2825 16.3054 62.5905C19.1903 59.8476 21.5943 57.0032 23.5175 54.0571C25.4408 51.1111 26.4024 48.2159 26.4024 45.3714C26.4024 42.781 25.795 40.7492 24.5804 39.2762C23.3657 37.8032 21.4931 37.0667 18.9625 37.0667C16.4319 37.0667 14.4834 37.9302 13.1169 39.6571C11.7504 41.3333 11.0418 43.6444 10.9912 46.5905H0.666504C0.868949 40.4952 2.66565 35.873 6.05661 32.7238C9.49819 29.5746 13.8508 28 19.1143 28C24.884 28 29.3125 29.5492 32.3998 32.6476C35.4871 35.6952 37.0308 39.7333 37.0308 44.7619C37.0308 48.7238 35.9679 52.5079 33.8423 56.1143C31.7166 59.7206 29.2872 62.8698 26.5542 65.5619C23.8212 68.2032 20.2531 71.4032 15.8499 75.1619H38.2454V84H0.742421V76.0762L4.69011 72.7238Z"
              fill="url(#paint0_linear_4066_27374)"/>
        <path opacity="0.26" d="M96.6665 83.0098H24.6665V83.9996H96.6665V83.0098Z" fill="#00899E"/>
        <path d="M74.3841 66.4671L59.4688 65.8874L59.2681 60.2227H64.1717C66.0297 60.2227 67.8274 60.8849 69.2448 62.0917L74.3841 66.4671Z"
              fill="#A2CBDE"/>
        <path d="M59.6686 65.6865L49.6271 65.3076C48.0857 65.2496 46.5643 64.9471 45.1228 64.4116L39.3813 62.2801C40.6802 60.9651 42.4705 60.2227 44.3419 60.2227H59.4692L59.6686 65.6865Z"
              fill="#D4F1FF"/>
        <path opacity="0.4" d="M60.288 68.0295L59.2681 67.1903L65.3159 59.4434L66.8261 59.6543L60.288 68.0295Z"
              fill="#EBF8FF"/>
        <path d="M53.5734 68.4197L50.9165 66.5319L56.2111 59.4434L60.0657 59.7278L53.5734 68.4197Z" fill="#EBF8FF"/>
        <path d="M60.0636 60.2227H59.2681V65.6865H60.0636V60.2227Z" fill="#193157"/>
        <path d="M49.7605 60.1599L48.9399 59.8242L46.7166 65.0552L47.5371 65.3909L49.7605 60.1599Z" fill="#193157"/>
        <path d="M29.8704 71.1504L28.2446 73.1627V79.3462H94.2778C94.2778 79.3462 94.2778 75.5185 92.9268 71.1509H29.8704V71.1504Z"
              fill="#193157"/>
        <mask id="mask0_4066_27374" style="mask-type:luminance" maskUnits="userSpaceOnUse" x="28" y="58" width="67"
              height="19">
            <path d="M94.0831 75.0147C93.7016 72.8511 93.0009 70.1681 91.7142 67.6102C91.7142 67.6102 87.2638 66.1104 77.49 65.6968L69.7893 60.8254C67.5604 59.4154 64.9658 58.666 62.3147 58.666H34.6093L36.2205 60.0978C36.2205 60.0978 31.6935 62.7351 30.0823 71.0244L28.2407 73.285V75.0152V76.2285H33.5535C34.5723 73.5844 37.1743 71.7048 40.2233 71.7048C43.2723 71.7048 45.8738 73.5849 46.8931 76.2285H76.3613C77.3801 73.5844 79.9821 71.7048 83.0311 71.7048C85.893 71.7048 88.3608 73.3613 89.4959 75.751C89.6343 76.0427 89.9323 76.2285 90.26 76.2285H94.2739C94.221 75.8471 94.1582 75.4412 94.0831 75.0147ZM49.4692 65.428C47.9214 65.3694 46.3937 65.0632 44.9464 64.5224L39.1813 62.3682C40.4849 61.0397 42.2831 60.2888 44.1622 60.2888H64.244C66.0977 60.2888 67.8912 60.9344 69.3052 62.1108L74.432 66.3756L49.4692 65.428Z"
                  fill="white"/>
        </mask>
        <g mask="url(#mask0_4066_27374)">
            <path d="M94.0753 76.023C93.6777 73.5711 92.9473 70.5304 91.6061 67.6313C91.6061 67.6313 86.968 65.9322 76.7818 65.4629L68.7562 59.9418C66.4335 58.3437 63.729 57.4941 60.966 57.4941H32.0931L33.7724 59.117C33.7724 59.117 29.0542 62.1061 27.375 71.5001L25.4556 74.062V76.023V77.3983H30.9931C32.0552 74.4018 34.7666 72.2712 37.9439 72.2712C41.1213 72.2712 43.8327 74.4018 44.8948 77.3983H75.6055C76.6676 74.4018 79.3789 72.2712 82.5563 72.2712C85.7342 72.2712 88.4451 74.4018 89.5072 77.3983H94.2733C94.219 76.9664 94.1537 76.506 94.0753 76.023Z"
                  fill="#193157"/>
        </g>
        <mask id="mask1_4066_27374" style="mask-type:luminance" maskUnits="userSpaceOnUse" x="28" y="58" width="67"
              height="19">
            <path d="M94.0831 75.0147C93.7016 72.8511 93.0009 70.1681 91.7142 67.6102C91.7142 67.6102 87.2638 66.1104 77.49 65.6968L69.7893 60.8254C67.5604 59.4154 64.9658 58.666 62.3147 58.666H34.6093L36.2205 60.0978C36.2205 60.0978 31.6935 62.7351 30.0823 71.0244L28.2407 73.285V75.0152V76.2285H33.5535C34.5723 73.5844 37.1743 71.7048 40.2233 71.7048C43.2723 71.7048 45.8738 73.5849 46.8931 76.2285H76.3613C77.3801 73.5844 79.9821 71.7048 83.0311 71.7048C85.893 71.7048 88.3608 73.3613 89.4959 75.751C89.6343 76.0427 89.9323 76.2285 90.26 76.2285H94.2739C94.221 75.8471 94.1582 75.4412 94.0831 75.0147ZM49.4692 65.428C47.9214 65.3694 46.3937 65.0632 44.9464 64.5224L39.1813 62.3682C40.4849 61.0397 42.2831 60.2888 44.1622 60.2888H64.244C66.0977 60.2888 67.8912 60.9344 69.3052 62.1108L74.432 66.3756L49.4692 65.428Z"
                  fill="white"/>
        </mask>
        <g mask="url(#mask1_4066_27374)">
            <path d="M42.7864 81.7738C45.8261 81.7738 49.2787 76.0499 50.8122 76.3584L79.1003 81.0643C80.1159 78.4658 84.1122 84.4243 87.1524 84.4243C90.192 84.4243 92.4962 79.4124 93.5119 82.0104L98.2504 77.7742C98.1983 77.3999 97.9317 75.5852 97.8569 75.166C97.4766 73.0398 96.778 70.403 95.4953 67.8891C95.4953 67.8891 91.0586 66.4152 81.3149 66.0087L73.6379 61.2212C71.4158 59.8355 68.8293 58.666 66.1863 58.666H38.5663L40.1725 60.5056C40.1725 60.5056 35.6852 63.3836 34.079 71.5301L32.2173 73.4656V75.166V76.3584L36.6535 80.9853C37.6691 78.3873 39.7468 81.7738 42.7864 81.7738Z"
                  fill="#3E7BBD"/>
        </g>
        <mask id="mask2_4066_27374" style="mask-type:luminance" maskUnits="userSpaceOnUse" x="28" y="58" width="67"
              height="19">
            <path d="M94.0831 75.0147C93.7016 72.8511 93.0009 70.1681 91.7142 67.6102C91.7142 67.6102 87.2638 66.1104 77.49 65.6968L69.7893 60.8254C67.5604 59.4154 64.9658 58.666 62.3147 58.666H34.6093L36.2205 60.0978C36.2205 60.0978 31.6935 62.7351 30.0823 71.0244L28.2407 73.285V75.0152V76.2285H33.5535C34.5723 73.5844 37.1743 71.7048 40.2233 71.7048C43.2723 71.7048 45.8738 73.5849 46.8931 76.2285H76.3613C77.3801 73.5844 79.9821 71.7048 83.0311 71.7048C85.893 71.7048 88.3608 73.3613 89.4959 75.751C89.6343 76.0427 89.9323 76.2285 90.26 76.2285H94.2739C94.221 75.8471 94.1582 75.4412 94.0831 75.0147ZM49.4692 65.428C47.9214 65.3694 46.3937 65.0632 44.9464 64.5224L39.1813 62.3682C40.4849 61.0397 42.2831 60.2888 44.1622 60.2888H64.244C66.0977 60.2888 67.8912 60.9344 69.3052 62.1108L74.432 66.3756L49.4692 65.428Z"
                  fill="white"/>
        </mask>
        <g mask="url(#mask2_4066_27374)">
            <path d="M89.8049 69.9837H92.6802V69.2031H89.1001C89.1001 69.6342 89.4157 69.9837 89.8049 69.9837Z"
                  fill="#193157"/>
        </g>
        <mask id="mask3_4066_27374" style="mask-type:luminance" maskUnits="userSpaceOnUse" x="28" y="58" width="67"
              height="19">
            <path d="M94.0831 75.0147C93.7016 72.8511 93.0009 70.1681 91.7142 67.6102C91.7142 67.6102 87.2638 66.1104 77.49 65.6968L69.7893 60.8254C67.5604 59.4154 64.9658 58.666 62.3147 58.666H34.6093L36.2205 60.0978C36.2205 60.0978 31.6935 62.7351 30.0823 71.0244L28.2407 73.285V75.0152V76.2285H33.5535C34.5723 73.5844 37.1743 71.7048 40.2233 71.7048C43.2723 71.7048 45.8738 73.5849 46.8931 76.2285H76.3613C77.3801 73.5844 79.9821 71.7048 83.0311 71.7048C85.893 71.7048 88.3608 73.3613 89.4959 75.751C89.6343 76.0427 89.9323 76.2285 90.26 76.2285H94.2739C94.221 75.8471 94.1582 75.4412 94.0831 75.0147ZM49.4692 65.428C47.9214 65.3694 46.3937 65.0632 44.9464 64.5224L39.1813 62.3682C40.4849 61.0397 42.2831 60.2888 44.1622 60.2888H64.244C66.0977 60.2888 67.8912 60.9344 69.3052 62.1108L74.432 66.3756L49.4692 65.428Z"
                  fill="white"/>
        </mask>
        <g mask="url(#mask3_4066_27374)">
            <path d="M93.4804 67.6426H87.5671L87.1157 69.594H93.4804" fill="#D4F1FF"/>
            <mask id="mask4_4066_27374" style="mask-type:luminance" maskUnits="userSpaceOnUse" x="87" y="67" width="7"
                  height="3">
                <path d="M93.4765 67.6445H87.5632L87.1118 69.5959H93.4765" fill="white"/>
            </mask>
            <g mask="url(#mask4_4066_27374)">
                <path d="M93.8794 67.2539H88.3358L87.9126 68.815H93.8794" fill="white"/>
            </g>
        </g>
        <mask id="mask5_4066_27374" style="mask-type:luminance" maskUnits="userSpaceOnUse" x="28" y="58" width="67"
              height="19">
            <path d="M94.0831 75.0147C93.7016 72.8511 93.0009 70.1681 91.7142 67.6102C91.7142 67.6102 87.2638 66.1104 77.49 65.6968L69.7893 60.8254C67.5604 59.4154 64.9658 58.666 62.3147 58.666H34.6093L36.2205 60.0978C36.2205 60.0978 31.6935 62.7351 30.0823 71.0244L28.2407 73.285V75.0152V76.2285H33.5535C34.5723 73.5844 37.1743 71.7048 40.2233 71.7048C43.2723 71.7048 45.8738 73.5849 46.8931 76.2285H76.3613C77.3801 73.5844 79.9821 71.7048 83.0311 71.7048C85.893 71.7048 88.3608 73.3613 89.4959 75.751C89.6343 76.0427 89.9323 76.2285 90.26 76.2285H94.2739C94.221 75.8471 94.1582 75.4412 94.0831 75.0147ZM49.4692 65.428C47.9214 65.3694 46.3937 65.0632 44.9464 64.5224L39.1813 62.3682C40.4849 61.0397 42.2831 60.2888 44.1622 60.2888H64.244C66.0977 60.2888 67.8912 60.9344 69.3052 62.1108L74.432 66.3756L49.4692 65.428Z"
                  fill="white"/>
        </mask>
        <g mask="url(#mask5_4066_27374)">
            <path d="M62.0572 72.3262H59.6704V76.2289H62.0572V72.3262Z" fill="#69A4C2"/>
        </g>
        <mask id="mask6_4066_27374" style="mask-type:luminance" maskUnits="userSpaceOnUse" x="28" y="58" width="67"
              height="19">
            <path d="M94.0831 75.0147C93.7016 72.8511 93.0009 70.1681 91.7142 67.6102C91.7142 67.6102 87.2638 66.1104 77.49 65.6968L69.7893 60.8254C67.5604 59.4154 64.9658 58.666 62.3147 58.666H34.6093L36.2205 60.0978C36.2205 60.0978 31.6935 62.7351 30.0823 71.0244L28.2407 73.285V75.0152V76.2285H33.5535C34.5723 73.5844 37.1743 71.7048 40.2233 71.7048C43.2723 71.7048 45.8738 73.5849 46.8931 76.2285H76.3613C77.3801 73.5844 79.9821 71.7048 83.0311 71.7048C85.893 71.7048 88.3608 73.3613 89.4959 75.751C89.6343 76.0427 89.9323 76.2285 90.26 76.2285H94.2739C94.221 75.8471 94.1582 75.4412 94.0831 75.0147ZM49.4692 65.428C47.9214 65.3694 46.3937 65.0632 44.9464 64.5224L39.1813 62.3682C40.4849 61.0397 42.2831 60.2888 44.1622 60.2888H64.244C66.0977 60.2888 67.8912 60.9344 69.3052 62.1108L74.432 66.3756L49.4692 65.428Z"
                  fill="white"/>
        </mask>
        <g mask="url(#mask6_4066_27374)">
            <path d="M83.5344 87.5445C88.5874 87.5445 92.6836 83.5257 92.6836 78.5682C92.6836 73.6107 88.5874 69.5918 83.5344 69.5918C78.4815 69.5918 74.3853 73.6107 74.3853 78.5682C74.3853 83.5257 78.4815 87.5445 83.5344 87.5445Z"
                  fill="#91C5DE"/>
        </g>
        <mask id="mask7_4066_27374" style="mask-type:luminance" maskUnits="userSpaceOnUse" x="28" y="58" width="67"
              height="19">
            <path d="M94.0831 75.0147C93.7016 72.8511 93.0009 70.1681 91.7142 67.6102C91.7142 67.6102 87.2638 66.1104 77.49 65.6968L69.7893 60.8254C67.5604 59.4154 64.9658 58.666 62.3147 58.666H34.6093L36.2205 60.0978C36.2205 60.0978 31.6935 62.7351 30.0823 71.0244L28.2407 73.285V75.0152V76.2285H33.5535C34.5723 73.5844 37.1743 71.7048 40.2233 71.7048C43.2723 71.7048 45.8738 73.5849 46.8931 76.2285H76.3613C77.3801 73.5844 79.9821 71.7048 83.0311 71.7048C85.893 71.7048 88.3608 73.3613 89.4959 75.751C89.6343 76.0427 89.9323 76.2285 90.26 76.2285H94.2739C94.221 75.8471 94.1582 75.4412 94.0831 75.0147ZM49.4692 65.428C47.9214 65.3694 46.3937 65.0632 44.9464 64.5224L39.1813 62.3682C40.4849 61.0397 42.2831 60.2888 44.1622 60.2888H64.244C66.0977 60.2888 67.8912 60.9344 69.3052 62.1108L74.432 66.3756L49.4692 65.428Z"
                  fill="white"/>
        </mask>
        <g mask="url(#mask7_4066_27374)">
            <path d="M93.592 73.1055H91.8684L90.6938 76.618H94.274L93.592 73.1055Z" fill="#D1F0FF"/>
        </g>
        <mask id="mask8_4066_27374" style="mask-type:luminance" maskUnits="userSpaceOnUse" x="28" y="58" width="67"
              height="19">
            <path d="M94.0831 75.0147C93.7016 72.8511 93.0009 70.1681 91.7142 67.6102C91.7142 67.6102 87.2638 66.1104 77.49 65.6968L69.7893 60.8254C67.5604 59.4154 64.9658 58.666 62.3147 58.666H34.6093L36.2205 60.0978C36.2205 60.0978 31.6935 62.7351 30.0823 71.0244L28.2407 73.285V75.0152V76.2285H33.5535C34.5723 73.5844 37.1743 71.7048 40.2233 71.7048C43.2723 71.7048 45.8738 73.5849 46.8931 76.2285H76.3613C77.3801 73.5844 79.9821 71.7048 83.0311 71.7048C85.893 71.7048 88.3608 73.3613 89.4959 75.751C89.6343 76.0427 89.9323 76.2285 90.26 76.2285H94.2739C94.221 75.8471 94.1582 75.4412 94.0831 75.0147ZM49.4692 65.428C47.9214 65.3694 46.3937 65.0632 44.9464 64.5224L39.1813 62.3682C40.4849 61.0397 42.2831 60.2888 44.1622 60.2888H64.244C66.0977 60.2888 67.8912 60.9344 69.3052 62.1108L74.432 66.3756L49.4692 65.428Z"
                  fill="white"/>
        </mask>
        <g mask="url(#mask8_4066_27374)">
            <path d="M31.5395 66.6955L35.5578 66.0801L35.8026 67.3115L30.6313 69.5926C30.7232 69.115 30.8523 68.583 31.036 68.0133C31.1929 67.525 31.3662 67.085 31.5395 66.6955Z"
                  fill="#D4F1FF"/>
            <mask id="mask9_4066_27374" style="mask-type:luminance" maskUnits="userSpaceOnUse" x="30" y="66" width="6"
                  height="4">
                <path d="M31.5434 66.6975L35.5617 66.082L35.8065 67.3134L30.6353 69.5945C30.7271 69.117 30.8562 68.5849 31.0399 68.0153C31.1968 67.527 31.3701 67.087 31.5434 66.6975Z"
                      fill="white"/>
            </mask>
            <g mask="url(#mask9_4066_27374)">
                <path d="M30.8164 66.3068L35.1438 65.6914L35.4074 66.9228L29.8384 69.2039C29.9373 68.7264 30.0763 68.1943 30.2742 67.6247C30.4431 67.1363 30.6298 66.6964 30.8164 66.3068Z"
                      fill="white"/>
            </g>
        </g>
        <mask id="mask10_4066_27374" style="mask-type:luminance" maskUnits="userSpaceOnUse" x="28" y="58" width="67"
              height="19">
            <path d="M94.0831 75.0147C93.7016 72.8511 93.0009 70.1681 91.7142 67.6102C91.7142 67.6102 87.2638 66.1104 77.49 65.6968L69.7893 60.8254C67.5604 59.4154 64.9658 58.666 62.3147 58.666H34.6093L36.2205 60.0978C36.2205 60.0978 31.6935 62.7351 30.0823 71.0244L28.2407 73.285V75.0152V76.2285H33.5535C34.5723 73.5844 37.1743 71.7048 40.2233 71.7048C43.2723 71.7048 45.8738 73.5849 46.8931 76.2285H76.3613C77.3801 73.5844 79.9821 71.7048 83.0311 71.7048C85.893 71.7048 88.3608 73.3613 89.4959 75.751C89.6343 76.0427 89.9323 76.2285 90.26 76.2285H94.2739C94.221 75.8471 94.1582 75.4412 94.0831 75.0147ZM49.4692 65.428C47.9214 65.3694 46.3937 65.0632 44.9464 64.5224L39.1813 62.3682C40.4849 61.0397 42.2831 60.2888 44.1622 60.2888H64.244C66.0977 60.2888 67.8912 60.9344 69.3052 62.1108L74.432 66.3756L49.4692 65.428Z"
                  fill="white"/>
        </mask>
        <g mask="url(#mask10_4066_27374)">
            <path d="M33.3398 69.3681L29.7073 70.7655L29.436 70.0872L33.7603 68.4238C33.91 68.7986 33.722 69.2213 33.3398 69.3681Z"
                  fill="#193157"/>
        </g>
        <mask id="mask11_4066_27374" style="mask-type:luminance" maskUnits="userSpaceOnUse" x="28" y="58" width="67"
              height="19">
            <path d="M94.0831 75.0147C93.7016 72.8511 93.0009 70.1681 91.7142 67.6102C91.7142 67.6102 87.2638 66.1104 77.49 65.6968L69.7893 60.8254C67.5604 59.4154 64.9658 58.666 62.3147 58.666H34.6093L36.2205 60.0978C36.2205 60.0978 31.6935 62.7351 30.0823 71.0244L28.2407 73.285V75.0152V76.2285H33.5535C34.5723 73.5844 37.1743 71.7048 40.2233 71.7048C43.2723 71.7048 45.8738 73.5849 46.8931 76.2285H76.3613C77.3801 73.5844 79.9821 71.7048 83.0311 71.7048C85.893 71.7048 88.3608 73.3613 89.4959 75.751C89.6343 76.0427 89.9323 76.2285 90.26 76.2285H94.2739C94.221 75.8471 94.1582 75.4412 94.0831 75.0147ZM49.4692 65.428C47.9214 65.3694 46.3937 65.0632 44.9464 64.5224L39.1813 62.3682C40.4849 61.0397 42.2831 60.2888 44.1622 60.2888H64.244C66.0977 60.2888 67.8912 60.9344 69.3052 62.1108L74.432 66.3756L49.4692 65.428Z"
                  fill="white"/>
        </mask>
        <g mask="url(#mask11_4066_27374)">
            <path d="M39.7805 69.5938C37.6433 69.5938 35.6784 70.3149 34.1212 71.52C33.906 72.2998 33.3132 74.5679 33.2498 76.0932L31.2553 76.7925L30.8693 76.5398C30.7154 77.1925 30.6313 77.8716 30.6313 78.5699C30.6313 83.5274 34.7277 87.5465 39.7805 87.5465C44.8334 87.5465 48.9297 83.5274 48.9297 78.5699C48.9297 73.6123 44.8334 69.5938 39.7805 69.5938Z"
                  fill="#91C5DE"/>
            <path d="M32.9609 76.2836C33.023 74.7037 33.6031 72.3529 33.8137 71.5449C32.2427 72.8324 31.0976 74.6537 30.6313 76.747L31.0091 77.0088L32.9609 76.2836Z"
                  fill="#7FACC2"/>
        </g>
        <path d="M43.3567 78.5658C43.3567 75.7638 41.0413 73.4922 38.1854 73.4922C35.3295 73.4922 33.0142 75.7638 33.0142 78.5658C33.0142 81.3677 35.3295 83.6394 38.1854 83.6394C39.4637 83.6394 39.7736 83.6316 40.9726 83.601C42.4354 83.5631 43.3567 80.1131 43.3567 78.5658Z"
              fill="#193157"/>
        <path d="M40.5721 83.6394C43.4282 83.6394 45.7434 81.3679 45.7434 78.5658C45.7434 75.7637 43.4282 73.4922 40.5721 73.4922C37.7161 73.4922 35.4009 75.7637 35.4009 78.5658C35.4009 81.3679 37.7161 83.6394 40.5721 83.6394Z"
              fill="#435C85"/>
        <path d="M40.5741 82.4676C42.771 82.4676 44.552 80.7203 44.552 78.5649C44.552 76.4094 42.771 74.6621 40.5741 74.6621C38.3772 74.6621 36.5962 76.4094 36.5962 78.5649C36.5962 80.7203 38.3772 82.4676 40.5741 82.4676Z"
              fill="#91C5DE"/>
        <mask id="mask12_4066_27374" style="mask-type:luminance" maskUnits="userSpaceOnUse" x="36" y="74" width="9"
              height="9">
            <path d="M40.5702 82.4696C42.7671 82.4696 44.5481 80.7223 44.5481 78.5668C44.5481 76.4114 42.7671 74.6641 40.5702 74.6641C38.3733 74.6641 36.5923 76.4114 36.5923 78.5668C36.5923 80.7223 38.3733 82.4696 40.5702 82.4696Z"
                  fill="white"/>
        </mask>
        <g mask="url(#mask12_4066_27374)">
            <path d="M44.7418 79.9936L41.3312 78.6049C40.8937 78.4269 40.3985 78.4791 40.0298 78.7041L42.0929 79.544L41.4982 80.5187L38.1821 79.1685L38.4536 78.6704C39.0576 77.5628 40.592 77.0861 41.8741 77.6084L44.9446 78.8584"
                  fill="#435C85"/>
        </g>
        <path d="M86.7206 78.5658C86.7206 75.7638 84.4943 73.4922 81.7483 73.4922C79.0022 73.4922 76.7759 75.7638 76.7759 78.5658C76.7759 81.3677 79.0022 83.6394 81.7483 83.6394C82.9774 83.6394 83.2754 83.6316 84.4282 83.601C85.8348 83.5631 86.7206 80.1131 86.7206 78.5658Z"
              fill="#193157"/>
        <path d="M83.9315 83.6394C86.7875 83.6394 89.1028 81.3679 89.1028 78.5658C89.1028 75.7637 86.7875 73.4922 83.9315 73.4922C81.0755 73.4922 78.7603 75.7637 78.7603 78.5658C78.7603 81.3679 81.0755 83.6394 83.9315 83.6394Z"
              fill="#435C85"/>
        <path d="M83.9335 82.4676C86.1304 82.4676 87.9114 80.7203 87.9114 78.5649C87.9114 76.4094 86.1304 74.6621 83.9335 74.6621C81.7365 74.6621 79.9556 76.4094 79.9556 78.5649C79.9556 80.7203 81.7365 82.4676 83.9335 82.4676Z"
              fill="#91C5DE"/>
        <mask id="mask13_4066_27374" style="mask-type:luminance" maskUnits="userSpaceOnUse" x="79" y="74" width="9"
              height="9">
            <path d="M83.9335 82.4696C86.1304 82.4696 87.9114 80.7223 87.9114 78.5668C87.9114 76.4114 86.1304 74.6641 83.9335 74.6641C81.7365 74.6641 79.9556 76.4114 79.9556 78.5668C79.9556 80.7223 81.7365 82.4696 83.9335 82.4696Z"
                  fill="white"/>
        </mask>
        <g mask="url(#mask13_4066_27374)">
            <path d="M88.1051 79.9936L84.6944 78.6049C84.257 78.4269 83.7618 78.4791 83.3931 78.7041L85.4561 79.544L84.8615 80.5187L81.5454 79.1685L81.8169 78.6704C82.4209 77.5628 83.9553 77.0861 85.2374 77.6084L88.3078 78.8584"
                  fill="#435C85"/>
        </g>
        <path d="M47.3384 68.4189H51.3163V67.8335C51.3163 67.5101 51.0994 67.248 50.8317 67.248H48.3075C47.7722 67.248 47.3384 67.7721 47.3384 68.4189Z"
              fill="#193157"/>
        <path d="M60.8618 68.4189H64.4419V67.8335C64.4419 67.5101 64.2467 67.248 64.0058 67.248H61.734C61.2522 67.248 60.8618 67.7721 60.8618 68.4189Z"
              fill="#193157"/>
        <path d="M41.3684 68.8101H38.186V67.2512C38.186 66.6033 38.7113 66.0781 39.3593 66.0781H41.3684V68.8101Z"
              fill="#69A4C2"/>
        <path fill-rule="evenodd" clip-rule="evenodd" d="M59.2681 79.3472V65.6875H59.6659V79.3472H59.2681Z"
              fill="#193157"/>
        <path fill-rule="evenodd" clip-rule="evenodd"
              d="M47.1931 64.9062L47.3384 65.0525L45.6121 66.9076C45.317 67.2494 45.1538 67.6926 45.1538 68.1518V73.8826H44.9517V68.1518C44.9517 67.64 45.1338 67.1461 45.463 66.7656L45.4643 66.7641L47.1931 64.9062Z"
              fill="#193157"/>
        <path d="M33.0509 79.3466C33.0204 79.1031 33.0041 78.855 33.0041 78.6037C33.0041 75.2226 35.8592 72.4822 39.3813 72.4822C42.9033 72.4822 45.7584 75.2231 45.7584 78.6037C45.7584 78.8555 45.7421 79.1031 45.7116 79.3466H77.3097C77.2792 79.1031 77.2629 78.855 77.2629 78.6037C77.2629 75.2226 80.118 72.4822 83.6401 72.4822C87.1622 72.4822 90.0173 75.2231 90.0173 78.6037C90.0173 78.8555 90.001 79.1031 89.9705 79.3466H95.4692C95.4692 79.3466 95.4692 78.0499 95.1952 76.1041H90.4759C89.4245 73.437 86.7393 71.541 83.5928 71.541C80.4463 71.541 77.7611 73.4376 76.7096 76.1041H46.2992C45.2477 73.437 42.5625 71.541 39.416 71.541C36.2695 71.541 33.5843 73.4376 32.5328 76.1041H27.0493V79.3466H33.0509Z"
              fill="#193157"/>
        <path d="M67.3788 69.6072C65.8235 69.6093 64.2677 69.6115 62.7123 69.6136C62.2731 69.6141 61.8345 69.6147 61.3953 69.6152C61.2964 69.6152 61.2374 69.7279 61.2846 69.816C61.6802 70.5573 62.2434 71.1918 62.9081 71.6789C63.5671 72.1617 64.3327 72.4982 65.1281 72.6381C66.1269 72.8138 67.1277 72.6408 68.1183 72.4886C68.6421 72.4079 69.1653 72.3273 69.689 72.2472C70.1477 72.1767 70.6145 72.1195 71.0553 71.9636C71.4673 71.8178 71.8434 71.5865 72.1043 71.2169C72.3349 70.8906 72.4604 70.4697 72.3836 70.0665C72.3646 69.9672 72.3298 69.8721 72.2872 69.7813C72.2667 69.7386 72.2196 69.7172 72.1765 69.7151C71.2295 69.6654 70.2814 69.6302 69.3329 69.6104C68.3843 69.5906 67.4362 69.5848 66.4877 69.5944C65.9516 69.5997 65.4161 69.6099 64.8801 69.6248C64.7156 69.6296 64.715 69.8967 64.8801 69.8918C65.8281 69.8657 66.7767 69.8539 67.7253 69.8577C68.6738 69.8609 69.6224 69.879 70.57 69.9121C71.1055 69.9308 71.641 69.9543 72.176 69.9821C72.1391 69.9602 72.1022 69.9378 72.0653 69.9159C72.218 70.2385 72.1489 70.6187 71.9833 70.9205C71.7907 71.2714 71.4745 71.5096 71.1178 71.6559C70.7083 71.8236 70.2686 71.8899 69.8361 71.9561C69.3293 72.0341 68.8225 72.112 68.3161 72.19C67.3553 72.3379 66.3744 72.5334 65.4002 72.4117C64.6418 72.3171 63.9064 72.0287 63.2617 71.6041C62.6185 71.1801 62.06 70.6118 61.6525 69.9405C61.6008 69.8555 61.5521 69.769 61.505 69.6809C61.4681 69.7476 61.4312 69.8149 61.3943 69.8817C62.9496 69.8796 64.5054 69.8774 66.0608 69.8753C66.5 69.8748 66.9386 69.8742 67.3778 69.8737C67.5438 69.8737 67.5439 69.6067 67.3788 69.6072Z"
              fill="#002D5D"/>
        <path d="M59.7112 65.6836L74.3886 66.2614V77.3919H59.6704L59.7112 65.6836Z" fill="#193157"/>
        <mask id="mask14_4066_27374" style="mask-type:luminance" maskUnits="userSpaceOnUse" x="59" y="60" width="16"
              height="19">
            <path d="M60.1104 61.592V68.0195L61.3498 78.1758L74.7942 76.9665L72.8433 63.5999L65.1435 60.6133H59.6782L60.1104 61.592Z"
                  fill="white"/>
        </mask>
        <g mask="url(#mask14_4066_27374)">
            <path d="M69.2239 74.6636H61.8344L61.7629 74.3178L61.2681 71.9316H66.7924C68.1355 71.9316 69.2239 73.0589 69.2239 74.4499V74.6636Z"
                  fill="#34679E"/>
            <path d="M64.8456 74.6635H61.8002L59.6743 65.3635C61.292 65.0258 62.8902 66.0047 63.2436 67.5503L64.8456 74.6635Z"
                  fill="#3E7BBD"/>
            <path d="M62.4615 64.3224L59.4916 64.9058L58.8813 62.3961L59.7884 62.218C60.9277 61.9941 62.0532 62.6426 62.3018 63.6665L62.4615 64.3224Z"
                  fill="#3E7BBD"/>
        </g>
        <path opacity="0.38"
              d="M58.8731 83.2471C69.638 83.2471 78.3648 74.6852 78.3648 64.1236C78.3648 53.5619 69.638 45 58.8731 45C48.1081 45 39.3813 53.5619 39.3813 64.1236C39.3813 74.6852 48.1081 83.2471 58.8731 83.2471Z"
              fill="url(#paint1_radial_4066_27374)"/>
        <path d="M67.0121 60.8801L66.8345 62.4975L68.2156 67.976L67.903 69.5462C67.903 69.5462 69.444 74.9901 71.2102 75.4438L67.4862 60.6133L66.9642 60.6829"
              fill="#678C9E"/>
        <path d="M67.3155 55.5391C67.3155 55.5391 66.8126 55.5339 66.4523 56.0492C66.4523 56.0492 66.307 58.5211 66.8839 60.5806C66.8839 60.5806 70.3787 74.2218 71.4952 76.2237H72.0051"
              fill="#193157"/>
        <path d="M71.9011 58.5191C71.9011 58.5191 68.9182 55.6343 67.3785 55.5391C67.3785 55.5391 67.1264 55.6168 67.2769 56.9315C67.4275 58.2463 68.3713 62.8056 68.3713 62.8056L71.9011 76.2237H75.1174C75.1174 76.2243 75.9315 65.8629 71.9011 58.5191Z"
              fill="#386FAB"/>
        <path d="M73.2004 63.7356C71.9462 63.4865 70.692 63.2379 69.4379 62.9888C69.2716 62.956 69.1058 62.9227 68.9396 62.8898C68.8359 62.5777 68.7333 62.251 68.6342 61.9091C68.4315 61.2134 68.2406 60.4563 68.0769 59.6428C67.8501 58.5157 67.7121 57.4683 67.632 56.5245C67.6207 56.388 67.7526 56.2859 67.8804 56.3312C68.4459 56.5324 68.8924 56.7669 69.2141 56.9597C69.7037 57.2536 70.3595 57.6606 70.9148 58.364C71.0282 58.5084 71.138 58.6647 71.2406 58.8356C71.3982 59.0972 71.5182 59.3588 71.6096 59.6121C71.6383 59.6903 71.664 59.7674 71.6871 59.8435L73.2004 63.7356Z"
              fill="#ABCEDE"/>
        <path d="M69.2229 63.9918L71.6079 64.1266L71.5277 64.0181C71.4853 63.9607 71.3736 63.9065 71.2724 63.8951L69.9553 63.7474C69.5504 63.7016 69.1935 63.8009 69.2229 63.9918Z"
              fill="#193157"/>
        <path d="M71.2095 63.2608L73.5962 63.7365V62.8285C73.5962 62.5852 73.4468 62.3278 73.2522 62.2491L72.2776 61.8554C71.7215 61.6305 71.2095 61.9613 71.2095 62.6238V63.2608Z"
              fill="#193157"/>
        <path d="M73.5955 64.0813L73.3384 63.3457L73.1978 63.4972L73.3703 63.971C73.4263 64.1235 73.5276 64.1705 73.5955 64.0813Z"
              fill="#193157"/>
        <path opacity="0.4"
              d="M71.6066 59.5353L69.2838 62.9548C69.106 62.9216 68.9287 62.8878 68.7509 62.8545C68.64 62.5385 68.5302 62.2076 68.4243 61.8614L70.8635 58.2715C70.9848 58.4177 71.1022 58.576 71.212 58.7491C71.3805 59.014 71.5089 59.2789 71.6066 59.5353Z"
              fill="#EBF8FF"/>
        <path d="M52.9166 64.0625C52.8064 64.3914 52.6961 64.7209 52.5853 65.0498C50.9703 70.6352 49.3552 76.2206 47.7407 81.806L49.2365 82.4055C51.2574 76.6466 53.2783 70.8877 55.2987 65.1288"
              fill="#193157"/>
        <path d="M65.0412 57.4293C65.151 57.4293 65.2401 57.342 65.2401 57.2342C65.2401 57.1264 65.151 57.0391 65.0412 57.0391C64.9313 57.0391 64.8423 57.1264 64.8423 57.2342C64.8423 57.342 64.9313 57.4293 65.0412 57.4293Z"
              fill="#002D5D"/>
        <path d="M64.8905 55.4766C64.9316 55.4776 65.3705 55.4952 65.5594 55.8124C65.7055 56.0576 65.6127 56.3312 65.5492 56.5173C65.5167 56.6137 65.4559 56.7557 65.1711 57.1076C65.0308 57.2813 64.8329 57.5093 64.5726 57.7628C64.5139 57.9841 64.4553 58.2059 64.3966 58.4272C64.331 58.4137 64.2238 58.3842 64.1112 58.3106C63.9965 58.236 63.9267 58.1489 63.8893 58.094C63.7384 58.2256 63.5816 58.3583 63.4194 58.4915C63.2066 58.6662 62.997 58.832 62.7905 58.9891C62.5462 58.7045 62.3014 58.42 62.0571 58.1354C62.1505 57.8068 62.4156 57.0444 63.1522 56.3794C63.8264 55.7704 64.5491 55.5553 64.8905 55.4766Z"
              fill="#E39184"/>
        <path fill-rule="evenodd" clip-rule="evenodd"
              d="M64.7505 57.3173C64.842 57.1718 64.9334 57.0263 65.0249 56.8809L65.0903 56.9439C64.9988 57.0893 64.9074 57.2348 64.816 57.3802C64.7265 57.5226 64.637 57.6649 64.5475 57.8073L64.4404 58.442L64.4039 58.4382C64.3493 58.4326 64.2765 58.4175 64.1969 58.3752C64.0294 58.287 63.9361 58.1347 63.897 58.0621L63.9659 58.0051C64.0012 58.0705 64.0833 58.2039 64.2295 58.2809L64.2296 58.2809C64.2826 58.3091 64.3323 58.3235 64.3744 58.3309L64.4702 57.763L64.4762 57.7536C64.5677 57.6082 64.6591 57.4627 64.7505 57.3173Z"
              fill="#002D5D"/>
        <path d="M63.6496 57.4826L61.7592 58.9894C61.3284 58.5329 60.8981 58.0764 60.4673 57.6199C61.1444 57.0355 61.8209 56.4511 62.498 55.8672"
              fill="#E39184"/>
        <path d="M66.0383 55.6437C65.4284 55.1982 64.8186 54.7522 64.2092 54.3066C63.8039 54.3353 63.3991 54.3644 62.9937 54.393C62.8373 54.7469 62.6815 55.1014 62.5251 55.4553C62.2374 55.918 61.9503 56.3801 61.6626 56.8428C61.796 56.9771 61.9288 57.1114 62.0622 57.2457C62.5047 57.2311 62.9472 57.2165 63.3897 57.2019C63.5037 56.6768 63.7788 56.3312 64.0471 56.3307C64.2092 56.3302 64.4535 56.4561 64.4608 56.6232C64.465 56.7164 64.3939 56.7929 64.3505 56.8324C64.2448 56.9578 64.1392 57.0833 64.0335 57.2087C64.1088 57.2821 64.1836 57.3555 64.2589 57.4289C64.4844 57.1941 64.7098 56.9594 64.9352 56.7242C64.8855 56.1949 64.9718 56.0429 65.0613 56.0028C65.1643 55.9565 65.2762 56.0403 65.5901 56.0408C65.7056 56.0408 65.8014 56.0299 65.8673 56.0189C65.9243 55.8935 65.9813 55.7686 66.0383 55.6437Z"
              fill="#002D5D"/>
        <path d="M62.8527 58.9895C62.6465 58.7295 62.4403 58.469 62.2341 58.209C62.1751 58.293 62.1161 58.3775 62.0571 58.462C62.3223 58.638 62.5875 58.814 62.8527 58.9895Z"
              fill="#002D5D"/>
        <path fill-rule="evenodd" clip-rule="evenodd"
              d="M63.651 56.7179C63.651 56.7179 63.651 56.7179 63.6971 56.6832C63.7431 56.6484 63.7432 56.6484 63.7432 56.6484L63.7433 56.6485L63.7434 56.6485L63.7438 56.6487L63.7451 56.6492C63.7461 56.6495 63.7474 56.6501 63.7491 56.6507C63.7524 56.6521 63.7569 56.6539 63.7626 56.6564C63.7738 56.6612 63.7894 56.6681 63.8075 56.6771C63.8434 56.695 63.8902 56.7212 63.933 56.7547C64.0186 56.8216 64.0921 56.9211 64.0183 57.0387L63.8673 57.0116C63.9197 56.9281 63.8703 56.8566 63.8015 56.8028C63.7671 56.7759 63.7288 56.7544 63.699 56.7395C63.6842 56.7322 63.6716 56.7266 63.6631 56.7229C63.6588 56.7211 63.6555 56.7197 63.6534 56.7189L63.6512 56.718L63.6509 56.7179C63.6509 56.7179 63.6509 56.7179 63.6509 56.7179C63.6509 56.7179 63.6509 56.7179 63.6509 56.7179L63.651 56.7179L63.651 56.7179Z"
              fill="#002D5D"/>
        <path d="M57.207 65.4765C58.5594 67.4552 59.9118 69.434 61.2642 71.4127C60.8143 75.207 60.3644 79.0012 59.914 82.7954C59.2523 82.7203 58.5905 82.6446 57.9288 82.5695C58.1406 79.2023 58.3525 75.8351 58.5643 72.4684C57.2583 70.5892 55.9529 68.71 54.6469 66.8302C54.4814 66.5825 54.2772 66.2067 54.1724 65.7185C53.9682 64.7654 54.2723 63.9875 54.4186 63.6719C54.8975 63.8927 55.5308 64.2233 56.2199 64.7043C56.2193 64.7037 56.8488 64.9525 57.207 65.4765Z"
              fill="#194C82"/>
        <path d="M55.7007 60.1802C54.937 61.0855 53.9594 62.3178 52.9126 63.8601C53.2521 64.0499 53.5933 64.2392 53.936 64.429C54.3266 64.6448 54.829 64.9219 54.9695 64.9978C55.4549 65.2604 56.2404 65.6254 57.4969 66.0154C58.4208 64.9344 59.3447 63.8533 60.2685 62.7723C60.7592 62.3298 61.2504 61.8873 61.7411 61.4448C61.9806 61.2113 62.2201 60.9773 62.4596 60.7438C62.1456 59.9264 61.8305 59.11 61.5155 58.2921C61.3191 57.9739 61.1227 57.6541 60.9263 57.3358C60.6975 57.2173 60.3186 57.0571 59.8433 57.0405C58.9269 57.0082 57.9562 57.5069 55.7007 60.1802Z"
              fill="#588DC4"/>
        <path d="M49.2321 82.1998L49.6162 83.1909L50.5246 83.7607L50.3307 83.9667L47.3423 83.1968L47.7686 81.625"
              fill="#193157"/>
        <path d="M59.9311 82.212L60.2648 83.29L61.2629 83.7019L61.1224 83.967L58.0806 83.8028L58.1446 82.0156"
              fill="#193157"/>
        <path d="M67.6274 62.8938C67.6325 62.7912 67.6538 62.6323 67.7323 62.455C67.802 62.2985 67.8907 62.1855 67.9569 62.1133C67.9773 62.1467 67.9977 62.1888 68.0109 62.2401C68.0554 62.4124 67.9845 62.5605 67.9569 62.611C67.9569 62.6907 67.9569 62.7699 67.9569 62.8496"
              fill="#D98073"/>
        <path d="M62.0571 62.4384L63.1698 64.4546L64.4439 63.9053L63.3076 61.7227L62.0571 62.4384Z" fill="#E39184"/>
        <path d="M61.9413 62.5031L63.2512 61.8063L62.13 59.7675L61.2075 59.3809C60.8286 59.3984 60.4492 59.4154 60.0703 59.433C60.0698 59.4766 60.0693 59.5197 60.0688 59.5633C60.3031 60.0984 60.5493 60.4856 60.729 60.7388C60.9302 61.0223 61.0499 61.1398 61.2846 61.4606C61.5954 61.8839 61.8102 62.2568 61.9413 62.5031Z"
              fill="#588DC4"/>
        <path d="M63.2499 61.7227L61.6587 62.2857L61.7548 62.5032L63.2499 61.7227Z" fill="#002D5D"/>
        <path d="M61.7888 62.5032L61.2642 61.7227L62.0597 62.3338" fill="#002D5D"/>
        <path d="M63.5474 65.2358L68.427 63.6217L68.1236 62.5039L62.8579 63.8136L63.5474 65.2358Z" fill="#E39184"/>
        <path d="M67.7544 62.9059L68.7797 62.1133L70.2674 62.726C70.2674 62.726 70.2873 62.9134 69.8933 62.8903L70.4017 63.2864C70.4017 63.2864 70.5229 63.5647 69.9324 63.2864L70.2669 63.7347C70.2669 63.7347 70.2669 63.9221 69.6764 63.7347C69.6764 63.7347 70.178 64.0846 69.4203 63.8966L68.3548 63.8536L67.7539 64.0647L67.6274 62.9644L67.7544 62.9059Z"
              fill="#E39184"/>
        <path d="M68.8267 62.1133L68.2033 62.5085L68.0259 62.5558L68.2937 63.6744L68.568 63.587L69.2192 63.5709L68.8267 62.1133Z"
              fill="#D98073"/>
    </g>
    <defs>
        <linearGradient id="paint0_linear_4066_27374" x1="-1.33588" y1="142.831" x2="-13.4915" y2="32.0948"
                        gradientUnits="userSpaceOnUse">
            <stop stop-color="#00341F"/>
            <stop offset="1" stop-color="#009B5D"/>
        </linearGradient>
        <radialGradient id="paint1_radial_4066_27374" cx="0" cy="0" r="1" gradientUnits="userSpaceOnUse"
                        gradientTransform="translate(58.8728 64.1237) scale(22.3669 21.9444)">
            <stop offset="0.0027933" stop-color="white"/>
            <stop offset="0.5621" stop-color="#FBFBFB" stop-opacity="0.2978"/>
            <stop offset="0.7993" stop-color="#F7F7F7" stop-opacity="0"/>
        </radialGradient>
        <clipPath id="clip0_4066_27374">
            <rect width="100" height="112" fill="white" transform="translate(0.666504)"/>
        </clipPath>
    </defs>
</svg>
