<svg width="100" height="56" viewBox="0 36 100 41" fill="none" xmlns="http://www.w3.org/2000/svg">
    <g clip-path="url(#clip0_4066_27516)">
        <path opacity="0.16"
              d="M1.07922 43.5846C1.32788 38.6134 3.06847 34.7856 6.30099 32.1012C9.58325 29.3671 13.885 28 19.2062 28C22.8366 28 25.9448 28.6462 28.5308 29.9387C31.1169 31.1815 33.0564 32.8966 34.3494 35.0839C35.6921 37.2215 36.3635 39.6573 36.3635 42.3915C36.3635 45.5233 35.5429 48.1829 33.9018 50.3702C32.3104 52.5078 30.3958 53.9494 28.1579 54.6951V54.9933C31.0423 55.8881 33.2802 57.4789 34.8716 59.7656C36.5127 62.0524 37.3333 64.9854 37.3333 68.5646C37.3333 71.5473 36.637 74.2068 35.2445 76.5433C33.9018 78.8797 31.8877 80.719 29.2022 82.0612C26.5665 83.3537 23.3837 84 19.6538 84C14.0342 84 9.45893 82.5832 5.92801 79.7497C2.3971 76.9161 0.532177 72.7403 0.333252 67.2224H10.4784C10.5779 69.6582 11.3984 71.6218 12.9401 73.1132C14.5315 74.5548 16.6948 75.2756 19.43 75.2756C21.9663 75.2756 23.9058 74.5797 25.2486 73.1877C26.6411 71.7461 27.3373 69.9068 27.3373 67.6698C27.3373 64.6871 26.3924 62.5495 24.5026 61.257C22.6128 59.9645 19.6787 59.3182 15.7002 59.3182H13.5369V50.743H15.7002C22.762 50.743 26.2929 48.3817 26.2929 43.6591C26.2929 41.5215 25.6464 39.8562 24.3534 38.6631C23.1101 37.47 21.2949 36.8735 18.9079 36.8735C16.5705 36.8735 14.7553 37.5198 13.4623 38.8123C12.219 40.055 11.4979 41.6458 11.299 43.5846H1.07922Z"
              fill="url(#paint0_linear_4066_27516)"/>
        <path opacity="0.26" d="M25.3345 83H97.3345V84H25.3345V83Z" fill="#00899E"/>
        <path d="M57.8589 58.8105V64.6839H58.79V63.6895C58.6076 63.5724 58.3734 63.3977 58.12 63.1395C58.1097 63.1056 58.0997 63.0723 58.0901 63.0394C58.3232 62.8873 58.557 62.7347 58.79 62.5825V58.8105H57.8589Z"
              fill="#193157"/>
        <path d="M66.7089 58.8124L76.0576 65.2863L73.3601 66.4L38.412 64.4837L35.8697 59.9191L39.8862 58.4922L47.866 58.6942L66.7089 58.8124Z"
              fill="#D4F1FF"/>
        <path d="M58.9641 67.1014L57.8549 66.2127L64.4326 58.0039L66.0752 58.227L58.9641 67.1014Z" fill="#EBF8FF"/>
        <path d="M52.1864 67.3436L49.4465 65.3475L54.9072 57.8516L58.8823 58.1522L52.1864 67.3436Z" fill="#EBF8FF"/>
        <path d="M58.7869 64.6855H57.8557V58.8122H58.7869V64.6855Z" fill="#193157"/>
        <path d="M45.7328 64.2783L44.8733 63.9199L47.2019 58.3359L48.0614 58.6943L45.7328 64.2783Z" fill="#193157"/>
        <path d="M27.3123 70.5078L25.6073 72.6391V79.1887H94.8538C94.8538 79.1887 94.8538 75.1341 93.4372 70.5078H27.3123Z"
              fill="#193157"/>
        <mask id="mask0_4066_27516" style="mask-type:luminance" maskUnits="userSpaceOnUse" x="25" y="57" width="70"
              height="19">
            <path d="M94.3843 74.4755C93.9857 72.1747 93.254 69.3213 91.9099 66.6006C91.9099 66.6006 87.2614 65.0057 77.0532 64.5657L69.0098 59.3846C66.6821 57.8854 63.9717 57.0879 61.2029 57.0879H32.2659L33.9487 58.6104C33.9487 58.6104 29.2205 61.4154 27.5376 70.2307L25.6143 72.6349V74.4751V75.7657H31.1637C32.2282 72.9541 34.9453 70.9547 38.13 70.9547C41.3147 70.9547 44.0317 72.9541 45.0962 75.7657H75.8742C76.9387 72.9541 79.6558 70.9547 82.8404 70.9547C85.8297 70.9547 88.4072 72.7162 89.5925 75.2578C89.7373 75.5681 90.0487 75.7657 90.3907 75.7657H94.583C94.5283 75.3609 94.463 74.9291 94.3843 74.4755ZM47.7871 64.2802C46.1707 64.2178 44.5751 63.8924 43.0632 63.3169L37.0418 61.0257C38.4037 59.6125 40.2819 58.8143 42.2444 58.8143H63.2189C65.1548 58.8143 67.0282 59.501 68.5053 60.7524L73.8604 65.2882L47.7871 64.2802Z"
                  fill="white"/>
        </mask>
        <g mask="url(#mask0_4066_27516)">
            <path d="M94.3731 75.4127C93.9565 72.8438 93.1911 69.6573 91.7853 66.6196C91.7853 66.6196 86.9241 64.8389 76.2479 64.3476L67.8359 58.5626C65.4014 56.8882 62.5669 55.998 59.671 55.998H29.408L31.168 57.6982C31.168 57.6982 26.2229 60.8301 24.4629 70.6738L22.4513 73.3583V75.4131V76.854H28.2552C29.3685 73.7144 32.21 71.4819 35.5406 71.4819C38.8712 71.4819 41.7131 73.7144 42.826 76.854H75.0149C76.1282 73.7144 78.9697 71.4819 82.3003 71.4819C85.6309 71.4819 88.4728 73.7144 89.5857 76.854H94.5811C94.5238 76.4015 94.4555 75.9191 94.3731 75.4127Z"
                  fill="#193157"/>
        </g>
        <mask id="mask1_4066_27516" style="mask-type:luminance" maskUnits="userSpaceOnUse" x="25" y="57" width="70"
              height="19">
            <path d="M94.3843 74.4755C93.9857 72.1747 93.254 69.3213 91.9099 66.6006C91.9099 66.6006 87.2614 65.0057 77.0532 64.5657L69.0098 59.3846C66.6821 57.8854 63.9717 57.0879 61.2029 57.0879H32.2659L33.9487 58.6104C33.9487 58.6104 29.2205 61.4154 27.5376 70.2307L25.6143 72.6349V74.4751V75.7657H31.1637C32.2282 72.9541 34.9453 70.9547 38.13 70.9547C41.3147 70.9547 44.0317 72.9541 45.0962 75.7657H75.8742C76.9387 72.9541 79.6558 70.9547 82.8404 70.9547C85.8297 70.9547 88.4072 72.7162 89.5925 75.2578C89.7373 75.5681 90.0487 75.7657 90.3907 75.7657H94.583C94.5283 75.3609 94.463 74.9291 94.3843 74.4755ZM47.7871 64.2802C46.1707 64.2178 44.5751 63.8924 43.0632 63.3169L37.0418 61.0257C38.4037 59.6125 40.2819 58.8143 42.2444 58.8143H63.2189C65.1548 58.8143 67.0282 59.501 68.5053 60.7524L73.8604 65.2882L47.7871 64.2802Z"
                  fill="white"/>
        </mask>
        <g mask="url(#mask1_4066_27516)">
            <path d="M40.7406 81.5694C43.9253 81.5694 48.0847 72.8974 49.1492 75.7094L78.7862 80.8019C79.8507 77.9903 84.0375 84.4376 87.2222 84.4376C90.4068 84.4376 92.8207 79.0138 93.8852 81.8254L98.8499 77.2416C98.7952 76.8364 98.5159 74.8724 98.4373 74.4189C98.0387 72.1181 97.307 69.2647 95.9629 66.5439C95.9629 66.5439 91.3144 64.949 81.1062 64.5091L73.0628 59.328C70.7351 57.8287 68.0247 57.0312 65.2559 57.0312H36.3189L38.0017 58.5538C38.0017 58.5538 33.3004 61.6683 31.6176 70.484C31.294 71.7129 30.9701 72.9414 30.6465 74.1703C30.32 74.6833 29.9938 75.196 29.6673 75.7091L34.3151 80.7162C35.3792 77.905 37.5559 81.5694 40.7406 81.5694Z"
                  fill="#3E7BBD"/>
        </g>
        <mask id="mask2_4066_27516" style="mask-type:luminance" maskUnits="userSpaceOnUse" x="25" y="57" width="70"
              height="19">
            <path d="M94.3843 74.4755C93.9857 72.1747 93.254 69.3213 91.9099 66.6006C91.9099 66.6006 87.2614 65.0057 77.0532 64.5657L69.0098 59.3846C66.6821 57.8854 63.9717 57.0879 61.2029 57.0879H32.2659L33.9487 58.6104C33.9487 58.6104 29.2205 61.4154 27.5376 70.2307L25.6143 72.6349V74.4751V75.7657H31.1637C32.2282 72.9541 34.9453 70.9547 38.13 70.9547C41.3147 70.9547 44.0317 72.9541 45.0962 75.7657H75.8742C76.9387 72.9541 79.6558 70.9547 82.8404 70.9547C85.8297 70.9547 88.4072 72.7162 89.5925 75.2578C89.7373 75.5681 90.0487 75.7657 90.3907 75.7657H94.583C94.5283 75.3609 94.463 74.9291 94.3843 74.4755ZM47.7871 64.2802C46.1707 64.2178 44.5751 63.8924 43.0632 63.3169L37.0418 61.0257C38.4037 59.6125 40.2819 58.8143 42.2444 58.8143H63.2189C65.1548 58.8143 67.0282 59.501 68.5053 60.7524L73.8604 65.2882L47.7871 64.2802Z"
                  fill="white"/>
        </mask>
        <g mask="url(#mask2_4066_27516)">
            <path d="M89.9673 69.244H92.9392V68.5156H89.2389C89.2389 68.9182 89.565 69.244 89.9673 69.244Z"
                  fill="#193157"/>
        </g>
        <mask id="mask3_4066_27516" style="mask-type:luminance" maskUnits="userSpaceOnUse" x="25" y="57" width="70"
              height="19">
            <path d="M94.3843 74.4755C93.9857 72.1747 93.254 69.3213 91.9099 66.6006C91.9099 66.6006 87.2614 65.0057 77.0532 64.5657L69.0098 59.3846C66.6821 57.8854 63.9717 57.0879 61.2029 57.0879H32.2659L33.9487 58.6104C33.9487 58.6104 29.2205 61.4154 27.5376 70.2307L25.6143 72.6349V74.4751V75.7657H31.1637C32.2282 72.9541 34.9453 70.9547 38.13 70.9547C41.3147 70.9547 44.0317 72.9541 45.0962 75.7657H75.8742C76.9387 72.9541 79.6558 70.9547 82.8404 70.9547C85.8297 70.9547 88.4072 72.7162 89.5925 75.2578C89.7373 75.5681 90.0487 75.7657 90.3907 75.7657H94.583C94.5283 75.3609 94.463 74.9291 94.3843 74.4755ZM47.7871 64.2802C46.1707 64.2178 44.5751 63.8924 43.0632 63.3169L37.0418 61.0257C38.4037 59.6125 40.2819 58.8143 42.2444 58.8143H63.2189C65.1548 58.8143 67.0282 59.501 68.5053 60.7524L73.8604 65.2882L47.7871 64.2802Z"
                  fill="white"/>
        </mask>
        <g mask="url(#mask3_4066_27516)">
            <path d="M93.6252 66.5117H87.6533L87.1971 68.548H93.6252" fill="#D4F1FF"/>
            <mask id="mask4_4066_27516" style="mask-type:luminance" maskUnits="userSpaceOnUse" x="87" y="66" width="7"
                  height="3">
                <path d="M93.6282 66.5098H87.6562L87.2001 68.5461H93.6282" fill="white"/>
            </mask>
            <g mask="url(#mask4_4066_27516)">
                <path d="M94.4492 66.1035H88.4773L88.0211 68.1402H94.4492" fill="white"/>
            </g>
        </g>
        <mask id="mask5_4066_27516" style="mask-type:luminance" maskUnits="userSpaceOnUse" x="25" y="57" width="70"
              height="19">
            <path d="M94.3843 74.4755C93.9857 72.1747 93.254 69.3213 91.9099 66.6006C91.9099 66.6006 87.2614 65.0057 77.0532 64.5657L69.0098 59.3846C66.6821 57.8854 63.9717 57.0879 61.2029 57.0879H32.2659L33.9487 58.6104C33.9487 58.6104 29.2205 61.4154 27.5376 70.2307L25.6143 72.6349V74.4751V75.7657H31.1637C32.2282 72.9541 34.9453 70.9547 38.13 70.9547C41.3147 70.9547 44.0317 72.9541 45.0962 75.7657H75.8742C76.9387 72.9541 79.6558 70.9547 82.8404 70.9547C85.8297 70.9547 88.4072 72.7162 89.5925 75.2578C89.7373 75.5681 90.0487 75.7657 90.3907 75.7657H94.583C94.5283 75.3609 94.463 74.9291 94.3843 74.4755ZM47.7871 64.2802C46.1707 64.2178 44.5751 63.8924 43.0632 63.3169L37.0418 61.0257C38.4037 59.6125 40.2819 58.8143 42.2444 58.8143H63.2189C65.1548 58.8143 67.0282 59.501 68.5053 60.7524L73.8604 65.2882L47.7871 64.2802Z"
                  fill="white"/>
        </mask>
        <g mask="url(#mask5_4066_27516)">
            <path d="M75.8679 75.8544V71.043H54.6714C51.7981 71.043 49.033 72.14 46.9413 74.1102L45.0896 75.854"
                  fill="#69A4C2"/>
        </g>
        <mask id="mask6_4066_27516" style="mask-type:luminance" maskUnits="userSpaceOnUse" x="25" y="57" width="70"
              height="19">
            <path d="M94.3843 74.4755C93.9857 72.1747 93.254 69.3213 91.9099 66.6006C91.9099 66.6006 87.2614 65.0057 77.0532 64.5657L69.0098 59.3846C66.6821 57.8854 63.9717 57.0879 61.2029 57.0879H32.2659L33.9487 58.6104C33.9487 58.6104 29.2205 61.4154 27.5376 70.2307L25.6143 72.6349V74.4751V75.7657H31.1637C32.2282 72.9541 34.9453 70.9547 38.13 70.9547C41.3147 70.9547 44.0317 72.9541 45.0962 75.7657H75.8742C76.9387 72.9541 79.6558 70.9547 82.8404 70.9547C85.8297 70.9547 88.4072 72.7162 89.5925 75.2578C89.7373 75.5681 90.0487 75.7657 90.3907 75.7657H94.583C94.5283 75.3609 94.463 74.9291 94.3843 74.4755ZM47.7871 64.2802C46.1707 64.2178 44.5751 63.8924 43.0632 63.3169L37.0418 61.0257C38.4037 59.6125 40.2819 58.8143 42.2444 58.8143H63.2189C65.1548 58.8143 67.0282 59.501 68.5053 60.7524L73.8604 65.2882L47.7871 64.2802Z"
                  fill="white"/>
        </mask>
        <g mask="url(#mask6_4066_27516)">
            <path d="M83.5171 87.9516C78.2428 87.9516 73.9671 83.6759 73.9671 78.4016C73.9671 73.1272 78.2428 68.8516 83.5171 68.8516C88.7915 68.8516 93.0671 73.1272 93.0671 78.4016C93.0671 83.6759 88.7915 87.9516 83.5171 87.9516Z"
                  fill="#91C5DE"/>
        </g>
        <mask id="mask7_4066_27516" style="mask-type:luminance" maskUnits="userSpaceOnUse" x="25" y="57" width="70"
              height="19">
            <path d="M94.3843 74.4755C93.9857 72.1747 93.254 69.3213 91.9099 66.6006C91.9099 66.6006 87.2614 65.0057 77.0532 64.5657L69.0098 59.3846C66.6821 57.8854 63.9717 57.0879 61.2029 57.0879H32.2659L33.9487 58.6104C33.9487 58.6104 29.2205 61.4154 27.5376 70.2307L25.6143 72.6349V74.4751V75.7657H31.1637C32.2282 72.9541 34.9453 70.9547 38.13 70.9547C41.3147 70.9547 44.0317 72.9541 45.0962 75.7657H75.8742C76.9387 72.9541 79.6558 70.9547 82.8404 70.9547C85.8297 70.9547 88.4072 72.7162 89.5925 75.2578C89.7373 75.5681 90.0487 75.7657 90.3907 75.7657H94.583C94.5283 75.3609 94.463 74.9291 94.3843 74.4755ZM47.7871 64.2802C46.1707 64.2178 44.5751 63.8924 43.0632 63.3169L37.0418 61.0257C38.4037 59.6125 40.2819 58.8143 42.2444 58.8143H63.2189C65.1548 58.8143 67.0282 59.501 68.5053 60.7524L73.8604 65.2882L47.7871 64.2802Z"
                  fill="white"/>
        </mask>
        <g mask="url(#mask7_4066_27516)">
            <path d="M94.0768 72.6602H92.1033L90.7581 76.2885H94.8577L94.0768 72.6602Z" fill="#D1F0FF"/>
        </g>
        <mask id="mask8_4066_27516" style="mask-type:luminance" maskUnits="userSpaceOnUse" x="25" y="57" width="70"
              height="19">
            <path d="M94.3843 74.4755C93.9857 72.1747 93.254 69.3213 91.9099 66.6006C91.9099 66.6006 87.2614 65.0057 77.0532 64.5657L69.0098 59.3846C66.6821 57.8854 63.9717 57.0879 61.2029 57.0879H32.2659L33.9487 58.6104C33.9487 58.6104 29.2205 61.4154 27.5376 70.2307L25.6143 72.6349V74.4751V75.7657H31.1637C32.2282 72.9541 34.9453 70.9547 38.13 70.9547C41.3147 70.9547 44.0317 72.9541 45.0962 75.7657H75.8742C76.9387 72.9541 79.6558 70.9547 82.8404 70.9547C85.8297 70.9547 88.4072 72.7162 89.5925 75.2578C89.7373 75.5681 90.0487 75.7657 90.3907 75.7657H94.583C94.5283 75.3609 94.463 74.9291 94.3843 74.4755ZM47.7871 64.2802C46.1707 64.2178 44.5751 63.8924 43.0632 63.3169L37.0418 61.0257C38.4037 59.6125 40.2819 58.8143 42.2444 58.8143H63.2189C65.1548 58.8143 67.0282 59.501 68.5053 60.7524L73.8604 65.2882L47.7871 64.2802Z"
                  fill="white"/>
        </mask>
        <g mask="url(#mask8_4066_27516)">
            <path d="M28.8202 65.7425L33.287 65.082L33.5588 66.4025L27.8104 68.8496C27.9123 68.3376 28.056 67.767 28.2603 67.1557C28.435 66.6323 28.6274 66.1602 28.8202 65.7425Z"
                  fill="#D4F1FF"/>
            <mask id="mask9_4066_27516" style="mask-type:luminance" maskUnits="userSpaceOnUse" x="27" y="65" width="7"
                  height="4">
                <path d="M28.8234 65.7425L33.2902 65.082L33.562 66.4025L27.8135 68.8496C27.9155 68.3376 28.0592 67.767 28.2634 67.1557C28.4381 66.6323 28.6306 66.1602 28.8234 65.7425Z"
                      fill="white"/>
            </mask>
            <g mask="url(#mask9_4066_27516)">
                <path d="M28.2895 65.2034L32.7562 64.543L33.0281 65.8635L27.2796 68.3105C27.3815 67.7986 27.5252 67.2279 27.7295 66.6166C27.9046 66.0932 28.097 65.6212 28.2895 65.2034Z"
                      fill="white"/>
            </g>
        </g>
        <mask id="mask10_4066_27516" style="mask-type:luminance" maskUnits="userSpaceOnUse" x="25" y="57" width="70"
              height="19">
            <path d="M94.3843 74.4755C93.9857 72.1747 93.254 69.3213 91.9099 66.6006C91.9099 66.6006 87.2614 65.0057 77.0532 64.5657L69.0098 59.3846C66.6821 57.8854 63.9717 57.0879 61.2029 57.0879H32.2659L33.9487 58.6104C33.9487 58.6104 29.2205 61.4154 27.5376 70.2307L25.6143 72.6349V74.4751V75.7657H31.1637C32.2282 72.9541 34.9453 70.9547 38.13 70.9547C41.3147 70.9547 44.0317 72.9541 45.0962 75.7657H75.8742C76.9387 72.9541 79.6558 70.9547 82.8404 70.9547C85.8297 70.9547 88.4072 72.7162 89.5925 75.2578C89.7373 75.5681 90.0487 75.7657 90.3907 75.7657H94.583C94.5283 75.3609 94.463 74.9291 94.3843 74.4755ZM47.7871 64.2802C46.1707 64.2178 44.5751 63.8924 43.0632 63.3169L37.0418 61.0257C38.4037 59.6125 40.2819 58.8143 42.2444 58.8143H63.2189C65.1548 58.8143 67.0282 59.501 68.5053 60.7524L73.8604 65.2882L47.7871 64.2802Z"
                  fill="white"/>
        </mask>
        <g mask="url(#mask10_4066_27516)">
            <path d="M30.6924 68.4343L27.1303 69.832L26.8643 69.1539L31.1046 67.4902C31.2513 67.8648 31.067 68.2873 30.6924 68.4343Z"
                  fill="#193157"/>
        </g>
        <mask id="mask11_4066_27516" style="mask-type:luminance" maskUnits="userSpaceOnUse" x="25" y="57" width="70"
              height="19">
            <path d="M94.3843 74.4755C93.9857 72.1747 93.254 69.3213 91.9099 66.6006C91.9099 66.6006 87.2614 65.0057 77.0532 64.5657L69.0098 59.3846C66.6821 57.8854 63.9717 57.0879 61.2029 57.0879H32.2659L33.9487 58.6104C33.9487 58.6104 29.2205 61.4154 27.5376 70.2307L25.6143 72.6349V74.4751V75.7657H31.1637C32.2282 72.9541 34.9453 70.9547 38.13 70.9547C41.3147 70.9547 44.0317 72.9541 45.0962 75.7657H75.8742C76.9387 72.9541 79.6558 70.9547 82.8404 70.9547C85.8297 70.9547 88.4072 72.7162 89.5925 75.2578C89.7373 75.5681 90.0487 75.7657 90.3907 75.7657H94.583C94.5283 75.3609 94.463 74.9291 94.3843 74.4755ZM47.7871 64.2802C46.1707 64.2178 44.5751 63.8924 43.0632 63.3169L37.0418 61.0257C38.4037 59.6125 40.2819 58.8143 42.2444 58.8143H63.2189C65.1548 58.8143 67.0282 59.501 68.5053 60.7524L73.8604 65.2882L47.7871 64.2802Z"
                  fill="white"/>
        </mask>
        <g mask="url(#mask11_4066_27516)">
            <path d="M37.4975 68.8516C35.2665 68.8516 33.2158 69.6187 31.5902 70.9008C31.3656 71.7304 30.7469 74.1435 30.6808 75.7658L28.5991 76.51L28.1961 76.2415C28.0354 76.9359 27.9479 77.658 27.9479 78.4012C27.9479 83.6754 32.2233 87.9512 37.4979 87.9512C42.7721 87.9512 47.0479 83.6754 47.0479 78.4012C47.0471 73.127 42.7717 68.8516 37.4975 68.8516Z"
                  fill="#91C5DE"/>
            <path d="M30.6812 75.7653C30.7473 74.1431 31.366 71.73 31.5906 70.9004C29.9148 72.222 28.6936 74.0921 28.1965 76.2411L28.5994 76.5096L30.6812 75.7653Z"
                  fill="#7FACC2"/>
        </g>
        <path d="M60.5688 74.9766H58.2898V71.0458H60.5688V74.9766Z" fill="#91C5DE"/>
        <path d="M41.4688 78.3984C41.4688 75.418 39.0527 73.002 36.0723 73.002C33.0919 73.002 30.6758 75.418 30.6758 78.3984C30.6758 81.3788 33.0919 83.7949 36.0723 83.7949C37.4064 83.7949 37.7296 83.7864 38.9811 83.7539C40.5069 83.7143 41.4688 80.0447 41.4688 78.3984Z"
              fill="#193157"/>
        <path d="M38.4158 83.7949C35.4354 83.7949 33.0193 81.3788 33.0193 78.3984C33.0193 75.418 35.4354 73.002 38.4158 73.002C41.3962 73.002 43.8123 75.418 43.8123 78.3984C43.8123 81.3788 41.3962 83.7949 38.4158 83.7949Z"
              fill="#435C85"/>
        <path d="M38.4156 82.4593C36.1735 82.4593 34.3559 80.6417 34.3559 78.3996C34.3559 76.1574 36.1735 74.3398 38.4156 74.3398C40.6577 74.3398 42.4753 76.1574 42.4753 78.3996C42.4753 80.6417 40.6577 82.4593 38.4156 82.4593Z"
              fill="#D4F1FF"/>
        <mask id="mask12_4066_27516" style="mask-type:luminance" maskUnits="userSpaceOnUse" x="34" y="74" width="9"
              height="9">
            <path d="M38.4146 82.4612C36.1725 82.4612 34.3549 80.6436 34.3549 78.4015C34.3549 76.1594 36.1725 74.3418 38.4146 74.3418C40.6568 74.3418 42.4744 76.1594 42.4744 78.4015C42.4744 80.6436 40.6568 82.4612 38.4146 82.4612Z"
                  fill="white"/>
        </mask>
        <g mask="url(#mask12_4066_27516)">
            <path d="M42.6599 79.973L39.2347 78.3588C38.7956 78.152 38.298 78.2129 37.9275 78.4745L39.9997 79.4511L39.4024 80.5843L36.0722 79.0148L36.3448 78.436C36.9517 77.1484 38.4923 76.5944 39.7803 77.2013L42.8638 78.6543"
                  fill="#435C85"/>
        </g>
        <path d="M86.9351 78.3984C86.9351 75.418 84.519 73.002 81.5386 73.002C78.5582 73.002 76.1421 75.418 76.1421 78.3984C76.1421 81.3788 78.5582 83.7949 81.5386 83.7949C82.8728 83.7949 83.196 83.7864 84.4474 83.7539C85.9732 83.7143 86.9351 80.0447 86.9351 78.3984Z"
              fill="#193157"/>
        <path d="M83.8821 83.7949C80.9017 83.7949 78.4856 81.3788 78.4856 78.3984C78.4856 75.418 80.9017 73.002 83.8821 73.002C86.8625 73.002 89.2786 75.418 89.2786 78.3984C89.2786 81.3788 86.8625 83.7949 83.8821 83.7949Z"
              fill="#435C85"/>
        <path d="M83.8863 82.4593C81.6442 82.4593 79.8266 80.6417 79.8266 78.3996C79.8266 76.1574 81.6442 74.3398 83.8863 74.3398C86.1284 74.3398 87.946 76.1574 87.946 78.3996C87.946 80.6417 86.1284 82.4593 83.8863 82.4593Z"
              fill="#D4F1FF"/>
        <mask id="mask13_4066_27516" style="mask-type:luminance" maskUnits="userSpaceOnUse" x="79" y="74" width="9"
              height="9">
            <path d="M83.89 82.4612C81.6479 82.4612 79.8303 80.6436 79.8303 78.4015C79.8303 76.1594 81.6479 74.3418 83.89 74.3418C86.1321 74.3418 87.9497 76.1594 87.9497 78.4015C87.9497 80.6436 86.1321 82.4612 83.89 82.4612Z"
                  fill="white"/>
        </mask>
        <g mask="url(#mask13_4066_27516)">
            <path d="M88.1345 79.973L84.7093 78.3588C84.2702 78.152 83.7726 78.2129 83.4022 78.4745L85.4743 79.4511L84.877 80.5843L81.5468 79.0148L81.8194 78.436C82.4263 77.1484 83.9669 76.5944 85.2549 77.2013L88.3384 78.6543"
                  fill="#435C85"/>
        </g>
        <path d="M45.7125 67.3275H49.5188V66.8639C49.5188 66.608 49.3112 66.4004 49.0552 66.4004H46.64C46.1276 66.4004 45.7125 66.8156 45.7125 67.3275Z"
              fill="#193157"/>
        <path d="M59.6939 67.3275H63.5002V66.8639C63.5002 66.608 63.2927 66.4004 63.0367 66.4004H60.6214C60.1091 66.4004 59.6939 66.8156 59.6939 67.3275Z"
              fill="#193157"/>
        <path d="M68.9702 64.9041H73.3616V63.2154C73.3616 62.7633 72.9948 62.3965 72.5427 62.3965H70.6083C69.7037 62.3965 68.9705 63.1297 68.9705 64.0343V64.9041H68.9702Z"
              fill="#193157"/>
        <path d="M39.3464 67.9055H35.8688V66.202C35.8688 65.4939 36.4428 64.9199 37.1509 64.9199H39.3464V67.9055Z"
              fill="#69A4C2"/>
        <path fill-rule="evenodd" clip-rule="evenodd" d="M58.4607 79.1837V64.4844H58.1921V79.1837H58.4607Z"
              fill="#193157"/>
        <path fill-rule="evenodd" clip-rule="evenodd"
              d="M43.6129 65.9057L45.53 63.9251L45.337 63.7383L43.4165 65.7224L43.4148 65.7242C43.0454 66.1345 42.8411 66.667 42.8411 67.2192V73.3392H43.1097V67.2192C43.1097 66.7342 43.2889 66.2664 43.6129 65.9057Z"
              fill="#193157"/>
        <path d="M74.0977 65.4914L73.1236 64.209L72.6353 64.5798L73.2389 65.3743C73.4435 65.644 73.828 65.6964 74.0977 65.4914Z"
              fill="#193157"/>
        <path d="M30.6302 79.183C30.5981 78.9263 30.5811 78.6648 30.5811 78.3996C30.5811 74.8348 33.577 71.9452 37.2729 71.9452C40.9684 71.9452 43.9647 74.8348 43.9647 78.3996C43.9647 78.6648 43.9478 78.9263 43.9156 79.183H77.0708C77.0387 78.9263 77.0217 78.6648 77.0217 78.3996C77.0217 74.8348 80.0176 71.9452 83.7135 71.9452C87.4094 71.9452 90.405 74.8352 90.405 78.3996C90.405 78.6648 90.388 78.9263 90.3558 79.183H96.1257C96.1257 79.183 96.1257 77.816 95.838 75.7641H90.8859C89.7826 72.9525 86.9654 70.9531 83.6636 70.9531C80.3619 70.9531 77.5447 72.9525 76.4414 75.7641H44.5314C43.4281 72.9525 40.6109 70.9531 37.3091 70.9531C34.0073 70.9531 31.1902 72.9525 30.0869 75.7641H24.3332V79.183H30.6302Z"
              fill="#193157"/>
        <mask id="mask14_4066_27516" style="mask-type:luminance" maskUnits="userSpaceOnUse" x="58" y="56" width="16"
              height="10">
            <path d="M63.9393 59.3018C63.9393 59.3018 66.2929 60.6806 68.6262 62.4085C68.6303 62.4115 68.6344 62.4384 68.6561 62.4525C68.7928 62.54 69.2745 62.0462 69.2748 62.0465C69.2737 62.048 69.3214 62.3103 69.4274 62.8894C69.382 62.9371 69.3343 62.9921 69.2874 63.0553C69.1928 63.1831 69.1293 63.3068 69.0854 63.411C69.0281 63.5658 69.0011 63.6947 68.9871 63.7811C68.9479 64.0208 68.9712 64.1627 68.9683 64.6306C68.9675 64.7474 68.9653 64.8419 68.9638 64.9003C70.2655 64.9003 71.5675 64.9003 72.8692 64.9003C72.9094 64.9524 72.9497 65.0048 72.9899 65.058C73.0402 65.1241 73.09 65.1902 73.1392 65.256C71.6694 65.1906 70.185 65.133 68.6861 65.0839C66.8208 65.0229 64.9769 64.976 63.1552 64.9431L58.78 64.6827V56L60.7022 56.1396L62.3957 56.2371L63.9393 59.3018Z"
                  fill="white"/>
        </mask>
        <g mask="url(#mask14_4066_27516)">
            <path d="M60.3361 58.272C60.3361 58.272 59.8426 58.1328 59.7484 58.5878C59.6542 59.0429 60.6475 59.4012 60.6475 59.4012L60.3361 58.272Z"
                  fill="#E39184"/>
            <path d="M58.5234 65.8518C58.5803 67.1897 58.6372 68.5275 58.694 69.8654C59.4634 69.8421 60.2328 69.8184 61.0022 69.7952C61.7716 69.7719 62.541 69.7483 63.3104 69.725C63.3326 68.1356 63.3551 66.5466 63.3773 64.9572C63.4533 64.3441 63.5265 63.7239 63.5959 63.0974C63.6417 62.6863 63.6853 62.2774 63.7271 61.8711C62.9761 61.5627 62.2248 61.2539 61.4739 60.9455C61.1363 60.834 60.7983 60.7209 60.4607 60.6094C60.1468 60.7579 59.8295 60.906 59.5089 61.0534C58.8536 61.3544 58.2054 61.6425 57.5649 61.9184C57.6705 62.2512 57.7728 62.5984 57.87 62.96C57.9372 63.2105 57.9993 63.4561 58.0558 63.6965C58.0794 64.4999 58.4998 65.0481 58.5234 65.8518Z"
                  fill="#588DC4"/>
            <path d="M61.2695 61.6831C61.1609 61.7252 60.9618 61.7854 60.7114 61.7662C60.6468 61.7614 60.3195 61.7314 60.0048 61.4851C59.7658 61.2982 59.6491 61.0762 59.5967 60.9569C59.7374 60.893 59.8785 60.8295 60.0192 60.7656C60.1599 60.7017 60.301 60.6381 60.4418 60.5742C60.7177 60.944 60.9936 61.3133 61.2695 61.6831Z"
                  fill="#002D5D"/>
            <path d="M60.7694 58.9531L60.2615 60.6445C60.2615 60.6445 60.5237 61.9531 61.3149 61.8667C61.3149 61.8667 61.5838 61.8275 61.6012 61.7057L61.8745 60.2747L60.7694 58.9531Z"
                  fill="#E39184"/>
            <path d="M61.8953 60.1992C61.8539 60.4164 61.8122 60.6335 61.7708 60.8507C61.5665 60.8038 61.3371 60.7318 61.0967 60.6202C61.0258 60.5874 60.9585 60.5534 60.895 60.5187C60.8496 60.4226 60.8285 60.3403 60.8178 60.283C60.8027 60.2006 60.8008 60.1179 60.7971 59.9528C60.7964 59.9251 60.7957 59.8856 60.796 59.8324C60.7964 59.7094 60.8019 59.5997 60.809 59.5059C61.1713 59.7367 61.5333 59.9679 61.8953 60.1992Z"
                  fill="#002D5D"/>
            <path d="M62.0479 56.6289C62.0479 56.6289 62.5181 56.6341 62.698 57.7263C62.8779 58.8181 62.5543 60.4508 62.5543 60.4508C62.5543 60.4508 61.3155 60.5438 60.9701 60.4134C60.7991 59.9746 60.6277 59.5355 60.4563 59.0967L60.2173 57.7329L60.224 57.1674L62.0479 56.6289Z"
                  fill="#E39184"/>
            <path d="M60.8669 56.9787C60.8669 56.9787 61.8229 57.0271 62.2373 56.7113L62.0973 56.3711L60.8673 56.6548L59.7496 57.1601L59.7075 57.6384L60.1238 58.321L60.3635 58.5688L60.5341 59.1085L60.8381 59.0383C60.7617 58.694 60.6852 58.3494 60.6084 58.0052C60.5622 57.9782 60.4858 57.925 60.4244 57.8316C60.3221 57.6753 60.3321 57.5143 60.3376 57.4622C60.3657 57.3965 60.4137 57.3082 60.8669 56.9787Z"
                  fill="#002D5D"/>
            <path fill-rule="evenodd" clip-rule="evenodd"
                  d="M62.1372 58.1185C62.1017 57.9456 62.0661 57.7726 62.0307 57.5996L61.9344 57.6193C61.9698 57.7924 62.0054 57.9653 62.0409 58.1382L62.0409 58.1383C62.0765 58.3113 62.112 58.4842 62.1475 58.6573L62.1498 58.6684L62.1567 58.6774C62.2168 58.7552 62.2768 58.8329 62.3368 58.9105L62.337 58.9107C62.3879 58.9766 62.4387 59.0424 62.4896 59.1083C62.4519 59.1415 62.4031 59.1773 62.3419 59.2076L62.3418 59.2077C62.1729 59.2916 62.0123 59.2825 61.9379 59.2734L61.926 59.371C62.0089 59.3811 62.1918 59.392 62.3855 59.2957C62.4771 59.2504 62.5445 59.1944 62.5905 59.1483L62.6211 59.1177L62.5947 59.0835C62.5346 59.0057 62.4746 58.9281 62.4146 58.8504C62.3569 58.7758 62.2992 58.7011 62.2415 58.6264C62.2068 58.4571 62.172 58.2878 62.1372 58.1186L62.1372 58.1185Z"
                  fill="#002D5D"/>
            <path d="M60.9223 57.9395C60.9223 57.9395 60.9216 57.9399 60.9212 57.9399C60.916 57.9377 60.922 57.8815 60.9308 57.8147C61.0069 57.763 61.1011 57.7101 61.213 57.668C61.3944 57.6001 61.5595 57.5846 61.6843 57.586C61.6799 57.6366 61.6755 57.6872 61.671 57.7378C61.671 57.7378 61.1018 57.8184 60.9223 57.9395Z"
                  fill="#002D5D"/>
            <path d="M62.1686 57.6763L62.1265 57.5514C62.1908 57.5448 62.2595 57.54 62.3319 57.5381C62.426 57.5355 62.5147 57.5381 62.5974 57.5437C62.6111 57.5799 62.6248 57.6164 62.6384 57.6526C62.4818 57.6607 62.3252 57.6685 62.1686 57.6763Z"
                  fill="#002D5D"/>
            <path fill-rule="evenodd" clip-rule="evenodd"
                  d="M61.5609 59.7102C61.4082 59.6368 61.3141 59.5344 61.267 59.4752L61.5609 59.7102ZM61.267 59.4752L61.344 59.4141L61.267 59.4752ZM61.344 59.4141C61.3856 59.4664 61.4688 59.5569 61.6035 59.6216L61.344 59.4141ZM61.6035 59.6216L61.6035 59.6216L61.6035 59.6216ZM61.5609 59.7102C61.7371 59.795 61.8979 59.7961 61.9746 59.7918L61.9691 59.6936C61.901 59.6975 61.7589 59.6964 61.6035 59.6216"
                  fill="#002D5D"/>
            <path d="M66.3858 62.4102L68.6353 62.8623L68.4901 64.2319L66.0755 63.8078L66.3858 62.4102Z" fill="#C77F74"/>
            <path fill-rule="evenodd" clip-rule="evenodd"
                  d="M61.6982 58.3728C61.6982 58.3728 61.6982 58.3728 61.6615 58.37C61.6247 58.3673 61.6247 58.3672 61.6247 58.3672L61.6247 58.3672C61.6247 58.3672 61.6247 58.3672 61.6247 58.3672L61.6247 58.3673L61.6247 58.3678C61.6246 58.3684 61.6245 58.3693 61.6244 58.3706C61.6241 58.3731 61.6236 58.3771 61.6229 58.3821C61.6214 58.3922 61.6188 58.4068 61.6145 58.4244C61.6057 58.4596 61.5902 58.5056 61.5632 58.5498C61.5362 58.5939 61.4982 58.6357 61.4444 58.6642C61.3909 58.6926 61.3192 58.7092 61.2225 58.699L61.2148 58.7724C61.3241 58.7838 61.4109 58.7655 61.479 58.7294C61.5469 58.6934 61.5938 58.641 61.6261 58.5883C61.6582 58.5357 61.6761 58.4822 61.686 58.4421C61.691 58.422 61.694 58.405 61.6958 58.3929C61.6967 58.3869 61.6973 58.382 61.6977 58.3786C61.6979 58.3769 61.698 58.3755 61.6981 58.3745L61.6982 58.3734L61.6982 58.373L61.6982 58.3729L61.6982 58.3728Z"
                  fill="#002D5D"/>
            <path fill-rule="evenodd" clip-rule="evenodd"
                  d="M62.4319 58.4837C62.3473 58.4364 62.2968 58.374 62.2717 58.3379L62.2112 58.38C62.2399 58.4214 62.2981 58.4934 62.3959 58.5481L62.396 58.5481C62.4708 58.5897 62.5405 58.6055 62.5862 58.6122L62.5969 58.5393C62.557 58.5334 62.4966 58.5197 62.4319 58.4837Z"
                  fill="#002D5D"/>
            <path d="M61.5176 58.4623C61.425 58.4623 61.3499 58.3873 61.3499 58.2946C61.3499 58.202 61.425 58.127 61.5176 58.127C61.6102 58.127 61.6853 58.202 61.6853 58.2946C61.6853 58.3873 61.6102 58.4623 61.5176 58.4623Z"
                  fill="#002D5D"/>
            <path d="M62.4972 58.3308C62.4182 58.3308 62.3542 58.2668 62.3542 58.1879C62.3542 58.1089 62.4182 58.0449 62.4972 58.0449C62.5761 58.0449 62.6401 58.1089 62.6401 58.1879C62.6401 58.2668 62.5761 58.3308 62.4972 58.3308Z"
                  fill="#002D5D"/>
            <path d="M66.4023 62.4082L66.2417 63.8547C65.2972 63.7003 64.3527 63.5459 63.4086 63.3911C63.4097 63.1721 63.4108 62.953 63.4119 62.734C63.2439 62.3676 63.5988 62.1301 63.4308 61.7637C64.5954 62.0219 65.2377 62.1504 66.4023 62.4082Z"
                  fill="#588DC4"/>
            <path d="M65.6552 63.7509L63.6876 63.4369L63.5941 62.748L66.2192 63.5909C66.1782 63.766 66.1173 63.6271 66.0763 63.8026C65.9333 63.7668 65.7978 63.7863 65.6552 63.7509Z"
                  fill="#002D5D"/>
            <path d="M66.4026 62.4082L66.3213 63.865L66.0761 63.8022L66.4026 62.4082Z" fill="#002D5D"/>
            <path fill-rule="evenodd" clip-rule="evenodd"
                  d="M60.0872 58.6716C60.0872 58.6716 60.0872 58.6717 60.1041 58.7178C60.1211 58.7639 60.1211 58.7639 60.1211 58.7639L60.121 58.7639L60.1212 58.7639C60.1215 58.7638 60.1221 58.7636 60.1228 58.7633C60.1243 58.7628 60.1268 58.762 60.13 58.761C60.1365 58.7591 60.1462 58.7564 60.1584 58.7536C60.1829 58.7481 60.2168 58.7428 60.2544 58.7428C60.3296 58.743 60.4147 58.7646 60.4755 58.8459L60.5542 58.7869C60.4684 58.6724 60.3481 58.6447 60.2546 58.6445C60.2079 58.6444 60.1665 58.6511 60.137 58.6577C60.1221 58.661 60.11 58.6644 60.1015 58.667C60.0972 58.6682 60.0939 58.6693 60.0914 58.6702C60.0902 58.6706 60.0893 58.6709 60.0885 58.6712L60.0877 58.6715L60.0874 58.6716L60.0872 58.6716L60.0872 58.6716Z"
                  fill="#002D5D"/>
            <path d="M68.626 62.8613L71.8982 63.374L71.7626 64.6136L68.4875 64.2321L68.626 62.8613Z" fill="#C77F74"/>
            <path d="M72.8958 63.666C72.9934 63.6949 73.0909 63.724 73.1884 63.7528C73.1987 63.7916 73.2083 63.8389 73.212 63.8939C73.2168 63.9663 73.2102 64.0288 73.2013 64.076C73.1115 64.0978 73.0687 64.1159 72.9789 64.1377C72.9789 64.1377 73.0606 64.4377 72.8412 64.5108L72.7813 64.4923C72.7813 64.4923 72.8083 64.865 72.6243 64.8103C72.4326 64.7535 71.4885 64.5444 71.4885 64.5444L71.8952 63.5371C72.0714 63.4828 72.2975 63.4341 72.5619 63.4267C72.6709 63.4237 72.7721 63.4282 72.8644 63.437C72.8748 63.5135 72.8851 63.5896 72.8958 63.666Z"
                  fill="#DB6958"/>
            <mask id="mask15_4066_27516" style="mask-type:luminance" maskUnits="userSpaceOnUse" x="71" y="63" width="3"
                  height="2">
                <path d="M72.9 63.6641C72.9975 63.6929 73.095 63.7221 73.1925 63.7509C73.2029 63.7897 73.2125 63.837 73.2162 63.892C73.221 63.9644 73.2143 64.0268 73.2055 64.0741C73.1157 64.0959 73.0729 64.114 72.9831 64.1358C72.9831 64.1358 73.0647 64.4357 72.8453 64.5088L72.7855 64.4904C72.7855 64.4904 72.8124 64.8631 72.6285 64.8084C72.4368 64.7515 71.4927 64.5424 71.4927 64.5424L71.8994 63.5352C72.0756 63.4809 72.3016 63.4321 72.5661 63.4247C72.675 63.4218 72.7762 63.4262 72.8686 63.4351C72.8789 63.5115 72.8893 63.5876 72.9 63.6641Z"
                      fill="white"/>
            </mask>
            <g mask="url(#mask15_4066_27516)">
                <path d="M72.7826 64.4925L71.9675 64.3691C71.9675 64.3691 72.007 64.5893 72.6253 64.8105C73.244 65.0318 72.8709 64.5852 72.8709 64.5852L72.7826 64.4925C72.7826 64.4925 72.6042 64.6336 72.615 64.7219L72.7826 64.4925Z"
                      fill="#E39184"/>
            </g>
            <mask id="mask16_4066_27516" style="mask-type:luminance" maskUnits="userSpaceOnUse" x="71" y="63" width="3"
                  height="2">
                <path d="M72.9 63.6641C72.9975 63.6929 73.095 63.7221 73.1925 63.7509C73.2029 63.7897 73.2125 63.837 73.2162 63.892C73.221 63.9644 73.2143 64.0268 73.2055 64.0741C73.1157 64.0959 73.0729 64.114 72.9831 64.1358C72.9831 64.1358 73.0647 64.4357 72.8453 64.5088L72.7855 64.4904C72.7855 64.4904 72.8124 64.8631 72.6285 64.8084C72.4368 64.7515 71.4927 64.5424 71.4927 64.5424L71.8994 63.5352C72.0756 63.4809 72.3016 63.4321 72.5661 63.4247C72.675 63.4218 72.7762 63.4262 72.8686 63.4351C72.8789 63.5115 72.8893 63.5876 72.9 63.6641Z"
                      fill="white"/>
            </mask>
            <g mask="url(#mask16_4066_27516)">
                <path d="M73.0972 64.5237C73.1869 64.3505 73.0111 64.0812 72.7042 63.9224C72.3976 63.7635 72.0762 63.7754 71.9865 63.9486C71.8967 64.1218 72.0725 64.3911 72.3795 64.5499C72.6861 64.7087 73.0074 64.6969 73.0972 64.5237Z"
                      fill="url(#paint1_radial_4066_27516)"/>
            </g>
            <mask id="mask17_4066_27516" style="mask-type:luminance" maskUnits="userSpaceOnUse" x="71" y="63" width="3"
                  height="2">
                <path d="M72.9 63.6641C72.9975 63.6929 73.095 63.7221 73.1925 63.7509C73.2029 63.7897 73.2125 63.837 73.2162 63.892C73.221 63.9644 73.2143 64.0268 73.2055 64.0741C73.1157 64.0959 73.0729 64.114 72.9831 64.1358C72.9831 64.1358 73.0647 64.4357 72.8453 64.5088L72.7855 64.4904C72.7855 64.4904 72.8124 64.8631 72.6285 64.8084C72.4368 64.7515 71.4927 64.5424 71.4927 64.5424L71.8994 63.5352C72.0756 63.4809 72.3016 63.4321 72.5661 63.4247C72.675 63.4218 72.7762 63.4262 72.8686 63.4351C72.8789 63.5115 72.8893 63.5876 72.9 63.6641Z"
                      fill="white"/>
            </mask>
            <g mask="url(#mask17_4066_27516)">
                <path d="M72.984 64.1362L72.1825 64.0117C72.1825 64.0117 72.0787 64.1731 72.2933 64.3146C72.5079 64.4561 72.7864 64.4908 72.7864 64.4908L73.0867 64.6419L73.2278 64.3659L72.984 64.1362Z"
                      fill="#E39184"/>
            </g>
            <path d="M72.4245 63.3027L74.1084 63.4161C74.1084 63.4161 73.9197 63.7353 73.5333 63.6691L72.4739 63.5982L72.4245 63.3027Z"
                  fill="#E39184"/>
            <path d="M72.9162 64.3605C73.0621 64.0787 72.9251 63.7174 72.6097 63.5542C72.2942 63.3909 71.9204 63.4869 71.7742 63.7691C71.6279 64.0513 71.7653 64.4122 72.0807 64.5755C72.3962 64.7387 72.7703 64.6423 72.9162 64.3605Z"
                  fill="url(#paint2_radial_4066_27516)"/>
            <path d="M71.9041 63.3758L72.4316 63.3008L72.8364 64.2896C72.8364 64.2896 72.6093 64.5094 72.2513 63.9605C72.2513 63.9605 72.2458 64.1308 71.7479 64.038L71.5159 63.9926"
                  fill="#E39184"/>
        </g>
        <mask id="mask18_4066_27516" style="mask-type:luminance" maskUnits="userSpaceOnUse" x="58" y="56" width="16"
              height="10">
            <path d="M63.9393 59.3018C63.9393 59.3018 66.2929 60.6806 68.6262 62.4085C68.6303 62.4115 68.6344 62.4384 68.6561 62.4525C68.7928 62.54 69.2745 62.0462 69.2748 62.0465C69.2737 62.048 69.3214 62.3103 69.4274 62.8894C69.382 62.9371 69.3343 62.9921 69.2874 63.0553C69.1928 63.1831 69.1293 63.3068 69.0854 63.411C69.0281 63.5658 69.0011 63.6947 68.9871 63.7811C68.9479 64.0208 68.9712 64.1627 68.9683 64.6306C68.9675 64.7474 68.9653 64.8419 68.9638 64.9003C70.2655 64.9003 71.5675 64.9003 72.8692 64.9003C72.9094 64.9524 72.9497 65.0048 72.9899 65.058C73.0402 65.1241 73.09 65.1902 73.1392 65.256C71.6694 65.1906 70.185 65.133 68.6861 65.0839C66.8208 65.0229 64.9769 64.976 63.1552 64.9431L58.78 64.6827V56L60.7022 56.1396L62.3957 56.2371L63.9393 59.3018Z"
                  fill="white"/>
        </mask>
        <g mask="url(#mask18_4066_27516)">
            <path d="M73.4937 63.166C74.0071 63.166 74.4692 63.3869 74.7898 63.7393C74.6912 63.7219 74.59 63.7127 74.4862 63.7127C73.5188 63.7127 72.7343 64.4968 72.7343 65.4646C72.7343 65.9185 72.9068 66.3322 73.1901 66.6432C72.3675 66.4996 71.7418 65.7822 71.7418 64.9183C71.7418 63.9506 72.5259 63.166 73.4937 63.166Z"
                  fill="#002D5D"/>
        </g>
        <path d="M59.756 64.2909L61.7055 65.2926L61.7402 63.9533L60.4116 63.0879L59.756 64.2909Z" fill="#E39184"/>
        <path d="M60.4482 63.0946C60.21 62.8722 59.9714 62.6499 59.7317 62.4275C59.4606 62.1756 59.1898 61.9244 58.9191 61.6744C58.8596 61.6592 58.7661 61.643 58.6531 61.654C58.6273 61.6566 58.5205 61.6681 58.4178 61.7154C58.2339 61.7999 58.1172 61.9732 58.0784 62.074C58.0784 62.074 57.8627 62.6395 59.6087 64.1728C59.6109 64.1746 59.6131 64.1765 59.6131 64.1765C59.6726 64.2285 59.7213 64.2651 59.7564 64.2902"
              fill="#5080B3"/>
        <path d="M59.7636 64.2691L60.6106 63.2012L60.4507 63.0938C60.3583 63.233 60.266 63.3793 60.174 63.5318C60.0215 63.7848 59.8855 64.0316 59.7636 64.2691Z"
              fill="#002D5D"/>
        <path d="M61.7086 65.2924L65.9419 65.4516L66.0435 64.2627L61.7433 63.9531C61.6846 64.0772 61.6136 64.2663 61.5911 64.5053C61.5575 64.8625 61.6487 65.1451 61.7086 65.2924Z"
              fill="#E39184"/>
        <path d="M66.7292 65.5144L66.8832 65.4095C67.0838 65.6869 67.284 65.5144 67.284 65.5144C67.4535 65.7039 67.6615 65.6939 67.6615 65.6939L67.2504 64.7225L67.4805 65.1317C67.6851 65.6429 68.1069 65.6943 68.1069 65.6943C68.1069 65.6943 67.7361 64.646 67.5824 64.3391C67.4332 64.0406 67.1192 64.2966 66.9612 64.2755L65.7282 64.2456L65.8734 65.4479L66.7292 65.5144Z"
              fill="#E39184"/>
        <path d="M57.8554 64.6643L58.7866 64.702V58.8105H57.8554V64.6643Z" fill="#193157"/>
        <path d="M46.2224 61.5536C45.5801 61.4065 44.8288 61.288 43.9866 61.2529C42.0715 61.1727 40.4872 61.5572 39.4087 61.9259C40.6993 62.4903 42.1032 63.0303 43.6191 63.5153C44.1118 63.6726 44.5968 63.8181 45.074 63.953C45.4567 63.1529 45.8397 62.3532 46.2224 61.5536Z"
              fill="#69A4C2"/>
        <mask id="mask19_4066_27516" style="mask-type:luminance" maskUnits="userSpaceOnUse" x="46" y="58" width="13"
              height="7">
            <path d="M47.8141 59.2929C47.5419 59.9478 47.27 60.6023 46.9978 61.2572C47.0728 61.7252 47.1755 62.2338 47.3151 62.7738C47.4573 63.3227 47.6176 63.8246 47.782 64.2764C50.2483 64.3717 52.7149 64.467 55.1812 64.5623C56.4189 63.4165 57.657 62.2703 58.8948 61.1246L52.2993 58.4902H47.6184C47.6834 58.7577 47.7487 59.0251 47.8141 59.2929Z"
                  fill="white"/>
        </mask>
        <g mask="url(#mask19_4066_27516)">
            <path d="M52.0132 70.7632H49.4823C49.0095 68.598 48.5363 66.4327 48.0635 64.2671C47.9476 63.7356 47.8316 63.2044 47.7152 62.6729C47.8774 62.6375 48.7435 62.4653 49.5924 63.0098C50.129 63.354 50.5346 63.9033 50.6816 64.5755L52.0132 70.7632Z"
                  fill="#193157"/>
            <path d="M50.0327 61.7978L47.5982 62.3297L47.0981 60.0407L47.8416 59.8782C48.7754 59.674 49.6977 60.2657 49.902 61.1994L50.0327 61.7978Z"
                  fill="#193157"/>
        </g>
        <path d="M47.0038 58.8105L44.8814 63.9004C44.9801 63.9292 45.085 63.9562 45.1958 63.9802C45.4207 64.0286 45.6305 64.0563 45.8196 64.0703C46.5506 62.317 47.282 60.5639 48.0129 58.8105"
              fill="#193157"/>
    </g>
    <defs>
        <linearGradient id="paint0_linear_4066_27516" x1="-2.97015" y1="142.279" x2="-13.9447" y2="30.4969"
                        gradientUnits="userSpaceOnUse">
            <stop stop-color="#00341F"/>
            <stop offset="1" stop-color="#009B5D"/>
        </linearGradient>
        <radialGradient id="paint1_radial_4066_27516" cx="0" cy="0" r="1" gradientUnits="userSpaceOnUse"
                        gradientTransform="translate(72.541 64.2331) rotate(27.3798) scale(0.625366 0.353257)">
            <stop offset="0.3296" stop-color="#DB6958"/>
            <stop offset="0.4639" stop-color="#DC6C5B" stop-opacity="0.7997"/>
            <stop offset="0.5683" stop-color="#DE7565" stop-opacity="0.644"/>
            <stop offset="0.6625" stop-color="#E18375" stop-opacity="0.5034"/>
            <stop offset="0.7508" stop-color="#E6988D" stop-opacity="0.3717"/>
            <stop offset="0.835" stop-color="#EDB3AB" stop-opacity="0.2461"/>
            <stop offset="0.916" stop-color="#F5D5D0" stop-opacity="0.1252"/>
            <stop offset="0.9932" stop-color="#FEFBFB" stop-opacity="0.0101"/>
            <stop offset="1" stop-color="white" stop-opacity="0"/>
        </radialGradient>
        <radialGradient id="paint2_radial_4066_27516" cx="0" cy="0" r="1" gradientUnits="userSpaceOnUse"
                        gradientTransform="translate(72.3502 64.0628) rotate(27.3794) scale(0.643005 0.575016)">
            <stop offset="0.3296" stop-color="#DB6958"/>
            <stop offset="0.4639" stop-color="#DC6C5B" stop-opacity="0.7997"/>
            <stop offset="0.5683" stop-color="#DE7565" stop-opacity="0.644"/>
            <stop offset="0.6625" stop-color="#E18375" stop-opacity="0.5034"/>
            <stop offset="0.7508" stop-color="#E6988D" stop-opacity="0.3717"/>
            <stop offset="0.835" stop-color="#EDB3AB" stop-opacity="0.2461"/>
            <stop offset="0.916" stop-color="#F5D5D0" stop-opacity="0.1252"/>
            <stop offset="0.9932" stop-color="#FEFBFB" stop-opacity="0.0101"/>
            <stop offset="1" stop-color="white" stop-opacity="0"/>
        </radialGradient>
        <clipPath id="clip0_4066_27516">
            <rect width="100" height="112" fill="white" transform="translate(0.333252)"/>
        </clipPath>
    </defs>
</svg>
