<svg width="100" height="56" viewBox="0 36 100 41" fill="none" xmlns="http://www.w3.org/2000/svg">
    <path opacity="0.16" d="M0 37.9095V28H17V84H6.84233V37.9095H0Z" fill="url(#paint0_linear_4066_27013)"/>
    <path opacity="0.26" d="M96 83H28V84H96V83Z" fill="#00899E"/>
    <path d="M55.7605 83.3261H32.0251C31.0942 83.3261 30.3398 82.5717 30.3398 81.6408V39.7205C30.3398 38.7895 31.0942 38.0352 32.0251 38.0352H55.7605C56.6914 38.0352 57.4458 38.7895 57.4458 39.7205V81.6414C57.4458 82.5717 56.6914 83.3261 55.7605 83.3261Z"
          fill="#00A866"/>
    <path d="M57.6835 83.3261H33.9475C33.0165 83.3261 32.2622 82.5717 32.2622 81.6408V39.7205C32.2622 38.7895 33.0165 38.0352 33.9475 38.0352H57.6828C58.6138 38.0352 59.3681 38.7895 59.3681 39.7205V81.6414C59.3681 82.5717 58.6138 83.3261 57.6835 83.3261Z"
          fill="#CEE6F2"/>
    <mask id="mask0_4066_27013" style="mask-type:luminance" maskUnits="userSpaceOnUse" x="32" y="38" width="28"
          height="46">
        <path d="M57.6796 83.3261H33.9436C33.0126 83.3261 32.2583 82.5717 32.2583 81.6408V39.7205C32.2583 38.7895 33.0126 38.0352 33.9436 38.0352H57.6789C58.6099 38.0352 59.3642 38.7895 59.3642 39.7205V81.6414C59.3642 82.5717 58.6099 83.3261 57.6796 83.3261Z"
              fill="white"/>
    </mask>
    <g mask="url(#mask0_4066_27013)">
        <path opacity="0.58"
              d="M68.23 67.5771C86.0976 67.5771 100.582 66.6614 100.582 65.5317C100.582 64.4021 86.0976 63.4863 68.23 63.4863C50.3625 63.4863 35.8779 64.4021 35.8779 65.5317C35.8779 66.6614 50.3625 67.5771 68.23 67.5771Z"
              fill="url(#paint1_radial_4066_27013)"/>
        <path d="M71.784 51.0631L77.2211 54.828L75.6525 55.4759L55.3273 54.3614L53.8486 51.7063L56.1846 50.877L60.8258 50.9943L71.784 51.0631Z"
              fill="white"/>
        <path d="M60.9334 50.9975L60.4336 50.7891L59.0793 54.0367L59.5791 54.2452L60.9334 50.9975Z" fill="#7B7B7C"/>
        <path d="M48.8647 57.8652L47.873 59.1045V62.9136H88.1456C88.1456 62.9136 88.1456 60.5558 87.3217 57.8652H48.8647Z"
              fill="#7B7B7C"/>
        <mask id="mask1_4066_27013" style="mask-type:luminance" maskUnits="userSpaceOnUse" x="47" y="50" width="41"
              height="11">
            <path d="M87.8709 60.1711C87.639 58.8329 87.2134 57.1735 86.4318 55.5912C86.4318 55.5912 83.7283 54.6637 77.7912 54.4079L73.1131 51.3947C71.7593 50.5224 70.1831 50.0586 68.5729 50.0586H51.7445L52.7232 50.9439C52.7232 50.9439 49.9732 52.5753 48.9945 57.7021L47.876 59.1003V60.1704V60.9206H51.1033C51.7226 59.2851 53.3029 58.1222 55.1546 58.1222C57.007 58.1222 58.5873 59.2851 59.2059 60.9206H77.1057C77.725 59.2851 79.3053 58.1222 81.157 58.1222C82.8955 58.1222 84.3946 59.1466 85.0841 60.6246C85.168 60.8047 85.3494 60.9199 85.5486 60.9199H87.9869C87.9548 60.686 87.9166 60.435 87.8709 60.1711ZM60.7711 54.2415C59.8313 54.2053 58.903 54.0157 58.0239 53.6815L54.5224 52.3489C55.3142 51.527 56.4068 51.0625 57.5478 51.0625H69.746C70.872 51.0625 71.9612 51.4622 72.8206 52.1899L75.9347 54.828L60.7711 54.2415Z"
                  fill="white"/>
        </mask>
        <g mask="url(#mask1_4066_27013)">
            <path d="M87.8647 60.7168C87.6225 59.2225 87.1772 57.3694 86.3594 55.6029C86.3594 55.6029 83.5324 54.5676 77.3232 54.2818L72.431 50.9174C71.0151 49.9434 69.3666 49.4258 67.6827 49.4258H50.0829L51.1066 50.4147C51.1066 50.4147 48.2305 52.2364 47.2068 57.9607L46.0371 59.5219V60.7168V61.555H49.4125C50.0597 59.7292 51.7123 58.4306 53.6493 58.4306C55.5862 58.4306 57.2388 59.7292 57.886 61.555H76.6064C77.2536 59.7292 78.9062 58.4306 80.8432 58.4306C82.7801 58.4306 84.4327 59.7292 85.0799 61.555H87.9854C87.9526 61.2911 87.9124 61.0107 87.8647 60.7168Z"
                  fill="#7B7B7C"/>
        </g>
        <mask id="mask2_4066_27013" style="mask-type:luminance" maskUnits="userSpaceOnUse" x="47" y="50" width="41"
              height="11">
            <path d="M87.8709 60.1711C87.639 58.8329 87.2134 57.1735 86.4318 55.5912C86.4318 55.5912 83.7283 54.6637 77.7912 54.4079L73.1131 51.3947C71.7593 50.5224 70.1831 50.0586 68.5729 50.0586H51.7445L52.7232 50.9439C52.7232 50.9439 49.9732 52.5753 48.9945 57.7021L47.876 59.1003V60.1704V60.9206H51.1033C51.7226 59.2851 53.3029 58.1222 55.1546 58.1222C57.007 58.1222 58.5873 59.2851 59.2059 60.9206H77.1057C77.725 59.2851 79.3053 58.1222 81.157 58.1222C82.8955 58.1222 84.3946 59.1466 85.0841 60.6246C85.168 60.8047 85.3494 60.9199 85.5486 60.9199H87.9869C87.9548 60.686 87.9166 60.435 87.8709 60.1711ZM60.7711 54.2415C59.8313 54.2053 58.903 54.0157 58.0239 53.6815L54.5224 52.3489C55.3142 51.527 56.4068 51.0625 57.5478 51.0625H69.746C70.872 51.0625 71.9612 51.4622 72.8206 52.1899L75.9347 54.828L60.7711 54.2415Z"
                  fill="white"/>
        </mask>
        <g mask="url(#mask2_4066_27013)">
            <path d="M56.6765 64.2969C58.5289 64.2969 60.9474 59.2533 61.5667 60.8888L78.803 63.8501C79.4223 62.2146 81.8571 65.9644 83.7088 65.9644C85.5612 65.9644 86.9648 62.81 87.5841 64.4456L90.4718 61.7795C90.4398 61.5435 90.2775 60.4018 90.2318 60.1379C89.9999 58.7997 89.5743 57.1403 88.7927 55.558C88.7927 55.558 86.0891 54.6305 80.152 54.3747L75.474 51.3615C74.1202 50.4892 72.544 50.0254 70.9337 50.0254H54.1053L55.084 50.9107C55.084 50.9107 52.3497 52.7221 51.371 57.849C51.1828 58.5637 50.9946 59.2785 50.8063 59.9926C50.6167 60.2906 50.4264 60.5894 50.2368 60.8874L52.9397 63.7997C53.559 62.1655 54.8248 64.2969 56.6765 64.2969Z"
                  fill="#CCCCCD"/>
        </g>
        <mask id="mask3_4066_27013" style="mask-type:luminance" maskUnits="userSpaceOnUse" x="47" y="50" width="41"
              height="11">
            <path d="M87.8709 60.1711C87.639 58.8329 87.2134 57.1735 86.4318 55.5912C86.4318 55.5912 83.7283 54.6637 77.7912 54.4079L73.1131 51.3947C71.7593 50.5224 70.1831 50.0586 68.5729 50.0586H51.7445L52.7232 50.9439C52.7232 50.9439 49.9732 52.5753 48.9945 57.7021L47.876 59.1003V60.1704V60.9206H51.1033C51.7226 59.2851 53.3029 58.1222 55.1546 58.1222C57.007 58.1222 58.5873 59.2851 59.2059 60.9206H77.1057C77.725 59.2851 79.3053 58.1222 81.157 58.1222C82.8955 58.1222 84.3946 59.1466 85.0841 60.6246C85.168 60.8047 85.3494 60.9199 85.5486 60.9199H87.9869C87.9548 60.686 87.9166 60.435 87.8709 60.1711ZM60.7711 54.2415C59.8313 54.2053 58.903 54.0157 58.0239 53.6815L54.5224 52.3489C55.3142 51.527 56.4068 51.0625 57.5478 51.0625H69.746C70.872 51.0625 71.9612 51.4622 72.8206 52.1899L75.9347 54.828L60.7711 54.2415Z"
                  fill="white"/>
        </mask>
        <g mask="url(#mask3_4066_27013)">
            <path d="M77.1069 60.9741V58.1758H64.7799C63.1089 58.1758 61.5007 58.8142 60.284 59.96L59.207 60.9741"
                  fill="#DADADA"/>
        </g>
        <mask id="mask4_4066_27013" style="mask-type:luminance" maskUnits="userSpaceOnUse" x="47" y="50" width="41"
              height="11">
            <path d="M87.8709 60.1711C87.639 58.8329 87.2134 57.1735 86.4318 55.5912C86.4318 55.5912 83.7283 54.6637 77.7912 54.4079L73.1131 51.3947C71.7593 50.5224 70.1831 50.0586 68.5729 50.0586H51.7445L52.7232 50.9439C52.7232 50.9439 49.9732 52.5753 48.9945 57.7021L47.876 59.1003V60.1704V60.9206H51.1033C51.7226 59.2851 53.3029 58.1222 55.1546 58.1222C57.007 58.1222 58.5873 59.2851 59.2059 60.9206H77.1057C77.725 59.2851 79.3053 58.1222 81.157 58.1222C82.8955 58.1222 84.3946 59.1466 85.0841 60.6246C85.168 60.8047 85.3494 60.9199 85.5486 60.9199H87.9869C87.9548 60.686 87.9166 60.435 87.8709 60.1711ZM60.7711 54.2415C59.8313 54.2053 58.903 54.0157 58.0239 53.6815L54.5224 52.3489C55.3142 51.527 56.4068 51.0625 57.5478 51.0625H69.746C70.872 51.0625 71.9612 51.4622 72.8206 52.1899L75.9347 54.828L60.7711 54.2415Z"
                  fill="white"/>
        </mask>
        <g mask="url(#mask4_4066_27013)">
            <path d="M49.7405 55.093L52.3384 54.709L52.4966 55.477L49.1533 56.9003C49.2127 56.6023 49.2959 56.2708 49.4152 55.9155C49.5168 55.6106 49.6287 55.3358 49.7405 55.093Z"
                  fill="white"/>
            <mask id="mask5_4066_27013" style="mask-type:luminance" maskUnits="userSpaceOnUse" x="49" y="54" width="4"
                  height="3">
                <path d="M49.744 55.093L52.3418 54.709L52.5001 55.477L49.1567 56.9003C49.2161 56.6023 49.2993 56.2708 49.4186 55.9155C49.5203 55.6106 49.6321 55.3358 49.744 55.093Z"
                      fill="white"/>
            </mask>
            <g mask="url(#mask5_4066_27013)">
                <path d="M49.4324 54.7785L52.0303 54.3945L52.1885 55.1625L48.8452 56.5859C48.9046 56.2879 48.9878 55.9564 49.1071 55.601C49.2081 55.2962 49.3206 55.0213 49.4324 54.7785Z"
                      fill="white"/>
            </g>
        </g>
        <mask id="mask6_4066_27013" style="mask-type:luminance" maskUnits="userSpaceOnUse" x="47" y="50" width="41"
              height="11">
            <path d="M87.8709 60.1711C87.639 58.8329 87.2134 57.1735 86.4318 55.5912C86.4318 55.5912 83.7283 54.6637 77.7912 54.4079L73.1131 51.3947C71.7593 50.5224 70.1831 50.0586 68.5729 50.0586H51.7445L52.7232 50.9439C52.7232 50.9439 49.9732 52.5753 48.9945 57.7021L47.876 59.1003V60.1704V60.9206H51.1033C51.7226 59.2851 53.3029 58.1222 55.1546 58.1222C57.007 58.1222 58.5873 59.2851 59.2059 60.9206H77.1057C77.725 59.2851 79.3053 58.1222 81.157 58.1222C82.8955 58.1222 84.3946 59.1466 85.0841 60.6246C85.168 60.8047 85.3494 60.9199 85.5486 60.9199H87.9869C87.9548 60.686 87.9166 60.435 87.8709 60.1711ZM60.7711 54.2415C59.8313 54.2053 58.903 54.0157 58.0239 53.6815L54.5224 52.3489C55.3142 51.527 56.4068 51.0625 57.5478 51.0625H69.746C70.872 51.0625 71.9612 51.4622 72.8206 52.1899L75.9347 54.828L60.7711 54.2415Z"
                  fill="white"/>
        </mask>
        <g mask="url(#mask6_4066_27013)">
            <path d="M50.8289 56.6584L48.7569 57.4714L48.6021 57.0772L51.0683 56.1094C51.1542 56.3269 51.0464 56.5725 50.8289 56.6584Z"
                  fill="#7B7B7C"/>
        </g>
        <mask id="mask7_4066_27013" style="mask-type:luminance" maskUnits="userSpaceOnUse" x="47" y="50" width="41"
              height="11">
            <path d="M87.8709 60.1711C87.639 58.8329 87.2134 57.1735 86.4318 55.5912C86.4318 55.5912 83.7283 54.6637 77.7912 54.4079L73.1131 51.3947C71.7593 50.5224 70.1831 50.0586 68.5729 50.0586H51.7445L52.7232 50.9439C52.7232 50.9439 49.9732 52.5753 48.9945 57.7021L47.876 59.1003V60.1704V60.9206H51.1033C51.7226 59.2851 53.3029 58.1222 55.1546 58.1222C57.007 58.1222 58.5873 59.2851 59.2059 60.9206H77.1057C77.725 59.2851 79.3053 58.1222 81.157 58.1222C82.8955 58.1222 84.3946 59.1466 85.0841 60.6246C85.168 60.8047 85.3494 60.9199 85.5486 60.9199H87.9869C87.9548 60.686 87.9166 60.435 87.8709 60.1711ZM60.7711 54.2415C59.8313 54.2053 58.903 54.0157 58.0239 53.6815L54.5224 52.3489C55.3142 51.527 56.4068 51.0625 57.5478 51.0625H69.746C70.872 51.0625 71.9612 51.4622 72.8206 52.1899L75.9347 54.828L60.7711 54.2415Z"
                  fill="white"/>
        </mask>
        <g mask="url(#mask7_4066_27013)">
            <path d="M54.7879 56.9004C53.4906 56.9004 52.2978 57.3464 51.3525 58.0919C51.2222 58.5741 50.8621 59.9777 50.8232 60.9216L49.6126 61.3547L49.378 61.1985C49.2846 61.6023 49.2334 62.0224 49.2334 62.4548C49.2334 65.5219 51.7201 68.0086 54.7872 68.0086C57.8543 68.0086 60.3409 65.5219 60.3409 62.4548C60.3416 59.3871 57.8549 56.9004 54.7879 56.9004Z"
                  fill="#E5E5E6"/>
            <path d="M50.8225 60.9215C50.8607 59.9783 51.2208 58.5747 51.3517 58.0918C50.3771 58.8604 49.6671 59.9483 49.3779 61.1978L49.6125 61.3539L50.8225 60.9215Z"
                  fill="#D0D0D0"/>
        </g>
        <path d="M57.0997 62.4551C57.0997 60.7221 55.6947 59.3164 53.961 59.3164C52.2272 59.3164 50.8223 60.7214 50.8223 62.4551C50.8223 64.1888 52.2272 65.5938 53.961 65.5938C54.7371 65.5938 54.9247 65.589 55.6524 65.5699C56.5404 65.5468 57.0997 63.4127 57.0997 62.4551Z"
              fill="#7B7B7C"/>
        <path d="M55.3243 65.5938C57.0577 65.5938 58.463 64.1886 58.463 62.4551C58.463 60.7217 57.0577 59.3164 55.3243 59.3164C53.5908 59.3164 52.1855 60.7217 52.1855 62.4551C52.1855 64.1886 53.5908 65.5938 55.3243 65.5938Z"
              fill="#A2A2A2"/>
        <path d="M55.3236 64.8161C56.6276 64.8161 57.6848 63.759 57.6848 62.4549C57.6848 61.1509 56.6276 60.0938 55.3236 60.0938C54.0195 60.0938 52.9624 61.1509 52.9624 62.4549C52.9624 63.759 54.0195 64.8161 55.3236 64.8161Z"
              fill="white"/>
        <mask id="mask8_4066_27013" style="mask-type:luminance" maskUnits="userSpaceOnUse" x="52" y="60" width="6"
              height="5">
            <path d="M55.327 64.8161C56.6311 64.8161 57.6882 63.759 57.6882 62.4549C57.6882 61.1509 56.6311 60.0938 55.327 60.0938C54.023 60.0938 52.9658 61.1509 52.9658 62.4549C52.9658 63.759 54.023 64.8161 55.327 64.8161Z"
                  fill="white"/>
        </mask>
        <g mask="url(#mask8_4066_27013)">
            <path d="M57.7926 63.3686L55.8004 62.4301C55.5453 62.3101 55.2554 62.3449 55.0399 62.497L56.2451 63.0651L55.8979 63.724L53.9609 62.8114L54.1198 62.4745C54.4725 61.7256 55.3686 61.4037 56.1175 61.7563L57.9106 62.6013"
                  fill="#A2A2A2"/>
        </g>
        <path d="M55.8709 56.3517H53.8486V55.3607C53.8486 54.9487 54.1821 54.6152 54.5941 54.6152H55.8709V56.3517Z"
              fill="#D0D0D0"/>
        <path fill-rule="evenodd" clip-rule="evenodd"
              d="M59.3485 53.9277L59.4607 54.0364L58.3459 55.188C58.1575 55.3979 58.0532 55.6701 58.0532 55.9518V59.5113H57.897V55.9518C57.897 55.631 58.016 55.3212 58.2307 55.0825L58.2317 55.0814L59.3485 53.9277Z"
              fill="#7B7B7C"/>
        <path d="M50.7972 62.9095C50.7788 62.7602 50.7685 62.6081 50.7685 62.4539C50.7685 60.3806 52.5111 58.7 54.6602 58.7C56.8093 58.7 58.5519 60.3806 58.5519 62.4539C58.5519 62.6081 58.5423 62.7602 58.5232 62.9095H77.8056C77.7872 62.7602 77.7769 62.6081 77.7769 62.4539C77.7769 60.3806 79.5195 58.7 81.6686 58.7C83.8177 58.7 85.5602 60.3806 85.5602 62.4539C85.5602 62.6081 85.5507 62.7602 85.5316 62.9095H88.8872C88.8872 62.9095 88.8872 62.1143 88.7201 60.9214H85.8399C85.1981 59.2859 83.5599 58.123 81.6393 58.123C79.7193 58.123 78.0804 59.2859 77.4386 60.9214H58.8806C58.2388 59.2859 56.6006 58.123 54.68 58.123C52.7594 58.123 51.1211 59.2859 50.4793 60.9214H47.1333V62.9095H50.7972Z"
              fill="#7B7B7C"/>
    </g>
    <path opacity="0.61"
          d="M47.4754 76.0935C55.7909 76.0935 62.5319 69.3524 62.5319 61.037C62.5319 52.7215 55.7909 45.9805 47.4754 45.9805C39.16 45.9805 32.4189 52.7215 32.4189 61.037C32.4189 69.3524 39.16 76.0935 47.4754 76.0935Z"
          fill="url(#paint2_radial_4066_27013)"/>
    <mask id="mask9_4066_27013" style="mask-type:luminance" maskUnits="userSpaceOnUse" x="32" y="38" width="50"
          height="46">
        <path d="M81.8869 38.0352H32.2583V83.3261H81.8869V38.0352Z" fill="white"/>
    </mask>
    <g mask="url(#mask9_4066_27013)">
        <path d="M53.9388 56.5338L59.3759 60.2987L57.8072 60.9466L37.4821 59.8322L36.0034 57.1777L38.3394 56.3477L42.9799 56.465L53.9388 56.5338Z"
              fill="#D4F1FF"/>
        <path d="M49.4308 61.355L48.7856 60.8387L52.6112 56.0645L53.566 56.194L49.4308 61.355Z" fill="#EBF8FF"/>
        <path d="M45.4894 61.495L43.8955 60.3341L47.0717 55.9746L49.3838 56.1499L45.4894 61.495Z" fill="#EBF8FF"/>
        <path d="M49.3272 56.5352H48.7856V59.9508H49.3272V56.5352Z" fill="#193157"/>
        <path d="M43.0916 56.4682L42.5918 56.2598L41.2375 59.5074L41.7373 59.7159L43.0916 56.4682Z" fill="#193157"/>
        <path d="M31.0229 63.3379L30.0312 64.5771V68.3863H70.3038C70.3038 68.3863 70.3038 66.0285 69.4799 63.3379H31.0229Z"
              fill="#193157"/>
        <mask id="mask10_4066_27013" style="mask-type:luminance" maskUnits="userSpaceOnUse" x="30" y="55" width="41"
              height="12">
            <path d="M70.022 65.6418C69.7901 64.3036 69.3645 62.6442 68.5829 61.0619C68.5829 61.0619 65.8793 60.1344 59.9423 59.8786L55.2642 56.8654C53.9104 55.9931 52.3342 55.5293 50.7239 55.5293H33.8948L34.8736 56.4146C34.8736 56.4146 32.1236 58.046 31.1449 63.1728L30.0264 64.571V65.6411V66.3913H33.2537C33.873 64.7558 35.4533 63.5929 37.305 63.5929C39.1574 63.5929 40.7377 64.7558 41.3563 66.3913H59.2561C59.8754 64.7558 61.4557 63.5929 63.3074 63.5929C65.0459 63.5929 66.545 64.6173 67.2345 66.0953C67.3184 66.2754 67.4998 66.3906 67.699 66.3906H70.1372C70.1059 66.1567 70.0677 65.9057 70.022 65.6418ZM42.9222 59.7122C41.9824 59.676 41.0541 59.4864 40.175 59.1522L36.6734 57.8196C37.4653 56.9977 38.5579 56.5332 39.6989 56.5332H51.897C53.0231 56.5332 54.1123 56.9329 54.9716 57.6606L58.0858 60.2987L42.9222 59.7122Z"
                  fill="white"/>
        </mask>
        <g mask="url(#mask10_4066_27013)">
            <path d="M70.0172 66.1875C69.7751 64.6932 69.3297 62.8401 68.512 61.0736C68.512 61.0736 65.6849 60.0383 59.4757 59.7525L54.5835 56.3881C53.1676 55.4141 51.5192 54.8965 49.8352 54.8965H32.2348L33.2585 55.8854C33.2585 55.8854 30.3824 57.7071 29.3586 63.4314L28.189 64.9926V66.1875V67.0257H31.5643C32.2116 65.1999 33.8641 63.9013 35.8011 63.9013C37.7381 63.9013 39.3906 65.1999 40.0379 67.0257H58.7582C59.4055 65.1999 61.058 63.9013 62.995 63.9013C64.932 63.9013 66.5845 65.1999 67.2318 67.0257H70.1372C70.1052 66.7624 70.0649 66.4821 70.0172 66.1875Z"
                  fill="#193157"/>
        </g>
        <mask id="mask11_4066_27013" style="mask-type:luminance" maskUnits="userSpaceOnUse" x="30" y="55" width="41"
              height="12">
            <path d="M70.022 65.6418C69.7901 64.3036 69.3645 62.6442 68.5829 61.0619C68.5829 61.0619 65.8793 60.1344 59.9423 59.8786L55.2642 56.8654C53.9104 55.9931 52.3342 55.5293 50.7239 55.5293H33.8948L34.8736 56.4146C34.8736 56.4146 32.1236 58.046 31.1449 63.1728L30.0264 64.571V65.6411V66.3913H33.2537C33.873 64.7558 35.4533 63.5929 37.305 63.5929C39.1574 63.5929 40.7377 64.7558 41.3563 66.3913H59.2561C59.8754 64.7558 61.4557 63.5929 63.3074 63.5929C65.0459 63.5929 66.545 64.6173 67.2345 66.0953C67.3184 66.2754 67.4998 66.3906 67.699 66.3906H70.1372C70.1059 66.1567 70.0677 65.9057 70.022 65.6418ZM42.9222 59.7122C41.9824 59.676 41.0541 59.4864 40.175 59.1522L36.6734 57.8196C37.4653 56.9977 38.5579 56.5332 39.6989 56.5332H51.897C53.0231 56.5332 54.1123 56.9329 54.9716 57.6606L58.0858 60.2987L42.9222 59.7122Z"
                  fill="white"/>
        </mask>
        <g mask="url(#mask11_4066_27013)">
            <path d="M38.8284 69.7676C40.6808 69.7676 43.0993 64.724 43.7186 66.3595L60.9548 69.3208C61.5741 67.6853 64.009 71.4351 65.8607 71.4351C67.7131 71.4351 69.1167 68.2808 69.736 69.9163L72.6237 67.2502C72.5916 67.0142 72.4293 65.8725 72.3836 65.6086C72.1517 64.2704 71.7261 62.611 70.9445 61.0287C70.9445 61.0287 68.241 60.1012 62.3039 59.8454L57.6258 56.8322C56.272 55.9599 54.6958 55.4961 53.0856 55.4961H36.2571L37.2359 56.3814C37.2359 56.3814 34.5016 58.1928 33.5229 63.3197C33.3346 64.0344 33.1464 64.7492 32.9582 65.4633C32.7686 65.7613 32.5783 66.0601 32.3887 66.3581L35.0916 69.2704C35.7102 67.6362 36.9767 69.7676 38.8284 69.7676Z"
                  fill="#3E7BBD"/>
        </g>
        <mask id="mask12_4066_27013" style="mask-type:luminance" maskUnits="userSpaceOnUse" x="30" y="55" width="41"
              height="12">
            <path d="M70.022 65.6418C69.7901 64.3036 69.3645 62.6442 68.5829 61.0619C68.5829 61.0619 65.8793 60.1344 59.9423 59.8786L55.2642 56.8654C53.9104 55.9931 52.3342 55.5293 50.7239 55.5293H33.8948L34.8736 56.4146C34.8736 56.4146 32.1236 58.046 31.1449 63.1728L30.0264 64.571V65.6411V66.3913H33.2537C33.873 64.7558 35.4533 63.5929 37.305 63.5929C39.1574 63.5929 40.7377 64.7558 41.3563 66.3913H59.2561C59.8754 64.7558 61.4557 63.5929 63.3074 63.5929C65.0459 63.5929 66.545 64.6173 67.2345 66.0953C67.3184 66.2754 67.4998 66.3906 67.699 66.3906H70.1372C70.1059 66.1567 70.0677 65.9057 70.022 65.6418ZM42.9222 59.7122C41.9824 59.676 41.0541 59.4864 40.175 59.1522L36.6734 57.8196C37.4653 56.9977 38.5579 56.5332 39.6989 56.5332H51.897C53.0231 56.5332 54.1123 56.9329 54.9716 57.6606L58.0858 60.2987L42.9222 59.7122Z"
                  fill="white"/>
        </mask>
        <g mask="url(#mask12_4066_27013)">
            <path d="M67.4567 62.5993H69.185V62.1758H67.0332C67.0332 62.4097 67.2228 62.5993 67.4567 62.5993Z"
                  fill="#193157"/>
        </g>
        <mask id="mask13_4066_27013" style="mask-type:luminance" maskUnits="userSpaceOnUse" x="30" y="55" width="41"
              height="12">
            <path d="M70.022 65.6418C69.7901 64.3036 69.3645 62.6442 68.5829 61.0619C68.5829 61.0619 65.8793 60.1344 59.9423 59.8786L55.2642 56.8654C53.9104 55.9931 52.3342 55.5293 50.7239 55.5293H33.8948L34.8736 56.4146C34.8736 56.4146 32.1236 58.046 31.1449 63.1728L30.0264 64.571V65.6411V66.3913H33.2537C33.873 64.7558 35.4533 63.5929 37.305 63.5929C39.1574 63.5929 40.7377 64.7558 41.3563 66.3913H59.2561C59.8754 64.7558 61.4557 63.5929 63.3074 63.5929C65.0459 63.5929 66.545 64.6173 67.2345 66.0953C67.3184 66.2754 67.4998 66.3906 67.699 66.3906H70.1372C70.1059 66.1567 70.0677 65.9057 70.022 65.6418ZM42.9222 59.7122C41.9824 59.676 41.0541 59.4864 40.175 59.1522L36.6734 57.8196C37.4653 56.9977 38.5579 56.5332 39.6989 56.5332H51.897C53.0231 56.5332 54.1123 56.9329 54.9716 57.6606L58.0858 60.2987L42.9222 59.7122Z"
                  fill="white"/>
        </mask>
        <g mask="url(#mask13_4066_27013)">
            <path d="M69.5812 61.0098H66.1076L65.8423 62.1945H69.5812" fill="#D4F1FF"/>
            <mask id="mask14_4066_27013" style="mask-type:luminance" maskUnits="userSpaceOnUse" x="65" y="61" width="5"
                  height="2">
                <path d="M69.5812 61.0098H66.1076L65.8423 62.1945H69.5812" fill="white"/>
            </mask>
            <g mask="url(#mask14_4066_27013)">
                <path d="M70.0595 60.7734H66.5866L66.3213 61.9581H70.0595" fill="white"/>
            </g>
        </g>
        <mask id="mask15_4066_27013" style="mask-type:luminance" maskUnits="userSpaceOnUse" x="30" y="55" width="41"
              height="12">
            <path d="M70.022 65.6418C69.7901 64.3036 69.3645 62.6442 68.5829 61.0619C68.5829 61.0619 65.8793 60.1344 59.9423 59.8786L55.2642 56.8654C53.9104 55.9931 52.3342 55.5293 50.7239 55.5293H33.8948L34.8736 56.4146C34.8736 56.4146 32.1236 58.046 31.1449 63.1728L30.0264 64.571V65.6411V66.3913H33.2537C33.873 64.7558 35.4533 63.5929 37.305 63.5929C39.1574 63.5929 40.7377 64.7558 41.3563 66.3913H59.2561C59.8754 64.7558 61.4557 63.5929 63.3074 63.5929C65.0459 63.5929 66.545 64.6173 67.2345 66.0953C67.3184 66.2754 67.4998 66.3906 67.699 66.3906H70.1372C70.1059 66.1567 70.0677 65.9057 70.022 65.6418ZM42.9222 59.7122C41.9824 59.676 41.0541 59.4864 40.175 59.1522L36.6734 57.8196C37.4653 56.9977 38.5579 56.5332 39.6989 56.5332H51.897C53.0231 56.5332 54.1123 56.9329 54.9716 57.6606L58.0858 60.2987L42.9222 59.7122Z"
                  fill="white"/>
        </mask>
        <g mask="url(#mask15_4066_27013)">
            <path d="M59.2595 66.4449V63.6465H46.9318C45.2608 63.6465 43.6526 64.2849 42.4358 65.4307L41.3589 66.4449"
                  fill="#69A4C2"/>
        </g>
        <mask id="mask16_4066_27013" style="mask-type:luminance" maskUnits="userSpaceOnUse" x="30" y="55" width="41"
              height="12">
            <path d="M70.022 65.6418C69.7901 64.3036 69.3645 62.6442 68.5829 61.0619C68.5829 61.0619 65.8793 60.1344 59.9423 59.8786L55.2642 56.8654C53.9104 55.9931 52.3342 55.5293 50.7239 55.5293H33.8948L34.8736 56.4146C34.8736 56.4146 32.1236 58.046 31.1449 63.1728L30.0264 64.571V65.6411V66.3913H33.2537C33.873 64.7558 35.4533 63.5929 37.305 63.5929C39.1574 63.5929 40.7377 64.7558 41.3563 66.3913H59.2561C59.8754 64.7558 61.4557 63.5929 63.3074 63.5929C65.0459 63.5929 66.545 64.6173 67.2345 66.0953C67.3184 66.2754 67.4998 66.3906 67.699 66.3906H70.1372C70.1059 66.1567 70.0677 65.9057 70.022 65.6418ZM42.9222 59.7122C41.9824 59.676 41.0541 59.4864 40.175 59.1522L36.6734 57.8196C37.4653 56.9977 38.5579 56.5332 39.6989 56.5332H51.897C53.0231 56.5332 54.1123 56.9329 54.9716 57.6606L58.0858 60.2987L42.9222 59.7122Z"
                  fill="white"/>
        </mask>
        <g mask="url(#mask16_4066_27013)">
            <path d="M50.4634 64.1055H49.1382V66.3916H50.4634V64.1055Z" fill="#91C5DE"/>
        </g>
        <mask id="mask17_4066_27013" style="mask-type:luminance" maskUnits="userSpaceOnUse" x="30" y="55" width="41"
              height="12">
            <path d="M70.022 65.6418C69.7901 64.3036 69.3645 62.6442 68.5829 61.0619C68.5829 61.0619 65.8793 60.1344 59.9423 59.8786L55.2642 56.8654C53.9104 55.9931 52.3342 55.5293 50.7239 55.5293H33.8948L34.8736 56.4146C34.8736 56.4146 32.1236 58.046 31.1449 63.1728L30.0264 64.571V65.6411V66.3913H33.2537C33.873 64.7558 35.4533 63.5929 37.305 63.5929C39.1574 63.5929 40.7377 64.7558 41.3563 66.3913H59.2561C59.8754 64.7558 61.4557 63.5929 63.3074 63.5929C65.0459 63.5929 66.545 64.6173 67.2345 66.0953C67.3184 66.2754 67.4998 66.3906 67.699 66.3906H70.1372C70.1059 66.1567 70.0677 65.9057 70.022 65.6418ZM42.9222 59.7122C41.9824 59.676 41.0541 59.4864 40.175 59.1522L36.6734 57.8196C37.4653 56.9977 38.5579 56.5332 39.6989 56.5332H51.897C53.0231 56.5332 54.1123 56.9329 54.9716 57.6606L58.0858 60.2987L42.9222 59.7122Z"
                  fill="white"/>
        </mask>
        <g mask="url(#mask17_4066_27013)">
            <path d="M63.7046 73.4786C66.7719 73.4786 69.2584 70.9921 69.2584 67.9249C69.2584 64.8576 66.7719 62.3711 63.7046 62.3711C60.6374 62.3711 58.1509 64.8576 58.1509 67.9249C58.1509 70.9921 60.6374 73.4786 63.7046 73.4786Z"
                  fill="#91C5DE"/>
        </g>
        <mask id="mask18_4066_27013" style="mask-type:luminance" maskUnits="userSpaceOnUse" x="30" y="55" width="41"
              height="12">
            <path d="M70.022 65.6418C69.7901 64.3036 69.3645 62.6442 68.5829 61.0619C68.5829 61.0619 65.8793 60.1344 59.9423 59.8786L55.2642 56.8654C53.9104 55.9931 52.3342 55.5293 50.7239 55.5293H33.8948L34.8736 56.4146C34.8736 56.4146 32.1236 58.046 31.1449 63.1728L30.0264 64.571V65.6411V66.3913H33.2537C33.873 64.7558 35.4533 63.5929 37.305 63.5929C39.1574 63.5929 40.7377 64.7558 41.3563 66.3913H59.2561C59.8754 64.7558 61.4557 63.5929 63.3074 63.5929C65.0459 63.5929 66.545 64.6173 67.2345 66.0953C67.3184 66.2754 67.4998 66.3906 67.699 66.3906H70.1372C70.1059 66.1567 70.0677 65.9057 70.022 65.6418ZM42.9222 59.7122C41.9824 59.676 41.0541 59.4864 40.175 59.1522L36.6734 57.8196C37.4653 56.9977 38.5579 56.5332 39.6989 56.5332H51.897C53.0231 56.5332 54.1123 56.9329 54.9716 57.6606L58.0858 60.2987L42.9222 59.7122Z"
                  fill="white"/>
        </mask>
        <g mask="url(#mask18_4066_27013)">
            <path d="M69.8476 64.5879H68.6998L67.9175 66.6981H70.3019L69.8476 64.5879Z" fill="#D1F0FF"/>
        </g>
        <mask id="mask19_4066_27013" style="mask-type:luminance" maskUnits="userSpaceOnUse" x="30" y="55" width="41"
              height="12">
            <path d="M70.022 65.6418C69.7901 64.3036 69.3645 62.6442 68.5829 61.0619C68.5829 61.0619 65.8793 60.1344 59.9423 59.8786L55.2642 56.8654C53.9104 55.9931 52.3342 55.5293 50.7239 55.5293H33.8948L34.8736 56.4146C34.8736 56.4146 32.1236 58.046 31.1449 63.1728L30.0264 64.571V65.6411V66.3913H33.2537C33.873 64.7558 35.4533 63.5929 37.305 63.5929C39.1574 63.5929 40.7377 64.7558 41.3563 66.3913H59.2561C59.8754 64.7558 61.4557 63.5929 63.3074 63.5929C65.0459 63.5929 66.545 64.6173 67.2345 66.0953C67.3184 66.2754 67.4998 66.3906 67.699 66.3906H70.1372C70.1059 66.1567 70.0677 65.9057 70.022 65.6418ZM42.9222 59.7122C41.9824 59.676 41.0541 59.4864 40.175 59.1522L36.6734 57.8196C37.4653 56.9977 38.5579 56.5332 39.6989 56.5332H51.897C53.0231 56.5332 54.1123 56.9329 54.9716 57.6606L58.0858 60.2987L42.9222 59.7122Z"
                  fill="white"/>
        </mask>
        <g mask="url(#mask19_4066_27013)">
            <path d="M31.8944 60.5637L34.4922 60.1797L34.6504 60.9477L31.3071 62.3711C31.3665 62.073 31.4497 61.7415 31.569 61.3862C31.6707 61.0806 31.7825 60.8065 31.8944 60.5637Z"
                  fill="#D4F1FF"/>
            <mask id="mask20_4066_27013" style="mask-type:luminance" maskUnits="userSpaceOnUse" x="31" y="60" width="4"
                  height="3">
                <path d="M31.8944 60.5637L34.4922 60.1797L34.6504 60.9477L31.3071 62.3711C31.3665 62.073 31.4497 61.7415 31.569 61.3862C31.6707 61.0806 31.7825 60.8065 31.8944 60.5637Z"
                      fill="white"/>
            </mask>
            <g mask="url(#mask20_4066_27013)">
                <path d="M31.5843 60.2492L34.1822 59.8652L34.3404 60.6332L30.9971 62.0566C31.0564 61.7586 31.1396 61.4271 31.259 61.0717C31.3606 60.7662 31.4724 60.492 31.5843 60.2492Z"
                      fill="white"/>
            </g>
        </g>
        <mask id="mask21_4066_27013" style="mask-type:luminance" maskUnits="userSpaceOnUse" x="30" y="55" width="41"
              height="12">
            <path d="M70.022 65.6418C69.7901 64.3036 69.3645 62.6442 68.5829 61.0619C68.5829 61.0619 65.8793 60.1344 59.9423 59.8786L55.2642 56.8654C53.9104 55.9931 52.3342 55.5293 50.7239 55.5293H33.8948L34.8736 56.4146C34.8736 56.4146 32.1236 58.046 31.1449 63.1728L30.0264 64.571V65.6411V66.3913H33.2537C33.873 64.7558 35.4533 63.5929 37.305 63.5929C39.1574 63.5929 40.7377 64.7558 41.3563 66.3913H59.2561C59.8754 64.7558 61.4557 63.5929 63.3074 63.5929C65.0459 63.5929 66.545 64.6173 67.2345 66.0953C67.3184 66.2754 67.4998 66.3906 67.699 66.3906H70.1372C70.1059 66.1567 70.0677 65.9057 70.022 65.6418ZM42.9222 59.7122C41.9824 59.676 41.0541 59.4864 40.175 59.1522L36.6734 57.8196C37.4653 56.9977 38.5579 56.5332 39.6989 56.5332H51.897C53.0231 56.5332 54.1123 56.9329 54.9716 57.6606L58.0858 60.2987L42.9222 59.7122Z"
                  fill="white"/>
        </mask>
        <g mask="url(#mask21_4066_27013)">
            <path d="M32.9807 62.1272L30.9087 62.9401L30.7539 62.5459L33.2201 61.5781C33.3054 61.7957 33.1983 62.0419 32.9807 62.1272Z"
                  fill="#193157"/>
        </g>
        <mask id="mask22_4066_27013" style="mask-type:luminance" maskUnits="userSpaceOnUse" x="30" y="55" width="41"
              height="12">
            <path d="M70.022 65.6418C69.7901 64.3036 69.3645 62.6442 68.5829 61.0619C68.5829 61.0619 65.8793 60.1344 59.9423 59.8786L55.2642 56.8654C53.9104 55.9931 52.3342 55.5293 50.7239 55.5293H33.8948L34.8736 56.4146C34.8736 56.4146 32.1236 58.046 31.1449 63.1728L30.0264 64.571V65.6411V66.3913H33.2537C33.873 64.7558 35.4533 63.5929 37.305 63.5929C39.1574 63.5929 40.7377 64.7558 41.3563 66.3913H59.2561C59.8754 64.7558 61.4557 63.5929 63.3074 63.5929C65.0459 63.5929 66.545 64.6173 67.2345 66.0953C67.3184 66.2754 67.4998 66.3906 67.699 66.3906H70.1372C70.1059 66.1567 70.0677 65.9057 70.022 65.6418ZM42.9222 59.7122C41.9824 59.676 41.0541 59.4864 40.175 59.1522L36.6734 57.8196C37.4653 56.9977 38.5579 56.5332 39.6989 56.5332H51.897C53.0231 56.5332 54.1123 56.9329 54.9716 57.6606L58.0858 60.2987L42.9222 59.7122Z"
                  fill="white"/>
        </mask>
        <g mask="url(#mask22_4066_27013)">
            <path d="M36.9382 62.3711C35.641 62.3711 34.4481 62.8171 33.5029 63.5626C33.3726 64.0448 33.0125 65.4484 32.9736 66.3923L31.763 66.8254L31.5284 66.6693C31.4349 67.073 31.3838 67.4931 31.3838 67.9255C31.3838 70.9926 33.8705 73.4793 36.9376 73.4793C40.0047 73.4793 42.4913 70.9926 42.4913 67.9255C42.492 64.8578 40.0053 62.3711 36.9382 62.3711Z"
                  fill="#91C5DE"/>
            <path d="M32.9729 66.3922C33.0111 65.449 33.3712 64.0454 33.5021 63.5625C32.5275 64.3311 31.8175 65.419 31.5283 66.6685L31.7629 66.8246L32.9729 66.3922Z"
                  fill="#7FACC2"/>
        </g>
        <path d="M39.2545 67.9278C39.2545 66.1947 37.8495 64.7891 36.1158 64.7891C34.3827 64.7891 32.9771 66.194 32.9771 67.9278C32.9771 69.6615 34.382 71.0665 36.1158 71.0665C36.8919 71.0665 37.0795 71.0617 37.8072 71.0426C38.6952 71.0194 39.2545 68.8847 39.2545 67.9278Z"
              fill="#193157"/>
        <path d="M37.4825 71.0665C39.2159 71.0665 40.6212 69.6612 40.6212 67.9278C40.6212 66.1943 39.2159 64.7891 37.4825 64.7891C35.749 64.7891 34.3438 66.1943 34.3438 67.9278C34.3438 69.6612 35.749 71.0665 37.4825 71.0665Z"
              fill="#435C85"/>
        <path d="M37.4803 70.2888C38.7844 70.2888 39.8415 69.2316 39.8415 67.9276C39.8415 66.6235 38.7844 65.5664 37.4803 65.5664C36.1763 65.5664 35.1191 66.6235 35.1191 67.9276C35.1191 69.2316 36.1763 70.2888 37.4803 70.2888Z"
              fill="#D4F1FF"/>
        <mask id="mask23_4066_27013" style="mask-type:luminance" maskUnits="userSpaceOnUse" x="35" y="65" width="5"
              height="6">
            <path d="M37.4803 70.2888C38.7844 70.2888 39.8415 69.2316 39.8415 67.9276C39.8415 66.6235 38.7844 65.5664 37.4803 65.5664C36.1763 65.5664 35.1191 66.6235 35.1191 67.9276C35.1191 69.2316 36.1763 70.2888 37.4803 70.2888Z"
                  fill="white"/>
        </mask>
        <g mask="url(#mask23_4066_27013)">
            <path d="M39.9479 68.8413L37.9556 67.9028C37.7006 67.7828 37.4107 67.8175 37.1952 67.9696L38.4003 68.5378L38.0532 69.1966L36.1162 68.2841L36.2751 67.9471C36.6277 67.1983 37.5239 66.8763 38.2728 67.229L40.0658 68.074"
                  fill="#435C85"/>
        </g>
        <path d="M65.7003 67.9278C65.7003 66.1947 64.2953 64.7891 62.5616 64.7891C60.8278 64.7891 59.4229 66.194 59.4229 67.9278C59.4229 69.6615 60.8278 71.0665 62.5616 71.0665C63.3377 71.0665 63.5253 71.0617 64.253 71.0426C65.1403 71.0194 65.7003 68.8847 65.7003 67.9278Z"
              fill="#193157"/>
        <path d="M63.9248 71.0665C65.6583 71.0665 67.0635 69.6612 67.0635 67.9278C67.0635 66.1943 65.6583 64.7891 63.9248 64.7891C62.1914 64.7891 60.7861 66.1943 60.7861 67.9278C60.7861 69.6612 62.1914 71.0665 63.9248 71.0665Z"
              fill="#435C85"/>
        <path d="M63.9232 70.2888C65.2272 70.2888 66.2844 69.2316 66.2844 67.9276C66.2844 66.6235 65.2272 65.5664 63.9232 65.5664C62.6192 65.5664 61.562 66.6235 61.562 67.9276C61.562 69.2316 62.6192 70.2888 63.9232 70.2888Z"
              fill="#D4F1FF"/>
        <mask id="mask24_4066_27013" style="mask-type:luminance" maskUnits="userSpaceOnUse" x="61" y="65" width="6"
              height="6">
            <path d="M63.9252 70.2888C65.2292 70.2888 66.2863 69.2316 66.2863 67.9276C66.2863 66.6235 65.2292 65.5664 63.9252 65.5664C62.6211 65.5664 61.564 66.6235 61.564 67.9276C61.564 69.2316 62.6211 70.2888 63.9252 70.2888Z"
                  fill="white"/>
        </mask>
        <g mask="url(#mask24_4066_27013)">
            <path d="M66.3917 68.8413L64.3995 67.9028C64.1444 67.7828 63.8546 67.8175 63.639 67.9696L64.8442 68.5378L64.497 69.1966L62.5601 68.2841L62.719 67.9471C63.0716 67.1983 63.9678 66.8763 64.7166 67.229L66.5097 68.074"
                  fill="#435C85"/>
        </g>
        <path d="M41.7251 61.488H43.939V61.2186C43.939 61.0699 43.8182 60.9492 43.6696 60.9492H42.2646C41.9665 60.9485 41.7251 61.19 41.7251 61.488Z"
              fill="#193157"/>
        <path d="M49.8569 61.488H52.0708V61.2186C52.0708 61.0699 51.9501 60.9492 51.8014 60.9492H50.3964C50.0984 60.9485 49.8569 61.19 49.8569 61.488Z"
              fill="#193157"/>
        <path d="M55.2517 60.0773H57.8052V59.0952C57.8052 58.8319 57.5917 58.6191 57.3291 58.6191H56.2038C55.6779 58.6191 55.251 59.0454 55.251 59.5719V60.0773H55.2517Z"
              fill="#193157"/>
        <path d="M38.0256 61.8224H36.0034V60.8314C36.0034 60.4194 36.3369 60.0859 36.7489 60.0859H38.0256V61.8224Z"
              fill="#69A4C2"/>
        <path fill-rule="evenodd" clip-rule="evenodd" d="M48.9795 68.3832V59.834H49.1357V68.3832H48.9795Z"
              fill="#193157"/>
        <path fill-rule="evenodd" clip-rule="evenodd"
              d="M41.5033 59.4004L41.6155 59.5091L40.5007 60.6606C40.3123 60.8706 40.208 61.1428 40.208 61.4244V64.9839H40.0518V61.4244C40.0518 61.1036 40.1708 60.7938 40.3855 60.5551L40.3865 60.554L41.5033 59.4004Z"
              fill="#193157"/>
        <path d="M58.2333 60.42L57.6665 59.6738L57.3828 59.8894L57.7341 60.3511C57.8527 60.5086 58.0764 60.5393 58.2333 60.42Z"
              fill="#193157"/>
        <path d="M32.9533 68.3822C32.9349 68.2328 32.9247 68.0807 32.9247 67.9266C32.9247 65.8532 34.6673 64.1727 36.8163 64.1727C38.9654 64.1727 40.7087 65.8532 40.7087 67.9266C40.7087 68.0807 40.6991 68.2328 40.68 68.3822H59.9624C59.944 68.2328 59.9338 68.0807 59.9338 67.9266C59.9338 65.8532 61.6763 64.1727 63.8254 64.1727C65.9745 64.1727 67.7171 65.8532 67.7171 67.9266C67.7171 68.0807 67.7075 68.2328 67.6884 68.3822H71.044C71.044 68.3822 71.044 67.5869 70.8769 66.3941H67.9967C67.3549 64.7586 65.7167 63.5957 63.7961 63.5957C61.8762 63.5957 60.2373 64.7586 59.5955 66.3941H41.0374C40.3956 64.7586 38.7574 63.5957 36.8368 63.5957C34.9162 63.5957 33.278 64.7586 32.6362 66.3941H29.2915V68.3822H32.9533Z"
              fill="#193157"/>
    </g>
    <mask id="mask25_4066_27013" style="mask-type:luminance" maskUnits="userSpaceOnUse" x="32" y="38" width="28"
          height="46">
        <path d="M59.3642 38.0352H32.2583V83.3261H59.3642V38.0352Z" fill="white"/>
    </mask>
    <g mask="url(#mask25_4066_27013)">
        <path opacity="0.26" d="M66.9238 70.0801H29.5049V71.1202H66.9238V70.0801Z" fill="#00899E"/>
    </g>
    <mask id="mask26_4066_27013" style="mask-type:luminance" maskUnits="userSpaceOnUse" x="32" y="38" width="28"
          height="46">
        <path d="M59.3642 38.0352H32.2583V83.3261H59.3642V38.0352Z" fill="white"/>
    </mask>
    <g mask="url(#mask26_4066_27013)">
        <path opacity="0.26" d="M54.0605 76.0918H16.6416V77.1319H54.0605V76.0918Z" fill="#00899E"/>
    </g>
    <mask id="mask27_4066_27013" style="mask-type:luminance" maskUnits="userSpaceOnUse" x="32" y="38" width="28"
          height="46">
        <path d="M59.3642 38.0352H32.2583V83.3261H59.3642V38.0352Z" fill="white"/>
    </mask>
    <g mask="url(#mask27_4066_27013)">
        <path d="M36.847 62.36L42.2841 66.1255L40.7154 66.7728L20.3903 65.6583L18.9116 63.0039L21.2476 62.1738L25.8888 62.2911L36.847 62.36Z"
              fill="white"/>
        <path d="M32.343 67.1799L31.6978 66.6629L35.5233 61.8887L36.4788 62.0183L32.343 67.1799Z" fill="white"/>
        <path d="M28.3969 67.3211L26.8037 66.1603L29.9792 61.8008L32.2913 61.9761L28.3969 67.3211Z" fill="white"/>
        <path d="M13.9311 69.1621L12.9395 70.4014V74.2105H53.2113C53.2113 74.2105 53.2113 71.8527 52.3874 69.1621H13.9311Z"
              fill="#7B7B7C"/>
        <mask id="mask28_4066_27013" style="mask-type:luminance" maskUnits="userSpaceOnUse" x="12" y="61" width="42"
              height="12">
            <path d="M52.9378 71.4699C52.7059 70.1317 52.2803 68.4724 51.4987 66.8901C51.4987 66.8901 48.7952 65.9625 42.8581 65.7067L38.18 62.6935C36.8262 61.8212 35.25 61.3574 33.6398 61.3574H16.8113L17.7901 62.2427C17.7901 62.2427 15.0401 63.8741 14.0614 69.0009L12.9429 70.3991V71.4692V72.2194H16.1702C16.7895 70.5839 18.3698 69.4211 20.2215 69.4211C22.0732 69.4211 23.6542 70.5839 24.2728 72.2194H42.1726C42.7919 70.5839 44.3722 69.4211 46.2239 69.4211C47.9624 69.4211 49.4615 70.4455 50.151 71.9234C50.2349 72.1035 50.4163 72.2188 50.6155 72.2188H53.0538C53.0217 71.9848 52.9835 71.7338 52.9378 71.4699ZM25.838 65.5403C24.8982 65.5042 23.9699 65.3146 23.0908 64.9804L19.5893 63.6477C20.3811 62.8258 21.4737 62.3614 22.6147 62.3614H34.8129C35.9389 62.3614 37.0281 62.761 37.8874 63.4888L41.0016 66.1269L25.838 65.5403Z"
                  fill="white"/>
        </mask>
        <g mask="url(#mask28_4066_27013)">
            <path d="M52.9357 72.0156C52.6935 70.5213 52.2482 68.6682 51.4304 66.9018C51.4304 66.9018 48.6034 65.8664 42.3942 65.5807L37.502 62.2162C36.0861 61.2423 34.4376 60.7246 32.7537 60.7246H15.1532L16.177 61.7136C16.177 61.7136 13.3008 63.5353 12.2771 69.2595L11.1074 70.8207V72.0156V72.8538H14.4828C15.13 71.028 16.7826 69.7295 18.7196 69.7295C20.6565 69.7295 22.3091 71.028 22.9563 72.8538H41.6767C42.3239 71.028 43.9765 69.7295 45.9135 69.7295C47.8504 69.7295 49.503 71.028 50.1502 72.8538H53.0557C53.023 72.5906 52.9834 72.3103 52.9357 72.0156Z"
                  fill="#7B7B7C"/>
        </g>
        <mask id="mask29_4066_27013" style="mask-type:luminance" maskUnits="userSpaceOnUse" x="12" y="61" width="42"
              height="12">
            <path d="M52.9378 71.4699C52.7059 70.1317 52.2803 68.4724 51.4987 66.8901C51.4987 66.8901 48.7952 65.9625 42.8581 65.7067L38.18 62.6935C36.8262 61.8212 35.25 61.3574 33.6398 61.3574H16.8113L17.7901 62.2427C17.7901 62.2427 15.0401 63.8741 14.0614 69.0009L12.9429 70.3991V71.4692V72.2194H16.1702C16.7895 70.5839 18.3698 69.4211 20.2215 69.4211C22.0732 69.4211 23.6542 70.5839 24.2728 72.2194H42.1726C42.7919 70.5839 44.3722 69.4211 46.2239 69.4211C47.9624 69.4211 49.4615 70.4455 50.151 71.9234C50.2349 72.1035 50.4163 72.2188 50.6155 72.2188H53.0538C53.0217 71.9848 52.9835 71.7338 52.9378 71.4699ZM25.838 65.5403C24.8982 65.5042 23.9699 65.3146 23.0908 64.9804L19.5893 63.6477C20.3811 62.8258 21.4737 62.3614 22.6147 62.3614H34.8129C35.9389 62.3614 37.0281 62.761 37.8874 63.4888L41.0016 66.1269L25.838 65.5403Z"
                  fill="white"/>
        </mask>
        <g mask="url(#mask29_4066_27013)">
            <path d="M21.7441 75.5937C23.5965 75.5937 26.015 70.5501 26.6343 72.1856L43.8706 75.147C44.4898 73.5115 46.9247 77.2613 48.7764 77.2613C50.6288 77.2613 52.0324 74.1069 52.6517 75.7424L55.5394 73.0764C55.5074 72.8404 55.345 71.6987 55.2993 71.4347C55.0674 70.0966 54.6419 68.4372 53.8602 66.8549C53.8602 66.8549 51.1567 65.9273 45.2196 65.6716L40.5416 62.6584C39.1877 61.786 37.6116 61.3223 36.0013 61.3223H19.1722L20.1509 62.2075C20.1509 62.2075 17.4166 64.019 16.4379 69.1458C16.2497 69.8606 16.0614 70.5754 15.8732 71.2895C15.6836 71.5875 15.4933 71.8862 15.3037 72.1843L18.0066 75.0965C18.6259 73.4624 19.8917 75.5937 21.7441 75.5937Z"
                  fill="#CCCCCD"/>
        </g>
        <mask id="mask30_4066_27013" style="mask-type:luminance" maskUnits="userSpaceOnUse" x="12" y="61" width="42"
              height="12">
            <path d="M52.9378 71.4699C52.7059 70.1317 52.2803 68.4724 51.4987 66.8901C51.4987 66.8901 48.7952 65.9625 42.8581 65.7067L38.18 62.6935C36.8262 61.8212 35.25 61.3574 33.6398 61.3574H16.8113L17.7901 62.2427C17.7901 62.2427 15.0401 63.8741 14.0614 69.0009L12.9429 70.3991V71.4692V72.2194H16.1702C16.7895 70.5839 18.3698 69.4211 20.2215 69.4211C22.0732 69.4211 23.6542 70.5839 24.2728 72.2194H42.1726C42.7919 70.5839 44.3722 69.4211 46.2239 69.4211C47.9624 69.4211 49.4615 70.4455 50.151 71.9234C50.2349 72.1035 50.4163 72.2188 50.6155 72.2188H53.0538C53.0217 71.9848 52.9835 71.7338 52.9378 71.4699ZM25.838 65.5403C24.8982 65.5042 23.9699 65.3146 23.0908 64.9804L19.5893 63.6477C20.3811 62.8258 21.4737 62.3614 22.6147 62.3614H34.8129C35.9389 62.3614 37.0281 62.761 37.8874 63.4888L41.0016 66.1269L25.838 65.5403Z"
                  fill="white"/>
        </mask>
        <g mask="url(#mask30_4066_27013)">
            <path d="M50.3718 68.4274H52.1001V68.0039H49.9482C49.9476 68.2378 50.1378 68.4274 50.3718 68.4274Z"
                  fill="#7B7B7C"/>
        </g>
        <mask id="mask31_4066_27013" style="mask-type:luminance" maskUnits="userSpaceOnUse" x="12" y="61" width="42"
              height="12">
            <path d="M52.9378 71.4699C52.7059 70.1317 52.2803 68.4724 51.4987 66.8901C51.4987 66.8901 48.7952 65.9625 42.8581 65.7067L38.18 62.6935C36.8262 61.8212 35.25 61.3574 33.6398 61.3574H16.8113L17.7901 62.2427C17.7901 62.2427 15.0401 63.8741 14.0614 69.0009L12.9429 70.3991V71.4692V72.2194H16.1702C16.7895 70.5839 18.3698 69.4211 20.2215 69.4211C22.0732 69.4211 23.6542 70.5839 24.2728 72.2194H42.1726C42.7919 70.5839 44.3722 69.4211 46.2239 69.4211C47.9624 69.4211 49.4615 70.4455 50.151 71.9234C50.2349 72.1035 50.4163 72.2188 50.6155 72.2188H53.0538C53.0217 71.9848 52.9835 71.7338 52.9378 71.4699ZM25.838 65.5403C24.8982 65.5042 23.9699 65.3146 23.0908 64.9804L19.5893 63.6477C20.3811 62.8258 21.4737 62.3614 22.6147 62.3614H34.8129C35.9389 62.3614 37.0281 62.761 37.8874 63.4888L41.0016 66.1269L25.838 65.5403Z"
                  fill="white"/>
        </mask>
        <g mask="url(#mask31_4066_27013)">
            <path d="M52.497 66.8379H49.0241L48.7588 68.0226H52.497" fill="white"/>
            <mask id="mask32_4066_27013" style="mask-type:luminance" maskUnits="userSpaceOnUse" x="48" y="66" width="5"
                  height="3">
                <path d="M52.5004 66.8398H49.0275L48.7622 68.0245H52.5004" fill="white"/>
            </mask>
            <g mask="url(#mask32_4066_27013)">
                <path d="M52.9786 66.6035H49.5051L49.2397 67.7875H52.9786" fill="white"/>
            </g>
        </g>
        <mask id="mask33_4066_27013" style="mask-type:luminance" maskUnits="userSpaceOnUse" x="12" y="61" width="42"
              height="12">
            <path d="M52.9378 71.4699C52.7059 70.1317 52.2803 68.4724 51.4987 66.8901C51.4987 66.8901 48.7952 65.9625 42.8581 65.7067L38.18 62.6935C36.8262 61.8212 35.25 61.3574 33.6398 61.3574H16.8113L17.7901 62.2427C17.7901 62.2427 15.0401 63.8741 14.0614 69.0009L12.9429 70.3991V71.4692V72.2194H16.1702C16.7895 70.5839 18.3698 69.4211 20.2215 69.4211C22.0732 69.4211 23.6542 70.5839 24.2728 72.2194H42.1726C42.7919 70.5839 44.3722 69.4211 46.2239 69.4211C47.9624 69.4211 49.4615 70.4455 50.151 71.9234C50.2349 72.1035 50.4163 72.2188 50.6155 72.2188H53.0538C53.0217 71.9848 52.9835 71.7338 52.9378 71.4699ZM25.838 65.5403C24.8982 65.5042 23.9699 65.3146 23.0908 64.9804L19.5893 63.6477C20.3811 62.8258 21.4737 62.3614 22.6147 62.3614H34.8129C35.9389 62.3614 37.0281 62.761 37.8874 63.4888L41.0016 66.1269L25.838 65.5403Z"
                  fill="white"/>
        </mask>
        <g mask="url(#mask33_4066_27013)">
            <path d="M42.1738 72.271V69.4727H29.8468C28.1758 69.4727 26.5676 70.111 25.3509 71.2568L24.2739 72.271"
                  fill="#DADADA"/>
        </g>
        <mask id="mask34_4066_27013" style="mask-type:luminance" maskUnits="userSpaceOnUse" x="12" y="61" width="42"
              height="12">
            <path d="M52.9378 71.4699C52.7059 70.1317 52.2803 68.4724 51.4987 66.8901C51.4987 66.8901 48.7952 65.9625 42.8581 65.7067L38.18 62.6935C36.8262 61.8212 35.25 61.3574 33.6398 61.3574H16.8113L17.7901 62.2427C17.7901 62.2427 15.0401 63.8741 14.0614 69.0009L12.9429 70.3991V71.4692V72.2194H16.1702C16.7895 70.5839 18.3698 69.4211 20.2215 69.4211C22.0732 69.4211 23.6542 70.5839 24.2728 72.2194H42.1726C42.7919 70.5839 44.3722 69.4211 46.2239 69.4211C47.9624 69.4211 49.4615 70.4455 50.151 71.9234C50.2349 72.1035 50.4163 72.2188 50.6155 72.2188H53.0538C53.0217 71.9848 52.9835 71.7338 52.9378 71.4699ZM25.838 65.5403C24.8982 65.5042 23.9699 65.3146 23.0908 64.9804L19.5893 63.6477C20.3811 62.8258 21.4737 62.3614 22.6147 62.3614H34.8129C35.9389 62.3614 37.0281 62.761 37.8874 63.4888L41.0016 66.1269L25.838 65.5403Z"
                  fill="white"/>
        </mask>
        <g mask="url(#mask34_4066_27013)">
            <path d="M33.375 69.9336H32.0498V72.2198H33.375V69.9336Z" fill="#E5E5E6"/>
        </g>
        <mask id="mask35_4066_27013" style="mask-type:luminance" maskUnits="userSpaceOnUse" x="12" y="61" width="42"
              height="12">
            <path d="M52.9378 71.4699C52.7059 70.1317 52.2803 68.4724 51.4987 66.8901C51.4987 66.8901 48.7952 65.9625 42.8581 65.7067L38.18 62.6935C36.8262 61.8212 35.25 61.3574 33.6398 61.3574H16.8113L17.7901 62.2427C17.7901 62.2427 15.0401 63.8741 14.0614 69.0009L12.9429 70.3991V71.4692V72.2194H16.1702C16.7895 70.5839 18.3698 69.4211 20.2215 69.4211C22.0732 69.4211 23.6542 70.5839 24.2728 72.2194H42.1726C42.7919 70.5839 44.3722 69.4211 46.2239 69.4211C47.9624 69.4211 49.4615 70.4455 50.151 71.9234C50.2349 72.1035 50.4163 72.2188 50.6155 72.2188H53.0538C53.0217 71.9848 52.9835 71.7338 52.9378 71.4699ZM25.838 65.5403C24.8982 65.5042 23.9699 65.3146 23.0908 64.9804L19.5893 63.6477C20.3811 62.8258 21.4737 62.3614 22.6147 62.3614H34.8129C35.9389 62.3614 37.0281 62.761 37.8874 63.4888L41.0016 66.1269L25.838 65.5403Z"
                  fill="white"/>
        </mask>
        <g mask="url(#mask35_4066_27013)">
            <path d="M46.6197 79.3068C49.687 79.3068 52.1735 76.8203 52.1735 73.753C52.1735 70.6857 49.687 68.1992 46.6197 68.1992C43.5524 68.1992 41.0659 70.6857 41.0659 73.753C41.0659 76.8203 43.5524 79.3068 46.6197 79.3068Z"
                  fill="#E5E5E6"/>
        </g>
        <mask id="mask36_4066_27013" style="mask-type:luminance" maskUnits="userSpaceOnUse" x="12" y="61" width="42"
              height="12">
            <path d="M52.9378 71.4699C52.7059 70.1317 52.2803 68.4724 51.4987 66.8901C51.4987 66.8901 48.7952 65.9625 42.8581 65.7067L38.18 62.6935C36.8262 61.8212 35.25 61.3574 33.6398 61.3574H16.8113L17.7901 62.2427C17.7901 62.2427 15.0401 63.8741 14.0614 69.0009L12.9429 70.3991V71.4692V72.2194H16.1702C16.7895 70.5839 18.3698 69.4211 20.2215 69.4211C22.0732 69.4211 23.6542 70.5839 24.2728 72.2194H42.1726C42.7919 70.5839 44.3722 69.4211 46.2239 69.4211C47.9624 69.4211 49.4615 70.4455 50.151 71.9234C50.2349 72.1035 50.4163 72.2188 50.6155 72.2188H53.0538C53.0217 71.9848 52.9835 71.7338 52.9378 71.4699ZM25.838 65.5403C24.8982 65.5042 23.9699 65.3146 23.0908 64.9804L19.5893 63.6477C20.3811 62.8258 21.4737 62.3614 22.6147 62.3614H34.8129C35.9389 62.3614 37.0281 62.761 37.8874 63.4888L41.0016 66.1269L25.838 65.5403Z"
                  fill="white"/>
        </mask>
        <g mask="url(#mask36_4066_27013)">
            <path d="M52.762 70.4141H51.6141L50.8325 72.5243H53.2162L52.762 70.4141Z" fill="white"/>
        </g>
        <path d="M48.6085 73.752C48.6085 72.0189 47.2035 70.6133 45.4698 70.6133C43.736 70.6133 42.3311 72.0183 42.3311 73.752C42.3311 75.4857 43.736 76.8907 45.4698 76.8907C46.2459 76.8907 46.4335 76.8859 47.1612 76.8668C48.0492 76.8436 48.6085 74.7096 48.6085 73.752Z"
              fill="#7B7B7C"/>
        <path d="M46.833 76.8907C48.5665 76.8907 49.9717 75.4854 49.9717 73.752C49.9717 72.0185 48.5665 70.6133 46.833 70.6133C45.0996 70.6133 43.6943 72.0185 43.6943 73.752C43.6943 75.4854 45.0996 76.8907 46.833 76.8907Z"
              fill="#A2A2A2"/>
        <path d="M46.8295 76.111C48.1335 76.111 49.1906 75.0539 49.1906 73.7499C49.1906 72.4458 48.1335 71.3887 46.8295 71.3887C45.5254 71.3887 44.4683 72.4458 44.4683 73.7499C44.4683 75.0539 45.5254 76.111 46.8295 76.111Z"
              fill="white"/>
        <mask id="mask37_4066_27013" style="mask-type:luminance" maskUnits="userSpaceOnUse" x="44" y="71" width="6"
              height="6">
            <path d="M46.8275 76.111C48.1315 76.111 49.1887 75.0539 49.1887 73.7499C49.1887 72.4458 48.1315 71.3887 46.8275 71.3887C45.5234 71.3887 44.4663 72.4458 44.4663 73.7499C44.4663 75.0539 45.5234 76.111 46.8275 76.111Z"
                  fill="white"/>
        </mask>
        <g mask="url(#mask37_4066_27013)">
            <path d="M49.2994 74.6635L47.3072 73.7251C47.0521 73.605 46.7623 73.6398 46.5467 73.7919L47.7519 74.36L47.4047 75.0189L45.4678 74.1063L45.6267 73.7694C45.9793 73.0205 46.8755 72.6986 47.6244 73.0512L49.4174 73.8963"
                  fill="#A2A2A2"/>
        </g>
        <path d="M32.7651 67.3103H34.979V67.0409C34.979 66.8922 34.8583 66.7715 34.7096 66.7715H33.3046C33.0066 66.7708 32.7651 67.0122 32.7651 67.3103Z"
              fill="#7B7B7C"/>
        <path d="M38.1633 65.9015H40.7168V64.9194C40.7168 64.6562 40.5033 64.4434 40.2407 64.4434H39.1154C38.5895 64.4434 38.1626 64.8696 38.1626 65.3962V65.9015H38.1633Z"
              fill="#7B7B7C"/>
        <path d="M41.1415 66.2442L40.5747 65.498L40.291 65.7136L40.6423 66.1753C40.7616 66.3329 40.9853 66.3635 41.1415 66.2442Z"
              fill="#7B7B7C"/>
        <path d="M15.8636 74.2064C15.8452 74.057 15.8349 73.905 15.8349 73.7508C15.8349 71.6774 17.5775 69.9969 19.7266 69.9969C21.8757 69.9969 23.6183 71.6774 23.6183 73.7508C23.6183 73.905 23.6087 74.057 23.5896 74.2064H42.872C42.8536 74.057 42.8433 73.905 42.8433 73.7508C42.8433 71.6774 44.5859 69.9969 46.735 69.9969C48.8841 69.9969 50.6267 71.6774 50.6267 73.7508C50.6267 73.905 50.6171 74.057 50.598 74.2064H53.9536C53.9536 74.2064 53.9536 73.4112 53.7865 72.2183H50.9063C50.2645 70.5828 48.6263 69.4199 46.7057 69.4199C44.7858 69.4199 43.1468 70.5828 42.505 72.2183H23.947C23.3052 70.5828 21.667 69.4199 19.7464 69.4199C17.8265 69.4199 16.1875 70.5828 15.5457 72.2183H12.1997V74.2064H15.8636Z"
              fill="#7B7B7C"/>
    </g>
    <path d="M59.3696 78.5312H32.2637V83.3266H59.3696V78.5312Z" fill="#00BD72"/>
    <path d="M50.9084 40.1088H40.7216C39.5567 40.1088 38.6128 39.1649 38.6128 38H53.0173C53.0173 39.1642 52.0727 40.1088 50.9084 40.1088Z"
          fill="#00BD72"/>
    <path fill-rule="evenodd" clip-rule="evenodd"
          d="M45.8144 79.7378C45.1567 79.7378 44.6236 80.271 44.6236 80.9286C44.6236 81.5863 45.1567 82.1195 45.8144 82.1195C46.4721 82.1195 47.0052 81.5863 47.0052 80.9286C47.0052 80.271 46.4721 79.7378 45.8144 79.7378ZM44.4189 80.9286C44.4189 80.158 45.0437 79.5332 45.8144 79.5332C46.5851 79.5332 47.2098 80.158 47.2098 80.9286C47.2098 81.6993 46.5851 82.3241 45.8144 82.3241C45.0437 82.3241 44.4189 81.6993 44.4189 80.9286Z"
          fill="#D6F8FF"/>
    <path fill-rule="evenodd" clip-rule="evenodd" d="M51.1134 38.9385H40.2827V38.8262H51.1134V38.9385Z" fill="#53B77B"/>
    <path fill-rule="evenodd" clip-rule="evenodd"
          d="M69.5221 55.7948L68.5141 59.1661L68.2988 59.1017L69.3069 55.7305L69.5221 55.7948Z" fill="#193157"/>
    <path fill-rule="evenodd" clip-rule="evenodd"
          d="M71.7267 59.6909L70.034 60.4609L69.9409 60.2563L71.6337 59.4863L71.7267 59.6909Z" fill="#193157"/>
    <path d="M82.8945 64.8184L82.3945 82.0642L84.1023 81.8023C84.459 77.1945 84.7748 72.1816 85.1315 67.5738C85.2195 66.7103 85.388 65.7296 85.4753 64.8661C84.6418 64.8109 83.7279 64.8736 82.8945 64.8184Z"
          fill="#002D5D"/>
    <path d="M87.2936 64.4434C87.3263 64.768 87.359 65.0926 87.3918 65.4173C87.7151 70.879 88.0383 76.3407 88.3609 81.8024L86.9048 82.0643C86.2535 76.3639 85.6028 70.6635 84.9521 64.9631"
          fill="#194C82"/>
    <path d="M85.7643 53.6896C85.7643 53.6896 86.2472 53.5532 86.34 53.9986C86.432 54.4439 85.4595 54.7959 85.4595 54.7959L85.7643 53.6896Z"
          fill="#E39184"/>
    <path d="M87.5826 61.0803C87.5267 62.3905 87.4715 63.7007 87.4156 65.0109C86.6619 64.9877 85.9083 64.9652 85.1546 64.942C84.401 64.9188 83.6473 64.8963 82.8937 64.8731C82.8719 63.3167 82.85 61.7603 82.8282 60.2032C82.7539 59.6024 82.6823 58.9954 82.6141 58.3822C82.569 57.9791 82.5268 57.5788 82.4858 57.1812C83.2218 56.879 83.957 56.5769 84.6929 56.2747C85.0237 56.1656 85.3545 56.0551 85.6852 55.9453C85.9833 56.0688 86.2957 56.2127 86.6176 56.3804C87.3207 56.7467 87.9148 57.1464 88.4045 57.5263C88.1535 57.9239 87.9025 58.3215 87.6515 58.7184C87.6283 59.5062 87.6052 60.2933 87.5826 61.0803Z"
          fill="#588DC4"/>
    <path d="M84.8574 57.0298C84.9638 57.0708 85.1589 57.1301 85.4037 57.1117C85.4672 57.1069 85.7877 57.0776 86.0953 56.8361C86.3292 56.6527 86.4438 56.4358 86.495 56.3185C86.3572 56.2557 86.2188 56.1937 86.081 56.1309C85.9432 56.0682 85.8048 56.0061 85.667 55.9434C85.3976 56.3062 85.1275 56.6677 84.8574 57.0298Z"
          fill="#002D5D"/>
    <path d="M85.3441 54.3555L85.842 56.0121C85.842 56.0121 85.5849 57.2937 84.8101 57.2091C84.8101 57.2091 84.5468 57.1709 84.5298 57.0515L84.2617 55.65L85.3441 54.3555Z"
          fill="#E39184"/>
    <path d="M84.2441 55.5777C84.2851 55.7905 84.3253 56.0033 84.3662 56.2161C84.5661 56.1697 84.7911 56.0995 85.0264 55.9904C85.096 55.9583 85.1615 55.9249 85.2242 55.8908C85.2685 55.7967 85.289 55.7162 85.2999 55.6596C85.3149 55.5791 85.3163 55.4979 85.3204 55.3363C85.3211 55.309 85.3217 55.2701 85.3217 55.2183C85.3211 55.0976 85.3163 54.9905 85.3088 54.8984C84.9535 55.1249 84.5988 55.3513 84.2441 55.5777Z"
          fill="#002D5D"/>
    <path d="M84.089 52.082C84.089 52.082 83.6286 52.0875 83.452 53.1569C83.2753 54.2263 83.5925 55.825 83.5925 55.825C83.5925 55.825 84.8058 55.9164 85.1441 55.7882C85.3119 55.3585 85.4796 54.9281 85.6474 54.4985L85.8814 53.163L85.8745 52.6092L84.089 52.082Z"
          fill="#E39184"/>
    <path d="M85.2446 52.4235C85.2446 52.4235 84.3082 52.4706 83.9023 52.1616L84.0394 51.8281L85.2439 52.1057L86.3386 52.6009L86.3802 53.0694L85.9723 53.7378L85.7377 53.9806L85.5706 54.5092L85.2732 54.4403C85.3482 54.1027 85.4233 53.7658 85.4983 53.4282C85.5433 53.4016 85.6183 53.3497 85.6784 53.2583C85.7786 53.1056 85.7684 52.9473 85.7636 52.8969C85.7356 52.8328 85.6886 52.7461 85.2446 52.4235Z"
          fill="#002D5D"/>
    <path fill-rule="evenodd" clip-rule="evenodd"
          d="M84.1069 53.0312L84.2012 53.0506L83.9903 54.0784L83.9835 54.0872C83.9248 54.1633 83.866 54.2394 83.8072 54.3154C83.7573 54.3799 83.7074 54.4444 83.6576 54.5089C83.6945 54.5414 83.7425 54.5763 83.8024 54.606C83.9676 54.688 84.1252 54.6793 84.198 54.6703L84.2098 54.7658C84.1285 54.7759 83.9491 54.7863 83.7596 54.6923C83.6701 54.6479 83.6039 54.5933 83.5587 54.5482L83.5288 54.5182L83.5547 54.4847C83.6133 54.4086 83.6722 54.3326 83.731 54.2565L83.731 54.2565C83.7876 54.1834 83.8441 54.1103 83.9005 54.0372L84.1069 53.0312Z"
          fill="#002D5D"/>
    <path d="M85.1949 53.3641C85.1949 53.3641 85.1956 53.3648 85.1962 53.3641C85.201 53.3621 85.1955 53.3068 85.1867 53.2414C85.1123 53.1909 85.0203 53.1391 84.9105 53.0981C84.7331 53.032 84.5715 53.0163 84.4487 53.0177C84.4528 53.0674 84.4576 53.1166 84.4617 53.1663C84.4617 53.167 85.0189 53.2455 85.1949 53.3641Z"
          fill="#002D5D"/>
    <path d="M83.9709 53.1049L84.0125 52.9828C83.9498 52.976 83.8823 52.9719 83.8113 52.9698C83.7193 52.9671 83.6319 52.9698 83.5515 52.9753C83.5378 53.0107 83.5249 53.0462 83.5112 53.0824C83.6647 53.0899 83.8181 53.0974 83.9709 53.1049Z"
          fill="#002D5D"/>
    <path fill-rule="evenodd" clip-rule="evenodd"
          d="M84.8557 54.8701C84.81 54.9282 84.7173 55.0289 84.568 55.1006L84.5679 55.1006C84.3955 55.1832 84.2384 55.1846 84.1631 55.1803L84.1686 55.0842C84.2352 55.088 84.3741 55.0867 84.5263 55.0138C84.658 54.9505 84.7399 54.8616 84.7801 54.8105L84.8557 54.8701Z"
          fill="#002D5D"/>
    <path d="M79.8885 58.3574L77.8247 59.2468L78.2414 60.5297L80.4689 59.6335L79.8885 58.3574Z" fill="#E39184"/>
    <path fill-rule="evenodd" clip-rule="evenodd"
          d="M84.438 53.7887C84.438 53.7887 84.438 53.7887 84.474 53.786C84.51 53.7833 84.51 53.7832 84.51 53.7832L84.51 53.7832L84.51 53.7833L84.51 53.7838C84.5101 53.7844 84.5102 53.7853 84.5103 53.7865C84.5106 53.789 84.5111 53.7928 84.5118 53.7978C84.5133 53.8077 84.5158 53.822 84.52 53.8392C84.5286 53.8737 84.5438 53.9187 84.5703 53.962C84.5967 54.0052 84.6339 54.0461 84.6866 54.074C84.739 54.1018 84.8092 54.118 84.904 54.1081L84.9115 54.1799C84.8044 54.1912 84.7195 54.1732 84.6527 54.1378C84.5862 54.1026 84.5402 54.0513 84.5087 53.9997C84.4772 53.9482 84.4596 53.8958 84.4499 53.8565C84.4451 53.8368 84.4421 53.8202 84.4404 53.8084C84.4395 53.8024 84.4389 53.7977 84.4385 53.7944C84.4383 53.7927 84.4382 53.7913 84.4381 53.7904L84.438 53.7892L84.438 53.7889L84.438 53.7887L84.438 53.7887Z"
          fill="#002D5D"/>
    <path fill-rule="evenodd" clip-rule="evenodd"
          d="M83.7119 53.8984C83.7948 53.8522 83.8442 53.7914 83.869 53.7559L83.9282 53.7971C83.8998 53.838 83.8429 53.9081 83.7471 53.9615C83.6738 54.0025 83.6051 54.0178 83.5608 54.0243L83.5503 53.9529C83.5892 53.9471 83.6487 53.9338 83.7118 53.8984L83.7119 53.8984Z"
          fill="#002D5D"/>
    <path d="M84.6111 53.8776C84.7019 53.8776 84.7755 53.804 84.7755 53.7132C84.7755 53.6224 84.7019 53.5488 84.6111 53.5488C84.5204 53.5488 84.4468 53.6224 84.4468 53.7132C84.4468 53.804 84.5204 53.8776 84.6111 53.8776Z"
          fill="#002D5D"/>
    <path d="M83.653 53.7484C83.7302 53.7484 83.7928 53.6858 83.7928 53.6086C83.7928 53.5313 83.7302 53.4688 83.653 53.4688C83.5758 53.4688 83.5132 53.5313 83.5132 53.6086C83.5132 53.6858 83.5758 53.7484 83.653 53.7484Z"
          fill="#002D5D"/>
    <path d="M79.8706 58.3581L80.318 59.7113C81.1917 59.3716 82.0654 59.032 82.9391 58.693C82.8934 58.4836 82.8483 58.2736 82.8027 58.0642C82.8893 57.6788 82.5012 57.5233 82.5878 57.1387C81.5238 57.6215 80.9346 57.8753 79.8706 58.3581Z"
          fill="#588DC4"/>
    <path d="M80.8584 59.4943L82.6801 58.7945L82.6303 58.1152L80.2861 59.4547C80.3612 59.6143 80.3912 59.4691 80.4662 59.6287C80.5951 59.5659 80.7288 59.557 80.8584 59.4943Z"
          fill="#002D5D"/>
    <path d="M79.8706 58.3594L80.2437 59.7384L80.466 59.6286L79.8706 58.3594Z" fill="#002D5D"/>
    <path fill-rule="evenodd" clip-rule="evenodd"
          d="M86.0087 54.0811C86.0087 54.0812 86.0087 54.0812 85.9921 54.1264C85.9755 54.1716 85.9756 54.1716 85.9756 54.1716L85.9756 54.1716L85.9754 54.1715L85.9738 54.171C85.9724 54.1705 85.97 54.1697 85.9668 54.1687C85.9605 54.1668 85.9509 54.1642 85.939 54.1615C85.915 54.1562 85.8818 54.1509 85.845 54.151C85.7713 54.1511 85.6879 54.1722 85.6282 54.2515L85.5513 54.1936C85.6355 54.0818 85.7532 54.0549 85.8448 54.0547C85.8906 54.0546 85.931 54.0611 85.96 54.0675C85.9745 54.0708 85.9863 54.0741 85.9946 54.0766C85.9988 54.0778 86.0021 54.0789 86.0045 54.0797C86.0057 54.0801 86.0066 54.0804 86.0073 54.0807L86.0082 54.081L86.0085 54.0811L86.0086 54.0811L86.0087 54.0811Z"
          fill="#002D5D"/>
    <path d="M86.9065 82.0646L86.3479 82.941L85.3999 83.3087L85.5336 83.5453L88.4233 83.3987L88.3626 81.8027"
          fill="#193157"/>
    <path d="M82.3952 81.9787L82.0781 82.941L81.1294 83.3087L81.2631 83.5453L84.1535 83.3987L84.0921 81.8027"
          fill="#193157"/>
    <path d="M77.83 59.2441L74.7983 60.3981L75.1796 61.5583L78.2405 60.5291L77.83 59.2441Z" fill="#E39184"/>
    <path d="M89.4623 60.6133L90.5071 62.6028L89.3763 63.338L88.208 61.2401L89.4623 60.6133Z" fill="#E39184"/>
    <path d="M89.4637 60.6138L88.1856 61.244L87.3569 59.247L87.6168 58.3181C87.8521 58.0337 88.0874 57.7493 88.3234 57.4648C88.3554 57.4887 88.3875 57.5119 88.4189 57.5358C88.6712 58.0132 88.8097 58.4183 88.8888 58.698C88.9774 59.0103 88.9931 59.1686 89.0886 59.528C89.2148 60.0027 89.3614 60.3751 89.4637 60.6138Z"
          fill="#588DC4"/>
    <path d="M87.9639 60.705L87.3569 59.3301L88.2395 60.2188L88.6426 60.9035C88.4761 60.9622 88.3104 61.0208 88.144 61.0795C88.0976 60.9424 88.0103 60.8415 87.9639 60.705Z"
          fill="#002D5D"/>
    <path d="M89.465 60.6133L88.2203 61.3144L88.1426 61.0784L89.465 60.6133Z" fill="#002D5D"/>
    <path d="M90.8768 63.2083L88.4256 65.3329L87.584 64.4483L90.1627 61.9473L90.8768 63.2083Z" fill="#E39184"/>
    <path d="M87.7589 64.2807L87.4677 63.8477L87.4466 64.5774L86.5483 65.6312C86.5483 65.6312 86.6841 65.681 87.008 65.5377L86.8171 65.8317C86.8171 65.8317 86.8266 66.0349 87.0101 65.9947C87.1942 65.9544 87.2549 66.1986 87.3879 66.112C87.5209 66.0254 88.426 65.3311 88.426 65.3311L87.7589 64.2807Z"
          fill="#E39184"/>
    <path d="M73.9052 60.8791C73.8179 60.9269 73.7299 60.9739 73.6426 61.0217C73.6406 61.0605 73.6412 61.1083 73.6487 61.1615C73.659 61.2317 73.6781 61.2904 73.6958 61.334C73.7865 61.3368 73.8308 61.3456 73.9215 61.3484C73.9215 61.3484 73.9038 61.6525 74.1296 61.6778L74.1828 61.6485C74.1828 61.6485 74.2325 62.0106 74.3976 61.9213C74.5695 61.8278 75.4322 61.4357 75.4322 61.4357L74.8382 60.5531C74.6581 60.5367 74.4317 60.5361 74.1773 60.5824C74.0723 60.6015 73.9761 60.6268 73.8895 60.6534C73.8943 60.7284 73.8997 60.8041 73.9052 60.8791Z"
          fill="#DB6958"/>
    <mask id="mask38_4066_27013" style="mask-type:luminance" maskUnits="userSpaceOnUse" x="73" y="60" width="3"
          height="2">
        <path d="M73.9027 60.8791C73.8154 60.9269 73.7275 60.9739 73.6402 61.0217C73.6381 61.0605 73.6388 61.1083 73.6463 61.1615C73.6565 61.2317 73.6756 61.2904 73.6933 61.334C73.7841 61.3368 73.8284 61.3456 73.9191 61.3484C73.9191 61.3484 73.9014 61.6525 74.1271 61.6778L74.1803 61.6485C74.1803 61.6485 74.2301 62.0106 74.3952 61.9213C74.567 61.8278 75.4298 61.4357 75.4298 61.4357L74.8357 60.5531C74.6557 60.5367 74.4293 60.5361 74.1749 60.5824C74.0698 60.6015 73.9737 60.6268 73.8871 60.6534C73.8918 60.7284 73.8973 60.8041 73.9027 60.8791Z"
              fill="white"/>
    </mask>
    <g mask="url(#mask38_4066_27013)">
        <path d="M74.1784 61.647L74.9341 61.3633C74.9341 61.3633 74.9409 61.5822 74.3933 61.9191C73.8456 62.2567 74.1123 61.7527 74.1123 61.7527L74.1784 61.647C74.1784 61.647 74.3783 61.7459 74.3858 61.8325L74.1784 61.647Z"
              fill="#E39184"/>
    </g>
    <mask id="mask39_4066_27013" style="mask-type:luminance" maskUnits="userSpaceOnUse" x="73" y="60" width="3"
          height="2">
        <path d="M73.9027 60.8791C73.8154 60.9269 73.7275 60.9739 73.6402 61.0217C73.6381 61.0605 73.6388 61.1083 73.6463 61.1615C73.6565 61.2317 73.6756 61.2904 73.6933 61.334C73.7841 61.3368 73.8284 61.3456 73.9191 61.3484C73.9191 61.3484 73.9014 61.6525 74.1271 61.6778L74.1803 61.6485C74.1803 61.6485 74.2301 62.0106 74.3952 61.9213C74.567 61.8278 75.4298 61.4357 75.4298 61.4357L74.8357 60.5531C74.6557 60.5367 74.4293 60.5361 74.1749 60.5824C74.0698 60.6015 73.9737 60.6268 73.8871 60.6534C73.8918 60.7284 73.8973 60.8041 73.9027 60.8791Z"
              fill="white"/>
    </mask>
    <g mask="url(#mask39_4066_27013)">
        <path d="M73.8878 61.7446C73.7664 61.5966 73.881 61.3034 74.1422 61.0885C74.4041 60.8744 74.7145 60.8205 74.8352 60.9678C74.9566 61.1158 74.842 61.4091 74.5808 61.6239C74.3196 61.8387 74.0086 61.8919 73.8878 61.7446Z"
              fill="url(#paint3_radial_4066_27013)"/>
    </g>
    <mask id="mask40_4066_27013" style="mask-type:luminance" maskUnits="userSpaceOnUse" x="73" y="60" width="3"
          height="2">
        <path d="M73.9027 60.8791C73.8154 60.9269 73.7275 60.9739 73.6402 61.0217C73.6381 61.0605 73.6388 61.1083 73.6463 61.1615C73.6565 61.2317 73.6756 61.2904 73.6933 61.334C73.7841 61.3368 73.8284 61.3456 73.9191 61.3484C73.9191 61.3484 73.9014 61.6525 74.1271 61.6778L74.1803 61.6485C74.1803 61.6485 74.2301 62.0106 74.3952 61.9213C74.567 61.8278 75.4298 61.4357 75.4298 61.4357L74.8357 60.5531C74.6557 60.5367 74.4293 60.5361 74.1749 60.5824C74.0698 60.6015 73.9737 60.6268 73.8871 60.6534C73.8918 60.7284 73.8973 60.8041 73.9027 60.8791Z"
              fill="white"/>
    </mask>
    <g mask="url(#mask40_4066_27013)">
        <path d="M73.9175 61.3481L74.6603 61.0664C74.6603 61.0664 74.7926 61.2001 74.6153 61.3788C74.4386 61.5575 74.1781 61.6475 74.1781 61.6475L73.921 61.8535L73.73 61.6175L73.9175 61.3481Z"
              fill="#E39184"/>
    </g>
    <path d="M74.2799 60.4355L72.6895 60.8857C72.6895 60.8857 72.935 61.153 73.2917 61.0112L74.2922 60.7281L74.2799 60.4355Z"
          fill="#E39184"/>
    <path d="M74.0182 61.5524C73.8211 61.3116 73.8791 60.9378 74.1485 60.7176C74.4172 60.4973 74.7958 60.5136 74.9929 60.7544C75.19 60.9951 75.132 61.3689 74.8626 61.5892C74.5932 61.8088 74.2154 61.7924 74.0182 61.5524Z"
          fill="url(#paint4_radial_4066_27013)"/>
    <path d="M74.7931 60.4023L74.272 60.4371L74.0845 61.467C74.0845 61.467 74.3464 61.6314 74.5783 61.0332C74.5783 61.0332 74.6178 61.1955 75.0761 61.0053L75.2889 60.9145"
          fill="#E39184"/>
    <defs>
        <linearGradient id="paint0_linear_4066_27013" x1="-4.93141" y1="140.93" x2="-1.34307" y2="30.7659"
                        gradientUnits="userSpaceOnUse">
            <stop stop-color="#00341F"/>
            <stop offset="1" stop-color="#009B5D"/>
        </linearGradient>
        <radialGradient id="paint1_radial_4066_27013" cx="0" cy="0" r="1" gradientUnits="userSpaceOnUse"
                        gradientTransform="translate(68.2338 65.5311) scale(32.3524 2.04528)">
            <stop stop-color="#858588"/>
            <stop offset="0.1898" stop-color="#89898C" stop-opacity="0.8102"/>
            <stop offset="0.3749" stop-color="#959597" stop-opacity="0.6251"/>
            <stop offset="0.5582" stop-color="#A8A8AA" stop-opacity="0.4418"/>
            <stop offset="0.7404" stop-color="#C4C4C5" stop-opacity="0.2596"/>
            <stop offset="0.9202" stop-color="#E7E7E7" stop-opacity="0.0798"/>
            <stop offset="1" stop-color="#F9F9F9" stop-opacity="0"/>
        </radialGradient>
        <radialGradient id="paint2_radial_4066_27013" cx="0" cy="0" r="1" gradientUnits="userSpaceOnUse"
                        gradientTransform="translate(46.101 62.9565) scale(16.9335)">
            <stop offset="0.0027933" stop-color="white"/>
            <stop offset="1" stop-color="#F7F7F7" stop-opacity="0"/>
        </radialGradient>
        <radialGradient id="paint3_radial_4066_27013" cx="0" cy="0" r="1" gradientUnits="userSpaceOnUse"
                        gradientTransform="translate(74.3548 61.3521) rotate(140.673) scale(0.612511 0.34598)">
            <stop offset="0.3296" stop-color="#DB6958"/>
            <stop offset="0.4639" stop-color="#DC6C5B" stop-opacity="0.7997"/>
            <stop offset="0.5683" stop-color="#DE7565" stop-opacity="0.644"/>
            <stop offset="0.6625" stop-color="#E18375" stop-opacity="0.5034"/>
            <stop offset="0.7508" stop-color="#E6988D" stop-opacity="0.3717"/>
            <stop offset="0.835" stop-color="#EDB3AB" stop-opacity="0.2461"/>
            <stop offset="0.916" stop-color="#F5D5D0" stop-opacity="0.1252"/>
            <stop offset="0.9932" stop-color="#FEFBFB" stop-opacity="0.0101"/>
            <stop offset="1" stop-color="white" stop-opacity="0"/>
        </radialGradient>
        <radialGradient id="paint4_radial_4066_27013" cx="0" cy="0" r="1" gradientUnits="userSpaceOnUse"
                        gradientTransform="translate(74.5124 61.1552) rotate(140.67) scale(0.629743 0.563141)">
            <stop offset="0.3296" stop-color="#DB6958"/>
            <stop offset="0.4639" stop-color="#DC6C5B" stop-opacity="0.7997"/>
            <stop offset="0.5683" stop-color="#DE7565" stop-opacity="0.644"/>
            <stop offset="0.6625" stop-color="#E18375" stop-opacity="0.5034"/>
            <stop offset="0.7508" stop-color="#E6988D" stop-opacity="0.3717"/>
            <stop offset="0.835" stop-color="#EDB3AB" stop-opacity="0.2461"/>
            <stop offset="0.916" stop-color="#F5D5D0" stop-opacity="0.1252"/>
            <stop offset="0.9932" stop-color="#FEFBFB" stop-opacity="0.0101"/>
            <stop offset="1" stop-color="white" stop-opacity="0"/>
        </radialGradient>
    </defs>
</svg>
