<svg width="16" height="16" viewBox="0 0 16 16" fill="none" xmlns="http://www.w3.org/2000/svg">
<path d="M4.33398 1.33398L4.85696 2.37993C5.03395 2.73391 5.12245 2.91091 5.24067 3.06428C5.34558 3.20038 5.46759 3.32239 5.60369 3.4273C5.75706 3.54552 5.93405 3.63402 6.28804 3.81101L7.33398 4.33398L6.28804 4.85696C5.93405 5.03395 5.75706 5.12245 5.60369 5.24067C5.46759 5.34558 5.34558 5.46759 5.24067 5.60369C5.12245 5.75706 5.03395 5.93405 4.85696 6.28804L4.33398 7.33398L3.81101 6.28804C3.63402 5.93405 3.54552 5.75706 3.4273 5.60369C3.32239 5.46759 3.20038 5.34558 3.06428 5.24067C2.91091 5.12245 2.73391 5.03395 2.37993 4.85696L1.33398 4.33398L2.37993 3.81101C2.73391 3.63402 2.91091 3.54552 3.06428 3.4273C3.20038 3.32239 3.32239 3.20038 3.4273 3.06428C3.54552 2.91091 3.63402 2.73391 3.81101 2.37993L4.33398 1.33398Z" fill="#0E7090"/>
<path d="M11.334 8.00065L11.9681 9.26882C12.1451 9.6228 12.2336 9.7998 12.3518 9.95317C12.4567 10.0893 12.5787 10.2113 12.7148 10.3162C12.8682 10.4344 13.0452 10.5229 13.3992 10.6999L14.6673 11.334L13.3992 11.9681C13.0452 12.1451 12.8682 12.2336 12.7148 12.3518C12.5787 12.4567 12.4567 12.5787 12.3518 12.7148C12.2336 12.8682 12.1451 13.0452 11.9681 13.3992L11.334 14.6673L10.6999 13.3991C10.5229 13.0452 10.4344 12.8682 10.3162 12.7148C10.2113 12.5787 10.0893 12.4567 9.95317 12.3518C9.7998 12.2336 9.6228 12.1451 9.26882 11.9681L8.00065 11.334L9.26882 10.6999C9.6228 10.5229 9.7998 10.4344 9.95317 10.3162C10.0893 10.2113 10.2113 10.0893 10.3162 9.95317C10.4344 9.7998 10.5229 9.6228 10.6999 9.26882L11.334 8.00065Z" fill="#0E7090"/>
<path d="M12.334 5.33398V2.00065M3.66732 14.0007V10.6673M10.6673 3.66732H14.0007M2.00065 12.334H5.33398M4.33398 1.33398L3.81101 2.37993C3.63402 2.73391 3.54552 2.91091 3.4273 3.06428C3.32239 3.20038 3.20038 3.32239 3.06428 3.4273C2.91091 3.54552 2.73391 3.63402 2.37993 3.81101L1.33398 4.33398L2.37993 4.85696C2.73391 5.03395 2.91091 5.12245 3.06428 5.24067C3.20038 5.34558 3.32239 5.46759 3.4273 5.60369C3.54552 5.75706 3.63402 5.93405 3.81101 6.28804L4.33398 7.33398L4.85696 6.28804C5.03395 5.93405 5.12245 5.75706 5.24067 5.60369C5.34558 5.46759 5.46759 5.34558 5.60369 5.24067C5.75706 5.12245 5.93405 5.03395 6.28804 4.85696L7.33398 4.33398L6.28804 3.81101C5.93405 3.63402 5.75706 3.54552 5.60369 3.4273C5.46759 3.32239 5.34558 3.20038 5.24067 3.06428C5.12245 2.91091 5.03395 2.73391 4.85696 2.37993L4.33398 1.33398ZM11.334 8.00065L10.6999 9.26882C10.5229 9.6228 10.4344 9.7998 10.3162 9.95317C10.2113 10.0893 10.0893 10.2113 9.95317 10.3162C9.7998 10.4344 9.6228 10.5229 9.26882 10.6999L8.00065 11.334L9.26882 11.9681C9.6228 12.1451 9.7998 12.2336 9.95317 12.3518C10.0893 12.4567 10.2113 12.5787 10.3162 12.7148C10.4344 12.8682 10.5229 13.0452 10.6999 13.3991L11.334 14.6673L11.9681 13.3992C12.1451 13.0452 12.2336 12.8682 12.3518 12.7148C12.4567 12.5787 12.5787 12.4567 12.7148 12.3518C12.8682 12.2336 13.0452 12.1451 13.3992 11.9681L14.6673 11.334L13.3992 10.6999C13.0452 10.5229 12.8682 10.4344 12.7148 10.3162C12.5787 10.2113 12.4567 10.0893 12.3518 9.95317C12.2336 9.7998 12.1451 9.6228 11.9681 9.26882L11.334 8.00065Z" stroke="white" stroke-width="0.6" stroke-linecap="round" stroke-linejoin="round"/>
</svg>
