<svg width="13" height="13" viewBox="0 0 13 13" fill="none" xmlns="http://www.w3.org/2000/svg">
<g clip-path="url(#clip0_15412_11039)">
<path d="M3.37044 1.03711L3.7772 1.85062C3.91486 2.12594 3.98369 2.26361 4.07564 2.3829C4.15724 2.48875 4.25214 2.58365 4.35799 2.66524C4.47728 2.75719 4.61494 2.82603 4.89026 2.96369L5.70378 3.37044L4.89026 3.7772C4.61494 3.91486 4.47728 3.98369 4.35799 4.07564C4.25214 4.15724 4.15724 4.25214 4.07564 4.35799C3.98369 4.47728 3.91486 4.61494 3.7772 4.89026L3.37044 5.70378L2.96369 4.89026C2.82603 4.61494 2.75719 4.47728 2.66524 4.35799C2.58365 4.25214 2.48875 4.15724 2.3829 4.07564C2.26361 3.98369 2.12594 3.91486 1.85062 3.7772L1.03711 3.37044L1.85062 2.96369C2.12594 2.82603 2.2636 2.75719 2.3829 2.66524C2.48875 2.58365 2.58365 2.48875 2.66524 2.3829C2.75719 2.2636 2.82603 2.12594 2.96369 1.85062L3.37044 1.03711Z" fill="#1570EF"/>
<path d="M8.81489 6.22229L9.30806 7.20865C9.44573 7.48397 9.51456 7.62163 9.60651 7.74092C9.6881 7.84678 9.783 7.94167 9.88885 8.02327C10.0081 8.11522 10.1458 8.18405 10.4211 8.32171L11.4075 8.81489L10.4211 9.30806C10.1458 9.44573 10.0081 9.51455 9.88885 9.60651C9.783 9.6881 9.6881 9.783 9.60651 9.88885C9.51456 10.0081 9.44573 10.1458 9.30806 10.4211L8.81489 11.4075L8.32171 10.4211C8.18405 10.1458 8.11522 10.0081 8.02327 9.88885C7.94167 9.783 7.84678 9.6881 7.74092 9.60651C7.62163 9.51456 7.48397 9.44573 7.20865 9.30806L6.22229 8.81489L7.20865 8.32171C7.48397 8.18405 7.62163 8.11522 7.74092 8.02327C7.84678 7.94167 7.94167 7.84678 8.02327 7.74092C8.11522 7.62163 8.18405 7.48397 8.32171 7.20865L8.81489 6.22229Z" fill="#1570EF"/>
<path d="M9.59267 4.14822V1.55563M2.85192 10.889V8.29637M8.29637 2.85192H10.889M1.55563 9.59267H4.14822M3.37044 1.03711L2.96369 1.85062C2.82603 2.12594 2.7572 2.2636 2.66524 2.3829C2.58365 2.48875 2.48875 2.58365 2.3829 2.66524C2.2636 2.7572 2.12594 2.82603 1.85062 2.96369L1.03711 3.37044L1.85062 3.7772C2.12594 3.91486 2.26361 3.98369 2.3829 4.07564C2.48875 4.15724 2.58365 4.25214 2.66524 4.35799C2.7572 4.47728 2.82603 4.61494 2.96369 4.89026L3.37044 5.70378L3.7772 4.89026C3.91486 4.61494 3.98369 4.47728 4.07564 4.35799C4.15724 4.25214 4.25214 4.15724 4.35799 4.07564C4.47728 3.98369 4.61494 3.91486 4.89026 3.7772L5.70378 3.37044L4.89026 2.96369C4.61494 2.82603 4.47728 2.7572 4.35799 2.66524C4.25214 2.58365 4.15724 2.48875 4.07564 2.3829C3.98369 2.26361 3.91486 2.12594 3.7772 1.85062L3.37044 1.03711ZM8.81489 6.2223L8.32171 7.20865C8.18405 7.48397 8.11522 7.62163 8.02327 7.74092C7.94167 7.84678 7.84678 7.94167 7.74092 8.02327C7.62163 8.11522 7.48397 8.18405 7.20865 8.32171L6.2223 8.81489L7.20865 9.30806C7.48397 9.44573 7.62163 9.51456 7.74092 9.60651C7.84678 9.6881 7.94167 9.783 8.02327 9.88885C8.11522 10.0081 8.18405 10.1458 8.32171 10.4211L8.81489 11.4075L9.30806 10.4211C9.44573 10.1458 9.51456 10.0081 9.60651 9.88885C9.6881 9.783 9.783 9.6881 9.88885 9.60651C10.0081 9.51456 10.1458 9.44573 10.4211 9.30806L11.4075 8.81489L10.4211 8.32171C10.1458 8.18405 10.0081 8.11522 9.88885 8.02327C9.783 7.94167 9.6881 7.84678 9.60651 7.74092C9.51456 7.62163 9.44573 7.48397 9.30806 7.20865L8.81489 6.2223Z" stroke="#101828" stroke-width="0.6" stroke-linecap="round" stroke-linejoin="round"/>
</g>
<defs>
<clipPath id="clip0_15412_11039">
<rect width="12.4444" height="12.4444" fill="white"/>
</clipPath>
</defs>
</svg>
