<svg width="50" height="16" viewBox="0 0 50 16" fill="none" xmlns="http://www.w3.org/2000/svg">
<g clip-path="url(#clip0_9041_274477)">
<path d="M23.9967 4.67896L21.7253 9.44125L22.2719 4.67892H19.3325L17.2677 9.44125L17.6077 4.67892L14.2954 4.67067L14.295 4.67901L13.8945 12.8413L18.2393 12.8496L19.4054 10.0365L18.9317 12.8496H23.1586L27.4462 4.67896H23.9967Z" fill="#FFCD52"/>
<path d="M35.5559 7.24688H39.7853L40.5019 4.67897H34.7568C33.3356 4.67897 32.449 5.33259 32.0846 6.65152L30.3477 12.8496H33.9915L34.6271 10.5735H38.5221L39.1051 8.47251H35.2183L35.5556 7.24794L35.5559 7.24688Z" fill="#FFCD52"/>
<path d="M49.9995 4.67892H41.0356L40.3594 7.24684H43.2502L41.6429 12.8496H45.2868L46.718 7.72001L45.5559 7.24688H49.3233L49.9995 4.67892Z" fill="#FFCD52"/>
<path d="M28.8996 6.78416H31.1163L31.7048 4.67897H28.0609L25.7773 12.8496H29.4213L30.9776 7.28095L28.8996 6.78416Z" fill="#FFCD52"/>
<path d="M6.92553 7.19349C6.56692 7.19349 5.97407 7.40788 5.7289 7.71342H13.3082V8.76018C13.3082 11.0151 11.3992 12.8496 9.05277 12.8496H0L1.56012 10.519H8.98762C9.34618 10.519 9.86068 10.3021 10.0867 9.99626H2.50536V8.76018C2.50536 6.50518 4.41436 4.67071 6.76087 4.67071H15.9948V7.19349H6.92553Z" fill="#FFCD52"/>
<path d="M35.5852 15.6881L35.6096 15.0757L35.0762 14.1543H35.3807L35.764 14.8217L36.1902 14.1543H36.4948L35.8879 15.0757L35.8634 15.6881H35.5852Z" fill="#002D5D"/>
<path d="M33.7045 15.6881L33.7656 14.1543H34.4286C34.7102 14.1543 34.914 14.2994 34.9045 14.5358C34.8989 14.6776 34.8169 14.8107 34.6436 14.8767L34.6447 14.8492C34.8518 14.9107 34.9587 15.0438 34.951 15.2373C34.9406 15.499 34.7395 15.6881 34.3983 15.6881H33.7045ZM33.9892 15.4671H34.3751C34.5571 15.4671 34.6673 15.3736 34.6732 15.2252C34.6795 15.0691 34.5604 14.9833 34.3726 14.9833H34.0085L33.9892 15.4671ZM34.0172 14.7656H34.379C34.5164 14.7656 34.6204 14.6842 34.6253 14.5622C34.6297 14.4501 34.5504 14.372 34.4084 14.372H34.0329L34.0172 14.7656Z" fill="#002D5D"/>
<path d="M31.5736 15.6881L31.6348 14.1543H32.2359C32.7087 14.1543 32.9686 14.472 32.9507 14.9195C32.9331 15.3626 32.6533 15.6881 32.1644 15.6881H31.5736ZM31.8606 15.4693H32.148C32.464 15.4693 32.6553 15.2659 32.6692 14.9173C32.6824 14.5842 32.5248 14.3731 32.1917 14.3731H31.9043L31.8606 15.4693Z" fill="#002D5D"/>
<path d="M30.1732 15.6881L30.2344 14.1543H31.3576L31.3489 14.3731H30.5039L30.4873 14.7887H31.2796L31.2709 15.0075H30.4786L30.4602 15.4693H31.3418L31.3331 15.6881H30.1732Z" fill="#002D5D"/>
<path d="M28.683 15.6881L28.7441 14.1543H29.4265C29.7174 14.1543 29.9347 14.3313 29.9244 14.5897C29.9179 14.7535 29.8242 14.892 29.6519 14.9635L29.6529 14.9371C29.8341 14.9877 29.8862 15.1163 29.8807 15.2549L29.8718 15.4781C29.8693 15.5418 29.8803 15.6111 29.9321 15.6881H29.639C29.6067 15.6364 29.5898 15.5726 29.5934 15.4836L29.6023 15.2604C29.6072 15.1372 29.5334 15.0625 29.3812 15.0625H28.9862L28.9612 15.6881H28.683ZM28.9949 14.8437H29.3899C29.5342 14.8437 29.6401 14.7414 29.6455 14.6062C29.6509 14.4709 29.5529 14.3731 29.4087 14.3731H29.0136L28.9949 14.8437Z" fill="#002D5D"/>
<path d="M27.2709 15.6881L27.332 14.1543H28.4552L28.4465 14.3731H27.6015L27.585 14.7887H28.3773L28.3686 15.0075H27.5762L27.5578 15.4693H28.4394L28.4307 15.6881H27.2709Z" fill="#002D5D"/>
<path d="M25.4653 15.6881L25.1211 14.1543H25.4108L25.6041 15.135C25.6224 15.2208 25.6427 15.4011 25.651 15.4803H25.6098C25.6241 15.4077 25.6757 15.1779 25.6994 15.0998L25.9798 14.1543H26.2706L26.4745 15.0998C26.492 15.1779 26.5252 15.4077 26.5349 15.4803H26.4937C26.5072 15.4011 26.543 15.2208 26.567 15.135L26.8385 14.1543H27.1293L26.6629 15.6881H26.3641L26.1596 14.7271C26.1442 14.6535 26.1062 14.4314 26.0995 14.3676H26.1316C26.1188 14.4314 26.0652 14.6535 26.044 14.7271L25.763 15.6881H25.4653Z" fill="#002D5D"/>
<path d="M24.1803 15.7159C23.7143 15.7159 23.4455 15.3949 23.4646 14.9155C23.4838 14.434 23.7778 14.125 24.2437 14.125C24.7086 14.125 24.9779 14.434 24.9587 14.9155C24.9396 15.3949 24.6463 15.7159 24.1803 15.7159ZM24.1892 15.4938C24.4789 15.4938 24.6627 15.2465 24.6759 14.9155C24.689 14.5879 24.5291 14.3471 24.2349 14.3471C23.9395 14.3471 23.7604 14.5879 23.7474 14.9155C23.7342 15.2465 23.8984 15.4938 24.1892 15.4938Z" fill="#002D5D"/>
<path d="M22.1322 15.6881L22.1934 14.1543H22.8242C23.1334 14.1543 23.3378 14.3401 23.3269 14.6139C23.3159 14.8876 23.099 15.0746 22.7875 15.0746H22.4349L22.4104 15.6881H22.1322ZM22.4436 14.8558H22.7676C22.9348 14.8558 23.0429 14.7579 23.0486 14.6139C23.0544 14.4687 22.9529 14.3731 22.7869 14.3731H22.4629L22.4436 14.8558Z" fill="#002D5D"/>
<path d="M37.3789 13.897V14.4157H38.3094V15.9551H38.8401V14.4157H39.7706V13.897H37.3789Z" fill="#002D5D"/>
<path d="M40.6517 14.9816V14.369H41.462C41.8609 14.369 41.9192 14.9816 41.3831 14.9816H40.6517ZM41.3619 15.2919C41.3619 15.2919 41.9327 15.4038 42.2151 15.0255C42.4894 14.6578 42.2746 13.897 41.5498 13.897H40.1211V15.9551H40.6517V15.2919C40.6517 15.2919 41.2535 15.8537 42.0779 15.9263C42.2354 15.9401 42.3798 15.9551 42.5129 15.9551V15.4102C42.5127 15.4102 42.0181 15.5911 41.3619 15.2919Z" fill="#002D5D"/>
<path d="M44.7646 13.897V15.4393C44.6708 15.3625 44.518 15.2197 44.518 15.2197C44.518 15.2197 44.2194 15.4276 44.0313 15.4392C44.0313 15.4392 43.7116 15.4616 43.5407 15.3064C43.4434 15.2182 43.3945 15.0719 43.3945 14.8682V13.897H42.8711V14.926C42.8711 15.0624 42.8869 15.1834 42.9184 15.2892C43.1317 16.0041 44.0986 16.2742 44.7646 15.6546V15.955H45.2629V13.897H44.7646Z" fill="#002D5D"/>
<path d="M10.6835 0.0244129L9.39404 1.15406L9.08798 0.0244129H8L8.65444 1.87732L8.21958 2.95117H9.24948L9.68435 1.87732L11.8387 0.0244129H10.6835Z" fill="#002D5D"/>
<path d="M22.2122 0.0241358H19.8944L19.5793 0.802321H21.8445C22.2517 0.802321 22.3942 1.09623 22.2357 1.48751C22.0773 1.8788 21.687 2.13104 21.2799 2.13104H19.9211L20.3607 1.11124H19.4541L18.8722 2.54806H18.874L18.7109 2.95089H21.0269C22.5383 2.96683 22.8132 2.29578 23.1405 1.48751C23.4678 0.67921 23.0524 0.0241358 22.2122 0.0241358Z" fill="#002D5D"/>
<path d="M27.6575 0.940683C27.864 0.430717 27.6012 0.0173447 27.0697 0.0173447H24.1245L23.8129 0.786662H26.7111C26.8005 0.786662 26.8435 0.855725 26.8091 0.940683C26.7743 1.02656 26.6754 1.09563 26.586 1.09563H23.6877L22.9395 2.94318H23.9807L24.4174 1.86494H25.2766L25.6787 2.95117H26.742L26.3214 1.86494C26.853 1.86494 27.4506 1.45148 27.6575 0.940683Z" fill="#002D5D"/>
<path d="M18.5105 0.00939751L17.7734 1.76392L16.4169 -0.000349522H15.5805L14.3887 2.94235H15.2934L16.001 1.1293L17.3873 2.95117H18.2238L19.4153 0.00939751H18.5105Z" fill="#002D5D"/>
<path d="M5.42605 0.796452H8.78263V0.0244129H5.36337C4.52334 0.0244129 3.84057 0.680804 3.84057 1.48779V1.86398H6.84221C6.71012 2.08781 6.46007 2.18014 6.17379 2.18014H3.43801L2.96094 2.95117H6.23652C7.07604 2.95117 7.75931 2.29478 7.75931 1.48779V1.11165H4.7574C4.88926 0.888083 5.13954 0.796452 5.42605 0.796452Z" fill="#002D5D"/>
<path d="M12.225 2.10383L13.0255 0.0244129H12.0525L10.8672 2.95117H14.0272L14.3584 2.10383H12.225Z" fill="#002D5D"/>
</g>
<defs>
<clipPath id="clip0_9041_274477">
<rect width="50" height="16" fill="white"/>
</clipPath>
</defs>
</svg>
