<svg width="20" height="20" viewBox="0 0 20 20" fill="none" xmlns="http://www.w3.org/2000/svg">
<g id="Frame">
<circle id="Ellipse 20" cx="10" cy="4" r="3" fill="#009B5D"/>
<g id="Group">
<path id="Vector" d="M16.24 15.8073V14.983C16.24 13.9601 15.4079 13.1277 14.3847 13.1277H11.8234V7.15039C12.9744 6.48957 13.7513 5.24797 13.7513 3.82812C13.7513 1.71738 12.0341 0 9.9232 0C7.81227 0 6.09508 1.71738 6.09508 3.82812C6.09508 5.24797 6.87207 6.48957 8.02305 7.15059V13.1279H5.61781C4.59484 13.1279 3.76262 13.9601 3.76262 14.983V15.8073H2.10156V20H17.9011V15.8073H16.24ZM9.92324 1.17188C11.3879 1.17188 12.5795 2.36344 12.5795 3.82812C12.5795 5.29281 11.3879 6.48438 9.92324 6.48438C8.45859 6.48438 7.26699 5.29281 7.26699 3.82812C7.26699 2.36344 8.45852 1.17188 9.92324 1.17188ZM9.19492 7.58652C9.43082 7.63215 9.67422 7.65625 9.9232 7.65625C10.1722 7.65625 10.4156 7.63215 10.6515 7.58652V13.1277H9.19488L9.19492 7.58652ZM4.93449 14.983C4.93449 14.6063 5.24105 14.2996 5.61781 14.2996H14.3849C14.7616 14.2996 15.0682 14.6063 15.0682 14.983V15.8073H4.93449V14.983ZM16.7293 18.8281H3.27344V16.9792H16.7293L16.7293 18.8281Z" fill="#1D2939"/>
</g>
</g>
</svg>
