<svg width="4096" height="655" viewBox="0 0 4096 655" fill="none" xmlns="http://www.w3.org/2000/svg">
<path d="M1468.84 77.2733L1112.34 396.313L1040.41 581.201H869.974L941.952 396.313L878.772 210.21H407.859C360.475 210.21 319.039 225.963 297.212 264.675H793.933V329.446C793.844 396.244 767.269 460.281 720.036 507.514C672.803 554.747 608.767 581.321 541.969 581.41H0L78.9324 448.641H531.411C578.796 448.641 620.147 432.762 642.017 394.176H145.505V329.237C145.572 262.432 172.139 198.383 219.377 151.145C266.615 103.907 330.665 77.3399 397.469 77.2733H1013.68L1064.33 271.714L1277.67 77.2314L1468.84 77.2733Z" fill="#002E5D"/>
<path d="M1532.14 435.318L1664.62 77.2734H1503.61L1307.5 581.201H1830.32L1885.16 435.318H1532.14Z" fill="#002E5D"/>
<path d="M3184.7 77.2314H2801.01L2748.85 211.299H3123.65C3191.02 211.299 3214.61 261.91 3188.38 329.279C3162.16 396.648 3097.59 440.052 3030.23 440.052H2805.41L2878.14 264.465H2728.03L2631.67 511.862H2631.96L2604.98 581.243H2988.16C3238.24 583.966 3283.74 468.416 3337.87 329.279C3392 190.142 3323.5 77.2314 3184.7 77.2314Z" fill="#002E5D"/>
<path d="M4084.33 235.012C4118.52 147.03 4075.03 76.0583 3987.09 76.0583H3499.76L3448.18 208.492H3927.77C3942.56 208.492 3949.64 220.391 3943.94 235.012C3938.24 249.634 3921.82 261.7 3907.03 261.7H3427.69L3303.68 579.818H3475.96L3548.23 394.176H3690.38L3756.91 581.201H3932.88L3863.41 394.176C3951.4 394.176 4050.1 322.994 4084.33 235.012Z" fill="#002E5D"/>
<path d="M2572.22 74.8015L2450.26 376.789L2225.82 73H2087.56L1890.1 579.651H2039.8L2157.11 267.482L2386.49 581.201H2524.75L2721.66 74.6758L2572.22 74.8015Z" fill="#002E5D"/>
</svg>
