<svg width="4096" height="1223" viewBox="0 0 4096 1223" fill="none" xmlns="http://www.w3.org/2000/svg">
<g clip-path="url(#clip0_6_397)">
<path d="M1816.89 212.635H1640.1L1593.14 374.312H1769.93L1816.89 212.635Z" fill="white"/>
<path d="M476.232 560.079L331.67 927.905C313.255 990.445 201.38 1024.26 144.752 1022.87L0.190186 1223C256.166 1223 449.069 1125.25 503.395 941.803L672.818 490.127L476.232 560.079Z" fill="white"/>
<path d="M2256.56 895.014H2079.77L2032.81 1056.69H2209.6L2256.56 895.014Z" fill="white"/>
<path d="M2468.8 895.014H2292.01L2245.05 1056.69H2421.84L2468.8 895.014Z" fill="white"/>
<path d="M4095.81 385.43L4053.45 528.577C3999.13 712.027 3800.24 832.011 3543.8 832.011H3461.85L3478.89 773.64C3403.85 801.436 3310.85 832.011 3213.71 832.011H3131.76L3165.36 717.586C3116.1 756.5 3055.79 787.075 2987.19 807.458C2931.95 823.672 2874.86 831.547 2817.31 832.011C2814.55 832.011 2811.79 832.011 2808.56 832.011H2071.94C2071.48 832.011 2071.48 832.011 2071.48 832.011H611.587L676.962 656.899H985.883C999.695 656.899 1009.82 645.781 1013.97 631.883L1027.32 591.58L1076.58 443.337L1089.47 404.424L1129.06 284.903L1301.25 285.367L1266.26 404.424C1266.26 404.424 1266.26 404.424 1266.26 404.887C1265.8 405.814 1265.8 406.74 1265.34 408.593C1264.88 410.909 1263.96 413.689 1263.04 416.932L1262.12 420.638C1261.66 421.564 1261.66 422.491 1261.2 423.417C1260.74 425.27 1260.27 427.123 1259.35 428.976C1258.89 430.83 1257.97 433.146 1257.51 434.999C1257.05 437.315 1256.13 439.631 1255.67 441.948C1254.75 444.264 1254.29 446.58 1253.37 448.897C1248.77 465.111 1243.24 483.641 1237.72 501.708L1235.41 510.047C1233.57 516.069 1231.73 522.091 1230.35 527.65L1228.51 534.599C1228.05 535.526 1228.05 536.915 1227.59 537.842L1224.82 547.107C1224.36 548.034 1224.36 548.96 1223.9 549.887L1213.32 585.558C1208.71 599.919 1202.73 613.816 1196.74 625.398C1195.82 627.251 1188.91 640.685 1188.91 641.148C1186.15 646.244 1183.39 651.34 1180.17 655.973H1192.6C1192.6 655.973 1373.07 655.509 1376.75 655.046C1436.14 649.487 1526.38 616.596 1542.95 561.005L1571.5 455.845L1586.69 403.034H1764.86C1764.86 403.034 1712.38 582.315 1711.92 582.315C1706.85 597.602 1700.41 612.426 1694.42 624.934C1693.5 626.787 1686.59 640.222 1686.59 640.685C1683.83 645.781 1681.07 650.877 1677.85 655.509H1865.69C1924.16 653.656 2025.44 620.302 2042.94 560.542L2204.99 0H2384.54C2384.54 0 2226.63 531.356 2214.66 574.439C2212.82 581.852 2200.39 615.206 2195.32 624.934C2190.26 635.589 2184.74 645.781 2178.75 655.509H2368.43C2426.9 653.656 2528.19 620.302 2545.68 560.542L2588.5 402.571H2768.05C2768.05 402.571 2734.44 514.679 2717.41 573.976C2707.28 610.11 2687.48 645.318 2681.5 655.046H2848.16C2911.23 655.046 2973.38 639.295 3028.17 608.72C3038.76 602.698 3059.01 591.58 3082.95 577.219C3159.84 531.356 3221.07 464.184 3258.82 384.041H3431.93L3358.73 631.883C3415.36 633.736 3531.83 583.241 3550.25 520.701L3590.3 385.894H3761.11L3688.37 632.347C3744.53 634.2 3863.31 578.145 3881.73 515.606L3919.94 385.894H4095.81V385.43Z" fill="white"/>
</g>
<defs>
<clipPath id="clip0_6_397">
<rect width="4096" height="1223" fill="white"/>
</clipPath>
</defs>
</svg>
