<svg width="16" height="16" viewBox="0 0 16 16" fill="none" xmlns="http://www.w3.org/2000/svg">
<g clip-path="url(#clip0_9045_98094)">
<path d="M13.981 8C13.9808 4.69698 11.3031 2.01897 8 2.01897C4.69711 2.01917 2.01917 4.69711 2.01897 8C2.01897 11.3031 4.69698 13.9808 8 13.981C11.3032 13.981 13.981 11.3032 13.981 8ZM7.31473 10.6674V8C7.31493 7.62158 7.62158 7.31493 8 7.31473C8.37859 7.31473 8.68618 7.62146 8.68638 8V10.6674C8.68618 11.0459 8.37858 11.3527 8 11.3527C7.62158 11.3525 7.31493 11.0458 7.31473 10.6674ZM8.0067 4.64844C8.38541 4.64844 8.69308 4.955 8.69308 5.3337C8.69308 5.71241 8.38541 6.01897 8.0067 6.01897H8C7.62146 6.01877 7.31473 5.71229 7.31473 5.3337C7.31473 4.95512 7.62146 4.64864 8 4.64844H8.0067ZM15.3527 8C15.3527 12.0606 12.0606 15.3527 8 15.3527C3.93956 15.3525 0.648438 12.0605 0.648438 8C0.648638 3.93969 3.93969 0.648638 8 0.648438C12.0605 0.648438 15.3525 3.93956 15.3527 8Z" fill="white"/>
</g>
<defs>
<clipPath id="clip0_9045_98094">
<rect width="16" height="16" fill="white"/>
</clipPath>
</defs>
</svg>
